<svg xmlns="http://www.w3.org/2000/svg" xmlns:xlink="http://www.w3.org/1999/xlink" width="313" height="241" version="1.1" viewBox="0 0 313 241"><title>Group 26</title><defs><filter id="filter-1" width="151.7%" height="151.7%" x="-25.9%" y="-25.9%" filterUnits="objectBoundingBox"><feGaussianBlur in="SourceGraphic" stdDeviation="10"/></filter><filter id="filter-2" width="184.5%" height="184.5%" x="-42.3%" y="-42.3%" filterUnits="objectBoundingBox"><feGaussianBlur in="SourceGraphic" stdDeviation="10"/></filter><filter id="filter-3" width="203.4%" height="203.4%" x="-51.7%" y="-51.7%" filterUnits="objectBoundingBox"><feGaussianBlur in="SourceGraphic" stdDeviation="10"/></filter><filter id="filter-4" width="236.4%" height="236.4%" x="-68.2%" y="-68.2%" filterUnits="objectBoundingBox"><feGaussianBlur in="SourceGraphic" stdDeviation="10"/></filter></defs><g id="Home" fill="none" fill-rule="evenodd" stroke="none" stroke-width="1"><g id="HOME---Extra-large:-Desktops---12-col" transform="translate(-198.000000, -1438.000000)"><g id="Group-25" transform="translate(221.000000, 1468.000000)"><circle id="Oval" cx="117" cy="87" r="58" fill="#6CCBB9" filter="url(#filter-1)"/><circle id="Oval" cx="224.5" cy="35.5" r="35.5" fill="#FFF" fill-opacity=".8" filter="url(#filter-2)"/><g id="Group-5" stroke="#000" stroke-linecap="round" stroke-linejoin="round" transform="translate(195.000000, 8.000000)"><path id="Stroke-1" d="M44.9743125,17.5810789 C44.9499375,16.8930965 44.2484792,15.5932719 43.7718125,15.1228333 C43.2897292,14.6496754 42.7236875,14.0949386 42.7074375,13.6353772 C42.6911875,13.1785351 42.4420208,12.2349386 41.3234792,12.2757281 C40.2103542,12.3137982 40.2536875,11.2206404 39.8311875,10.8018684 C39.4059792,10.3858158 38.9022292,9.22467544 38.0436875,9.65704386 C37.1851458,10.0921316 36.9711875,8.60195614 36.1993125,8.34362281 C35.4274375,8.08528947 34.7584792,7.58765789 33.6859792,8.14511404 C32.6161875,8.69985088 32.6405625,7.1172193 32.2749375,6.75827193 C31.9066042,6.39660526 30.8395208,6.29055263 30.3168125,6.88335965 C29.7913958,7.47888596 28.6809792,6.94046491 28.1745208,6.44011404 C27.6653542,5.94248246 26.2813958,6.08116667 25.8886875,6.52441228 C25.4959792,6.97037719 23.9522292,7.28309649 23.1884792,7.31300877 C22.4274375,7.33748246 20.9703542,7.7345 20.9866042,8.13695614 C20.9974375,8.53669298 18.7603542,9.99967544 17.4684792,10.4483596 C16.1766042,10.8943246 16.1061875,11.9902018 16.1332708,12.7407281 C16.1576458,13.4885351 15.3505625,14.5789737 14.4866042,15.5606404 C13.6253542,16.5395877 14.2049375,16.7761667 14.0180625,17.7605526 C13.8366042,18.7476579 14.0586875,18.7966053 13.7174375,20.0175702 C13.3788958,21.2385351 14.5407708,23.207307 14.5407708,23.207307 C14.5407708,23.207307 16.2497292,23.7810789 16.2876458,24.9286228 C16.3309792,26.078886 17.8341042,25.4507281 18.4326458,25.4344123 C19.0311875,25.4072193 20.1903542,25.7716053 21.4334792,26.9898509 C22.6738958,28.2135351 22.8147292,27.5745 23.9332708,26.9028333 C25.0572292,26.2311667 25.4038958,26.8484474 26.1405625,27.5717807 C26.8718125,28.2923947 27.8495208,28.1428333 28.4263958,27.4929211 C29.0032708,26.8348509 30.9180625,26.9980088 31.8957708,26.9626579 C32.8761875,26.9300263 32.5186875,27.5745 32.0691042,28.8009035 C31.6222292,30.0218684 33.1226458,29.252307 33.5830625,29.2332719 C34.0488958,29.2142368 34.0922292,29.7363421 34.8126458,30.8893246 C35.5384792,32.0395877 36.5216042,32.1211667 37.2826458,32.871693 C38.0436875,33.6195 38.7993125,31.8084474 39.6632708,30.8295 C40.5272292,29.8505526 41.7432708,29.461693 43.0757708,29.4154649 C44.4109792,29.3665175 43.8882708,28.4936228 43.8638958,27.7458158 C43.8368125,26.9980088 43.8043125,26.1958158 44.3811875,25.5431842 C44.9607708,24.8878333 45.5213958,24.2515175 44.9445208,23.6804649 C44.3622292,23.1121316 44.9011875,22.4431842 45.3995208,21.8802895 C45.8951458,21.3173947 45.6649375,20.2024825 45.0447292,19.5906404 C44.4245208,18.9842368 44.9986875,18.2717807 44.9743125,17.5810789 Z"/><path id="Stroke-3" stroke-width="2" d="M48.3675833,32.9168333 C52.1294583,26.4122719 52.7063333,25.4115702 51.2140417,15.0483246 C48.5734167,-3.28518421 7.85904167,-7.07316667 5.822375,18.2217456 C5.56508333,20.5902544 4.30570833,27.3259561 1.62445833,30.0207807 C0.733416667,30.9181491 -0.0330416667,31.8916579 0.392166667,32.9440263 C1.05841667,34.5810439 3.06258333,33.8196404 4.69570833,34.1758684 C4.603625,35.0324474 4.06195833,37.5097281 4.06195833,37.7381491 C4.06195833,38.5947281 4.58195833,39.1630614 5.60841667,39.4295526 C4.95570833,40.4792018 4.53320833,41.1998158 5.52445833,42.1977982 C5.90091667,42.5812193 6.07695833,42.7525351 6.07695833,45.1808684 C6.07695833,48.5908684 9.348625,50.1626228 12.1002917,49.7220965 C16.6909167,49.0205175 16.206125,49.5942895 18.09925,51.6663947 C21.3709167,55.261307 19.391125,58.3177982 20.5232083,61.2165702 L20.6640417,61.5945526 L42.6719583,55.0546404 C41.2852917,44.1121842 46.414875,36.2887632 48.3675833,32.9168333 Z"/></g><circle id="Oval" cx="39" cy="152" r="29" fill="#FFF" fill-opacity=".8" filter="url(#filter-3)"/><circle id="Oval-Copy" cx="29" cy="34" r="22" fill="#FFF" filter="url(#filter-4)"/><g id="Group-7" stroke="#000" stroke-linecap="round" stroke-linejoin="round" transform="translate(0.000000, 117.000000)"><path id="Stroke-1" d="M0.496019596,0.498511018 L3.41691366,6.56642406 C3.41691366,6.56642406 7.13441519,13.5912936 16.9055971,7.29964145 C22.1841274,3.90042406 25.2096265,9.87398928 25.2096265,9.87398928"/><path id="Stroke-3" stroke-width="2" d="M58.4667814,41.2729458 C61.470823,48.0120762 59.7971427,55.5652936 52.710823,59.5467719 C45.619139,63.5282501 38.2055934,60.9350328 34.2091451,54.8967719 L21.3775958,33.4798154 C17.8585756,27.1531197 20.7499657,18.7939023 27.8389675,14.8124241 C34.9252872,10.8309458 43.5243564,12.7367719 47.0460588,19.0661632 L58.4667814,41.2729458 Z"/><line id="Stroke-5" x1="31.746" x2="36.23" y1="21.84" y2="29.905"/></g><g id="Group-27" stroke="#000" stroke-linecap="round" stroke-linejoin="round" transform="translate(69.000000, 38.000000)"><line id="Stroke-1" x1="86.833" x2="86.833" y1="99.512" y2="63.567"/><path id="Stroke-3" stroke-width="2" d="M92.6985,10.8687 C92.6985,14.1707 90.0725,18.7770333 86.8355,18.7770333 C83.5985,18.7770333 80.9725,14.1707 80.9725,10.8687 C80.9725,7.57103333 83.5985,4.89303333 86.8355,4.89303333 C90.0725,4.89303333 92.6985,7.57103333 92.6985,10.8687 Z"/><path id="Stroke-5" stroke-width="2" d="M94.421,99.5118 L96.7393333,57.0061333 C96.7696667,56.1524667 99.478,57.2661333 99.5083333,56.4514667 C100.609,26.3911333 98.1563333,24.4801333 97.879,24.2418 C97.554,24.1508 94.876,24.0771333 94.0786667,24.0251333 C92.9953333,23.9558 92.0636667,24.6318 91.5653333,25.6111333 C89.8016667,29.0994667 83.8693333,29.0994667 82.1056667,25.6111333 C81.6073333,24.6318 80.6756667,23.9558 79.5923333,24.0251333 C78.912,24.0684667 60.335,27.1234667 54.485,28.1114667 C52.0713333,28.5188 52.2143333,32.1068 54.641,32.3364667 L76.9316667,34.4164667 L76.9316667,57.0061333 L79.25,99.5118"/><line id="Stroke-7" x1="39.167" x2="39.167" y1="4.5" y2=".249"/><line id="Stroke-9" x1="65.167" x2="65.167" y1="4.5" y2=".249"/><polyline id="Stroke-11" stroke-width="2" points="67.333 78.167 .167 78.167 .167 4.5 71.667 4.5"/><path id="Stroke-13" d="M15.1344333,45.3598667 C12.7944333,45.3598667 10.8964333,43.4618667 10.8964333,41.1175333 C10.8964333,38.7775333 12.7944333,36.8795333 15.1344333,36.8838593 C17.4744333,36.8838593 19.3724333,38.7818667 19.3724333,41.1218667 C19.3724333,43.4618667 17.4744333,45.3598667 15.1344333,45.3598667 Z"/><path id="Stroke-15" d="M36.8604667,30.3730333 C34.5204667,30.3730333 32.6224667,28.4750333 32.6224667,26.1350333 C32.6224667,23.7907 34.5161333,21.8970333 36.8604667,21.8970333 C39.2004667,21.8970333 41.0984667,23.7950333 41.0984667,26.1350333 C41.0984667,28.4750333 39.2004667,30.3730333 36.8604667,30.3730333 Z"/><path id="Stroke-17" d="M54.8117333,64.2441 C52.4717333,64.2441 50.5737333,62.3461 50.5694,60.0061 C50.5694,57.6661 52.4674,55.7681 54.8117333,55.7681 C57.1517333,55.7681 59.0497333,57.6661 59.0497333,60.0061 C59.0497333,62.3461 57.1517333,64.2441 54.8117333,64.2441 Z"/><line id="Stroke-19" x1="32.622" x2="18.703" y1="28.513" y2="38.852"/><line id="Stroke-21" x1="39.158" x2="52.513" y1="29.688" y2="56.455"/><line id="Stroke-23" x1="52.167" x2="52.167" y1="87.379" y2="99.833"/><line id="Stroke-25" x1="37" x2="63" y1="99.833" y2="99.833"/></g><g id="Group-13" stroke="#000" stroke-linecap="round" stroke-linejoin="round" transform="translate(12.000000, 16.000000)"><path id="Stroke-1" stroke-width="2" d="M33.2916667,4.07773333 C33.2916667,2.21765 31.7829167,0.7089 29.9214167,0.7089 L4.07858333,0.7089 C2.21708333,0.7089 0.708333333,2.21765 0.708333333,4.07773333 L0.708333333,29.9219833 C0.708333333,31.7834833 2.21708333,33.2922333 4.07858333,33.2922333 L29.9214167,33.2922333 C31.7829167,33.2922333 33.2916667,31.7834833 33.2916667,29.9219833 L33.2916667,4.07773333 Z"/><line id="Stroke-3" x1=".708" x2="33.292" y1="9.208" y2="9.208"/><line id="Stroke-5" x1="10.633" x2="10.633" y1="5.082" y2="5.082"/><line id="Stroke-7" x1="23.386" x2="23.386" y1="5.082" y2="5.082"/><polyline id="Stroke-9" points="20.455 15.968 23.386 14.886 23.386 27.515"/><path id="Stroke-11" d="M9.44973333,14.88605 L17.0204,14.88605 L12.1017333,20.9224667 C12.1017333,20.9224667 17.5573167,20.49605 17.0204,24.7942167 C16.49765,28.9804667 10.3564,28.0383833 8.9964,25.5266333"/></g></g></g></g></svg>