<svg xmlns="http://www.w3.org/2000/svg" xmlns:xlink="http://www.w3.org/1999/xlink" width="291" height="244" version="1.1" viewBox="0 0 291 244"><title>Group 24</title><defs><filter id="filter-1" width="238.5%" height="238.5%" x="-69.2%" y="-69.2%" filterUnits="objectBoundingBox"><feGaussianBlur in="SourceGraphic" stdDeviation="18"/></filter><filter id="filter-2" width="292.9%" height="292.9%" x="-96.4%" y="-96.4%" filterUnits="objectBoundingBox"><feGaussianBlur in="SourceGraphic" stdDeviation="18"/></filter><filter id="filter-3" width="292.9%" height="292.9%" x="-96.4%" y="-96.4%" filterUnits="objectBoundingBox"><feGaussianBlur in="SourceGraphic" stdDeviation="18"/></filter><filter id="filter-4" width="188.2%" height="188.2%" x="-44.1%" y="-44.1%" filterUnits="objectBoundingBox"><feGaussianBlur in="SourceGraphic" stdDeviation="10"/></filter><filter id="filter-5" width="188.2%" height="188.2%" x="-44.1%" y="-44.1%" filterUnits="objectBoundingBox"><feGaussianBlur in="SourceGraphic" stdDeviation="10"/></filter></defs><g id="Home" fill="none" fill-rule="evenodd" stroke="none" stroke-width="1"><g id="HOME---Extra-large:-Desktops---12-col" transform="translate(-954.000000, -1438.000000)"><g id="Group-24" transform="translate(984.000000, 1468.000000)"><circle id="Oval" cx="103" cy="85" r="39" fill="#5AA8D1" filter="url(#filter-1)"/><circle id="Oval" cx="93" cy="53" r="28" fill="#5AA8D1" filter="url(#filter-2)"/><circle id="Oval" cx="153" cy="115" r="28" fill="#5AA8D1" filter="url(#filter-3)"/><circle id="Oval" cx="197" cy="34" r="34" fill="#FFF" fill-opacity=".6" filter="url(#filter-4)"/><circle id="Oval" cx="34" cy="150" r="34" fill="#FFF" fill-opacity=".6" filter="url(#filter-5)"/><g id="Group-5" stroke="#333" stroke-linecap="round" stroke-linejoin="round" transform="translate(66.000000, 25.000000)"><path id="Stroke-1" stroke-width="2" d="M75.5363864,52.6124323 C74.6389432,51.7108718 73.4423523,51.6068456 71.9216847,53.0879806 C70.4458892,54.5294867 66.1880199,58.6657669 65.7741989,59.0422427 C65.6694972,59.146269 65.5598097,59.225527 65.4251932,59.2899242 C58.8987869,62.5791339 35.3309318,37.5038637 39.8231335,32.7929625 L46.5439858,26.2541722 C47.4115142,25.3971944 47.4165,24.0101782 46.5739006,23.1631077 L24.5815568,0.886637903 C23.748929,0.0346137097 22.3678636,-0.00501532258 21.4754063,0.856916129 C10.5714716,11.4824504 -7.33251989,22.2565935 34.0495824,64.1841097 C50.4229347,80.7787669 73.3725511,100.672541 90.2943409,84.9051399 L90.7131477,84.5187569 C90.9973381,84.2611681 97.4738864,77.9750129 97.6483892,77.7917286 C98.4560881,76.9347508 98.4311591,75.6022246 97.6085028,74.7650613 L75.5363864,52.6124323 Z"/><path id="Stroke-3" d="M90.7126491,84.5207383 C90.7126491,84.5207383 95.7931747,95.9636214 84.5302628,107.153869 C76.7424503,114.896392 64.1882173,112.097591 57.2579616,104.429373 L20.6273224,67.0790105 C20.6273224,67.0790105 12.2661435,60.3569359 4.38360085,67.713075 C4.26394176,67.8270085 4.14926847,67.9359883 4.03958097,68.0499218 C-1.01102983,73.0431798 -1.02598722,81.1770387 4.01465199,86.1851577 L16.8829901,98.9704742"/></g><g id="Group-11" stroke="#000" stroke-linecap="round" stroke-linejoin="round" transform="translate(11.000000, 124.000000)"><path id="Stroke-1" d="M43.3829333,42.3205333 C42.9776,51.8538667 37.8282667,54.2112 28.8762667,54.5232"/><path id="Stroke-3" d="M28.8749333,54.5781333 C28.8749333,55.5621333 28.0776,56.3594667 27.0962667,56.3594667 L23.2989333,56.3594667 C22.3149333,56.3594667 21.5202667,55.5621333 21.5202667,54.5781333 C21.5202667,53.5968 22.3149333,52.8021333 23.2989333,52.8021333 L27.0962667,52.8021333 C28.0776,52.8021333 28.8749333,53.5968 28.8749333,54.5781333 Z"/><path id="Stroke-5" stroke-width="2" d="M8.25786667,42.7944 L4.70586667,42.7944 C2.28986667,42.7944 0.332533333,41.1730667 0.332533333,39.1704 L0.332533333,27.7384 C0.332533333,25.7384 2.28986667,24.1144 4.70586667,24.1144 L8.25786667,24.1144 L8.25786667,42.7944 Z"/><path id="Stroke-7" stroke-width="2" d="M37.6706667,24.1146667 L41.2226667,24.1146667 C43.636,24.1146667 45.596,25.736 45.596,27.7386667 L45.596,39.1706667 C45.596,41.1706667 43.636,42.7946667 41.2226667,42.7946667 L37.6706667,42.7946667 L37.6706667,24.1146667 Z"/><path id="Stroke-9" stroke-width="2" d="M5.65226667,24.1146667 L5.65226667,17.6506667 C5.65226667,8.08533333 13.4069333,0.333333333 22.9696,0.333333333 C32.5349333,0.333333333 40.2869333,8.08533333 40.2869333,17.6506667 L40.2869333,24.1146667"/></g><g id="Group-11" stroke="#000" stroke-linecap="round" stroke-linejoin="round" transform="translate(150.000000, 1.000000)"><path id="Stroke-1" stroke-width="2" d="M79.5189,21.6884 C80.3764,22.5459 80.3764,23.9354 79.5189,24.7929 L45.4464,58.8619 C44.5924,59.7194 43.2029,59.7194 42.3454,58.8619 L22.0524,38.5654 C21.1914,37.7114 21.1914,36.3254 22.0524,35.4679 L56.1214,1.3919 C56.9789,0.5379 58.3684,0.5379 59.2224,1.3919 L79.5189,21.6884 Z"/><polyline id="Stroke-3" points="21.429 36.806 50.881 30.142 57.465 .77"/><line id="Stroke-5" x1="17.9" x2=".75" y1="46.783" y2="63.933"/><line id="Stroke-7" x1="25.11" x2="13.605" y1="53.992" y2="65.496"/><line id="Stroke-9" x1="32.318" x2="26.564" y1="61.2" y2="66.954"/></g></g></g></g></svg>