<?xml version="1.0" encoding="UTF-8"?>
<svg width="291px" height="244px" viewBox="0 0 291 244" version="1.1" xmlns="http://www.w3.org/2000/svg" xmlns:xlink="http://www.w3.org/1999/xlink">
    <title>Group 24</title>
    <defs>
        <filter x="-69.2%" y="-69.2%" width="238.5%" height="238.5%" filterUnits="objectBoundingBox" id="filter-1">
            <feGaussianBlur stdDeviation="18" in="SourceGraphic"></feGaussianBlur>
        </filter>
        <filter x="-96.4%" y="-96.4%" width="292.9%" height="292.9%" filterUnits="objectBoundingBox" id="filter-2">
            <feGaussianBlur stdDeviation="18" in="SourceGraphic"></feGaussianBlur>
        </filter>
        <filter x="-96.4%" y="-96.4%" width="292.9%" height="292.9%" filterUnits="objectBoundingBox" id="filter-3">
            <feGaussianBlur stdDeviation="18" in="SourceGraphic"></feGaussianBlur>
        </filter>
        <filter x="-44.1%" y="-44.1%" width="188.2%" height="188.2%" filterUnits="objectBoundingBox" id="filter-4">
            <feGaussianBlur stdDeviation="10" in="SourceGraphic"></feGaussianBlur>
        </filter>
        <filter x="-44.1%" y="-44.1%" width="188.2%" height="188.2%" filterUnits="objectBoundingBox" id="filter-5">
            <feGaussianBlur stdDeviation="10" in="SourceGraphic"></feGaussianBlur>
        </filter>
    </defs>
    <g id="Home" stroke="none" stroke-width="1" fill="none" fill-rule="evenodd">
        <g id="HOME---Extra-large:-Desktops---12-col" transform="translate(-954.000000, -1438.000000)">
            <g id="Group-24" transform="translate(984.000000, 1468.000000)">
                <circle id="Oval" fill="#5AA8D1" filter="url(#filter-1)" cx="103" cy="85" r="39"></circle>
                <circle id="Oval" fill="#5AA8D1" filter="url(#filter-2)" cx="93" cy="53" r="28"></circle>
                <circle id="Oval" fill="#5AA8D1" filter="url(#filter-3)" cx="153" cy="115" r="28"></circle>
                <circle id="Oval" fill-opacity="0.6" fill="#FFFFFF" filter="url(#filter-4)" cx="197" cy="34" r="34"></circle>
                <circle id="Oval" fill-opacity="0.6" fill="#FFFFFF" filter="url(#filter-5)" cx="34" cy="150" r="34"></circle>
                <g id="Group-5" transform="translate(66.000000, 25.000000)" stroke="#333333" stroke-linecap="round" stroke-linejoin="round">
                    <path d="M75.5363864,52.6124323 C74.6389432,51.7108718 73.4423523,51.6068456 71.9216847,53.0879806 C70.4458892,54.5294867 66.1880199,58.6657669 65.7741989,59.0422427 C65.6694972,59.146269 65.5598097,59.225527 65.4251932,59.2899242 C58.8987869,62.5791339 35.3309318,37.5038637 39.8231335,32.7929625 L46.5439858,26.2541722 C47.4115142,25.3971944 47.4165,24.0101782 46.5739006,23.1631077 L24.5815568,0.886637903 C23.748929,0.0346137097 22.3678636,-0.00501532258 21.4754063,0.856916129 C10.5714716,11.4824504 -7.33251989,22.2565935 34.0495824,64.1841097 C50.4229347,80.7787669 73.3725511,100.672541 90.2943409,84.9051399 L90.7131477,84.5187569 C90.9973381,84.2611681 97.4738864,77.9750129 97.6483892,77.7917286 C98.4560881,76.9347508 98.4311591,75.6022246 97.6085028,74.7650613 L75.5363864,52.6124323 Z" id="Stroke-1" stroke-width="2"></path>
                    <path d="M90.7126491,84.5207383 C90.7126491,84.5207383 95.7931747,95.9636214 84.5302628,107.153869 C76.7424503,114.896392 64.1882173,112.097591 57.2579616,104.429373 L20.6273224,67.0790105 C20.6273224,67.0790105 12.2661435,60.3569359 4.38360085,67.713075 C4.26394176,67.8270085 4.14926847,67.9359883 4.03958097,68.0499218 C-1.01102983,73.0431798 -1.02598722,81.1770387 4.01465199,86.1851577 L16.8829901,98.9704742" id="Stroke-3"></path>
                </g>
                <g id="Group-11" transform="translate(11.000000, 124.000000)" stroke="#000000" stroke-linecap="round" stroke-linejoin="round">
                    <path d="M43.3829333,42.3205333 C42.9776,51.8538667 37.8282667,54.2112 28.8762667,54.5232" id="Stroke-1"></path>
                    <path d="M28.8749333,54.5781333 C28.8749333,55.5621333 28.0776,56.3594667 27.0962667,56.3594667 L23.2989333,56.3594667 C22.3149333,56.3594667 21.5202667,55.5621333 21.5202667,54.5781333 C21.5202667,53.5968 22.3149333,52.8021333 23.2989333,52.8021333 L27.0962667,52.8021333 C28.0776,52.8021333 28.8749333,53.5968 28.8749333,54.5781333 Z" id="Stroke-3"></path>
                    <path d="M8.25786667,42.7944 L4.70586667,42.7944 C2.28986667,42.7944 0.332533333,41.1730667 0.332533333,39.1704 L0.332533333,27.7384 C0.332533333,25.7384 2.28986667,24.1144 4.70586667,24.1144 L8.25786667,24.1144 L8.25786667,42.7944 Z" id="Stroke-5" stroke-width="2"></path>
                    <path d="M37.6706667,24.1146667 L41.2226667,24.1146667 C43.636,24.1146667 45.596,25.736 45.596,27.7386667 L45.596,39.1706667 C45.596,41.1706667 43.636,42.7946667 41.2226667,42.7946667 L37.6706667,42.7946667 L37.6706667,24.1146667 Z" id="Stroke-7" stroke-width="2"></path>
                    <path d="M5.65226667,24.1146667 L5.65226667,17.6506667 C5.65226667,8.08533333 13.4069333,0.333333333 22.9696,0.333333333 C32.5349333,0.333333333 40.2869333,8.08533333 40.2869333,17.6506667 L40.2869333,24.1146667" id="Stroke-9" stroke-width="2"></path>
                </g>
                <g id="Group-11" transform="translate(150.000000, 1.000000)" stroke="#000000" stroke-linecap="round" stroke-linejoin="round">
                    <path d="M79.5189,21.6884 C80.3764,22.5459 80.3764,23.9354 79.5189,24.7929 L45.4464,58.8619 C44.5924,59.7194 43.2029,59.7194 42.3454,58.8619 L22.0524,38.5654 C21.1914,37.7114 21.1914,36.3254 22.0524,35.4679 L56.1214,1.3919 C56.9789,0.5379 58.3684,0.5379 59.2224,1.3919 L79.5189,21.6884 Z" id="Stroke-1" stroke-width="2"></path>
                    <polyline id="Stroke-3" points="21.4287 36.80595 50.8812 30.14195 57.4647 0.76995"></polyline>
                    <line x1="17.89965" y1="46.78305" x2="0.74965" y2="63.93305" id="Stroke-5"></line>
                    <line x1="25.11" y1="53.99165" x2="13.6055" y2="65.49615" id="Stroke-7"></line>
                    <line x1="32.31825" y1="61.1999" x2="26.56425" y2="66.9539" id="Stroke-9"></line>
                </g>
            </g>
        </g>
    </g>
</svg>