<svg xmlns="http://www.w3.org/2000/svg" xmlns:xlink="http://www.w3.org/1999/xlink" width="300" height="262" version="1.1" viewBox="0 0 300 262"><title>Group 10</title><defs><filter id="filter-1" width="187.9%" height="187.9%" x="-44%" y="-44%" filterUnits="objectBoundingBox"><feGaussianBlur in="SourceGraphic" stdDeviation="17"/></filter><filter id="filter-2" width="196.8%" height="196.8%" x="-48.4%" y="-48.4%" filterUnits="objectBoundingBox"><feGaussianBlur in="SourceGraphic" stdDeviation="10"/></filter><filter id="filter-3" width="200%" height="200%" x="-50%" y="-50%" filterUnits="objectBoundingBox"><feGaussianBlur in="SourceGraphic" stdDeviation="10"/></filter></defs><g id="Home" fill="none" fill-rule="evenodd" stroke="none" stroke-width="1"><g id="HOME---Extra-large:-Desktops---12-col" transform="translate(-574.000000, -1423.000000)"><g id="Group-10" transform="translate(600.000000, 1453.000000)"><circle id="Oval" cx="117" cy="94" r="58" fill="#F2AB3F" fill-opacity=".8" filter="url(#filter-1)"/><circle id="Oval" cx="213" cy="31" r="31" fill="#FFF" fill-opacity=".6" filter="url(#filter-2)"/><g id="Group-9" stroke="#000" stroke-linecap="round" stroke-linejoin="round" transform="translate(185.000000, 3.000000)"><path id="Stroke-1" stroke-width="2" d="M32.9004,33.1928644 C31.7677548,32.4057839 31.0249161,31.6771862 30.8312387,31.0484966 L30.8312387,28.5288644 C32.4689161,26.825554 33.7633677,24.449692 34.5258194,21.6668874 C36.364529,20.3534621 36.820529,17.6510713 35.300529,15.7479448 L35.300529,10.1092322 C35.300529,4.2901977 32.1134323,0.303622989 24.8272387,0.303622989 C17.7298194,0.303622989 14.3514968,4.2901977 14.3514968,10.1092322 L14.3514968,15.7503816 C12.8314968,17.6510713 13.2899484,20.3510253 15.1237548,21.6668874 C15.8886581,24.449692 17.1806581,26.825554 18.8207871,28.5288644 L18.8207871,31.0484966 C18.0853032,33.4462897 9.31833548,37.3012782 1.42414194,40.4057379 C0.7524,40.6713471 0.306206452,41.3365885 0.306206452,42.0822437 L0.306206452,44.7358989"/><path id="Stroke-3" stroke-width="2" d="M53.2627613,34.5326069 C49.1563097,30.4534345 42.5026323,30.4534345 38.3986323,34.5326069 C34.2921806,38.6142161 34.2921806,45.2300782 38.3986323,49.3092506 C42.5001806,53.3908598 49.1587613,53.3908598 53.2627613,49.3092506 C57.3692129,45.2300782 57.3667613,38.6142161 53.2627613,34.5326069 Z"/><line id="Stroke-5" x1="44.024" x2="50.768" y1="46.147" y2="38.98"/><line id="Stroke-7" x1="44.024" x2="40.893" y1="46.147" y2="42.818"/></g><circle id="Oval" cx="34" cy="172" r="30" fill="#FFF" fill-opacity=".8" filter="url(#filter-3)"/><g id="Group-16" stroke="#000" stroke-linecap="round" stroke-linejoin="round" transform="translate(0.000000, 154.000000)"><line id="Stroke-1" x1="48.854" x2="42.283" y1="28.513" y2="23.056"/><line id="Stroke-2" x1="42.817" x2="37.461" y1="31.819" y2="27.484"/><g id="Group-15" transform="translate(0.000000, 0.611477)"><path id="Stroke-3" d="M13.5702037,19.75519 C15.4784383,25.1727233 30.8271481,36.89959 30.8271481,36.89959 C34.5301049,39.9966233 37.8741173,35.27069 34.8338272,32.72269 L32.4991543,30.48409"/><path id="Stroke-5" d="M32.4988475,30.4843933 L38.8432673,35.93226 C42.5002056,38.98986 46.058971,34.00306 43.0432241,31.4793267 L44.6446685,32.82006 C47.8352858,35.4893933 52.0352426,30.56326 48.853829,27.8999933 L49.102329,28.10626 C52.2929463,30.7786267 56.4929031,25.8524933 53.3114895,23.1892267 L37.5976994,10.5220267 C37.5976994,10.5220267 34.566613,11.6686267 33.3946747,11.3379933 C33.3946747,11.3379933 28.8695204,18.1993933 25.5623228,15.8151933 C22.2551253,13.4309933 25.5592549,3.27842667 34.8611315,1.82849333 C34.8611315,1.82849333 39.0457488,0.648526667 49.2956068,5.86889333 L53.0936685,4.73139333"/><polygon id="Stroke-7" stroke-width="2" points=".657 22.84 11.794 25.959 18.325 3.157 7.189 .039"/><polygon id="Stroke-9" stroke-width="2" points="70.713 23.449 59.576 26.567 53.045 3.766 64.181 .648"/><path id="Stroke-11" d="M17.8842864,4.69226333 C17.8842864,4.69226333 18.424237,3.72463 30.2356568,3.46983"/><path id="Stroke-13" d="M54.3248173,24.8072067 C54.3248173,24.8072067 57.2515951,25.5594733 58.7886136,23.8213733"/></g></g><g id="Group-9" stroke="#000" stroke-linecap="round" stroke-linejoin="round" transform="translate(83.000000, 45.000000)"><path id="Stroke-1" d="M50.3154667,9.13796667 L45.0374667,9.13796667 L45.0374667,6.2563 C45.0374667,2.89363333 42.1818,0.167966667 38.6674667,0.167966667 L35.4608,0.167966667 C31.9421333,0.167966667 29.0864667,2.89363333 29.0864667,6.2563 L29.0864667,9.13796667 L23.5961333,9.13796667 C15.1894667,9.13796667 15.0594667,21.7566333 23.5961333,21.7566333 L50.3154667,21.7566333 C58.8261333,21.7566333 58.8044667,9.13796667 50.3154667,9.13796667 Z"/><polyline id="Stroke-3" stroke-width="2" points="65.272 13.084 74.073 13.084 74.073 100.089 .051 100.089 .051 13.084 8.766 13.084"/><polyline id="Stroke-5" points="17.955 65.799 28.988 77.963 57.492 43.457"/><line id="Stroke-7" x1="37.062" x2="37.062" y1="7.458" y2="7.458"/></g></g></g></g></svg>