<?xml version="1.0" encoding="UTF-8"?>
<svg width="366px" height="239px" viewBox="0 0 366 239" version="1.1" xmlns="http://www.w3.org/2000/svg" xmlns:xlink="http://www.w3.org/1999/xlink">
    <title>Group 6</title>
    <defs>
        <filter x="-25.9%" y="-25.9%" width="151.7%" height="151.7%" filterUnits="objectBoundingBox" id="filter-1">
            <feGaussianBlur stdDeviation="10" in="SourceGraphic"></feGaussianBlur>
        </filter>
        <filter x="-83.3%" y="-83.3%" width="266.7%" height="266.7%" filterUnits="objectBoundingBox" id="filter-2">
            <feGaussianBlur stdDeviation="10" in="SourceGraphic"></feGaussianBlur>
        </filter>
        <filter x="-83.3%" y="-83.3%" width="266.7%" height="266.7%" filterUnits="objectBoundingBox" id="filter-3">
            <feGaussianBlur stdDeviation="10" in="SourceGraphic"></feGaussianBlur>
        </filter>
        <filter x="-39.5%" y="-39.5%" width="178.9%" height="178.9%" filterUnits="objectBoundingBox" id="filter-4">
            <feGaussianBlur stdDeviation="10" in="SourceGraphic"></feGaussianBlur>
        </filter>
        <filter x="-53.6%" y="-53.6%" width="207.1%" height="207.1%" filterUnits="objectBoundingBox" id="filter-5">
            <feGaussianBlur stdDeviation="10" in="SourceGraphic"></feGaussianBlur>
        </filter>
        <filter x="-65.2%" y="-65.2%" width="230.4%" height="230.4%" filterUnits="objectBoundingBox" id="filter-6">
            <feGaussianBlur stdDeviation="10" in="SourceGraphic"></feGaussianBlur>
        </filter>
        <filter x="-83.3%" y="-83.3%" width="266.7%" height="266.7%" filterUnits="objectBoundingBox" id="filter-7">
            <feGaussianBlur stdDeviation="10" in="SourceGraphic"></feGaussianBlur>
        </filter>
        <filter x="-57.7%" y="-57.7%" width="215.4%" height="215.4%" filterUnits="objectBoundingBox" id="filter-8">
            <feGaussianBlur stdDeviation="10" in="SourceGraphic"></feGaussianBlur>
        </filter>
    </defs>
    <g id="Home" stroke="none" stroke-width="1" fill="none" fill-rule="evenodd">
        <g id="HOME---Extra-large:-Desktops---12-col" transform="translate(-258.000000, -978.000000)">
            <g id="Group-6" transform="translate(280.000000, 1008.000000)">
                <circle id="Oval" fill="#D8A2A1" filter="url(#filter-1)" cx="183" cy="68" r="58"></circle>
                <circle id="Oval" fill="#D8A2A1" filter="url(#filter-2)" cx="146" cy="118" r="18"></circle>
                <circle id="Oval" fill="#D8A2A1" filter="url(#filter-3)" cx="133" cy="141" r="18"></circle>
                <circle id="Oval" fill-opacity="0.8" fill="#FFFFFF" filter="url(#filter-4)" cx="46" cy="88" r="38"></circle>
                <circle id="Oval" fill-opacity="0.8" fill="#FFFFFF" filter="url(#filter-5)" cx="286" cy="58" r="28"></circle>
                <g id="Group-26">
                    <circle id="Oval" fill-opacity="0.8" fill="#FFFFFF" filter="url(#filter-6)" cx="99" cy="23" r="23"></circle>
                    <g id="Group-7" transform="translate(125.000000, 24.000000)" stroke="#000000" stroke-linecap="round" stroke-linejoin="round">
                        <path d="M39,96.5 C39,102.296933 33.1814737,107 26,107 C18.8185263,107 13,102.296933 13,96.5 C13,90.6975145 18.8185263,86 26,86 C33.1814737,86 39,90.6975145 39,96.5 Z" id="Stroke-1"></path>
                        <path d="M12,118.502576 C12,120.98569 9.31571754,123 5.99726651,123 C2.68428246,123 0,120.98569 0,118.502576 C0,116.01431 2.68428246,114 5.99726651,114 C9.31571754,114 12,116.01431 12,118.502576 Z" id="Stroke-3"></path>
                        <path d="M120.899612,45.7508874 C120.215399,39.5778933 116.093433,34.4483768 110.158025,31.3399118 C110.964617,18.4447249 99.5276917,8.72390679 86.2828866,9.15777382 C79.1959979,-1.57906199 62.8583277,-3.11681853 52.9900856,5.82962931 C44.8685335,-3.94610866 27.4961998,0.738556785 26.0777096,13.0351171 C9.78454102,16.9124603 -1.54669298,31.1202323 0.172183461,46.6241134 C1.84099554,61.7106034 15.2971836,72.8648303 31.440159,73.6007566 C36.3742801,78.4337057 45.4526178,79.1256962 52.0499882,75.0616253 C62.5746297,83.8488055 81.6380263,80.4163133 87.640187,68.6689517 C105.396348,72.0410321 122.468295,59.9421834 120.899612,45.7508874 Z" id="Stroke-5" stroke-width="2"></path>
                    </g>
                    <g id="Group-13" transform="translate(0.000000, 54.000000)" stroke="#000000" stroke-linecap="round" stroke-linejoin="round">
                        <path d="M83.1413583,48.038625 L83.1413583,3.717625 C83.1413583,2.15879167 82.0094417,0.956375 80.454525,0.956375 L11.517275,0.956375 C9.95844167,0.956375 8.72469167,2.15879167 8.72469167,3.717625 L8.72469167,48.038625" id="Stroke-1" stroke-width="2"></path>
                        <path d="M50.83865,55.9103417 L50.83865,57.1010083 C50.83865,58.0410083 50.0749,58.796925 49.1349,58.796925 L42.8369,58.796925 C41.8969,58.796925 41.13315,58.0410083 41.13315,57.1010083 L41.13315,55.9103417 L0.9599,55.9103417 L0.9599,60.6103417 C0.9599,62.345425 2.36206667,63.743675 4.08931667,63.743675 L87.8785667,63.743675 C89.6097333,63.743675 91.0119,62.345425 91.0119,60.6103417 L91.0119,55.9103417 L50.83865,55.9103417 Z" id="Stroke-3" stroke-width="2"></path>
                        <polyline id="Stroke-5" points="25 24 27.9845 32.2171667 30.9259167 24 33.9104167 32.2171667 36.8479167 24"></polyline>
                        <polyline id="Stroke-7" points="40 24 42.9845 32.2171667 45.9259167 24 48.9104167 32.2171667 51.8479167 24"></polyline>
                        <polyline id="Stroke-9" points="56 24 58.9884167 32.2171667 61.9259167 24 64.9104167 32.2171667 67.8518333 24"></polyline>
                        <line x1="67.6066833" y1="32.3989833" x2="67.6066833" y2="32.3989833" id="Stroke-11"></line>
                    </g>
                    <g id="Group-11" transform="translate(232.000000, 119.000000)" stroke="#000000" stroke-linecap="round" stroke-linejoin="round">
                        <path d="M13.1919826,33.6669826 C5.13893913,32.267287 0.370113043,25.4523304 0.370113043,17.1527652 C0.370113043,7.83698261 6.76872174,0.370113043 15.1175913,0.370113043 L30.4156348,0.370113043 C38.7617652,0.370113043 45.5301565,7.48911304 45.5301565,16.8048957 C45.5301565,26.1179391 38.7617652,33.2396783 30.4156348,33.2396783 L25.5975043,33.2396783 L13.1919826,45.7410696 L13.1919826,33.6669826 Z" id="Stroke-1" stroke-width="2"></path>
                        <path d="M31.1179478,39.0704652 C33.0682087,41.9985957 36.1935565,44.1953783 39.7160783,44.1953783 L43.8658609,44.1953783 L50.7739478,51.1007261 L50.7739478,43.5927696 C56.1426435,43.3900739 61.2127739,38.119987 61.2127739,31.6446826 C61.2127739,25.0433783 56.4494261,19.8390304 50.5301652,19.8390304" id="Stroke-3"></path>
                        <line x1="11.8503565" y1="16.8043478" x2="33.3251391" y2="16.8043478" id="Stroke-5"></line>
                        <line x1="11.8503565" y1="11.326087" x2="33.3251391" y2="11.326087" id="Stroke-7"></line>
                        <line x1="11.8503565" y1="22.2826087" x2="22.5877478" y2="22.2826087" id="Stroke-9"></line>
                    </g>
                    <g id="Group-7" transform="translate(266.000000, 34.000000)" stroke="#000000" stroke-linecap="round" stroke-linejoin="round">
                        <path d="M42.18995,21.5532167 C42.18995,32.9492167 32.94995,42.1892167 21.5521167,42.1892167 C10.1561167,42.1892167 0.916116667,32.9492167 0.916116667,21.5532167 C0.916116667,10.1553833 10.1561167,0.917216667 21.5521167,0.917216667 C32.94995,0.917216667 42.18995,10.1553833 42.18995,21.5532167 Z" id="Stroke-1" stroke-width="2"></path>
                        <line x1="21.5541333" y1="18.34415" x2="21.5541333" y2="32.5524833" id="Stroke-3"></line>
                        <line x1="21.5541333" y1="13.53165" x2="21.5541333" y2="10.5524833" id="Stroke-5"></line>
                    </g>
                    <g id="Group-19" transform="translate(59.000000, 143.000000)">
                        <circle id="Oval" fill-opacity="0.8" fill="#FFFFFF" filter="url(#filter-7)" cx="18" cy="18" r="18"></circle>
                        <g id="Group-7" transform="translate(5.142857, 2.571429)" stroke="#000000" stroke-linecap="round" stroke-linejoin="round">
                            <path d="M27.1221107,13.8556393 C27.1221107,21.1816393 21.1821107,27.1216393 13.8549321,27.1216393 C6.52893214,27.1216393 0.588932143,21.1816393 0.588932143,13.8556393 C0.588932143,6.52846071 6.52893214,0.589639286 13.8549321,0.589639286 C21.1821107,0.589639286 27.1221107,6.52846071 27.1221107,13.8556393 Z" id="Stroke-1" stroke-width="2"></path>
                            <line x1="13.8562286" y1="11.7926679" x2="13.8562286" y2="20.9265964" id="Stroke-3"></line>
                            <line x1="13.8562286" y1="8.69891786" x2="13.8562286" y2="6.78373929" id="Stroke-5"></line>
                        </g>
                    </g>
                </g>
                <circle id="Oval" fill-opacity="0.8" fill="#FFFFFF" filter="url(#filter-8)" cx="261" cy="143" r="26"></circle>
                <path d="M104.602143,31.9034283 C108.768478,30.9356042 113,26.1358149 113,19.976296 C113,13.5442693 108.00465,8 102.188787,8 L91.5306231,8 C85.7147602,8 81,13.5077477 81,19.9397744 C81,26.3057811 85.7147602,31.8795487 91.5306231,31.8795487 L94.8877818,31.8795487 L104.602143,40 L104.602143,31.9034283 Z" id="Stroke-1" stroke="#000000" stroke-linecap="round" stroke-linejoin="round"></path>
                <text id="?" font-family="Montserrat-Regular, Montserrat" font-size="43" font-weight="normal" letter-spacing="-0.06694138" fill="#333333">
                    <tspan x="174" y="80">?</tspan>
                </text>
            </g>
        </g>
    </g>
</svg>