<svg xmlns="http://www.w3.org/2000/svg" xmlns:xlink="http://www.w3.org/1999/xlink" id="Layer_1" x="0" y="0" version="1.1" viewBox="0 0 1920 1080" xml:space="preserve" style="enable-background:new 0 0 1920 1080"><style type="text/css">.st0{fill:#f1d1d0}.st1{fill:#ef9a9a}.st2{opacity:.5}.st3{fill:#ef9a9a}.st3,.st4{display:none}.st5{display:inline}.st5,.st6{fill:#fff}.st7{fill:none;stroke-width:2;stroke-miterlimit:10}.st7,.st8{stroke:#fff}.st8,.st9{stroke-miterlimit:10}.st8,.st9{fill:#fff;stroke-width:4}.st9{fill:none;stroke:#ef9a9a}.st10{fill:#d4aa8c}.st11{fill:#c6c6c6}.st12{fill:#7994ae}.st13{fill:#6a9cc6}.st14{fill:#8b4c1b}.st15{fill:#7a94af}.st16{fill:#bf9a80}.st17{fill:#00537f}.st18{fill:#74787c}.st19{fill:none;stroke:#74787c;stroke-width:34;stroke-miterlimit:10}.st19,.st20,.st21{stroke-linecap:round}.st20,.st21,.st22{fill:none;stroke:#74787c;stroke-miterlimit:10}.st20{stroke-width:15}.st21{stroke-width:18}.st22{stroke-width:15;stroke-linecap:square}.st23{fill:#262626}.st24{fill:#303030}.st25{fill:#343a40}.st26{fill:#b08a67}.st27{fill:#324b5b}.st28{fill:#09577d}.st29,.st30{fill:none;stroke:#515559;stroke-width:76;stroke-linecap:round;stroke-miterlimit:10}.st30{stroke-width:40}.st31{fill:#6091b2}.st32{fill:#dde2e8}</style><path d="M1509.07,711.16c-55.61,80.45-257.43,250.24-511.35,198.69c-233.91-47.49-428.27-270.33-403.64-485.21	c41.83-364.95,407.36-345.96,680.76-249.93c151.73,53.3,317.9,147.45,313.71,306.39C1585.94,580.29,1558.22,640.05,1509.07,711.16z" class="st0"/><ellipse id="shadow_10_" cx="1080.05" cy="1002.76" class="st1" rx="630.5" ry="21.36"/><g id="Waves_11_" class="st2"><path d="M497.69,93.8c-6.87,7.5-14.38,14.51-22.45,20.78c-8.08,6.27-16.75,11.79-25.9,16.34 c-9.15,4.56-18.77,8.15-28.62,10.7c-9.85,2.56-19.94,4.09-30.03,4.73c-10.11,0.63-20.21,0.42-30.23-0.44 c-10.02-0.86-19.95-2.37-29.78-4.28c-9.83-1.91-19.55-4.25-29.22-6.77c-9.66-2.51-19.26-5.2-28.86-7.83 c-0.47-0.14-0.74-0.61-0.62-1.08c0.13-0.46,0.6-0.74,1.06-0.62c9.68,2.37,19.33,4.84,29.03,7.07c9.7,2.23,19.43,4.25,29.21,5.85 c9.79,1.6,19.63,2.79,29.49,3.34c4.93,0.27,9.85,0.38,14.78,0.32c4.92-0.07,9.83-0.35,14.72-0.83c9.76-0.96,19.42-2.77,28.77-5.54 c9.35-2.78,18.38-6.51,26.9-11.16c8.53-4.64,16.56-10.18,24-16.4c3.73-3.11,7.3-6.4,10.75-9.82c3.44-3.44,6.74-6.98,9.94-10.69 c1.71-1.99,4.71-2.21,6.7-0.5c1.99,1.71,2.21,4.71,0.5,6.7c-0.03,0.03-0.06,0.06-0.08,0.09L497.69,93.8z" class="st1"/><path d="M571.04,140.73c-13.61,7.33-27.72,13.83-42.26,19.23c-14.54,5.4-29.53,9.65-44.78,12.46 c-15.26,2.82-30.78,4.17-46.26,4.09c-15.48-0.07-30.89-1.59-46.09-3.95c-15.2-2.35-30.2-5.51-45.17-8.56 c-14.96-3.05-29.92-5.99-45.03-7.65c-7.54-0.83-15.13-1.33-22.71-1.38c-7.58-0.05-15.17,0.37-22.69,1.33 c-7.52,0.96-14.98,2.47-22.29,4.52c-7.32,2.04-14.48,4.61-21.46,7.62c-0.45,0.2-0.96-0.01-1.15-0.45 c-0.19-0.44,0.01-0.95,0.44-1.15c7-3.16,14.21-5.88,21.58-8.07c7.37-2.2,14.91-3.85,22.54-4.97c7.62-1.13,15.32-1.7,23.03-1.8 c7.71-0.12,15.41,0.25,23.06,0.94c15.33,1.38,30.47,4.05,45.51,6.81c7.53,1.38,15.03,2.79,22.55,4.09 c7.51,1.31,15.02,2.5,22.56,3.49c15.06,1.99,30.2,3.12,45.3,2.85c15.1-0.25,30.14-1.9,44.88-4.99 c14.74-3.08,29.18-7.55,43.17-13.13c14.01-5.57,27.56-12.24,40.73-19.66c2.28-1.29,5.18-0.48,6.46,1.8 c1.29,2.29,0.48,5.18-1.8,6.47c-0.02,0.01-0.04,0.02-0.06,0.04L571.04,140.73z" class="st1"/><path d="M565.01,92.88c-11.07,9.57-22.68,18.62-34.84,26.86c-12.17,8.24-24.93,15.68-38.31,21.88 c-13.37,6.2-27.38,11.14-41.78,14.39c-7.19,1.63-14.48,2.84-21.81,3.62c-7.32,0.79-14.68,1.15-22.03,1.13 c-14.69-0.04-29.28-1.59-43.65-3.9c-14.38-2.3-28.56-5.33-42.75-8.07c-14.19-2.74-28.42-5.16-42.77-6.12 c-7.17-0.47-14.37-0.58-21.55-0.19c-7.18,0.38-14.33,1.26-21.38,2.69c-0.48,0.09-0.94-0.22-1.04-0.69c-0.1-0.47,0.2-0.94,0.68-1.04 c7.1-1.62,14.33-2.68,21.6-3.25c7.27-0.57,14.58-0.63,21.85-0.32c14.57,0.62,29,2.73,43.3,5.13c14.3,2.39,28.52,5.06,42.79,6.97 c7.13,0.96,14.28,1.74,21.43,2.22c7.15,0.49,14.3,0.67,21.43,0.49c14.26-0.35,28.44-2.23,42.2-5.75 c13.76-3.51,27.08-8.62,39.79-14.97c12.73-6.34,24.85-13.87,36.42-22.21c11.57-8.34,22.57-17.46,33.18-27.08 c2.23-2.02,5.69-1.86,7.72,0.38c2.03,2.24,1.86,5.69-0.38,7.73c-0.03,0.02-0.05,0.05-0.08,0.07L565.01,92.88z" class="st1"/></g><g><g><circle cx="1483.55" cy="165.26" r="54" class="st3"/><path d="M1518.97,209.96h-67.26c-5.52,0-10-4.48-10-10v-67.26c0-5.52,4.48-10,10-10h67.26c5.52,0,10,4.48,10,10v67.26 C1528.97,205.49,1524.49,209.96,1518.97,209.96z" class="st1"/><g class="st4"><path d="M1477.94,134.65h11.97v10.67h-11.97V134.65z M1477.94,152.39h11.97v43.23h-11.97V152.39z" class="st5"/></g><g><path d="M1480.84,175.45c-0.75,0-1.36-0.61-1.36-1.36v0c0-4.97,1.98-8.62,7.48-13.52c3.09-2.77,4.01-5,4.01-7.62 c0-2.84-1.63-5.12-5.22-5.12c-3.72,0-5.27,2.29-5.84,5.35c-0.12,0.65-0.68,1.13-1.34,1.13h-7.77c-0.82,0-1.47-0.72-1.35-1.53 c0.88-6.01,5.14-13.21,16.5-13.15c12.18,0.07,15.76,7.94,15.76,13.71c0,4.66-1.52,7.89-6.89,12.86c-3.17,2.99-4.24,5.4-4.24,8.48 v0.78H1480.84z M1479.48,190.24v-9.59c0-0.75,0.61-1.36,1.36-1.36h8.39c0.75,0,1.36,0.61,1.36,1.36v9.59 c0,0.75-0.61,1.36-1.36,1.36h-8.39C1480.09,191.6,1479.48,190.99,1479.48,190.24z" class="st6"/></g></g><g><path d="M1436.45,391.78l-67.9,0c-5.52,0-10-4.48-10-10v-67.9c0-5.52,4.48-10,10-10l67.9,0c5.52,0,10,4.48,10,10v67.9 C1446.45,387.3,1441.98,391.78,1436.45,391.78z" class="st1"/><g><path d="M1400.19,324.12h5.67c1.09,0,1.98,0.88,1.98,1.98v4.63c0,1.09-0.88,1.98-1.98,1.98h-5.67 c-1.09,0-1.98-0.88-1.98-1.98v-4.63C1398.22,325,1399.1,324.12,1400.19,324.12z M1400.19,338.38h5.67c1.09,0,1.98,0.88,1.98,1.98 v30.81c0,1.09-0.88,1.98-1.98,1.98h-5.67c-1.09,0-1.98-0.88-1.98-1.98v-30.81C1398.22,339.26,1399.1,338.38,1400.19,338.38z" class="st6"/></g></g><g><path d="M1275.13,266.39h115.05c6.83,0,12.37-5.54,12.37-12.37v-76.7c0-6.83-5.54-12.37-12.37-12.37h-129.9 c-6.83,0-12.37,5.54-12.37,12.37v76.7v33.57L1275.13,266.39z" class="st1"/><g><circle cx="1304.2" cy="234.84" r="10.52" class="st6"/><circle cx="1336.37" cy="234.84" r="10.52" class="st6"/><circle cx="1368.53" cy="234.84" r="10.52" class="st6"/></g></g><g><path d="M826.04,602.26V330.92c0-9.48,7.68-17.16,17.16-17.16h395.89c9.48,0,17.16,7.68,17.16,17.16v271.34H826.04z" class="st1"/><line x1="847.47" x2="1256.55" y1="351.99" y2="351.99" class="st7"/><circle cx="1202.77" cy="332.26" r="2.52" class="st8"/><circle cx="1217.91" cy="332.26" r="2.52" class="st8"/><circle cx="1233.05" cy="332.26" r="2.52" class="st8"/></g><line x1="1339.55" x2="746.55" y1="602.26" y2="602.26" class="st9"/><g><path d="M1117.93,582.93H851.41c-5.52,0-10-4.48-10-10v-79.17c0-5.52,4.48-10,10-10h266.52c5.52,0,10,4.48,10,10 v79.17C1127.93,578.45,1123.45,582.93,1117.93,582.93z" class="st0"/><g class="st4"><path d="M825.34,569.98h-45c-9.12,0-16.54-7.42-16.54-16.54v-39.01c0-9.12,7.42-16.54,16.54-16.54h45 c9.12,0,16.54,7.42,16.54,16.54v39.01C841.88,562.56,834.46,569.98,825.34,569.98z M780.34,504.15 c-5.67,0-10.28,4.61-10.28,10.28v39.01c0,5.67,4.61,10.28,10.28,10.28h45c5.67,0,10.28-4.61,10.28-10.28v-39.01 c0-5.67-4.61-10.28-10.28-10.28H780.34z" class="st5"/></g><g><path d="M918.17,569.98h-45c-9.12,0-16.54-7.42-16.54-16.54v-39.01c0-9.12,7.42-16.54,16.54-16.54h45 c9.12,0,16.54,7.42,16.54,16.54v39.01C934.71,562.56,927.29,569.98,918.17,569.98z M873.17,504.15 c-5.67,0-10.28,4.61-10.28,10.28v39.01c0,5.67,4.61,10.28,10.28,10.28h45c5.67,0,10.28-4.61,10.28-10.28v-39.01 c0-5.67-4.61-10.28-10.28-10.28H873.17z" class="st6"/></g><g><path d="M1009.25,570.85h-45c-9.12,0-16.54-7.42-16.54-16.54V515.3c0-9.12,7.42-16.54,16.54-16.54h45 c9.12,0,16.54,7.42,16.54,16.54v39.02C1025.79,563.43,1018.37,570.85,1009.25,570.85z M964.25,505.01 c-5.67,0-10.28,4.61-10.28,10.28v39.02c0,5.67,4.61,10.29,10.28,10.29h45c5.67,0,10.28-4.61,10.28-10.29V515.3 c0-5.67-4.61-10.28-10.28-10.28H964.25z" class="st6"/></g><g><path d="M1100.67,570.85h-45c-9.12,0-16.54-7.42-16.54-16.54V515.3c0-9.12,7.42-16.54,16.54-16.54h45 c9.12,0,16.54,7.42,16.54,16.54v39.02C1117.2,563.43,1109.78,570.85,1100.67,570.85z M1055.66,505.01 c-5.67,0-10.28,4.61-10.28,10.28v39.02c0,5.67,4.61,10.29,10.28,10.29h45c5.67,0,10.28-4.61,10.28-10.29V515.3 c0-5.67-4.61-10.28-10.28-10.28H1055.66z" class="st6"/></g><g class="st4"><path d="M813.07,553.24c-0.5,0-1-0.12-1.46-0.36l-10.11-5.32l-10.12,5.32c-1.05,0.55-2.33,0.46-3.29-0.24 c-0.96-0.7-1.45-1.89-1.24-3.06l1.93-11.27l-8.18-7.98c-0.85-0.83-1.16-2.07-0.79-3.2c0.37-1.13,1.35-1.96,2.52-2.13l11.31-1.64 l5.06-10.25c0.53-1.07,1.61-1.74,2.8-1.74l0,0c1.19,0,2.28,0.68,2.8,1.74l5.06,10.25l11.31,1.64c1.18,0.17,2.16,1,2.52,2.13 c0.37,1.13,0.06,2.37-0.79,3.2l-8.18,7.98l1.93,11.27c0.2,1.17-0.28,2.36-1.24,3.06C814.37,553.04,813.72,553.24,813.07,553.24z M789.5,530.29l4.82,4.7c0.74,0.72,1.07,1.75,0.9,2.77l-1.14,6.64l5.97-3.14c0.91-0.48,2-0.48,2.91,0l5.96,3.14l-1.14-6.64 c-0.17-1.01,0.16-2.05,0.9-2.77l4.82-4.7l-6.67-0.97c-1.02-0.15-1.9-0.79-2.35-1.71l-2.98-6.04l-2.98,6.04 c-0.45,0.92-1.33,1.56-2.35,1.71L789.5,530.29z" class="st5"/></g><g><path d="M1066.35,554.56c-0.09,0-0.18,0-0.27-0.01c-0.92-0.08-1.76-0.56-2.29-1.31l-9.18-13.03 c-0.99-1.41-0.66-3.36,0.76-4.36c1.42-1,3.36-0.66,4.36,0.75l7.04,9.99l26.69-26.69c1.22-1.22,3.2-1.22,4.42,0 c1.22,1.22,1.22,3.2,0,4.42l-29.31,29.32C1067.97,554.24,1067.18,554.56,1066.35,554.56z" class="st6"/></g><g><g><line x1="896.18" x2="896.18" y1="554.92" y2="531.23" class="st6"/><path d="M896.18,558.05c-1.73,0-3.13-1.4-3.13-3.13v-23.69c0-1.73,1.4-3.13,3.13-3.13s3.13,1.4,3.13,3.13v23.69 C899.31,556.65,897.91,558.05,896.18,558.05z" class="st6"/></g><g><path d="M905.21,530.93h-19.08c-0.81,0-1.57-0.43-1.97-1.14c-0.41-0.7-0.41-1.57,0-2.28l9.54-16.53 c0.81-1.41,3.13-1.41,3.94,0l9.54,16.53c0.41,0.7,0.41,1.57,0,2.28C906.78,530.5,906.02,530.93,905.21,530.93z M890.07,526.38 h11.2l-5.6-9.7L890.07,526.38z" class="st6"/></g></g><g><g><line x1="986.24" x2="986.24" y1="513.41" y2="537.1" class="st6"/><path d="M986.24,540.23c-1.73,0-3.13-1.4-3.13-3.12v-23.69c0-1.73,1.4-3.13,3.13-3.13s3.13,1.4,3.13,3.13v23.69 C989.36,538.83,987.97,540.23,986.24,540.23z" class="st6"/></g><g><path d="M986.75,558.48c-0.81,0-1.56-0.43-1.97-1.14l-9.54-16.52c-0.41-0.7-0.41-1.57,0-2.27 c0.41-0.71,1.16-1.14,1.97-1.14h19.08c0.81,0,1.57,0.43,1.97,1.14c0.41,0.7,0.41,1.57,0,2.27l-9.54,16.52 C988.32,558.05,987.56,558.48,986.75,558.48z M981.15,541.95l5.6,9.7l5.6-9.7H981.15z" class="st6"/></g></g></g><g><path d="M1230.55,583.26l-80,0c-5.52,0-10-4.48-10-10l0-80c0-5.52,4.48-10,10-10l80,0c5.52,0,10,4.48,10,10v80 C1240.55,578.79,1236.07,583.26,1230.55,583.26z" class="st0"/><g><path d="M1187.92,506.29h6.46c1.24,0,2.25,1.01,2.25,2.25v5.27c0,1.24-1.01,2.25-2.25,2.25h-6.46 c-1.24,0-2.25-1.01-2.25-2.25v-5.27C1185.68,507.3,1186.68,506.29,1187.92,506.29z M1187.92,522.51h6.46 c1.24,0,2.25,1.01,2.25,2.25v35.05c0,1.24-1.01,2.25-2.25,2.25h-6.46c-1.24,0-2.25-1.01-2.25-2.25v-35.05 C1185.68,523.52,1186.68,522.51,1187.92,522.51z" class="st6"/></g></g><g><path d="M1140.89,450.78h90.19c5.36,0,9.7-4.34,9.7-9.7v-60.12c0-5.36-4.34-9.7-9.7-9.7h-101.82 c-5.36,0-9.7,4.34-9.7,9.7v60.12v26.32L1140.89,450.78z" class="st0"/><g><circle cx="1163.67" cy="426.05" r="8.24" class="st6"/><circle cx="1188.89" cy="426.05" r="8.24" class="st6"/><circle cx="1214.1" cy="426.05" r="8.24" class="st6"/></g></g><path d="M1091.55,389.26h-235c-2.76,0-5-2.24-5-5v-8c0-2.76,2.24-5,5-5h235c2.76,0,5,2.24,5,5v8 C1096.55,387.02,1094.31,389.26,1091.55,389.26z" class="st0"/><path d="M1017.55,425.26h-161c-2.76,0-5-2.24-5-5v-8c0-2.76,2.24-5,5-5h161c2.76,0,5,2.24,5,5v8 C1022.55,423.02,1020.31,425.26,1017.55,425.26z" class="st0"/></g><path d="M1049.68,870.4c-45.67-36.32-48.09-61.97-55.6-81.47l29.13-11.49c1.47,6.43,2.99,13.18,4.57,20.2	C1038.85,846.89,1052.49,872.64,1049.68,870.4z" class="st10"/><path d="M1128.73,894.39c0.07,0.69-77.57,29.52-78.2,29.23c-3.82-1.74-7.17-9.38-8.22-13.79l40.18-14.67l-4.35-11.64	c1.5,0.02,3-0.05,4.5-0.21C1090.73,882.43,1127.31,880.77,1128.73,894.39z" class="st11"/><path d="M1029.61,780.71l-33.9,11.62c-6.15-13.86-15.37-24.55-48.41-33.59C922.28,751.89,839,745,824.21,722.47	c-2.17-3.3-14.1-17.67-4.36-21.27c17.97-6.65,137.36-2.4,175.34,4.7C1009.11,708.5,1018.34,737.55,1029.61,780.71z" class="st12"/><path d="M1078.05,883.86l5.75,11.87l-41.15,14.34c-0.52-2.48-4.18-13.3-6.94-15.83c-16.9-15.47-28.15-29.9-42.17-46.88	c-7.24-8.77-13.35-17.88-18.37-26.42l51.44-21.33c1.8,5.14,3.75,10.64,5.86,16.54C1039.63,836.14,1051.3,874.85,1078.05,883.86z" class="st10"/><path d="M1021.82,802.8l-51.44,21.33c-12.63-21.44-18.45-39.3-18.45-39.3c-10.84-0.5-192.6,40.05-246.89,7.17	c-32.5-19.69-24.76-50.32-23.28-68.61c0.23-2.85,15.1-2.08,20.05-2.36c168.68-9.42,274.12-15.9,284.46-4.56	C999.86,731.38,999.28,738.43,1021.82,802.8z" class="st13"/><path d="M742.46,516.14c9.75-4.45,21.02-1.55,27.78,5.65c9.26,9.87,8.27,25.94,0.49,33.4	c-11.33,10.87-37.43,3.83-41.82-11.92C726.28,533.85,731.42,521.18,742.46,516.14z" class="st14"/><path d="M736.89,545.88c1.93-1.15,8.01-4.68,16.51-4.66c6.33,0.01,10.93,1.99,11.9,2.42	c9.1,4.05,13.28,11.92,15.45,16.03c5.11,9.64,4.92,18.39,4.84,20.43c-0.2,4.81-0.42,10.42-3.32,13.91	c-10.35,12.46-58.47,2.17-61.83-19.88C718.86,563.77,727.29,551.61,736.89,545.88z" class="st15"/><path d="M746.51,518.91c1.73,3.14-2.45,6.59-2.29,14.85c0.05,2.47,2.48,6.97,8.63,17.31	c6.94,11.67,15.71,21.92,34.03,35.86c4.32,3.29,5.22,3.72,5.17,5.67c-0.13,4.37-17.39,9.43-30.11,8.21	c-34.57-3.31-66.1-55.84-54.45-75.26C715.15,512.77,742.8,512.18,746.51,518.91z" class="st10"/><path d="M755.45,638.2c12.84,1.4,80.47,19.06,100.31,23.1c3.7,0.75,8.5,1.6,13.74-0.61c8.07-3.39,9.9-3.94,15.25-2.87	c7.99,1.6,20.29,6.21,24.3,8c2.36,1.05,6.31,6.67,3.66,9.57c-0.94,1.02-18.22-0.08-49.38,1.3c-23.55,1.04-19.65,2.09-38.27,1.69	c-40.49-0.87-59.88-0.64-68.44-13.69C751.42,656.76,747.86,637.37,755.45,638.2z" class="st16"/><path d="M668.37,597.08c-5.03-18.11-1.99-36.11,11.74-45.74c10.41-7.3,26.9-7.6,35.41,0.4	c7.75,7.29,11.7,20.13,11.7,20.13c5.44,0.94,16.72,0.24,17.05-14.52c0.17-7.65,9.91,10.48,24.46,19.56	c16.18,10.1,33.14,14.23,37.39,22.93c10.81,22.13-5.26,36.61-5.26,36.61c1.83,6.83,3.16,7.92,5.69,17.44	c2.09,7.87,2.46,17.06,0.95,21.59c-6.77,20.31-119.1,70.55-122.42,58.22C675.67,698.72,675.38,622.33,668.37,597.08z" class="st13"/><path d="M749.7,448.95c3.42,1.33,7.54,1.77,11.26,8.4c1.99,3.56,4.73,11.3,7.19,14.38c4.42,5.53,7.52,5.1,7.19,10.38	c-0.51,8.08-5.57,10.01-10.87,24.1c-3.15,8.38-1.51,6.9-6.04,12.51c-4.23,5.22-10.68,6.46-15.74,7.36	c-4.93,0.88-23.79,4.23-36.76-7.57c-14.58-13.27-14.56-39.19-2-55.26C715.84,447.99,737.14,444.06,749.7,448.95z" class="st10"/><path d="M667.17,592.22c0.15,1.38-11.44-25.47-13.51-38.73c-4.11-26.36,9.45-30.89,9.45-30.89s-6.49-13.48-1.17-26.49	c5.66-13.85,16.97-16.48,16.97-16.48s-5.56-14.5,6.59-28.8c13.95-16.42,29.13-8.17,29.13-8.17s2.41-3.15,4.78-3.16	c2.92-0.01,5.04,2.73,5.04,2.73s-3.65-11.91,13.13-14.34c9.77-1.41,16.02,17.94,12.73,21.07c-1.89,1.79-7.85,0.35-7.85,0.35	s8.2,7.5-11.8,22.15c-6.39,4.68-8.11-5.54-12.84-1.4c-1.89,1.65-4.58,4.95-5.5,9.09c-1.04,4.74,1.46,10.75,1.46,10.75	s10.78,6.43,14.43,15.09c3.4,8.07-0.07,20.65-0.07,20.65s10.81,3.47,16.26,12.06c5.13,8.08,5.8,24.34-1.6,30.55	c-5.45,4.56-15.73,6.51-16.59,2.7c-4.88-21.41-26.05-25.75-36.45-23.95C677.27,549.14,665.54,577.54,667.17,592.22z" class="st14"/><path d="M708.81,794.08v21.52c0,2.28,2.21,4.13,4.94,4.13h234.46c3.12,0,5.31-7.26,4.85-9.84	c-2.73-15.38-23.48-38.47-41.44-38.11c-59.16,1.16-177.57,14.13-199.84,18.52C709.9,790.67,708.81,792.43,708.81,794.08z" class="st17"/><path d="M615.35,497.94l55.45,287.02c0.66,3.4,3.5,5.69,6.59,5.3l7.36-0.92c3.07-0.38,5.39-3.29,5.39-6.74	c-0.02-21.09-0.61-93.42-7.42-158.8c-4.36-41.83-38.58-114.08-47.63-132.59c-1.29-2.63-3.96-4-6.58-3.37l-8.52,2.04	C616.73,490.67,614.64,494.28,615.35,497.94z" class="st17"/><polygon points="791.79 828.31 778.04 894.66 893.87 894.66 887.91 828.31" class="st18"/><path d="M729.69,799.43v-78.88c0-1.55,1.04-2.86,2.41-3.05l142.08-19.45" class="st19"/><path d="M950.01,837.52H692.7c-1.73,0-3.37-0.88-4.42-2.41c-5.23-7.62-13.53-16.02,6-16.02h255.5	c10.1,0,8.26,3.81,8.46,8.77C958.47,833.15,954.7,837.52,950.01,837.52z" class="st18"/><path d="M911.79,887.29h-229.5c-7.81,0-12.24,10.02-7.48,16.96l33.11,48.34c1.78,2.61,4.55,4.13,7.48,4.13h225.96	c7.58,0,12.06-9.5,7.78-16.5l-29.57-48.34C917.82,889.01,914.9,887.29,911.79,887.29z" class="st18"/><path d="M950.86,828.31h19.9c1.09,0,2.07,0.72,2.51,1.83l57.48,114.79c0.59,1.48,2.11,2.2,3.47,1.64l40.63-14.6" class="st20"/><path d="M697.37,828.31l-26.9,4.92c-1.52,0-2.75-1.38-2.75-3.07l-3.3-16.59c0-1.7,1.23-3.07,2.75-3.07l15.3-3.69	c1.71,0,3.01-1.73,2.7-3.62l-6.84-35.4" class="st20"/><polyline points="715.57 906.85 646.02 906.85 629.54 940.17" class="st21"/><line x1="1046.31" x2="1119.18" y1="930.67" y2="903.43" class="st22"/><path d="M1103.7,909.67l-37.49,13.38c-2.6,0.93-5.46-0.43-6.39-3.03l-4.08-11.43c-0.93-2.6,0.43-5.46,3.03-6.39	l37.49-13.38c2.6-0.93,5.46,0.43,6.39,3.03l4.08,11.43C1107.65,905.88,1106.3,908.75,1103.7,909.67z" class="st18"/><line x1="873.98" x2="919.1" y1="698.48" y2="692.96" class="st20"/><rect width="22.36" height="22.36" x="890.35" y="669.8" class="st18" transform="matrix(0.9915 -0.1298 0.1298 0.9915 -80.7738 122.7955)"/><ellipse cx="729.97" cy="799.12" class="st23" rx="6.87" ry="7.68"/><ellipse cx="678.32" cy="767.78" class="st23" rx="2.47" ry="2.76"/><ellipse cx="681.07" cy="783.14" class="st23" rx="2.47" ry="2.76"/><path d="M901.53,678.47" class="st23"/><g><ellipse cx="914.39" cy="933.07" class="st18" rx="56.2" ry="56.2" transform="matrix(0.1602 -0.9871 0.9871 0.1602 -153.0952 1686.1909)"/><path d="M914.39,892.87c22.16,0,40.2,18.03,40.2,40.2s-18.03,40.2-40.2,40.2s-40.2-18.03-40.2-40.2 S892.23,892.87,914.39,892.87 M914.39,860.87c-39.87,0-72.2,32.32-72.2,72.2s32.32,72.2,72.2,72.2s72.2-32.32,72.2-72.2 S954.27,860.87,914.39,860.87L914.39,860.87z" class="st24"/></g><g><path d="M621.31,992.53c-16.19,0-29.36-13.17-29.36-29.36c0-16.19,13.17-29.36,29.36-29.36s29.36,13.17,29.36,29.36 C650.67,979.36,637.5,992.53,621.31,992.53z" class="st18"/><path d="M621.31,945.31c9.85,0,17.86,8.01,17.86,17.86s-8.01,17.86-17.86,17.86s-17.86-8.01-17.86-17.86 S611.46,945.31,621.31,945.31 M621.31,922.31c-22.57,0-40.86,18.29-40.86,40.86c0,22.57,18.29,40.86,40.86,40.86 c22.57,0,40.86-18.29,40.86-40.86C662.17,940.61,643.87,922.31,621.31,922.31L621.31,922.31z" class="st24"/></g><path d="M736.38,702.79c-12.22,0.41-18.66-19.45-16.9-30.46c2.17-13.53,13.12-22.04,18.3-22.72	c36.03-4.75,98.89,13.7,109.86,14.24c10.28,0.5,22.95,1.93,43.49-0.78c3.89-0.51,15.97,10.28,17.51,12.55	c2.46,3.64,5.59,7.81,3.1,8.51c-6.69,1.87-12.84-7.22-17.84-7.55c-0.08-0.01,8.1,8.84,8.49,11.76c0.29,2.18-5.78,7.74-8.97,7.13	c-3.05-0.59-3.8-8.63-5.05-8.25c-1.15,0.35,0.31,9.87-1.51,11.1c-2.57,1.74-9.67,2.44-8.89,0.18c0.72-2.08,2.44-7.14,1.51-11.1	c-0.83-3.53-8.2-0.9-9.99-0.66C846.12,689.8,761.53,701.95,736.38,702.79z" class="st10"/><g><g><g><path d="M268.49,232.97h-2.2c-0.19-0.39-0.29-2.08-0.34-5.26c-1.2,2.28-3.81,5.64-10.67,5.64 c-9.51,0-14.4-7.24-14.4-16.66c0-9.89,5.22-17.32,14.93-17.32c7.17,0,11.91,3.76,12.95,9.86h-2.65 c-1.4-4.63-4.64-7.42-10.39-7.42c-8.25,0-11.99,6.42-11.99,14.74c0,7.53,3.61,14.37,11.67,14.37c8.23,0,10.53-5.37,10.53-12.61 v-0.38h-10.62v-2.44h13.18V232.97z" class="st17"/><path d="M276.53,221.43c0.05,6.04,3.09,9.81,7.61,9.81c4.41,0,5.91-2.48,6.76-4.41h2.51 c-0.99,3.12-3.5,6.7-9.37,6.7c-7.21,0-10.02-6.2-10.02-12.22c0-6.79,3.37-12.6,10.3-12.6c7.31,0,9.65,6.29,9.65,10.78 c0,0.67,0,1.33-0.05,1.94H276.53z M291.41,219.31c-0.05-4.65-2.57-8.31-7.18-8.31c-4.84,0-7.04,3.38-7.56,8.31H291.41z" class="st17"/><path d="M296.18,209.28h4.39v-7.37h2.46v7.37h5.61v2.29h-5.61v15.31c0,2.63,0.57,4.13,2.83,4.13 c0.7,0,1.69-0.05,2.44-0.28v2.14c-0.82,0.33-1.97,0.43-2.97,0.43c-3.07,0-4.77-1.54-4.77-5.33v-16.39h-4.39V209.28z" class="st17"/><path d="M309.96,209.28h4.39v-7.37h2.46v7.37h5.61v2.29h-5.61v15.31c0,2.63,0.57,4.13,2.83,4.13 c0.7,0,1.69-0.05,2.44-0.28v2.14c-0.82,0.33-1.97,0.43-2.97,0.43c-3.07,0-4.77-1.54-4.77-5.33v-16.39h-4.39V209.28z" class="st17"/><path d="M327.25,198.09h2.46v4.62h-2.46V198.09z M327.25,209.28h2.46v23.68h-2.46V209.28z" class="st17"/><path d="M337.43,215.25c0-2.08,0-4.08-0.05-5.97h2.41c0.1,0.75,0.14,3.8,0.1,4.47c1.04-2.39,2.98-5.04,7.84-5.04 c4.23,0,7.96,2.39,7.96,8.91v15.34h-2.46v-14.95c0-4.18-1.73-6.91-5.83-6.91c-5.57,0-7.51,4.62-7.51,9.76v12.1h-2.46V215.25z" class="st17"/><path d="M381.59,231.33c0,7.58-3.35,11.58-10.27,11.58c-6.21,0-8.75-3.49-9.31-7.07h2.51 c0.84,3.23,3.51,4.78,6.9,4.78c6.12,0,7.8-3.95,7.8-9.93v-2.43c-1.28,3.06-3.59,4.71-7.88,4.71c-5.56,0-9.81-4.51-9.81-11.83 c0-7.95,4.54-12.41,10.14-12.41c4.81,0,6.89,2.27,7.55,4.14c0.05-1.36,0.1-3.01,0.14-3.58h2.32c0,0.88-0.09,4.59-0.09,6.87 V231.33z M364.14,221.03c0,5.6,2.96,9.64,7.47,9.64c5.88,0,7.66-3.9,7.66-10.01c0-6.2-1.87-9.64-7.52-9.64 C366.36,211.01,364.14,215.64,364.14,221.03z" class="st17"/><path d="M402.71,224.05c0.99,4.38,3.91,6.96,9.32,6.96c6.01,0,8.31-3,8.31-6.57c0-3.72-1.65-6.01-8.91-7.8 c-7.05-1.76-10.06-4.05-10.06-8.82c0-4.38,3.19-8.45,10.31-8.45c7.32,0,10.4,4.45,10.83,8.49h-2.75 c-0.75-3.52-3.04-6.06-8.23-6.06c-4.74,0-7.32,2.2-7.32,5.86c0,3.61,2.16,5.02,8.25,6.53c9.33,2.32,10.72,6.05,10.72,10.04 c0,4.9-3.57,9.11-11.26,9.11c-8.28,0-11.34-4.81-11.96-9.29H402.71z" class="st17"/><path d="M425.92,209.28h4.39v-7.37h2.46v7.37h5.61v2.29h-5.61v15.31c0,2.63,0.57,4.13,2.83,4.13 c0.7,0,1.69-0.05,2.44-0.28v2.14c-0.82,0.33-1.97,0.43-2.97,0.43c-3.07,0-4.77-1.54-4.77-5.33v-16.39h-4.39V209.28z" class="st17"/><path d="M459.54,228.43c0,2.09,0.19,3.78,0.33,4.54h-2.36c-0.19-0.57-0.33-1.61-0.42-3.62 c-0.81,1.74-2.88,4.19-7.74,4.19c-5.5,0-7.87-3.56-7.87-7.11c0-5.21,4.03-7.59,11.13-7.59c1.97,0,3.53,0,4.47,0v-2.39 c0-2.35-0.71-5.49-6.05-5.49c-4.74,0-5.45,2.48-5.96,4.42h-2.46c0.29-2.64,1.92-6.65,8.47-6.65c5.42,0,8.46,2.28,8.46,7.5V228.43 z M457.13,220.92c-0.89,0-3.05,0-4.6,0c-5.23,0-8.46,1.37-8.46,5.4c0,2.96,2.11,4.98,5.4,4.98c6.72,0,7.65-4.46,7.65-9.54V220.92 z" class="st17"/><path d="M467.31,215.72c0-3.94-0.05-5.66-0.05-6.44h2.41c0.05,0.75,0.1,2.29,0.1,5.28 c1.37-3.53,4.39-5.66,8.23-5.85v2.64c-4.92,0.32-8.23,3.68-8.23,9.34v12.27h-2.46V215.72z" class="st17"/><path d="M479.21,209.28h4.39v-7.37h2.46v7.37h5.61v2.29h-5.61v15.31c0,2.63,0.57,4.13,2.83,4.13 c0.7,0,1.69-0.05,2.44-0.28v2.14c-0.82,0.33-1.97,0.43-2.97,0.43c-3.07,0-4.77-1.54-4.77-5.33v-16.39h-4.39V209.28z" class="st17"/><path d="M497.14,221.43c0.05,6.04,3.09,9.81,7.61,9.81c4.41,0,5.91-2.48,6.76-4.41h2.51 c-0.99,3.12-3.5,6.7-9.37,6.7c-7.21,0-10.02-6.2-10.02-12.22c0-6.79,3.37-12.6,10.3-12.6c7.31,0,9.65,6.29,9.65,10.78 c0,0.67,0,1.33-0.05,1.94H497.14z M512.02,219.31c-0.05-4.65-2.57-8.31-7.18-8.31c-4.84,0-7.04,3.38-7.56,8.31H512.02z" class="st17"/><path d="M538.68,198.09v28.06c0,2.27,0,4.45,0.05,6.81h-2.36c-0.1-0.57-0.14-2.78-0.15-3.95 c-1.18,2.87-3.82,4.51-7.93,4.51c-6.15,0-9.85-5.02-9.85-12.13c0-7.29,4.03-12.69,10.48-12.69c4.71,0,6.6,2.02,7.31,3.52v-14.15 H538.68z M521.04,221.31c0,6.45,3.33,9.93,7.38,9.93c6.21,0,7.89-4.3,7.89-10.67c0-6.06-1.45-9.56-7.47-9.56 C524.18,211.01,521.04,214.73,521.04,221.31z" class="st17"/></g></g></g><polygon points="1503.46 866.72 1552.07 1014.42 1534.13 1014.42 1483.11 866.72" class="st25"/><path d="M1373.53,930.29c11.35,1.18,18.13,9.57,18.7,10.28c4.37,5.57,5.42,11.67,5.61,14.02l-86.94,50.48	c-1.52-0.96-6.54-4.12-6.54-8.41c0-1.87,0.19-3.19,4.67-7.48c5.21-4.99,10.84-7.85,11.22-8.41c9.35-14.02,21.5-29.91,30.85-43	C1353.53,934.35,1362.75,929.17,1373.53,930.29z" class="st11"/><path d="M1276.08,974.67c9.23,6.7,10.91,17.36,11.04,18.26c0.99,7.01-1.16,12.81-2.16,14.95l-100.53,0.18	c-0.83-1.59-3.6-6.84-1.45-10.56c0.94-1.62,1.76-2.66,7.79-4.13c7.01-1.71,13.32-1.37,13.92-1.67	c15.11-7.46,33.59-15.13,48.23-21.78C1256.75,968.17,1267.32,968.31,1276.08,974.67z" class="st6"/><path d="M1249.2,941.51c1.87,14.96,2.8,23.37,5.61,36.46c1.73,8.06,24.31,5.93,24.3-2.8	c-0.01-12.25,0-19.63-1.87-34.59L1249.2,941.51z" class="st26"/><path d="M1335.93,911.84c7.54,13.06,11.67,20.45,19.39,31.41c4.75,6.75,25.56-4.23,22.2-12.29	c-4.72-11.3-7.55-18.12-15.09-31.18L1335.93,911.84z" class="st26"/><path d="M1355.77,860.18c0,0.93,23.39,53.92,23.39,53.92l-43.02,16.19l-38.33-67.31L1355.77,860.18z" class="st27"/><path d="M1246.39,746.13c-17.76,3.74-29.91,12.15-29.91,25.24c0,42.77,22.44,175.74,22.44,175.74l0,0l50.48-0.93	c-6.54-73.85-10.28-116.85-12.15-148.63C1271.2,779.18,1262.67,742.71,1246.39,746.13z" class="st28"/><polygon points="1303.97 866.72 1255.37 1014.42 1273.31 1014.42 1324.33 866.72" class="st25"/><line x1="1495.83" x2="1283.79" y1="833.07" y2="832.13" class="st29"/><path d="M1275.37,797.55c20.57,0.93,150.5,14.02,170.13,13.09c31.17-1.48,45.16-5.56,56.05-33.37c9-23,1.98-42.8-13-49	c-32.93-13.62-85.11-10.17-173.92,4.78c-12.12,2.04-68.24,13.09-68.24,13.09S1270.6,797.33,1275.37,797.55z" class="st28"/><line x1="1550.55" x2="1510.79" y1="624.26" y2="835.87" class="st30"/><path d="M1309.93,549.63c-15.37-10.36-29.9-28.44-43.45-39.15c-6.15-4.86-25.28-21.33-34.02-21.07	c-2.61,0.08-16.53,1.3-20.67,4.16c-3.74,2.58,5.21,17.54,8.43,21.65c6.17,7.87,10.4-5.57,38.74,15.36	c3.35,2.47,17.31,35.46,23.23,37.7L1309.93,549.63z" class="st10"/><path d="M1393.49,528.34c-10.44,7.83-26.11,30.46-34.81,58.31c-4.07,13.04,3.71,12.22,4.35,23.5	c0.53,9.37,0.87,7.53,0.87,17.41c0,28.72-0.54,44,0.87,50.48c4.35,20.02,0,42.64,0,42.64s16.73,0.64,19.15,0	C1417.18,711.87,1415.01,512.19,1393.49,528.34z" class="st31"/><path d="M1371.55,572.26c-0.3-3.25,1.73-7.7,11.5-19.56c9.81-11.92,13.05-20.02,13.05-20.89	c0,0-28.72,12.18-33.07-19.15c-0.97-6.99-11.31-5.22-11.31-13.05c0-6.09,6.45-4.99,6.09-12.18c-0.87-17.41,12.39-33.81,16.54-34.81	c3.67-0.88,17.87-7,37.42-5.22c9.57,0.87,15.48,9.64,17.41,14.79c6.26,16.78-8.5,39.7-6.96,50.48c0.87,6.09,18.21,13.02,20.02,14.79	c7.73,7.6,13.33,49.8-30.46,55.7C1393.1,585.68,1372.37,581.08,1371.55,572.26z" class="st10"/><path d="M1387.55,534.26c-39,8-25.42,30.97-54,33c0,0-33-25-39.04-31.46c-2.59-2.77-24.15,17.88-24.15,17.88	c9.84,22.25,56.28,59.14,66.19,59.58c9.24,0.41,24-7.4,39-29" class="st31"/><path d="M1470.07,544c-1.01-1.56-4.35-4.35-13.92-9.57c-9.76-5.32-14.05-9.41-16.54-8.7	c-6.09,1.74-7.06,20.54-13.06,39.54c0,0-27.84,4.85-53.95,1.37c0,0-13.05,13.92-16.54,27.85c-2.67,10.68,8.7,37.42,16.54,47	c0,0-0.63,13.8-1.74,36.55c-0.95,19.54,1.69,45.24,1.69,45.24c17,23,90,28,117,17C1489.55,740.26,1479.65,558.8,1470.07,544z" class="st32"/><path d="M1451.8,531.82c37.75,18.44,42.64,25.49,47.87,63.72c0.83,6.1,4.89,90.72,6.89,156.72	c0.12,4.06-55.72,1.82-74,0c0,0-11.32-91.97-10-133C1423.55,588.26,1445.06,528.53,1451.8,531.82z" class="st13"/><path d="M1412.64,496.14c4.35-2.61,5.07-10.98,5.22-12.18c0.87-6.96-1.02-16.54-5.22-16.54	c-9.57,0-4.87,8.18-10.44,9.57c-20.89,5.22-32.57-18.87-35.68-16.54c-3.48,2.61-6.96,14.79-7.83,17.41	c-1.25,3.76-14.89-8.15-11.31-14.79c6.09-11.31,53.16-26.45,67.88-28.72c11.31-1.74,38.29,23.77,38.29,44.38	c0,21.76-7.83,26.98-11.31,31.33c-1.96,2.45-16.54,4.35-25.24,5.22c-1.73,0.17,0.53-5.55-0.87-5.22c-1.16,0.27-1.75,3.38-3.48,5.22	c-1.2,1.27-9.57,1.74-9.57,1.74s2.87-5.04,6.96-13.05C1410.35,503.34,1412.64,496.14,1412.64,496.14z" class="st14"/><path d="M1369.55,570.26c3.36-4.07,8.3-11.23,14-19c8.99-12.26,10-14,10-14s-5,18-15,31	C1376.26,571.25,1371.72,570.52,1369.55,570.26z" class="st32"/><path d="M1256.91,569.31c0,0,12.25,23.52,39.26,58.61c9.34,12.13,28.3,27.24,28.3,27.24s7.26-8.14,4.34-10.04	c-15.54-10.09-53.08-79.16-53.08-79.16C1273.66,575.3,1256.91,569.31,1256.91,569.31z" class="st6"/><path d="M1412.38,692.44c-17.46-4.15-40.53-7.74-57.12-12.52c-7.53-2.17-32.06-8.13-36.94-15.38	c-1.46-2.17-8.56-14.19-8.65-19.22c-0.08-4.55,17.3-5.98,22.51-5.75c9.99,0.44,1.53,11.7,35.05,22.56	c3.96,1.28,38.91-6.57,44.18-3.07L1412.38,692.44z" class="st10"/><path d="M1442.55,701.26c2,6,24,11,34,11c10.12,0,11.49-27.53,13-37c14-88-5.91-84.15-9-70	C1466.55,669.26,1430.82,666.06,1442.55,701.26z" class="st31"/><path d="M1453,587.07c-1.66,33.05-7.23,46.24-5.49,69.2l-56,0.82c-2.58,13.09-7.99,31.28-7.99,31.28	c24.12,3.22,87.99,23.19,93.54,14.97c5.17-7.67,19.42-79.67,18.97-103.34" class="st13"/></svg>