<svg xmlns="http://www.w3.org/2000/svg" viewBox="0 0 1920 1080"><defs><style>.cls-1{fill:#f6eec5;}.cls-2{fill:#ffb600;}.cls-10,.cls-12,.cls-3,.cls-9{fill:#fff;}.cls-4{fill:#ffe0a1;}.cls-5{fill:#ccc;}.cls-6{fill:#e5e5e5;}.cls-7{fill:#efefef;}.cls-14,.cls-37,.cls-38,.cls-39,.cls-8{fill:none;}.cls-8{stroke:#bfbfbf;stroke-width:5px;}.cls-10,.cls-12,.cls-13,.cls-14,.cls-37,.cls-38,.cls-39,.cls-8{stroke-linecap:round;}.cls-10,.cls-12,.cls-13,.cls-14,.cls-37,.cls-38,.cls-39,.cls-8,.cls-9{stroke-miterlimit:10;}.cls-10,.cls-12,.cls-13,.cls-14,.cls-9{stroke:#111;}.cls-10,.cls-13,.cls-14,.cls-9{stroke-width:2px;}.cls-11{fill:#ffae7f;}.cls-12{stroke-width:3px;}.cls-13{fill:#6d9de2;}.cls-15{fill:#ffffc2;}.cls-16{fill:#6ebe44;}.cls-17{fill:#ed1d31;}.cls-18{fill:#f6cc4b;}.cls-19{fill:#231f20;}.cls-20{fill:#b58c6d;}.cls-21{fill:#2e1c66;}.cls-22{fill:#b18b67;}.cls-23{fill:#eb2151;}.cls-24{fill:#ff2e56;}.cls-25{fill:#e8e8e8;}.cls-26{fill:#4735bc;}.cls-27{fill:#c49874;}.cls-28{fill:#dde3e9;}.cls-29{fill:#fbc59f;}.cls-30{fill:#fed000;}.cls-31{fill:#1d6c93;}.cls-32{fill:#aa9143;}.cls-33{fill:#51565a;}.cls-34{fill:#5d656c;}.cls-35{fill:#012b68;}.cls-36{fill:#74787c;}.cls-37,.cls-38,.cls-39{stroke:#74787c;}.cls-37{stroke-width:34px;}.cls-38{stroke-width:15px;}.cls-39{stroke-width:18px;}.cls-40{fill:#262626;}.cls-41{fill:#303030;}.cls-42{fill:#1fa046;}.cls-43{fill:#54dd82;}.cls-44{fill:#eaeaea;}.cls-45{fill:#9b5f1e;}.cls-46{fill:#efb68f;}.cls-47{fill:#f2bf9c;}.cls-48{fill:#ef7878;}.cls-49{fill:#e23030;}.cls-50{fill:#bc1717;}.cls-51{fill:#a1f277;}.cls-52{fill:#76e52e;}.cls-53{fill:#47bf16;}.cls-54{fill:#76dcf4;}.cls-55{fill:#2dbce8;}.cls-56{fill:#14a0c1;}.cls-57{fill:#e1a588;}.cls-58{fill:#ffc49c;}.cls-59{fill:#db1b52;}.cls-60{fill:#7c52fe;}</style></defs><g id="BG"><path class="cls-1" d="M827.87,984.57C634.12,978.19,422,849.16,353.52,640.52s19.56-532.27,251.23-532.27c207.8,0,365.86,163.6,484.57,241.86,152.44,100.49,340.14,30.18,381.53,210.35C1526.2,801.47,1199.64,996.82,827.87,984.57Z"/><path class="cls-1" d="M1038.7,190.76c-36.38,62.37,26.6,109.31,73.51,142.56,58.65,41.58,215.83,62.47,236.1,14.85C1373.23,289.65,1115.64,58.88,1038.7,190.76Z"/><ellipse id="shadow" class="cls-2" cx="873.5" cy="956.1" rx="748.5" ry="57.54"/></g><g id="Screen"><path class="cls-3" d="M1255.62,234.69H617.83a18.69,18.69,0,0,0-18.69,18.69V681.63H1274.3V253.38A18.68,18.68,0,0,0,1255.62,234.69Z"/><circle class="cls-1" cx="1201.91" cy="261.27" r="5.45"/><circle class="cls-1" cx="1222.41" cy="261.27" r="5.45"/><circle class="cls-1" cx="1242.9" cy="261.27" r="5.45"/><path d="M1252.64,220a38.77,38.77,0,0,1,38.73,38.73V680.31H582.77V258.73A38.77,38.77,0,0,1,621.5,220h631.14m0-2H621.5a40.72,40.72,0,0,0-40.73,40.73V682.31h712.6V258.73A40.73,40.73,0,0,0,1252.64,218Z"/><rect class="cls-1" x="1067.91" y="528.89" width="169.15" height="114.58" rx="12.02"/><rect class="cls-1" x="967.76" y="357.29" width="271.28" height="20.96" rx="6.98"/><rect class="cls-1" x="967.76" y="397.51" width="271.28" height="20.96" rx="6.98"/><rect class="cls-1" x="1069.6" y="437.74" width="169.44" height="20.98" rx="6.98"/><path class="cls-1" d="M948.84,643.48H654.55c-10.9,0-19.74-9.37-19.74-20.91V457c0-11.55,8.84-20.91,19.74-20.91H948.84c10.9,0,19.74,9.36,19.74,20.91V622.57C968.58,634.11,959.74,643.48,948.84,643.48Z"/><rect class="cls-1" x="645.53" y="285.68" width="271.28" height="20.96" rx="6.98"/><rect class="cls-1" x="645.53" y="325.9" width="271.28" height="20.96" rx="6.98"/><rect class="cls-1" x="645.91" y="366.12" width="169.44" height="20.98" rx="6.98"/></g><g id="Layer_44" data-name="Layer 44"><rect class="cls-2" x="487.97" y="323.38" width="363.47" height="262.63" rx="21.08" transform="translate(-77.27 142.8) rotate(-11.51)"/><rect class="cls-4" x="523.87" y="504.93" width="328.15" height="72.92" transform="translate(-94.21 148.18) rotate(-11.51)"/><path class="cls-5" d="M856.48,544.36s-65.13-.11-108.35,7.53c-33.08,5.85-50,26.69-52.88,23-3.24-4.12,15.36-30.28,43-46,47.91-27.22,120.1-11.57,126.17,8.6Z"/><path class="cls-5" d="M534.44,609.86s59.91-25.57,102.67-35.44c32.74-7.56,56.41,5,57.65.47,1.38-5.07-26-21.86-57.51-25.5-54.74-6.31-115.06,36.32-112.76,57.27Z"/><path class="cls-6" d="M642.92,320.33s-28.74-6.94-66.59,1.35c-24,5.26-101.06,46.16-101.06,46.16l49.22,238.82a543.73,543.73,0,0,1,97.3-36.1c49.37-13,73,4.33,73,4.33Z"/><path class="cls-7" d="M642.94,320.43s23.74-17.62,61.81-24.79c24.18-4.56,111.07,3,111.07,3l48.1,239a543.82,543.82,0,0,0-103.66,4.83C709.72,549.78,694.79,575,694.79,575Z"/><path class="cls-8" d="M629.27,347.52c-15.55-1.27-39.95,1.4-68.9,10A190,190,0,0,0,501.26,387"/><path class="cls-8" d="M633.48,368.18c-15.55-1.27-40,1.39-68.9,10a190.24,190.24,0,0,0-59.11,29.48"/><path class="cls-8" d="M654.74,472.57c-15.55-1.27-40,1.39-68.9,10A190,190,0,0,0,526.73,512"/><path class="cls-8" d="M659,493.23c-15.55-1.28-40,1.39-68.9,10a190.21,190.21,0,0,0-59.12,29.48"/><path class="cls-8" d="M663.15,513.88c-15.55-1.27-39.95,1.39-68.9,10a190,190,0,0,0-59.11,29.49"/><path class="cls-8" d="M667.36,534.54c-15.55-1.28-40,1.39-68.9,10A190,190,0,0,0,539.35,574"/><path class="cls-8" d="M684.1,421.24c13.82-7.25,37.32-14.34,67.31-17.78a190.17,190.17,0,0,1,65.94,4"/><path class="cls-8" d="M688.31,441.9c13.81-7.26,37.32-14.35,67.31-17.78a190.13,190.13,0,0,1,65.93,4"/><path class="cls-8" d="M692.63,463.11c13.81-7.25,30.21-13.31,55.52-16"/><path class="cls-8" d="M696.58,482.51c13.81-7.26,30.21-13.31,55.52-16"/><path class="cls-8" d="M700.69,502.68c13.81-7.25,30.21-13.3,55.52-16"/><path class="cls-8" d="M704.8,522.86c13.81-7.26,30.21-13.31,55.52-16"/><path class="cls-8" d="M745.68,319.9c27.92-3.2,40.27.35,55.71,4.05"/><path class="cls-8" d="M749.85,340.34c27.92-3.19,40.27.36,55.7,4.06"/><path class="cls-8" d="M754,360.79c27.92-3.19,40.27.35,55.71,4.06"/><path class="cls-8" d="M758.17,381.24c27.93-3.2,40.28.35,55.71,4.05"/><rect class="cls-2" x="1026.97" y="323.38" width="363.47" height="262.63" rx="21.08" transform="translate(2302.35 1141.47) rotate(-168.49)"/><rect class="cls-4" x="1026.39" y="504.93" width="328.15" height="72.92" transform="translate(2248.94 1309.47) rotate(-168.49)"/><path class="cls-5" d="M1021.93,544.36s65.13-.11,108.35,7.53c33.08,5.85,50,26.69,52.88,23,3.24-4.12-15.36-30.28-43-46-47.91-27.22-120.1-11.57-126.17,8.6Z"/><path class="cls-5" d="M1344,609.86s-59.91-25.57-102.67-35.44c-32.74-7.56-56.41,5-57.65.47-1.38-5.07,26-21.86,57.51-25.5,54.74-6.31,115.06,36.32,112.76,57.27Z"/><path class="cls-6" d="M1235.49,320.33s28.74-6.94,66.59,1.35c24,5.26,101.06,46.16,101.06,46.16l-49.22,238.82a543.35,543.35,0,0,0-97.3-36.1c-49.37-13-73,4.33-73,4.33Z"/><path class="cls-7" d="M1235.47,320.43s-23.74-17.62-61.81-24.79c-24.18-4.56-111.07,3-111.07,3l-48.1,239a543.82,543.82,0,0,1,103.66,4.83c50.54,7.31,65.47,32.52,65.47,32.52Z"/><path class="cls-8" d="M1249.14,347.52c15.55-1.27,39.95,1.4,68.9,10A190,190,0,0,1,1377.15,387"/><path class="cls-8" d="M1244.93,368.18c15.55-1.27,40,1.39,68.9,10A190.43,190.43,0,0,1,1373,407.62"/><path class="cls-8" d="M1223.67,472.57c15.55-1.27,39.95,1.39,68.9,10A190,190,0,0,1,1351.68,512"/><path class="cls-8" d="M1219.46,493.23c15.55-1.28,40,1.39,68.9,10a190.21,190.21,0,0,1,59.12,29.48"/><path class="cls-8" d="M1215.26,513.88c15.55-1.27,40,1.39,68.9,10a190,190,0,0,1,59.11,29.49"/><path class="cls-8" d="M1211.05,534.54c15.55-1.28,40,1.39,68.9,10A190,190,0,0,1,1339.06,574"/><path class="cls-8" d="M1194.31,421.24C1180.49,414,1157,406.9,1127,403.46a190.17,190.17,0,0,0-65.94,4"/><path class="cls-8" d="M1190.1,441.9c-13.81-7.26-37.31-14.35-67.31-17.78a190.13,190.13,0,0,0-65.93,4"/><path class="cls-8" d="M1185.78,463.11c-13.81-7.25-30.21-13.31-55.52-16"/><path class="cls-8" d="M1181.83,482.51c-13.81-7.26-30.21-13.31-55.52-16"/><path class="cls-8" d="M1177.72,502.68c-13.81-7.25-30.21-13.3-55.52-16"/><path class="cls-8" d="M1173.61,522.86c-13.81-7.26-30.21-13.31-55.52-16"/><path class="cls-8" d="M1240,387.58c15.55-1.28,40,1.39,68.9,10A190.24,190.24,0,0,1,1368,427"/><path class="cls-8" d="M1235.79,408.23c15.55-1.27,40,1.4,68.9,10a190.21,190.21,0,0,1,59.12,29.48"/><path class="cls-8" d="M1231.58,428.89c15.56-1.28,40,1.39,68.91,10a190.36,190.36,0,0,1,59.11,29.48"/><path class="cls-8" d="M1227.38,449.54c15.55-1.27,39.95,1.4,68.9,10A190,190,0,0,1,1355.39,489"/><path class="cls-8" d="M1204.05,377.69c-13.82-7.25-37.32-14.34-67.31-17.78a190.17,190.17,0,0,0-65.94,4"/><path class="cls-8" d="M1199.84,398.35c-13.81-7.26-37.31-14.34-67.31-17.78a190.4,190.4,0,0,0-65.93,4"/><path class="cls-8" d="M1212.05,335.69c-13.82-7.25-37.32-14.34-67.31-17.78a190.17,190.17,0,0,0-65.94,4"/><path class="cls-8" d="M1207.84,356.35c-13.81-7.26-37.31-14.34-67.31-17.78a190.4,190.4,0,0,0-65.93,4"/><path class="cls-8" d="M638.86,388.58c-15.55-1.28-40,1.39-68.9,10A190.24,190.24,0,0,0,510.85,428"/><path class="cls-8" d="M643.07,409.23c-15.55-1.27-40,1.4-68.9,10a190,190,0,0,0-59.11,29.48"/><path class="cls-8" d="M647.28,429.89c-15.55-1.28-40,1.39-68.9,10a190.43,190.43,0,0,0-59.12,29.48"/><path class="cls-8" d="M651.48,450.54c-15.55-1.27-40,1.4-68.9,10A190,190,0,0,0,523.47,490"/><path class="cls-8" d="M675,380.69c13.82-7.25,37.32-14.34,67.31-17.78a190.17,190.17,0,0,1,65.94,4"/><path class="cls-8" d="M679.16,401.35c13.81-7.26,37.31-14.34,67.31-17.78a190.4,190.4,0,0,1,65.93,4"/><path class="cls-8" d="M665,339.69c13.82-7.25,37.32-14.34,67.31-17.78a190.17,190.17,0,0,1,65.94,4"/><path class="cls-8" d="M669.16,360.35c13.81-7.26,37.31-14.34,67.31-17.78a190.4,190.4,0,0,1,65.93,4"/></g><g id="Floating_Book" data-name="Floating Book"><rect class="cls-2" x="708" y="256.33" width="459.02" height="331.67" rx="21.08"/><rect class="cls-4" x="731.02" y="487.99" width="414.41" height="92.09"/><path class="cls-5" d="M1146,580.19s-80.58-16.55-136-18c-42.42-1.1-68.55,20.45-71.23,15.11-3-5.92,26.63-33.59,64.75-46,66.15-21.61,151.53,15.94,154,42.44Z"/><path class="cls-5" d="M731,580.09s80.58-16.55,136-18c42.42-1.1,68.54,20.44,71.23,15.11,3-5.92-26.64-33.6-64.75-46.05-66.15-21.61-151.54,16-154,42.45Z"/><path class="cls-6" d="M938.23,249.13S904.41,233.3,855.49,234c-31.06.46-136.7,31.66-136.7,31.66l.72,307.93s57.67-16,129.5-20.14c64.38-3.71,89.22,23.74,89.22,23.74Z"/><path class="cls-7" d="M938.23,249.27S972,233.44,1021,234.16c31.06.46,136.69,31.66,136.69,31.66L1157,573.75s-57.67-16-129.51-20.15c-64.38-3.7-89.21,23.75-89.21,23.75Z"/><path class="cls-8" d="M914.49,279.35c-18.93-5.5-49.8-8.34-87.78-5a240.31,240.31,0,0,0-80.58,21.59"/><path class="cls-8" d="M914.49,306c-18.93-5.5-49.8-8.34-87.78-5a240.31,240.31,0,0,0-80.58,21.59"/><path class="cls-8" d="M914.49,332.15c-18.93-5.49-34.8-8.34-72.78-5"/><path class="cls-8" d="M914.49,440.51c-18.93-5.5-49.8-8.34-87.78-5a240.31,240.31,0,0,0-80.58,21.59"/><path class="cls-8" d="M914.49,467.13c-18.93-5.5-49.8-8.34-87.78-5a240.31,240.31,0,0,0-80.58,21.59"/><path class="cls-8" d="M914.49,493.75c-18.93-5.5-49.8-8.34-87.78-5a240.31,240.31,0,0,0-80.58,21.59"/><path class="cls-8" d="M914.49,520.37c-18.93-5.49-49.8-8.34-87.78-5a240.31,240.31,0,0,0-80.58,21.59"/><path class="cls-8" d="M963.76,384.39c18.92-5.49,49.79-8.34,87.77-5a240,240,0,0,1,80.58,21.58"/><path class="cls-8" d="M963.76,411c18.92-5.49,49.79-8.34,87.77-5a240,240,0,0,1,80.58,21.58"/><path class="cls-8" d="M963.76,438.35c18.92-5.49,40.74-8.85,72.74-5.85"/><path class="cls-8" d="M963.76,463.35c18.92-5.49,40.74-8.85,72.74-5.85"/><path class="cls-8" d="M963.76,489.35c18.92-5.49,40.74-8.85,72.74-5.85"/><path class="cls-8" d="M963.76,515.35c18.92-5.49,40.74-8.85,72.74-5.85"/><path class="cls-8" d="M1065.5,274.5c35.36,3.08,49.75,10.59,67.92,19.06"/><path class="cls-8" d="M1065.5,300.85c35.36,3.08,49.75,10.59,67.92,19.06"/><path class="cls-8" d="M1065.5,327.21c35.36,3.08,49.75,10.58,67.92,19.05"/><path class="cls-8" d="M1065.5,353.56c35.36,3.08,49.75,10.59,67.92,19.06"/><path class="cls-8" d="M914.22,359.06c-18.92-5.5-34.79-8.34-72.77-5"/><path class="cls-8" d="M914.22,386c-18.92-5.5-34.79-8.35-72.77-5"/><path class="cls-8" d="M914.22,412.88c-18.92-5.5-34.79-8.35-72.77-5"/></g><g id="pictograms"><path class="cls-9" d="M1048,352c-26-3-64.5-3-84,5.5-.65.28-.63-85.68,0-86,24.5-12.5,63-13.5,84-5.5C1048.66,266.25,1048.7,352.08,1048,352Z"/><path class="cls-10" d="M982,276a78.36,78.36,0,0,1,43-4"/><path class="cls-11" d="M971.14,317.74c1.12-.71,2.89-1.54,3.77-3.74,3-7.4,3.9-18.35,6.12-21.09,3.77-4.67,11.26-3.57,12.57-3.42,5,.61,10.58,4.59,10.36,7.25-.07,1-1.17,2.35-1.51,1.41-.59-1.6-3.38-2.93-6.76-4.71-4-2.08-8.84-.73-8.84-.73s7.16-3.26,16,5.81c.74.76-.25,3.2-1,2.61-5-4.06-3.31-2.95-7.17-4.67-4.32-1.92-9.17.14-9.17.14s7.9-4.18,16,5c.58.65-.61,1.91-1.44,2.23-2,.76-3.59-2.93-7.45-3.38-2.2-.26-5.13.53-5.6,2.26s1.75,4.38,3.37,4.24c.47-.05,3.62-2.74,3.86-2.92,1.94-1.45,4.6-.79,5,.3.88,2.17-4.59,3.93-7.75,9.59a15.26,15.26,0,0,1-2.17,3.15,15.62,15.62,0,0,1-3.45,2.87c-1.74,1.1-4.31,3.41-7.83,8.75"/><path d="M979,329.23l-1.65-1.09c2.91-4.42,5.65-7.46,8.13-9l.09-.06a14.34,14.34,0,0,0,3.16-2.64,14.75,14.75,0,0,0,2-2.82l.08-.15a23.54,23.54,0,0,1,5.62-6.39c1.11-.94,2.25-1.92,2.08-2.35a.22.22,0,0,0,0-.06,4.71,4.71,0,0,1-.58-.32l-.18-.05a3.3,3.3,0,0,0-2.72.55l-.37.3c-3,2.48-3.53,2.76-4,2.81a4.1,4.1,0,0,1-3.3-1.71,4.3,4.3,0,0,1-1.11-3.77c.61-2.25,3.94-3.3,6.67-3a9.82,9.82,0,0,1,5,2.42c.34.26.63.49.89.66a3.66,3.66,0,0,1,.68.36.55.55,0,0,0,.4,0,2.08,2.08,0,0,0,.91-.81c-3.7-4.14-7.29-5.32-10-5.46a13.47,13.47,0,0,0-4.71.88l-.84-1.78a11.44,11.44,0,0,1,4.14-1,11.73,11.73,0,0,1,5.89.84c.63.29,1.12.49,1.5.66a11.16,11.16,0,0,1,3.87,2.5l1.52,1.24a1.68,1.68,0,0,0,.13-.66,1.47,1.47,0,0,1-.63-.73,23.76,23.76,0,0,0-3-2.5c-.75-.43-1.59-.86-2.44-1.31l-.85-.44c-3.59-1.88-8.08-.67-8.12-.66l-.67-1.85c.27-.12,5.8-2.53,13.16,2.6a10.31,10.31,0,0,1,3.31,2.55.87.87,0,0,0,.07-.3c.14-1.79-4.59-5.6-9.5-6.19l-.14,0c-5.39-.67-9.38.4-11.55,3.08-1,1.25-1.83,5-2.69,8.93a79.18,79.18,0,0,1-3.27,11.91,8.07,8.07,0,0,1-3.74,3.94l-.43.26-1-1.66.46-.29a6.1,6.1,0,0,0,2.93-3,77.5,77.5,0,0,0,3.17-11.6c1-4.55,1.79-8.14,3.09-9.75,1.82-2.26,5.62-4.75,13.33-3.79h.13c5.14.62,11.51,4.76,11.23,8.31a3.65,3.65,0,0,1-.86,1.95,3.56,3.56,0,0,1-.78,2.88,1.72,1.72,0,0,1-.62.45,1.48,1.48,0,0,1-.05.35,3.85,3.85,0,0,1-2.16,2.29l-.05,0c0,1.36-1.3,2.5-2.79,3.78a21.22,21.22,0,0,0-5.18,5.85l-.09.14a16.1,16.1,0,0,1-2.21,3.18,16.28,16.28,0,0,1-3.57,3l-.09.06C984.25,322.19,981.72,325,979,329.23Zm12.1-27.82c-1.5.16-2.83.79-3,1.55a2.5,2.5,0,0,0,.73,2,2.61,2.61,0,0,0,1.49,1,30.91,30.91,0,0,0,3-2.36l.44-.35a5,5,0,0,1,1.53-.79,6.16,6.16,0,0,0-2.68-1A6.84,6.84,0,0,0,991.06,301.41Z"/><path d="M987.53,314.91a1,1,0,0,1-1-1.45,9.94,9.94,0,0,0,1.14-3.54,9.47,9.47,0,0,0-1.06-4.43c-.14-.33-.26-.61-.33-.82a1,1,0,0,1,1.87-.64c.06.17.16.41.27.68a11.1,11.1,0,0,1,1.21,5.45,12,12,0,0,1-1.37,4.24A1,1,0,0,1,987.53,314.91Z"/><path class="cls-11" d="M1039.66,313.25c-1.25-.46-3.15-.9-4.48-2.86-4.45-6.63-7.65-17.14-10.39-19.35-4.67-3.77-11.77-1.14-13-.71-4.8,1.65-9.38,6.7-8.62,9.26.29,1,1.65,2.05,1.78,1.06.24-1.69,2.69-3.58,5.63-6,3.45-2.87,8.49-2.57,8.49-2.57s-7.69-1.69-14.49,9.05c-.56.9.92,3.07,1.5,2.34,4.06-5,2.62-3.57,6-6.06,3.82-2.78,9-1.79,9-1.79s-8.6-2.42-14.57,8.22c-.43.77,1,1.75,1.87,1.89,2.08.33,2.9-3.62,6.58-4.87,2.1-.71,5.13-.55,5.95,1s-.79,4.65-2.41,4.85c-.46,0-4.11-1.92-4.39-2-2.19-1-4.66.18-4.86,1.35-.4,2.3,5.31,2.87,9.58,7.74a15.11,15.11,0,0,0,6.76,4.71c1.93.72,4.93,2.44,9.5,6.93"/><path d="M1034.41,326.12c-3.57-3.52-6.65-5.77-9.14-6.7l-.1,0a16,16,0,0,1-7-4.82l-.11-.13a21.53,21.53,0,0,0-6.29-4.63c-1.73-.94-3.26-1.77-3.52-3.11h-.06a3.82,3.82,0,0,1-2.59-1.79,2.19,2.19,0,0,1-.12-.33,1.66,1.66,0,0,1-.7-.31,3.56,3.56,0,0,1-1.37-2.66,3.65,3.65,0,0,1-1.24-1.72c-1-3.41,4.34-8.79,9.24-10.47l.12,0c7.34-2.55,11.57-.91,13.83.91,1.61,1.31,3.13,4.65,5.06,8.89a78.45,78.45,0,0,0,5.53,10.68,6.14,6.14,0,0,0,3.49,2.31l.51.18-.68,1.85-.47-.17a8.06,8.06,0,0,1-4.48-3.07,77.26,77.26,0,0,1-5.69-11c-1.68-3.69-3.26-7.16-4.51-8.17-2.68-2.17-6.81-2.38-11.94-.59l-.13,0c-4.68,1.61-8.51,6.32-8,8.05a.84.84,0,0,0,.13.27,10.47,10.47,0,0,1,2.7-3.19c6.12-6.55,12-5.35,12.33-5.29l-.27,1.95s-4.71-.24-7.8,2.34l-.74.61c-.76.63-1.5,1.24-2.16,1.83a24.22,24.22,0,0,0-2.39,3,1.52,1.52,0,0,1-.47.85,1.92,1.92,0,0,0,.27.62l1.23-1.54a11.34,11.34,0,0,1,3.25-3.25c.35-.24.78-.55,1.34-1a11.72,11.72,0,0,1,5.58-2,11.54,11.54,0,0,1,4.26.11l-.46,1.92a13.85,13.85,0,0,0-4.79.13c-2.61.7-5.88,2.62-8.63,7.43a2.16,2.16,0,0,0,1.07.61.59.59,0,0,0,.39-.09,3.7,3.7,0,0,1,.59-.5c.21-.22.45-.5.72-.82a9.75,9.75,0,0,1,4.4-3.42c2.6-.89,6.07-.56,7.15,1.52a4.33,4.33,0,0,1-.31,3.92,4.09,4.09,0,0,1-2.86,2.35c-.47.05-1-.1-4.51-1.9l-.41-.22a3.29,3.29,0,0,0-2.78,0l-.17.09a4.06,4.06,0,0,1-.5.43.16.16,0,0,0,0,.08c-.08.45,1.24,1.17,2.52,1.86a23.32,23.32,0,0,1,6.83,5.06l.12.14a14.08,14.08,0,0,0,2.5,2.34,14.3,14.3,0,0,0,3.64,1.92l.1,0c2.76,1,6.07,3.43,9.85,7.14Zm-21.52-22.78a5,5,0,0,1,1.66.45l.49.26a31.74,31.74,0,0,0,3.47,1.67,2.65,2.65,0,0,0,1.25-1.29,2.49,2.49,0,0,0,.29-2.1c-.48-.93-2.84-1.21-4.75-.56A6.23,6.23,0,0,0,1012.89,303.34Z"/><path d="M1023,313.91a1,1,0,0,1-.85-.33,11.77,11.77,0,0,1-2.23-3.86,11,11,0,0,1,0-5.59c0-.29.1-.54.13-.72a1,1,0,1,1,2,.24c0,.22-.08.51-.15.86a9.54,9.54,0,0,0-.11,4.56,9.89,9.89,0,0,0,1.86,3.22,1,1,0,0,1-.1,1.39A1,1,0,0,1,1023,313.91Z"/><path class="cls-9" d="M1048,521.14c21-1.14,65.5,7,85,15.5.65.28.62-83.67,0-84-22-11.64-50-21.64-85-21.5C1047.3,431.14,1047.3,521.17,1048,521.14Z"/><path class="cls-10" d="M1112,455c-11-5-31.33-9-40-9"/><line class="cls-12" x1="1058.43" y1="507.5" x2="1071.8" y2="482.66"/><path class="cls-13" d="M1072,473.47c2.65-10.45,14.76-7.76,19.84-7.36,7.41.6,13.1-1.53,17.46-.75,6.32,1.14,11,7.74,12.69,12.46,4.55,12.51-4.3,31.5-18.71,33.55-11.92,1.7-22.59-8.9-25.91-17.23-.22-.56-1.15-4.63-3-12.77S1071.49,475.47,1072,473.47Z"/><circle class="cls-13" cx="1074.62" cy="477.52" r="10.13"/><path class="cls-14" d="M1111,482a21.71,21.71,0,0,0,4,8"/><path class="cls-14" d="M1105,487a30.41,30.41,0,0,1,1,6,29.59,29.59,0,0,1,0,4"/><path class="cls-14" d="M1104,490l4-4,5-5"/><path class="cls-14" d="M1105,496a60.91,60.91,0,0,0,10-9"/><path class="cls-9" d="M829,414.4c-29-.4-64.5,12-84,20.5-.65.28-.63-87.68,0-88,24.5-12.5,56-21.9,84-22.9C829.75,324,829.75,414.41,829,414.4Z"/><path class="cls-10" d="M764.09,352.36c5-2,18.91-9.36,38.91-12.36"/><path class="cls-15" d="M764.57,384.29c1-2.5,5.43-2.2,6.74-2.19,1-.08,16.64-4.11,19.77-5.28s4.81.48,6.14,2.58c1.37,2.52,7.48,10.09,7.71,12.77-2.48,3.88-22.7,3.28-27.63,8C769.75,408.82,760.38,390.08,764.57,384.29Z"/><path class="cls-15" d="M805.34,399.5c-1.77,2.59-5.22,1.86-9.9,3.08.42-1.24,2.86-1.21,2.53-2.74.91-.28,1.64-.12,2.16-2,1.19.37,2.94-.77,4.23-.87C804.66,397.68,805.52,398.76,805.34,399.5Z"/><path class="cls-16" d="M795.44,402.58c-1,1-2.35,0-3.37.34-2.18,2.05-1.44.88-3.87.92-1.64.93-2.32.76-3.53-.6a2.84,2.84,0,0,1-3.18-1.52,1.52,1.52,0,0,1-1-.09c2.79-1.66,17.76-3.93,22.26-4.42a3.27,3.27,0,0,1-2.61.59c-.52,1.92-1.25,1.76-2.16,2C798.3,401.37,795.86,401.34,795.44,402.58Z"/><path class="cls-15" d="M782.24,402.68c.57.69,1.6.53,2.43.56.5.22.76,1,1.38,1.16a37,37,0,0,0-5,1.26,4.62,4.62,0,0,0,1-2.88Z"/><path class="cls-17" d="M781.08,405.66c-2.55,4-11.43,3.25-11.94-1.51,4,2.3,8.89-.06,11.34-2.52a1.52,1.52,0,0,0,1,.09,5,5,0,0,0,.75,1l-.13.1A4.62,4.62,0,0,1,781.08,405.66Z"/><path class="cls-15" d="M776,408.31l.19,0h0c-7.76,3.44-14.88-8.13-14.3-14.74l.25-.07c2.39,6.1,3.51,8.06,7,10.66C769.5,406.73,772.5,408.58,776,408.31Z"/><path class="cls-18" d="M802.74,397.21c-4.5.49-19.47,2.76-22.26,4.42-2.44,2.46-7.3,4.82-11.34,2.52-3.5-2.6-4.62-4.55-7-10.66-1.43-2.8,1.88-8.74,2.44-9.2-4.19,5.79,5.17,24.52,12.73,15.86,4.94-4.7,25.13-4.1,27.63-8C805.41,393.09,806.35,397.6,802.74,397.21Z"/><path class="cls-18" d="M761.88,393.56c-.58,6.62,6.53,18.17,14.3,14.74h0a7.1,7.1,0,0,0,4.9-2.63c1.9-.89,5-.9,7.12-1.81.8-.28,1.29.33,2.1.29s1.13-1,1.77-1.22c1-.36,2.38.62,3.37-.34,4.68-1.22,8.12-.49,9.9-3.08.06.16,1.76,4.72-1.39,5s-21.22,2.89-23.31,4.68c-4,3.76-11.88,3.86-15.68-2-2.24-2.55-6.58-8.69-3-14.39h0c0,.24.11.48.17.72Z"/><path class="cls-19" d="M795.31,403.13l-.19-1c4.77-1.29,12-.63,8.82-4.84l.92-.48C808.45,402.58,800.51,401.74,795.31,403.13Z"/><path class="cls-19" d="M781.23,406.16c-.08-.27-.23-.71-.33-1a37.23,37.23,0,0,1,5.2-1.32l.21,1a36.92,36.92,0,0,0-5.08,1.29Z"/><path class="cls-19" d="M773.84,409.35c-6.49,1.26-13.16-9.71-12.47-15.87l1,.15c-.51,6.42,6.34,17.44,13.59,14.19l.37,1A8.63,8.63,0,0,1,773.84,409.35Z"/><path class="cls-19" d="M774.77,412.25c-4.29.22-7.34-.85-10.21-4.75-2.21-2.37-6.79-9.19-3.11-14.93l.94.42c-3.48,5.52,1,11.6,3,13.85,3.64,5.76,11.45,5.31,14.95,1.9,1.18-1.66,21.24-4.72,23.6-4.79,2.12-.1,1.37-3.09,1-4.27a4.88,4.88,0,0,0,.93-.43c.47.81,1.5,5.72-1.8,5.73-1.56.12-6.89.84-12,1.75C777.58,408.83,783.2,410.49,774.77,412.25Z"/><path class="cls-19" d="M773.17,402.81c-6,.95-12.91-13.07-9-18.79l.88.54c-3.81,5.72,4.9,23.26,11.9,15.25,4.65-4.66,24.84-4.49,27.52-7.77-.32-1.92-3.68-6.24-5.81-9.62-2.19-2.94-3.21-6.62-7.36-5.12-3.3,1.24-18.88,5.24-19.91,5.32-2,0-5.29-.32-6.34,1.94l-.88-.54c1.28-2.64,4.85-2.47,7.14-2.43,1-.08,16.52-4.09,19.63-5.25,4.6-1.77,6.35,2.23,8.57,5.5,2.42,4,5.91,7.8,6,10.46-1.56,3.43-14.11,3.46-21.36,5.62C775.82,399.5,778.44,402.11,773.17,402.81Z"/><path class="cls-19" d="M773.82,405.56c-7.12.05-9.15-4.46-12.18-11.93-1.36-3,1.45-8.35,2.4-9.48h0l.13-.18h0l.43.34.47,0,0,.22c-4.43,5.23-2.53,10.85.66,15.38,3.14,6.43,10.79,5.4,14.46,1.33,3.36-1.87,18.51-4.09,23.28-4.56,2.27.07,1.11-4.17.93-4.31a2.19,2.19,0,0,0,.92-.44l.06.12h0c1,2.3.74,6.05-2.62,5.73-4.63.5-19.42,2.78-22,4.35C778.76,403.75,776.52,405.43,773.82,405.56Z"/><path class="cls-19" d="M786.63,405c-.94.16-1.63-.69-2.16-1.27a3,3,0,0,1-3.23-1.43,1.93,1.93,0,0,1-1-.22l.5-.91c.25.18.72.06,1,0,1.54,2.93,2.57.31,4.32,2.71,1.76.23,1.76-1.2,4.22-.22.66-.05.92-1,1.63-1.2,1.08-.45,2.25.53,3.17-.22.63-1.56,2.89-1,2.32-2.73,1.31-.3,2.08-.49,2.38-2.35a2.58,2.58,0,0,0,2.75-.4l.64.81a4.09,4.09,0,0,1-2.68.86,2.35,2.35,0,0,1-2,1.83c-.11,1.34-1.39,1.44-2.18,2-.78,1.79-2.74,1.11-4.09,1.17-1.54,1.73-1.88,1.19-3.87.93A6.72,6.72,0,0,1,786.63,405Z"/><path class="cls-19" d="M776,408.83c-3.79.28-7.07-1.76-7.42-4.7l1-.11c1.14,5.74,11.84,4.61,12-1.23l1,0C782.65,406.09,779.28,408.61,776,408.83Z"/><path class="cls-18" d="M803.21,364.36c.06,1.07,2.09.92,2-.15S803.1,363.3,803.21,364.36Zm-5.73,1.46c.09,1.43,2.8,1.22,2.66-.2S797.35,364.39,797.48,365.82Zm-4.43-5.53c.11,2,3.94,1.72,3.75-.29S792.85,358.27,793.05,360.29Zm-5.74-1.74c.06,1.07,2.09.92,2-.15S787.2,357.49,787.31,358.55Zm-3.9-.17c-.07-1.83,6.85-3.79,6.85-4.11a3.52,3.52,0,0,1,2.84.2c1.51.78,19.27,12.74,19.27,12.74L803.15,373l-18.91-13.45A2.32,2.32,0,0,1,783.41,358.38Z"/><path class="cls-18" d="M804.14,363.46a.84.84,0,1,1,.12,1.65A.84.84,0,1,1,804.14,363.46Z"/><path class="cls-18" d="M798.73,364.62a1.12,1.12,0,1,1,.17,2.2A1.12,1.12,0,1,1,798.73,364.62Z"/><path class="cls-18" d="M794.8,358.59a1.58,1.58,0,1,1,.24,3.11A1.58,1.58,0,1,1,794.8,358.59Z"/><path class="cls-18" d="M788.24,357.65a.84.84,0,1,1,.12,1.65A.84.84,0,1,1,788.24,357.65Z"/><path class="cls-18" d="M783.41,358.38a2.38,2.38,0,0,0,.83,1.19L803.15,373v.05L784,366.64Z"/><path d="M803.14,373.33l-19-13.55c-.51-.32-1.74-2-.16-2.77,3.56-1.5,6.14-4.12,9.29-2.77,1.81,1,18.61,12.29,19.62,13Zm-11.95-19c-1,.05-4.92,2-7,3.12-.63.39-.56.76-.54.88a2.14,2.14,0,0,0,.74,1l18.76,13.35,8.73-5.51C808.21,365.13,794.11,354.29,791.19,354.33Z"/><path d="M803.21,373.36l-19.41-6.53-.65-8.43.51,0,.63,8.1,19.09,6.42Z"/><path d="M795.06,362a1.84,1.84,0,1,1-.28-3.63A1.84,1.84,0,1,1,795.06,362Zm-.24-3.11c-2.1.13-1.9,2.78.2,2.59S796.92,358.66,794.82,358.85Z"/><path d="M805.45,371.56c-4-2.05,2.31-5.59,3-1.84l-.51,0c-.43-2.65-5.28-.14-2.34,1.31Z"/><path d="M798.92,367.08a1.38,1.38,0,1,1-.21-2.72A1.38,1.38,0,1,1,798.92,367.08Zm-.17-2.2c-1.39.09-1.26,1.8.13,1.68S800.13,364.75,798.75,364.88Z"/><path d="M804.28,365.37a1.1,1.1,0,1,1-.16-2.17A1.1,1.1,0,1,1,804.28,365.37Zm-.12-1.65c-1,.06-.87,1.21.08,1.13S805.11,363.64,804.16,363.72Z"/><path d="M788.38,359.56a1.09,1.09,0,1,1-.16-2.16A1.09,1.09,0,1,1,788.38,359.56Zm-.12-1.65c-.91,0-.9,1.22.08,1.13S789.21,357.83,788.26,357.91Z"/></g><g id="Boy"><path class="cls-20" d="M629.07,938.22c-40.4-21.11-46.06-40.43-54.7-54.28L595,870.81q3.12,7.08,6.49,14.82C617.29,921.79,631.56,939.52,629.07,938.22Z"/><path class="cls-21" d="M622,920l-18.15,8.65c-13.05-10-47.08-95.24-69-103.5-16.62-6.26-85.39-36.95-78.73-39.44,12.28-4.6,66.76-10,93.62-6.14C559.24,780.93,601,884,622,920Z"/><path class="cls-22" d="M629.78,936.33,629,946l-29,10c-.16-2-5.74-17.93-7.62-20.16-11.58-13.66-19.39-21.7-28.57-36.24a160.59,160.59,0,0,1-11.63-22.3L585,871C585.89,875.16,604,925,629.78,936.33Z"/><path class="cls-20" d="M448.44,726.46C457.76,730.32,498,754.63,512,762c2.61,1.37,8.59,5.51,13,5,6.8-.78,12.37-2.2,16.52-1.2s3.73,3.25,9.72,8.7c2.76,2.5,3.75,4.07,6.36,6.29,1.55,1.31,3,6.62.4,8.21-.93.56-13.4-4.28-37.07-10.06-17.89-4.37-15.2-2.73-29.07-7.11-30.18-9.51-44.78-13.58-48.34-25.24C441.35,739.5,442.92,724.18,448.44,726.46Z"/><path class="cls-23" d="M427.93,674.7c13.7-1.18,10.7,39.27,30.32,52.25,20.19,13.35,51,27.35,53.11,29.71,6,6.78-.17,16.6-1.67,17.44-5.23,2.92-17.09,2.32-62-18.1-23.4-10.65-31.94-22.34-36.72-30.61s-3.69-12.74-.2-21.5C413.44,697.32,426.47,674.82,427.93,674.7Z"/><path class="cls-24" d="M387.3,697.39c-3.3-14.31.56-29.26,10-38.37,8.44-8.16,51.41,23.3,59.09,47.85,5.08,16.27,10.73,72.88,9.4,76.36-6,15.62-64,7-66.19-2.69C393.44,752.92,391.91,717.34,387.3,697.39Z"/><path class="cls-25" d="M673.7,942.47c.07.53-65.1,26.82-65.59,26.59-3-1.41-6.83-5.55-8.12-20.57,0,0,14.25,8,22.2-17.7l12.12,2.6a29.48,29.48,0,0,0,3.51-.12C644.15,932.68,671.33,924.65,673.7,942.47Z"/><path class="cls-26" d="M613,920l-24,12c-29.48-33.4-61-91-61-91-8.44-.77-98,7-128,3-24.36-3.25-28-42-22-63,.61-2.15,38.12,8,42,8,132-1.53,136.33,3.79,144,13C574.09,814.11,593,876.56,613,920Z"/><path class="cls-21" d="M446.12,605.32c4.23-1.08,5.25-9.66,5.37-10.74.84-7.06-8.39-12.78-11.51-10.74-7.46,4.88-10.84-4-23.46-5.23-1.73-.16-13.8-.46-23.35,8.3-9.32,8.55-12,45.59,8.19,57.38,4.43,2.58,27.6-35.52,32-36.21A87,87,0,0,0,446.12,605.32Z"/><path class="cls-27" d="M409.12,611.24c.84,13.81-4.39,3.82-10.05,3.84-2.76,0-4.35,3.06-4.61,6.14-.44,5.24,1.85,13.81,6.9,13.81,1.94,0-.25,8.92-1.68,13.47-2.36,7.5-11.51,10-10.95,14.31,1,8,23.65,17,34.37,10.1,3.28-2.11,4.61-.77,4.61-6.14,0-4.27.76-11,.76-11s9.21-3.84,12.28-8.44c1.9-2.86,6.08-14.81,6.08-14.81,4.61-2.3,5.24-7,3.37-10.1-2.53-4.21-4.85-4.25-4.85-9.63,0-6.13.77-5.37.77-10,0-3.65-1.9-4.51-3.5-4-2.52.84-14.31,1-17.68.84C403.05,598.82,408.1,594.61,409.12,611.24Z"/><path class="cls-28" d="M417.73,666h10c5.37,29.16,11.51,36.83,16.11,49.88,11.47,32.5,17.12,59.21,15.12,66.21-1.33,4.65-44.32,6.16-49,5C384.4,780.8,417.73,666,417.73,666Z"/><path class="cls-23" d="M388.73,690.92c4.94-4,10.41-31.21,7.58-33.68-6.74-5.9-16.92-8.65-31.31,2.76-12.19,9.67-15.73,29.57-16,42-.26,11.92,20,22.5,32,22C395.19,723.41,379.47,698.5,388.73,690.92Z"/><path class="cls-24" d="M362.48,700.25c-3.3-14.3.55-29.25,10-38.36,8.45-8.17,17.44-9.12,24.56-4.33,3.84,2.58,10.74,8.44,20.72,8.44,0,0,6.14,19.18,13.81,43.74,5.08,16.26,10.73,72.87,9.4,76.35-6,15.62-64,7.06-66.18-2.68C368.62,755.78,367.08,720.21,362.48,700.25Z"/><path class="cls-23" d="M406.94,771.09c6.05-2,28-7.16,27.76-10.91-.51-8.94-10.2-14.66-28.43-16.92-15.44-1.92-23.55-24.89-32.6-16.36-8.68,8.17-2.73,35.19,2.27,41.19C385,779,391.94,776.09,406.94,771.09Z"/><path class="cls-27" d="M408.52,757.19c-8.3-3-6.76-10.51-2.58-18.1,5.14-9.31,66.55,11.83,76.06,15.91,7,3,16,8,28,12,2.68.89,38.59,11.94,39,14,.66,3.31,1.66,9,0,10-5,3-8,4-17,3-2.26-.25-20.12-6.43-21-9-.54-1.58-7.69-3.85-9-4.16C485.55,776.88,425.59,763.26,408.52,757.19Z"/><path class="cls-23" d="M413.54,751.14c6-2,22.62-3.3,22.4-7-.52-8.93,2.23-13.73-16-16-15.44-1.92-20-37.43-20-25,0,9,2,35,7,41C416,755,398.54,756.14,413.54,751.14Z"/><path class="cls-24" d="M459.94,744.09c43,14,42,15,42,24,0,6.6-3.2,12.46-7,13-5.37.77-71.68-11.34-106.21-16.39-12.44-1.82-21.86-30.88-16.84-40.42C376.38,715.77,441.15,738,459.94,744.09Z"/><path class="cls-3" d="M440.83,639.88c-.24-.32-3.64-.22-6.18-.71-2.34-.46-4.7-2.13-5.53-1.56s.26,6.89,4.07,7.83C437.31,646.47,441.24,640.44,440.83,639.88Z"/></g><g id="Lady"><path class="cls-25" d="M762.12,922.42a19.1,19.1,0,0,1,12.26,6.74,18.11,18.11,0,0,1,3.68,9.19l-57,33.1c-1-.63-4.29-2.7-4.29-5.52,0-1.22.12-2.09,3.07-4.9,3.41-3.27,7.1-5.15,7.35-5.52,6.13-9.19,14.1-19.61,20.22-28.19C749,925.08,755.06,921.69,762.12,922.42Z"/><path class="cls-3" d="M698.24,951.52a19.07,19.07,0,0,1,7.23,12,18.08,18.08,0,0,1-1.41,9.8l-65.91.11c-.55-1-2.36-4.49-.95-6.92.61-1.06,1.15-1.75,5.1-2.71,4.6-1.12,8.74-.9,9.13-1.09,9.91-4.89,22-9.92,31.62-14.28C685.56,947.26,692.49,947.35,698.24,951.52Z"/><path class="cls-29" d="M680.61,929.77c1.23,9.81,1.84,15.33,3.68,23.91,1.13,5.28,15.94,3.88,15.94-1.84A152.87,152.87,0,0,0,699,929.16Z"/><path class="cls-29" d="M737.47,910.32c4.95,8.57,7.66,13.41,12.72,20.6,3.11,4.43,16.75-2.78,14.55-8.06a147.42,147.42,0,0,0-9.9-20.44Z"/><path class="cls-21" d="M725.66,825.69c0,.61,40.15,86.11,40.15,86.11l-28.2,10.62-58.42-96.13Z"/><path class="cls-26" d="M678.78,801.69c-11.65,2.45-19.62,8-19.62,16.55,0,28,14.71,115.21,14.71,115.21h0l33.1-.61c-4.29-48.42-6.74-76.61-8-97.44C695,823.35,689.44,799.44,678.78,801.69Z"/><path class="cls-2" d="M780.65,703.12c-9.7,2.37-8.31,21.71-18.79,57.36-5.26,17.88-8.33,41.14-13,55-4.75,14,17.12,6.95,26.53,7.95,16.94,1.8,34.54-9.87,45.32-26.94C841.93,762.83,795,699.62,780.65,703.12Z"/><path class="cls-26" d="M697.77,835.4c13.49.61,98.67,9.19,111.54,8.58,20.43-1,34.32-6.75,41.06-25.13,5.43-14.81,2.39-46-13.48-44.74-23.29,1.84-55.16,9.19-113.38,19-8,1.34-44.73,8.58-44.73,8.58S694.65,835.25,697.77,835.4Z"/><path class="cls-3" d="M765.17,674.92c-4.91,19.69-16.41,37.83-9.26,48.63,4,6,8.44,5.26,10.3,8,2.62,3.86,0,9.64,2.18,20.8,2.22,11.43,4.69,24.06,9.45,32.5,4.14,7.33,23.95-11.22,29.58-27.62C819.8,721.24,769.56,657.31,765.17,674.92Z"/><path class="cls-24" d="M775.15,635.82c1.13,1.5,10.92,41.28,12.85,41.18,58-3-5-42-4.51-47.2,1.54-14.46,2.31-21.68,2-23.82-.49-3-2.79-16.93-14.4-25-16.77-11.7-37-3-45,5.84-4,4.46-6.86,6.42-7,9.21-.29,4.5,3.73,7.52,5.4,8.69,3.58,2.51,6.6,1.22,7.6,1.44,14.17,3.18,19.74.46,18.87,6.59S764,621.09,775.15,635.82Z"/><path class="cls-29" d="M786.76,654.07c-7.42-11.74-10.08-19.13-10.62-20.64-.79-2.25-1-4.94.49-12.55,1.39-7.31-.36-10.72-1.63-12.13-2.07-2.31-6.09-2.38-8.75.23-3.38,3.35-1.87,6.91-3,7.18-1.74.43-2.77-12.89-12.18-17.4-6.82-3.27-24.13-1.46-27.33,4.48-3.34,6.19,1.9,17.51.61,22.36-.49,1.83-3,3.71-2.32,7.32.94,4.81,6.22,5.05,8,9.06,3.33,7.46,4.13,9.15,5.66,13.24,1.78,4.76,8,4.46,13,2.61,6-2.26,9.1-4.62,10.41-5.81a.74.74,0,0,1,1.21.32c.33,1.06,2.15,3,2.44,6.6,1,12.83,0,15.61.27,16.77C764.14,681.56,792.09,662.5,786.76,654.07Z"/><path class="cls-30" d="M786.31,652.07c6.66-1.29,11.67,6.23,41.82,51.17,40.86,60.93,36.75,77.59,32.85,88.5-1,2.83-4.12,11.54-12.34,16.77-10.37,6.59-18.79,1.26-35.6,3.19-23.71,2.71-30,16-37.67,11.71-7.28-4.06-3.19-17-2.94-63.12.17-29.54.17-44.52-3.81-54.82-3.9-10.11-8.83-16.87-7.2-27.32C762.89,668.8,777.58,653.76,786.31,652.07Z"/><path class="cls-31" d="M642.46,653.89l-.82,73.64a2,2,0,0,1-1.26,1.85L554.5,763.72a3.44,3.44,0,0,1-4.72-3.11l-2.69-108.94a3.44,3.44,0,0,1,3.58-3.52l89.87,3.71A2,2,0,0,1,642.46,653.89Z"/><path class="cls-29" d="M676.52,746.85C662,743,655,740,650,734c-3.62-4.34-5-8-8-10-3.72-2.48-7.74,3.13-10,2-4-2-4.62-19.71,2-21,1.43-.28,11.34.9,11-1-.77-4.32-14-9-13-11,2.24-4.47,27.36,4.9,29,18,1,8,5.89,14.45,9,15,6.31,1.12,15.43,3,19.7,5.17,2.86,1.46,2,6.67,1.27,9.74C689.56,746.58,677.9,747.21,676.52,746.85Z"/><path class="cls-30" d="M814,695c-4,28-9.86,48.19-30,60-28.75,16.85-77.32,2.41-108-7.24a.92.92,0,0,1-.62-1.09c.76-3.3,2.85-17.33,7.59-18.67,4.17-1.17,53,10,68,9,5.39-.36,21-3,28-29"/><path class="cls-3" d="M747.08,640.93c-.75-.39-3.73.54-5.87,1.07a9.5,9.5,0,0,0-3.74,1.6c-.63.68,2.51,6.82,5.88,6.41C747.08,649.56,748.08,641.45,747.08,640.93Z"/></g><g id="Layer_43" data-name="Layer 43"><path class="cls-32" d="M720.8,978.25,715.2,977a4.13,4.13,0,0,1-3.1-5l22.1-96.79,13.65,3.12-22.11,96.78A4.12,4.12,0,0,1,720.8,978.25Z"/><path class="cls-32" d="M895.61,979.1l5.59-1.27a4.15,4.15,0,0,0,3.11-5L882.2,876.09l-13.64,3.12L890.66,976A4.13,4.13,0,0,0,895.61,979.1Z"/><path class="cls-33" d="M845,855.87c-.82-57.2,19.4-182,29.52-206.23,11.07-26.46,54.23-11.71,52.42,9.5-8.05,94.71-12.56,193.12-31.11,199.74C873.68,866.8,845.34,876.91,845,855.87Z"/><path class="cls-34" d="M703.49,861.19c1.06-13.36,14.29-27,25.53-27.43,50.14-2,113.05.69,156.81.69,25,0,27.9,20.76,28.26,23.31,1.65,11.68-13.51,23.93-21,24.68-41,4.11-155.34,13.69-168.66,8.22C714.43,886.55,702.33,875.7,703.49,861.19Z"/></g><g id="WChair"><path class="cls-35" d="M386.32,852.1v14.14a3,3,0,0,0,3.25,2.72H543.65c2,0,3.48-4.77,3.18-6.47-1.79-10.11-15.43-25.28-27.23-25-38.88.77-116.7,9.29-131.33,12.17A2.51,2.51,0,0,0,386.32,852.1Z"/><path class="cls-35" d="M324.89,657.48l36.45,188.63a4.05,4.05,0,0,0,4.33,3.48l4.84-.6a4.31,4.31,0,0,0,3.54-4.43c0-13.86-.4-61.39-4.88-104.36-2.86-27.49-25.35-75-31.3-87.14a3.83,3.83,0,0,0-4.32-2.21l-5.6,1.34A4.49,4.49,0,0,0,324.89,657.48Z"/><polygon class="cls-36" points="440.85 874.59 431.81 918.2 507.93 918.2 504.02 874.59 440.85 874.59"/><path class="cls-37" d="M400,855.61V803.77a2,2,0,0,1,1.58-2L495,789"/><path class="cls-36" d="M544.83,880.65H375.73a3.53,3.53,0,0,1-2.91-1.59c-3.44-5-8.89-10.53,3.95-10.53h167.9c6.64,0,5.43,2.51,5.57,5.77C550.38,877.78,547.9,880.65,544.83,880.65Z"/><path class="cls-36" d="M519.71,913.35H368.89c-5.14,0-8,6.59-4.92,11.15l21.75,31.77a6,6,0,0,0,4.92,2.71h148.5c5,0,7.92-6.24,5.11-10.84l-19.43-31.77A6,6,0,0,0,519.71,913.35Z"/><path class="cls-38" d="M545.39,874.59h13.08a1.81,1.81,0,0,1,1.65,1.2l42.77,96.44a1.74,1.74,0,0,0,2.28,1.08L659.5,953.5"/><path class="cls-38" d="M378.79,874.59l-17.68,3.23a1.92,1.92,0,0,1-1.8-2l-2.17-10.9a1.92,1.92,0,0,1,1.81-2L369,860.46a2,2,0,0,0,1.77-2.38l-4.49-23.26"/><polyline class="cls-39" points="390.75 926.21 345.05 926.21 334.22 948.11"/><rect class="cls-36" x="621.69" y="946.34" width="32.73" height="14.55" rx="5" transform="translate(-283.42 269.96) rotate(-19.64)"/><line class="cls-38" x1="494.86" y1="789.27" x2="524.51" y2="785.65"/><rect class="cls-36" x="505.62" y="770.43" width="14.7" height="14.7" transform="translate(-96.63 73.17) rotate(-7.46)"/><ellipse class="cls-40" cx="400.22" cy="855.41" rx="4.51" ry="5.05"/><ellipse class="cls-40" cx="366.28" cy="834.82" rx="1.62" ry="1.82"/><ellipse class="cls-40" cx="368.08" cy="844.91" rx="1.62" ry="1.82"/><path class="cls-36" d="M521.42,974.88a31.45,31.45,0,1,1,31.44-31.44A31.48,31.48,0,0,1,521.42,974.88Z"/><path class="cls-41" d="M521.42,928A15.45,15.45,0,1,1,506,943.44,15.46,15.46,0,0,1,521.42,928m0-32a47.45,47.45,0,1,0,47.44,47.45A47.44,47.44,0,0,0,521.42,896Z"/><path class="cls-36" d="M328.81,978.57a15.35,15.35,0,1,1,15.35-15.35A15.36,15.36,0,0,1,328.81,978.57Z"/><path class="cls-41" d="M328.81,959.37a3.85,3.85,0,1,1-3.85,3.85,3.86,3.86,0,0,1,3.85-3.85m0-23a26.85,26.85,0,1,0,26.85,26.85,26.85,26.85,0,0,0-26.85-26.85Z"/></g><g id="Layer_34" data-name="Layer 34"><path class="cls-42" d="M1071,825a4.42,4.42,0,0,0-2-3,4.1,4.1,0,0,0-3,0c-1.52.55-1.59,1.5-3,2-1.24.44-1.78,0-3,0q-4.5,0-6,6a12.92,12.92,0,0,0,0,6c.62,2.62,1.66,3.32,2,6s-.48,3.66,0,4C1058,847.39,1072.62,831.2,1071,825Z"/><path class="cls-42" d="M1078,832c1.06-.59,2.77.82,3,1,4.69,3.83,1.79,14.9,0,15C1078.92,848.12,1075.19,833.56,1078,832Z"/><path class="cls-42" d="M1036,917a5,5,0,0,1,1,2c.44,2-.94,3.15-1,5-.07,2.17,1.71,4.12,3,5,4.33,2.93,10.71-1.17,12-2,1.81-1.16,7-8.19,7-11,0-2.31-1.07-2.62-3-6-2.53-4.43-1.55-6.76-4-13-1.28-3.26-4.25-.73-6-1Z"/><path class="cls-42" d="M1069,895c.56-.49,2,1,7,4a57.49,57.49,0,0,0,9,5,52.46,52.46,0,0,0,13,3c6,.65,8.71,0,9,1,.37,1.27-3.61,4.19-8,5-3.53.65-13.19,6.73-18,5-5.32-1.92-4.45-11.21-9-17C1070.06,898.53,1068.45,895.48,1069,895Z"/></g><g id="Layer_35" data-name="Layer 35"><path class="cls-43" d="M1082,847c-3.09.16-16.28.87-21,10-3.74,7.23,0,15.44,4,24a49.56,49.56,0,0,0,15,19c4.08,3,9.16,6.75,16,7,2.61.1,3.73-.38,7,0,6.24.72,8.38,3.18,12,4,9,2.06,21-7.46,20-12-.7-3.3-8.62-5.92-15-5-3.76.54-3,0-3,0a99,99,0,0,0-6-12,12.23,12.23,0,0,1-2-4,11.77,11.77,0,0,1,0-5c.61-3.69,1.83-4.31,2-7a12.63,12.63,0,0,0-1-5C1107.83,855.53,1096.43,846.23,1082,847Z"/></g><g id="Layer_38" data-name="Layer 38"><path class="cls-44" d="M1058,914c-3,.9-4.43,3.8-7,9-1.75,3.55-3.64,7.52-2,11a5.65,5.65,0,0,0,3,3c2.34.82,4.09-1,7-2,6.74-2.36,11.24,2.44,14,0s.26-9.32,0-10C1070.57,918.65,1063.55,912.33,1058,914Z"/></g><g id="Layer_40" data-name="Layer 40"><path class="cls-45" d="M1098.23,766.57c-4.4-1.16-10.27,6.69-12.93,12.25-5.07,10.6-4.43,25.31.5,27.06s15.11-9,17.17-20.66C1104.28,777.79,1102.68,767.75,1098.23,766.57Z"/><path class="cls-45" d="M1108.82,761.58c-4.08-.63-13,1.2-16.75,3.55-3.49,2.18-12.74,14.24-11.73,25.19.79,8.49-3.68,17.62-4.22,19.47-1.54,5.16-4,13.17-.62,15.12s8.44-6.39,11.22-9.07,2.41-7.11,2.06-10.23c-.68-6.18-3.22-7.09-5.27-13.57s.51-11.78,4.69-14.5c2-1.31,5.82-5.45,9.31-7.89C1097.84,769.43,1110,761.76,1108.82,761.58Z"/></g><g id="Layer_30" data-name="Layer 30"><path class="cls-29" d="M1109,855c-.2,3.85.55,4.37,3,15,1.43,6.2,1.78,5.78,3,10,.52,1.79,1,8,7,15,2.07,2.42,2.65,4,4,5,5.18,3.76,13.57,3.06,15,0,.72-1.55-1-2.41-3-9a52.84,52.84,0,0,0-2-6c-1.34-3.36-3.12-5.79-4-8-2-5-5-17.85-5-20,0-3.86.65-5.66,0-10-.58-3.88-1.08-7.18-3-8C1120.05,837.31,1109.47,845.8,1109,855Z"/><path class="cls-29" d="M1146,911c1.53.16,1.71,1,4,2,1.11.46,2.07.67,6,1,6.6.55,7.2.23,8,1,2.1,2,1.52,7.48-1,9-1.86,1.12-3.17-.89-9-1-2.17,0-3.1.22-6,0-2.57-.19-3.88-.3-5-1-1.81-1.13-4-3.93-3-7A6,6,0,0,1,1146,911Z"/><path class="cls-46" d="M1084,917c3.55-.47,2.64-.71,12-3,17.94-4.38,17.24-2.48,22-5a134.72,134.72,0,0,0,13-8c2.22-1.57,4.22-3.11,7-3,3.82.15,6.41,3.29,7,4a13.19,13.19,0,0,1,2,13c-1.8,4.49-5.8,6.47-9,8-3.63,1.73-6.4,2.14-16,3-22.37,2-23,1.21-27,3a19.13,19.13,0,0,1-8,2c-1.92,0-6.12.06-9-3-2.3-2.44-3.64-6.73-2-9C1077.23,917.3,1079.5,917.59,1084,917Z"/><path class="cls-46" d="M1047,891c-.9,2.4,2.27,7.12,5,15,1.3,3.75,1,3.91,2,6,1.38,2.87,2.08,3.81,6,9,2.29,3,4.94,4.81,7,8,.69,1.06,1.29,2.08,2,2,1.69-.19.58-6.33,4-9,3.22-2.51,8.56-.48,9-2,.14-.49-.38-.79-1-2a10.88,10.88,0,0,1-1-5c-.11-2-.74-4-2-8-1.09-3.42-2.23-7-5-10-4.68-5-12.24-6.33-18-5C1052.62,890.55,1048,888.39,1047,891Z"/><path class="cls-46" d="M1087,802c-.63,1.51.64,2.65,0,6a12.59,12.59,0,0,1-3,6c-3,3.16-5.66,2.11-7,4-2.81,4,5.3,14.12,10,20,7.42,9.27,11.24,13.91,17,14,3.65.06,8-1.66,10-5,3-5,0-11.72-2-16-3.32-7.31-6.22-7.27-7-12-1.29-7.81,6-11.62,4-16C1106.23,796.92,1089,797.29,1087,802Z"/><path class="cls-47" d="M1093.84,795.1s-3.17-4.17-5.35-3.52c-4.89,1.45-4.7,3.44-4.15,9.42.15,1.57,2.38,5.8,5.53,5.51,1-.09.25,2.71.37,4a84.51,84.51,0,0,0,3.1,11.76c1.25,3.89,6.39,6.58,10.78,8,7,2.34,12.92-2.5,17.46-6.63,3.31-3,10.44-9.48,12.2-20.21.66-4,1.82-11.11-2.56-16.84s-15.07-8.23-21.65-6C1100.05,783.78,1093.84,795.1,1093.84,795.1Z"/></g><g id="Layer_37" data-name="Layer 37"><path class="cls-3" d="M1081,920a11.25,11.25,0,0,0-8,2c-3.59,2.7-5.43,7.78-4,11,.68,1.53,1.57,1.47,3,4s1.12,3.52,2,5c2,3.27,6.7,3.84,8,4,6.26.75,11.18-3,15-6,3.3-2.55,9-7,8-10-1.12-3.33-8.79-.28-17-6C1085.46,922.23,1084.11,920.49,1081,920Z"/></g><g id="Layer_33" data-name="Layer 33"><path class="cls-43" d="M1083,815c-.12-.27-2.85.14-5,1-5,2-4.93,3.44-8,4-2.21.4-3.42-.14-5,1-1,.73-1,1.28-2,2-1.82,1.27-3.25.45-5,1-3.26,1-5.3,6.06-5,10,.21,2.73,1.37,2.69,2,6a13.72,13.72,0,0,1,0,3.84,41.39,41.39,0,0,1-1,6.16,43.26,43.26,0,0,0-1,11c.13,2.58.47,3.81,0,6-.4,1.86-1.14,3.22-3,6-4.59,6.88-5.54,6.7-7,10-1,2.32-1.35,4.21-2,8-.85,5-.23,5.14-1,9-.85,4.21-1.69,4.48-3,10-.66,2.8-1.43,6.88-1,7,.27.08.94-1.48,2-4,4.44-10.6,4.18-10.67,5-12,3.74-6.09,11.11-7.81,12-8,6.55-1.43,12.06,1.15,16,3,5.48,2.57,5.33,4.18,11,7,7.64,3.79,14.91,4.34,15,4s-5.17-1-11-4c-10.34-5.4-15.52-14.6-18-19-4.52-8-8.5-15.09-7-23,.5-2.65,1.87-6.71,0-11-.75-1.73-2.84-2.27-4-5-.54-1.26-.3-1.42-1-4-1.07-3.94-1.67-3.8-2-6a13.27,13.27,0,0,1,1-7c.57-1.49,1-2.5,2-3s1.72.14,4,0a9.08,9.08,0,0,0,4-1c1.75-1,2.25-2.22,3-2,.58.17.71,1,1,2a13.46,13.46,0,0,0,3,5,11.55,11.55,0,0,0,6,4c1.25.28,2.18.19,3,1,.54.54.74,1.17,1,3,.55,3.83.81,5.79,0,8a13.49,13.49,0,0,1-1,2c-1.86,3.81,1.15,11.26,6,15,8.9,6.86,24.21,1.42,27-3a10.35,10.35,0,0,1,4-4,18,18,0,0,1,3-1c3.18-1.28,4.16-6,5-10s-.23-2.88,0-14c0-1.41.08-3-1-4a5.41,5.41,0,0,0-7,0c-5,4-9,5-10,6-.59.59.23.89,2,5,1.37,3.19,2.06,4.81,2,6a7.26,7.26,0,0,1-4,6c-3.06,1.37-6.32-.48-9-2-5-2.85-7.78-6.78-10-10-4.71-6.86-2.64-7.63-7-13-1.56-1.93-3.6-4-3-6S1083.16,815.33,1083,815Z"/><path class="cls-43" d="M1113,909c.91,1.69,8.23-.74,9-1,3.13-1,7.63-2.53,10-6a8.93,8.93,0,0,1,3-3,7.42,7.42,0,0,1,3-1c1.14-.11,2,.1,2,0a9.81,9.81,0,0,0-3-1,21.5,21.5,0,0,0-8,0C1121.29,898.57,1111.84,906.86,1113,909Z"/></g><g id="Layer_27" data-name="Layer 27"><polygon class="cls-3" points="1156.86 905.38 1192.18 905.54 1192.18 906.65 1174.68 911.69 1156.86 906.49 1156.86 905.38"/><polygon class="cls-48" points="1156.85 905.39 1173.03 901 1192.2 905.54 1175.52 909.46 1156.85 905.39"/><polygon class="cls-49" points="1156.85 906.49 1174.68 910.89 1174.68 937.81 1156.85 932.6 1156.85 906.49"/><polygon class="cls-50" points="1192.2 906.64 1174.68 910.89 1174.68 937.81 1192.2 932.2 1192.2 906.64"/><polygon class="cls-3" points="1092.6 916.4 1134.1 916.27 1135.61 918.19 1113.86 924.03 1092 918.6 1092.6 916.4"/><polygon class="cls-51" points="1092 916.31 1111.84 910.92 1135.34 916.49 1113.67 921.87 1092 916.31"/><polygon class="cls-52" points="1092 917.66 1113.86 923.05 1113.86 956.05 1092 949.67 1092 917.66"/><polygon class="cls-53" points="1135.34 917.84 1113.86 923.05 1113.86 956.05 1135.34 949.17 1135.34 917.84"/><polygon class="cls-3" points="1115.31 939.36 1160.99 939.22 1162.66 941.33 1138.71 947.76 1114.64 941.79 1115.31 939.36"/><polygon class="cls-54" points="1114.64 939.26 1136.49 933.33 1162.36 939.46 1138.5 945.39 1114.64 939.26"/><polygon class="cls-55" points="1114.64 940.75 1138.71 946.68 1138.71 983.01 1114.64 975.99 1114.64 940.75"/><polygon class="cls-56" points="1162.36 940.94 1138.71 946.68 1138.71 983.01 1162.36 975.44 1162.36 940.94"/></g><g id="Layer_36" data-name="Layer 36"><path class="cls-29" d="M1058,848c-2.53-1.74-1.32-9-1-10,1.33-4.34,2.91-9.5,8-12,2.79-1.37,7.62-2.43,11,0,2.42,1.75,3.06,4.55,4,9a47.08,47.08,0,0,1,1,11c-.19,9.33,2.23,21.94,4,29,0,0,5,6,8,10,2.84,3.79,5.38,4.87,9,9,1.28,1.46,3.64,4.71,6,8a36.08,36.08,0,0,0,4,5c1.91,1.93,3,3.1,5,4,1.27.59,2.23.75,5,2a13,13,0,0,1,2,1c1.31.92,3.39,3,3,5-.23,1.15-1.22,1.76-1,3a1.85,1.85,0,0,1,0,1,1.47,1.47,0,0,1-1,1c-.92.1-1.74-2.27-2-3-.62-1.74-.36-2.25-1-3-1-1.12-2.73-1.41-3-1s.57.75,1,2c.32.94.06,1.19,0,4a26.35,26.35,0,0,0,0,3,3.41,3.41,0,0,1,0,2,1.7,1.7,0,0,1-1,1,2,2,0,0,1-2-1c-.47-.77-.18-1.48,0-3a11.92,11.92,0,0,0,0-4c-.6-2.45-3.12-4.44-4-4s-.42,3.41,0,5c.59,2.24,1.47,3,1,4a2.44,2.44,0,0,1-3,1c-.7-.41-.59-1.27-1-3-.59-2.48-1.21-2.43-2-5-.94-3.08-.6-5-1-5s-1.37,2-1,4c.25,1.35.89,1.62,1,3,.09,1.17-.23,2.79-1,3s-2.31-1.39-3-3c-1.19-2.78.27-4.41-1-6s-2.73-1.55-4-3c-1.5-1.71-1-5-1-5-1-1-6.18-2.63-8-4-4-3-10.63-6.56-16-15-7-11-12-32-12-35a40.6,40.6,0,0,0-1-4C1059,847.88,1059.27,848.87,1058,848Z"/></g><g id="Layer_39" data-name="Layer 39"><path class="cls-45" d="M1121.35,788.54c2.83.54,5.9.72,9.52,5.15,4.39,5.37,2.1,11.85,2.28,13.85.21,2.22,2.37-.93,2.8-2.27,2.35-7.25,3.86-16.34,3-21.37-2.38-14.85-16-20.62-20-21.25-3-.45-12.32-2.88-20,.84-9.45,4.58-13.17,14.54-13.28,19.31,0,1.15-.08,3.55,1.46,4.89s3.37.22,5.16,1.53c2.17,1.58,2.39,5.35,1.73,7.87-.86,3.29-.69,4.13-.63,4.08,4.62-4.45,4.12-1.84,10.5-6C1105,794.43,1111.51,786.65,1121.35,788.54Z"/></g><g id="Layer_41" data-name="Layer 41"><path class="cls-29" d="M1302,720c.83,3.1,3.23,3.38,5,8,.19.5,2.42,4.75,1,9-1,3-6.81,11.13-11,17-5,7-11,14-11,14-1,8.91,10.78,19.29,22,23,18.65,6.17,43.15-3.58,47-18,1.78-6.67-.48-13.78-9-30-3.82-7.27-10.16-15.13-16-22-7.9-9.29-14-16.49-20-15C1304.81,707.3,1300.64,714.93,1302,720Z"/><path class="cls-29" d="M1269.5,666.5c-2.16,6.72-1.77,11.68-1,15,1.07,4.6,2.59,4.83,3,9,.67,6.83-3.06,9.69-1,14,1,2,1.83,1.51,5,5s3.66,5.51,6,9,5.75,8.57,10,10c8.44,2.84,19.12-9,20-10,8.53-9.66,13.9-26.59,7-42-4.9-10.94-17.52-24.51-32-22C1277.14,656.12,1271.41,663.7,1269.5,666.5Z"/><path class="cls-30" d="M1267,676s10.72-4.8,19-2c6.23,2.11,10.55,8.51,14,20,3,10,3.53,15.43,8,21,5.58,7,16.57,13.48,27,10,6-2,10.29-2.6,15-11,2.58-4.6,3.09-9.65,2-18-2-15.37-4.24-32.34-19-45-3.49-3-14.28-12.25-30-12-13,.21-26.4,6.91-33,18C1266.19,663.4,1267,676,1267,676Z"/><path class="cls-57" d="M1354,914a16.31,16.31,0,0,1,16,0c1.72,1.06,1.51,1.53,5,5a55.93,55.93,0,0,0,11,9c6.16,3.56,7,1.16,14,5a42.81,42.81,0,0,1,10,8,24.93,24.93,0,0,1,4,6c1.15,2.15,1.14,2.65,1,3-.79,2-6.66,1.37-10,1-13.15-1.45-19.73-2.17-23-3-22-5.54-33-8.41-35-13C1344.1,928.45,1346.92,918.17,1354,914Z"/><path class="cls-58" d="M1312,961c12.6-3.94,23-4,37-4,4,0,11,1,25,3,19.48,2.79,28,5,32,6,1,.24,6,2,6-2,0-4.67-4.87-11.52-12-15-6.56-3.2-7.61-.26-18-3a53.29,53.29,0,0,1-20-10c-4.58-3.74-4-4.71-7-7-12.09-9.34-33.32-2.57-45,4-6.2,3.49-15.15,8.52-16,17-.42,4.25.15,7.73,4,10S1307.46,962.42,1312,961Z"/><path class="cls-59" d="M1315,873c-26.8,7.61-17,4.84-47,12-3.67.87.22.07-41,16-6.1,2.36-13.89,5.35-18,13-.79,1.46-4,7.83-2,15,1.67,6,6.17,9.57,8,11,10.66,8.34,63.14,30.36,111,2,9.1-5.39,30.07-17.82,33-39,1.3-9.41-.6-23.22-9-28C1343.81,871.48,1326.42,869.76,1315,873Z"/><path class="cls-24" d="M1327,890c-13.42,6.1-30.94,11.74-66,23-3.31,1.06-34.09,10.91-48,23-2.12,1.84-5.54,5.21-6,10-.63,6.5,4.55,11.67,6,13,5.64,5.19,12.89,5.79,16,6,51.55,3.54,87-5,87-5,25.93-6.25,32.2-10.71,36-14,2.63-2.28,22.73-20.18,17-40-2.65-9.16-10.5-17.63-20-20C1340.18,883.8,1332.51,887.49,1327,890Z"/><path class="cls-57" d="M1219,860c-2.59-.09-8.06-1.73-19-5-10.27-3.07-17-3-18-3s-2,2,0,3c1.26.63,10,4,10,4s-8,1-19,2c-6,.55-6.69,4.07-7,5-1.24,3.73,4.25,9.54,10,12,1.62.69,4.5,1.65,13,1,12.86-1,13.52-2.71,28-5,6.61-1,10.77-2.16,12-5,1-2.19-.16-5.28-2-7C1224.77,859.9,1221.76,860.1,1219,860Z"/><path class="cls-60" d="M1286,828s-12.83,14.22-36,23c-17.38,6.59-37,7-37,7l2,19s8.29,4.54,38,1c22.12-2.64,42-12,42-12Z"/><g id="Layer_42" data-name="Layer 42"><path class="cls-31" d="M1135.4,876l58.31-14.73a1.42,1.42,0,0,1,.93.09l34.75,16.36a1.65,1.65,0,0,1-.27,3.09l-86.76,23.31a1.66,1.66,0,0,1-2-1.22l-5.94-25.23A1.39,1.39,0,0,1,1135.4,876Z"/><path class="cls-3" d="M1137.85,876.25,1192,862.6a1.22,1.22,0,0,1,.84.1l29.39,15.55a1,1,0,0,1-.2,1.82l-76.78,20.62A1,1,0,0,1,1144,900l-7-22.29A1.18,1.18,0,0,1,1137.85,876.25Z"/></g><path class="cls-26" d="M1339,733s-9.51,12.09-27,22a110.4,110.4,0,0,1-24,10c-13.7,11.86-15,22-14,30,.9,7.22,3.14,11.08,6,23,3.53,14.74,7.46,31.14,1,46a113.86,113.86,0,0,1-12,21s13.51,7.17,21,8c11.91,1.32,27.83,2.44,34,3,11,1,46,16,46,16,1-23-2-34-4-53-2.35-22.31-1.19-28.33-4-57-1.06-10.8-2.47-23.35-7-39C1350.69,748.11,1339,733,1339,733Z"/><path class="cls-58" d="M1234.81,886c-2.6-.09-8.07-1.73-19-5-10.27-3.07-17-3-18-3s-2,2,0,3c1.26.63,10,4,10,4s-8,1-19,2c-6,.55-6.7,4.07-7,5-1.24,3.73,4.25,9.54,10,12,1.62.69,4.49,1.64,13,1,12.85-1,13.52-2.71,28-5,6.6-1,10.76-2.16,12-5,.94-2.19-.17-5.28-2-7C1240.57,885.92,1237.57,886.12,1234.81,886Z"/><path class="cls-60" d="M1320,801c-8,23.62-14.45,42.79-29,56-21.68,19.68-62,26-62,26l3,18s56.87-3.35,77-19c24.78-19.26,35.68-40.93,40-51,5.69-13.26,15.19-35.42,5-52-3.74-6.09-11.27-13-18-12C1322,769,1326.39,782.07,1320,801Z"/><path class="cls-3" d="M1293.27,713.26c-.75-.39-3.74.53-5.88,1.07a9.35,9.35,0,0,0-3.74,1.6c-.62.68,2.51,6.81,5.88,6.41C1293.26,721.89,1294.26,713.77,1293.27,713.26Z"/></g></svg>