<?xml version="1.0" encoding="utf-8"?>
<svg viewBox="-661.232 -288.01 1785.241 1074.877" xmlns="http://www.w3.org/2000/svg">
  <path class="st0" d="M1509.07,711.16c-55.61,80.45-257.43,250.24-511.35,198.69c-233.91-47.49-428.27-270.33-403.64-485.21 c41.83-364.95,407.36-345.96,680.76-249.93c151.73,53.3,317.9,147.45,313.71,306.39C1585.94,580.29,1558.22,640.05,1509.07,711.16z" transform="matrix(1, 0, 0, 1, -826.209534, -319.693481)" style="fill: rgb(241, 209, 208);"/>
  <ellipse id="shadow_10_" class="st1" cx="1080.05" cy="1002.76" rx="630.5" ry="21.36" transform="matrix(1, 0, 0, 1, -826.209534, -319.693481)" style="fill: rgb(239, 154, 154);"/>
  <g transform="matrix(1, 0, 0, 1, -826.209534, -319.693481)">
    <g>
      <circle class="st2" cx="1483.55" cy="165.26" r="54" style="display: none; fill: rgb(239, 154, 154); perspective-origin: 50% 50%;"/>
      <path class="st1" d="M1518.97,209.96h-67.26c-5.52,0-10-4.48-10-10V132.7c0-5.52,4.48-10,10-10h67.26c5.52,0,10,4.48,10,10v67.26 C1528.97,205.49,1524.49,209.96,1518.97,209.96z" style="fill: rgb(239, 154, 154);"/>
      <g class="st3" style="display: none;">
        <path class="st4" d="M1477.94,134.65h11.97v10.67h-11.97V134.65z M1477.94,152.39h11.97v43.23h-11.97V152.39z" style="fill: rgb(255, 255, 255);"/>
      </g>
      <g>
        <path class="st5" d="M1480.84,175.45c-0.75,0-1.36-0.61-1.36-1.36l0,0c0-4.97,1.98-8.62,7.48-13.52c3.09-2.77,4.01-5,4.01-7.62 c0-2.84-1.63-5.12-5.22-5.12c-3.72,0-5.27,2.29-5.84,5.35c-0.12,0.65-0.68,1.13-1.34,1.13h-7.77c-0.82,0-1.47-0.72-1.35-1.53 c0.88-6.01,5.14-13.21,16.5-13.15c12.18,0.07,15.76,7.94,15.76,13.71c0,4.66-1.52,7.89-6.89,12.86c-3.17,2.99-4.24,5.4-4.24,8.48 v0.78h-9.74V175.45z M1479.48,190.24v-9.59c0-0.75,0.61-1.36,1.36-1.36h8.39c0.75,0,1.36,0.61,1.36,1.36v9.59 c0,0.75-0.61,1.36-1.36,1.36h-8.39C1480.09,191.6,1479.48,190.99,1479.48,190.24z" style="fill: rgb(255, 255, 255);"/>
      </g>
    </g>
    <g>
      <path class="st1" d="M1436.45,391.78h-67.9c-5.52,0-10-4.48-10-10v-67.9c0-5.52,4.48-10,10-10h67.9c5.52,0,10,4.48,10,10v67.9 C1446.45,387.3,1441.98,391.78,1436.45,391.78z" style="fill: rgb(239, 154, 154);"/>
      <g>
        <path class="st5" d="M1400.19,324.12h5.67c1.09,0,1.98,0.88,1.98,1.98v4.63c0,1.09-0.88,1.98-1.98,1.98h-5.67 c-1.09,0-1.98-0.88-1.98-1.98v-4.63C1398.22,325,1399.1,324.12,1400.19,324.12z M1400.19,338.38h5.67c1.09,0,1.98,0.88,1.98,1.98 v30.81c0,1.09-0.88,1.98-1.98,1.98h-5.67c-1.09,0-1.98-0.88-1.98-1.98v-30.81C1398.22,339.26,1399.1,338.38,1400.19,338.38z" style="fill: rgb(255, 255, 255);"/>
      </g>
    </g>
    <g>
      <path class="st1" d="M1275.13,266.39h115.05c6.83,0,12.37-5.54,12.37-12.37v-76.7c0-6.83-5.54-12.37-12.37-12.37h-129.9 c-6.83,0-12.37,5.54-12.37,12.37v76.7v33.57L1275.13,266.39z" style="fill: rgb(239, 154, 154);"/>
      <g>
        <circle class="st5" cx="1304.2" cy="234.84" r="10.52" style="fill: rgb(255, 255, 255);"/>
        <circle class="st5" cx="1336.37" cy="234.84" r="10.52" style="fill: rgb(255, 255, 255);"/>
        <circle class="st5" cx="1368.53" cy="234.84" r="10.52" style="fill: rgb(255, 255, 255);"/>
      </g>
    </g>
    <g>
      <path class="st1" d="M826.04,602.26V330.92c0-9.48,7.68-17.16,17.16-17.16h395.89c9.48,0,17.16,7.68,17.16,17.16v271.34H826.04z" style="fill: rgb(239, 154, 154);"/>
      <line class="st6" x1="847.47" y1="351.99" x2="1256.55" y2="351.99" style="fill: none; stroke: rgb(255, 255, 255); stroke-miterlimit: 10; stroke-width: 2px;"/>
      <circle class="st7" cx="1202.77" cy="332.26" r="2.52" style="fill: rgb(255, 255, 255); stroke: rgb(255, 255, 255); stroke-miterlimit: 10; stroke-width: 4px;"/>
      <circle class="st7" cx="1217.91" cy="332.26" r="2.52" style="fill: rgb(255, 255, 255); stroke: rgb(255, 255, 255); stroke-miterlimit: 10; stroke-width: 4px;"/>
      <circle class="st7" cx="1233.05" cy="332.26" r="2.52" style="fill: rgb(255, 255, 255); stroke: rgb(255, 255, 255); stroke-miterlimit: 10; stroke-width: 4px;"/>
    </g>
    <line class="st8" x1="1339.55" y1="602.26" x2="746.55" y2="602.26" style="fill: none; stroke: rgb(239, 154, 154); stroke-miterlimit: 10; stroke-width: 4px;"/>
    <g>
      <path class="st0" d="M1117.93,582.93H851.41c-5.52,0-10-4.48-10-10v-79.17c0-5.52,4.48-10,10-10h266.52c5.52,0,10,4.48,10,10 v79.17C1127.93,578.45,1123.45,582.93,1117.93,582.93z" style="fill: rgb(241, 209, 208);"/>
      <g class="st3" style="display: none;">
        <path class="st4" d="M825.34,569.98h-45c-9.12,0-16.54-7.42-16.54-16.54v-39.01c0-9.12,7.42-16.54,16.54-16.54h45 c9.12,0,16.54,7.42,16.54,16.54v39.01C841.88,562.56,834.46,569.98,825.34,569.98z M780.34,504.15 c-5.67,0-10.28,4.61-10.28,10.28v39.01c0,5.67,4.61,10.28,10.28,10.28h45c5.67,0,10.28-4.61,10.28-10.28v-39.01 c0-5.67-4.61-10.28-10.28-10.28H780.34z" style="fill: rgb(255, 255, 255);"/>
      </g>
      <g>
        <path class="st5" d="M918.17,569.98h-45c-9.12,0-16.54-7.42-16.54-16.54v-39.01c0-9.12,7.42-16.54,16.54-16.54h45 c9.12,0,16.54,7.42,16.54,16.54v39.01C934.71,562.56,927.29,569.98,918.17,569.98z M873.17,504.15 c-5.67,0-10.28,4.61-10.28,10.28v39.01c0,5.67,4.61,10.28,10.28,10.28h45c5.67,0,10.28-4.61,10.28-10.28v-39.01 c0-5.67-4.61-10.28-10.28-10.28H873.17z" style="fill: rgb(255, 255, 255);"/>
      </g>
      <g>
        <path class="st5" d="M1009.25,570.85h-45c-9.12,0-16.54-7.42-16.54-16.54V515.3c0-9.12,7.42-16.54,16.54-16.54h45 c9.12,0,16.54,7.42,16.54,16.54v39.02C1025.79,563.43,1018.37,570.85,1009.25,570.85z M964.25,505.01 c-5.67,0-10.28,4.61-10.28,10.28v39.02c0,5.67,4.61,10.29,10.28,10.29h45c5.67,0,10.28-4.61,10.28-10.29V515.3 c0-5.67-4.61-10.28-10.28-10.28L964.25,505.01L964.25,505.01z" style="fill: rgb(255, 255, 255);"/>
      </g>
      <g>
        <path class="st5" d="M1100.67,570.85h-45c-9.12,0-16.54-7.42-16.54-16.54V515.3c0-9.12,7.42-16.54,16.54-16.54h45 c9.12,0,16.54,7.42,16.54,16.54v39.02C1117.2,563.43,1109.78,570.85,1100.67,570.85z M1055.66,505.01 c-5.67,0-10.28,4.61-10.28,10.28v39.02c0,5.67,4.61,10.29,10.28,10.29h45c5.67,0,10.28-4.61,10.28-10.29V515.3 c0-5.67-4.61-10.28-10.28-10.28L1055.66,505.01L1055.66,505.01z" style="fill: rgb(255, 255, 255);"/>
      </g>
      <g class="st3" style="display: none;">
        <path class="st4" d="M813.07,553.24c-0.5,0-1-0.12-1.46-0.36l-10.11-5.32l-10.12,5.32c-1.05,0.55-2.33,0.46-3.29-0.24 c-0.96-0.7-1.45-1.89-1.24-3.06l1.93-11.27l-8.18-7.98c-0.85-0.83-1.16-2.07-0.79-3.2s1.35-1.96,2.52-2.13l11.31-1.64l5.06-10.25 c0.53-1.07,1.61-1.74,2.8-1.74l0,0c1.19,0,2.28,0.68,2.8,1.74l5.06,10.25l11.31,1.64c1.18,0.17,2.16,1,2.52,2.13 c0.37,1.13,0.06,2.37-0.79,3.2l-8.18,7.98l1.93,11.27c0.2,1.17-0.28,2.36-1.24,3.06C814.37,553.04,813.72,553.24,813.07,553.24z M789.5,530.29l4.82,4.7c0.74,0.72,1.07,1.75,0.9,2.77l-1.14,6.64l5.97-3.14c0.91-0.48,2-0.48,2.91,0l5.96,3.14l-1.14-6.64 c-0.17-1.01,0.16-2.05,0.9-2.77l4.82-4.7l-6.67-0.97c-1.02-0.15-1.9-0.79-2.35-1.71l-2.98-6.04l-2.98,6.04 c-0.45,0.92-1.33,1.56-2.35,1.71L789.5,530.29z" style="fill: rgb(255, 255, 255);"/>
      </g>
      <g>
        <path class="st5" d="M1066.35,554.56c-0.09,0-0.18,0-0.27-0.01c-0.92-0.08-1.76-0.56-2.29-1.31l-9.18-13.03 c-0.99-1.41-0.66-3.36,0.76-4.36s3.36-0.66,4.36,0.75l7.04,9.99l26.69-26.69c1.22-1.22,3.2-1.22,4.42,0 c1.22,1.22,1.22,3.2,0,4.42l-29.31,29.32C1067.97,554.24,1067.18,554.56,1066.35,554.56z" style="fill: rgb(255, 255, 255);"/>
      </g>
      <g>
        <g>
          <line class="st9" x1="896.18" y1="554.92" x2="896.18" y2="531.23" style="fill: none;"/>
          <path class="st5" d="M896.18,558.05c-1.73,0-3.13-1.4-3.13-3.13v-23.69c0-1.73,1.4-3.13,3.13-3.13s3.13,1.4,3.13,3.13v23.69 C899.31,556.65,897.91,558.05,896.18,558.05z" style="fill: rgb(255, 255, 255);"/>
        </g>
        <g>
          <path class="st5" d="M905.21,530.93h-19.08c-0.81,0-1.57-0.43-1.97-1.14c-0.41-0.7-0.41-1.57,0-2.28l9.54-16.53 c0.81-1.41,3.13-1.41,3.94,0l9.54,16.53c0.41,0.7,0.41,1.57,0,2.28C906.78,530.5,906.02,530.93,905.21,530.93z M890.07,526.38 h11.2l-5.6-9.7L890.07,526.38z" style="fill: rgb(255, 255, 255);"/>
        </g>
      </g>
      <g>
        <g>
          <line class="st9" x1="986.24" y1="513.41" x2="986.24" y2="537.1" style="fill: none;"/>
          <path class="st5" d="M986.24,540.23c-1.73,0-3.13-1.4-3.13-3.12v-23.69c0-1.73,1.4-3.13,3.13-3.13s3.13,1.4,3.13,3.13v23.69 C989.36,538.83,987.97,540.23,986.24,540.23z" style="fill: rgb(255, 255, 255);"/>
        </g>
        <g>
          <path class="st5" d="M986.75,558.48c-0.81,0-1.56-0.43-1.97-1.14l-9.54-16.52c-0.41-0.7-0.41-1.57,0-2.27 c0.41-0.71,1.16-1.14,1.97-1.14h19.08c0.81,0,1.57,0.43,1.97,1.14c0.41,0.7,0.41,1.57,0,2.27l-9.54,16.52 C988.32,558.05,987.56,558.48,986.75,558.48z M981.15,541.95l5.6,9.7l5.6-9.7H981.15z" style="fill: rgb(255, 255, 255);"/>
        </g>
      </g>
    </g>
    <g>
      <path class="st0" d="M1230.55,583.26h-80c-5.52,0-10-4.48-10-10v-80c0-5.52,4.48-10,10-10h80c5.52,0,10,4.48,10,10v80 C1240.55,578.79,1236.07,583.26,1230.55,583.26z" style="fill: rgb(241, 209, 208);"/>
      <g>
        <path class="st5" d="M1187.92,506.29h6.46c1.24,0,2.25,1.01,2.25,2.25v5.27c0,1.24-1.01,2.25-2.25,2.25h-6.46 c-1.24,0-2.25-1.01-2.25-2.25v-5.27C1185.68,507.3,1186.68,506.29,1187.92,506.29z M1187.92,522.51h6.46 c1.24,0,2.25,1.01,2.25,2.25v35.05c0,1.24-1.01,2.25-2.25,2.25h-6.46c-1.24,0-2.25-1.01-2.25-2.25v-35.05 C1185.68,523.52,1186.68,522.51,1187.92,522.51z" style="fill: rgb(255, 255, 255);"/>
      </g>
    </g>
    <g>
      <path class="st0" d="M1140.89,450.78h90.19c5.36,0,9.7-4.34,9.7-9.7v-60.12c0-5.36-4.34-9.7-9.7-9.7h-101.82 c-5.36,0-9.7,4.34-9.7,9.7v60.12v26.32L1140.89,450.78z" style="fill: rgb(241, 209, 208);"/>
      <g>
        <circle class="st5" cx="1163.67" cy="426.05" r="8.24" style="fill: rgb(255, 255, 255);"/>
        <circle class="st5" cx="1188.89" cy="426.05" r="8.24" style="fill: rgb(255, 255, 255);"/>
        <circle class="st5" cx="1214.1" cy="426.05" r="8.24" style="fill: rgb(255, 255, 255);"/>
      </g>
    </g>
    <path class="st0" d="M1091.55,389.26h-235c-2.76,0-5-2.24-5-5v-8c0-2.76,2.24-5,5-5h235c2.76,0,5,2.24,5,5v8 C1096.55,387.02,1094.31,389.26,1091.55,389.26z" style="fill: rgb(241, 209, 208);"/>
    <path class="st0" d="M1017.55,425.26h-161c-2.76,0-5-2.24-5-5v-8c0-2.76,2.24-5,5-5h161c2.76,0,5,2.24,5,5v8 C1022.55,423.02,1020.31,425.26,1017.55,425.26z" style="fill: rgb(241, 209, 208);"/>
  </g>
  <path class="st10" d="M1049.68,870.4c-45.67-36.32-48.09-61.97-55.6-81.47l29.13-11.49c1.47,6.43,2.99,13.18,4.57,20.2 C1038.85,846.89,1052.49,872.64,1049.68,870.4z" transform="matrix(1, 0, 0, 1, -826.209534, -319.693481)" style="fill: rgb(212, 170, 140);"/>
  <path class="st11" d="M1128.73,894.39c0.07,0.69-77.57,29.52-78.2,29.23c-3.82-1.74-7.17-9.38-8.22-13.79l40.18-14.67l-4.35-11.64 c1.5,0.02,3-0.05,4.5-0.21C1090.73,882.43,1127.31,880.77,1128.73,894.39z" transform="matrix(1, 0, 0, 1, -826.209534, -319.693481)" style="fill: rgb(198, 198, 198);"/>
  <path class="st12" d="M1029.61,780.71l-33.9,11.62c-6.15-13.86-15.37-24.55-48.41-33.59C922.28,751.89,839,745,824.21,722.47 c-2.17-3.3-14.1-17.67-4.36-21.27c17.97-6.65,137.36-2.4,175.34,4.7C1009.11,708.5,1018.34,737.55,1029.61,780.71z" transform="matrix(1, 0, 0, 1, -826.209534, -319.693481)" style="fill: rgb(121, 148, 174);"/>
  <path class="st10" d="M1078.05,883.86l5.75,11.87l-41.15,14.34c-0.52-2.48-4.18-13.3-6.94-15.83c-16.9-15.47-28.15-29.9-42.17-46.88 c-7.24-8.77-13.35-17.88-18.37-26.42l51.44-21.33c1.8,5.14,3.75,10.64,5.86,16.54C1039.63,836.14,1051.3,874.85,1078.05,883.86z" transform="matrix(1, 0, 0, 1, -826.209534, -319.693481)" style="fill: rgb(212, 170, 140);"/>
  <path class="st13" d="M1021.82,802.8l-51.44,21.33c-12.63-21.44-18.45-39.3-18.45-39.3c-10.84-0.5-192.6,40.05-246.89,7.17 c-32.5-19.69-24.76-50.32-23.28-68.61c0.23-2.85,15.1-2.08,20.05-2.36c168.68-9.42,274.12-15.9,284.46-4.56 C999.86,731.38,999.28,738.43,1021.82,802.8z" transform="matrix(1, 0, 0, 1, -826.209534, -319.693481)" style="fill: rgb(106, 156, 198);"/>
  <path class="st14" d="M742.46,516.14c9.75-4.45,21.02-1.55,27.78,5.65c9.26,9.87,8.27,25.94,0.49,33.4 c-11.33,10.87-37.43,3.83-41.82-11.92C726.28,533.85,731.42,521.18,742.46,516.14z" transform="matrix(1, 0, 0, 1, -826.209534, -319.693481)" style="fill: rgb(139, 76, 27);"/>
  <path class="st15" d="M736.89,545.88c1.93-1.15,8.01-4.68,16.51-4.66c6.33,0.01,10.93,1.99,11.9,2.42 c9.1,4.05,13.28,11.92,15.45,16.03c5.11,9.64,4.92,18.39,4.84,20.43c-0.2,4.81-0.42,10.42-3.32,13.91 c-10.35,12.46-58.47,2.17-61.83-19.88C718.86,563.77,727.29,551.61,736.89,545.88z" transform="matrix(1, 0, 0, 1, -826.209534, -319.693481)" style="fill: rgb(122, 148, 175);"/>
  <path class="st10" d="M746.51,518.91c1.73,3.14-2.45,6.59-2.29,14.85c0.05,2.47,2.48,6.97,8.63,17.31 c6.94,11.67,15.71,21.92,34.03,35.86c4.32,3.29,5.22,3.72,5.17,5.67c-0.13,4.37-17.39,9.43-30.11,8.21 c-34.57-3.31-66.1-55.84-54.45-75.26C715.15,512.77,742.8,512.18,746.51,518.91z" transform="matrix(1, 0, 0, 1, -826.209534, -319.693481)" style="fill: rgb(212, 170, 140);"/>
  <path class="st16" d="M755.45,638.2c12.84,1.4,80.47,19.06,100.31,23.1c3.7,0.75,8.5,1.6,13.74-0.61c8.07-3.39,9.9-3.94,15.25-2.87 c7.99,1.6,20.29,6.21,24.3,8c2.36,1.05,6.31,6.67,3.66,9.57c-0.94,1.02-18.22-0.08-49.38,1.3c-23.55,1.04-19.65,2.09-38.27,1.69 c-40.49-0.87-59.88-0.64-68.44-13.69C751.42,656.76,747.86,637.37,755.45,638.2z" transform="matrix(1, 0, 0, 1, -826.209534, -319.693481)" style="fill: rgb(191, 154, 128);"/>
  <path class="st13" d="M668.37,597.08c-5.03-18.11-1.99-36.11,11.74-45.74c10.41-7.3,26.9-7.6,35.41,0.4 c7.75,7.29,11.7,20.13,11.7,20.13c5.44,0.94,16.72,0.24,17.05-14.52c0.17-7.65,9.91,10.48,24.46,19.56 c16.18,10.1,33.14,14.23,37.39,22.93c10.81,22.13-5.26,36.61-5.26,36.61c1.83,6.83,3.16,7.92,5.69,17.44 c2.09,7.87,2.46,17.06,0.95,21.59c-6.77,20.31-119.1,70.55-122.42,58.22C675.67,698.72,675.38,622.33,668.37,597.08z" transform="matrix(1, 0, 0, 1, -826.209534, -319.693481)" style="fill: rgb(106, 156, 198);"/>
  <path class="st10" d="M749.7,448.95c3.42,1.33,7.54,1.77,11.26,8.4c1.99,3.56,4.73,11.3,7.19,14.38c4.42,5.53,7.52,5.1,7.19,10.38 c-0.51,8.08-5.57,10.01-10.87,24.1c-3.15,8.38-1.51,6.9-6.04,12.51c-4.23,5.22-10.68,6.46-15.74,7.36 c-4.93,0.88-23.79,4.23-36.76-7.57c-14.58-13.27-14.56-39.19-2-55.26C715.84,447.99,737.14,444.06,749.7,448.95z" transform="matrix(1, 0, 0, 1, -826.209534, -319.693481)" style="fill: rgb(212, 170, 140);"/>
  <path class="st14" d="M667.17,592.22c0.15,1.38-11.44-25.47-13.51-38.73c-4.11-26.36,9.45-30.89,9.45-30.89s-6.49-13.48-1.17-26.49 c5.66-13.85,16.97-16.48,16.97-16.48s-5.56-14.5,6.59-28.8c13.95-16.42,29.13-8.17,29.13-8.17s2.41-3.15,4.78-3.16 c2.92-0.01,5.04,2.73,5.04,2.73s-3.65-11.91,13.13-14.34c9.77-1.41,16.02,17.94,12.73,21.07c-1.89,1.79-7.85,0.35-7.85,0.35 s8.2,7.5-11.8,22.15c-6.39,4.68-8.11-5.54-12.84-1.4c-1.89,1.65-4.58,4.95-5.5,9.09c-1.04,4.74,1.46,10.75,1.46,10.75 s10.78,6.43,14.43,15.09c3.4,8.07-0.07,20.65-0.07,20.65s10.81,3.47,16.26,12.06c5.13,8.08,5.8,24.34-1.6,30.55 c-5.45,4.56-15.73,6.51-16.59,2.7c-4.88-21.41-26.05-25.75-36.45-23.95C677.27,549.14,665.54,577.54,667.17,592.22z" transform="matrix(1, 0, 0, 1, -826.209534, -319.693481)" style="fill: rgb(139, 76, 27);"/>
  <path class="st17" d="M708.81,794.08v21.52c0,2.28,2.21,4.13,4.94,4.13h234.46c3.12,0,5.31-7.26,4.85-9.84 c-2.73-15.38-23.48-38.47-41.44-38.11c-59.16,1.16-177.57,14.13-199.84,18.52C709.9,790.67,708.81,792.43,708.81,794.08z" transform="matrix(1, 0, 0, 1, -826.209534, -319.693481)" style="fill: rgb(0, 83, 127);"/>
  <path class="st17" d="M615.35,497.94l55.45,287.02c0.66,3.4,3.5,5.69,6.59,5.3l7.36-0.92c3.07-0.38,5.39-3.29,5.39-6.74 c-0.02-21.09-0.61-93.42-7.42-158.8c-4.36-41.83-38.58-114.08-47.63-132.59c-1.29-2.63-3.96-4-6.58-3.37l-8.52,2.04 C616.73,490.67,614.64,494.28,615.35,497.94z" transform="matrix(1, 0, 0, 1, -826.209534, -319.693481)" style="fill: rgb(0, 83, 127);"/>
  <polygon class="st18" points="791.79,828.31 778.04,894.66 893.87,894.66 887.91,828.31 " transform="matrix(1, 0, 0, 1, -826.209534, -319.693481)" style="fill: rgb(116, 120, 124);"/>
  <path class="st19" d="M729.69,799.43v-78.88c0-1.55,1.04-2.86,2.41-3.05l142.08-19.45" transform="matrix(1, 0, 0, 1, -826.209534, -319.693481)" style="fill: none; stroke: rgb(116, 120, 124); stroke-linecap: round; stroke-miterlimit: 10; stroke-width: 34px;"/>
  <path class="st18" d="M950.01,837.52H692.7c-1.73,0-3.37-0.88-4.42-2.41c-5.23-7.62-13.53-16.02,6-16.02h255.5 c10.1,0,8.26,3.81,8.46,8.77C958.47,833.15,954.7,837.52,950.01,837.52z" transform="matrix(1, 0, 0, 1, -826.209534, -319.693481)" style="fill: rgb(116, 120, 124);"/>
  <path class="st18" d="M911.79,887.29h-229.5c-7.81,0-12.24,10.02-7.48,16.96l33.11,48.34c1.78,2.61,4.55,4.13,7.48,4.13h225.96 c7.58,0,12.06-9.5,7.78-16.5l-29.57-48.34C917.82,889.01,914.9,887.29,911.79,887.29z" transform="matrix(1, 0, 0, 1, -826.209534, -319.693481)" style="fill: rgb(116, 120, 124);"/>
  <path class="st20" d="M950.86,828.31h19.9c1.09,0,2.07,0.72,2.51,1.83l57.48,114.79c0.59,1.48,2.11,2.2,3.47,1.64l40.63-14.6" transform="matrix(1, 0, 0, 1, -826.209534, -319.693481)" style="fill: none; stroke: rgb(116, 120, 124); stroke-linecap: round; stroke-miterlimit: 10; stroke-width: 15px;"/>
  <path class="st20" d="M697.37,828.31l-26.9,4.92c-1.52,0-2.75-1.38-2.75-3.07l-3.3-16.59c0-1.7,1.23-3.07,2.75-3.07l15.3-3.69 c1.71,0,3.01-1.73,2.7-3.62l-6.84-35.4" transform="matrix(1, 0, 0, 1, -826.209534, -319.693481)" style="fill: none; stroke: rgb(116, 120, 124); stroke-linecap: round; stroke-miterlimit: 10; stroke-width: 15px;"/>
  <polyline class="st21" points="715.57,906.85 646.02,906.85 629.54,940.17 " transform="matrix(1, 0, 0, 1, -826.209534, -319.693481)" style="fill: none; stroke: rgb(116, 120, 124); stroke-linecap: round; stroke-miterlimit: 10; stroke-width: 18px;"/>
  <line class="st22" x1="1046.31" y1="930.67" x2="1119.18" y2="903.43" transform="matrix(1, 0, 0, 1, -826.209534, -319.693481)" style="fill: none; stroke: rgb(116, 120, 124); stroke-linecap: square; stroke-miterlimit: 10; stroke-width: 15px;"/>
  <path class="st18" d="M1103.7,909.67l-37.49,13.38c-2.6,0.93-5.46-0.43-6.39-3.03l-4.08-11.43c-0.93-2.6,0.43-5.46,3.03-6.39 l37.49-13.38c2.6-0.93,5.46,0.43,6.39,3.03l4.08,11.43C1107.65,905.88,1106.3,908.75,1103.7,909.67z" transform="matrix(1, 0, 0, 1, -826.209534, -319.693481)" style="fill: rgb(116, 120, 124);"/>
  <line class="st20" x1="873.98" y1="698.48" x2="919.1" y2="692.96" transform="matrix(1, 0, 0, 1, -826.209534, -319.693481)" style="fill: none; stroke: rgb(116, 120, 124); stroke-linecap: round; stroke-miterlimit: 10; stroke-width: 15px;"/>
  <rect x="890.3" y="669.79" transform="matrix(0.9915, -0.1298, 0.1298, 0.9915, -906.97583, -196.914795)" class="st18" width="22.36" height="22.36" style="fill: rgb(116, 120, 124);"/>
  <ellipse class="st23" cx="729.97" cy="799.12" rx="6.87" ry="7.68" transform="matrix(1, 0, 0, 1, -826.209534, -319.693481)" style="fill: rgb(38, 38, 38);"/>
  <ellipse class="st23" cx="678.32" cy="767.78" rx="2.47" ry="2.76" transform="matrix(1, 0, 0, 1, -826.209534, -319.693481)" style="fill: rgb(38, 38, 38);"/>
  <ellipse class="st23" cx="681.07" cy="783.14" rx="2.47" ry="2.76" transform="matrix(1, 0, 0, 1, -826.209534, -319.693481)" style="fill: rgb(38, 38, 38);"/>
  <path class="st23" d="M901.53,678.47" transform="matrix(1, 0, 0, 1, -826.209534, -319.693481)" style="fill: rgb(38, 38, 38);"/>
  <g transform="matrix(1, 0, 0, 1, -826.209534, -319.693481)">
    <ellipse class="st18" cx="914.42" cy="933.07" rx="56.2" ry="56.2" style="fill: rgb(116, 120, 124);"/>
    <path class="st24" d="M914.39,892.87c22.16,0,40.2,18.03,40.2,40.2s-18.03,40.2-40.2,40.2s-40.2-18.03-40.2-40.2 S892.23,892.87,914.39,892.87 M914.39,860.87c-39.87,0-72.2,32.32-72.2,72.2s32.32,72.2,72.2,72.2s72.2-32.32,72.2-72.2 S954.27,860.87,914.39,860.87L914.39,860.87z" style="fill: rgb(48, 48, 48);"/>
  </g>
  <g transform="matrix(1, 0, 0, 1, -826.209534, -319.693481)">
    <path class="st18" d="M621.31,992.53c-16.19,0-29.36-13.17-29.36-29.36s13.17-29.36,29.36-29.36s29.36,13.17,29.36,29.36 C650.67,979.36,637.5,992.53,621.31,992.53z" style="fill: rgb(116, 120, 124);"/>
    <path class="st24" d="M621.31,945.31c9.85,0,17.86,8.01,17.86,17.86s-8.01,17.86-17.86,17.86s-17.86-8.01-17.86-17.86 S611.46,945.31,621.31,945.31 M621.31,922.31c-22.57,0-40.86,18.29-40.86,40.86s18.29,40.86,40.86,40.86s40.86-18.29,40.86-40.86 C662.17,940.61,643.87,922.31,621.31,922.31L621.31,922.31z" style="fill: rgb(48, 48, 48);"/>
  </g>
  <path class="st10" d="M736.38,702.79c-12.22,0.41-18.66-19.45-16.9-30.46c2.17-13.53,13.12-22.04,18.3-22.72 c36.03-4.75,98.89,13.7,109.86,14.24c10.28,0.5,22.95,1.93,43.49-0.78c3.89-0.51,15.97,10.28,17.51,12.55 c2.46,3.64,5.59,7.81,3.1,8.51c-6.69,1.87-12.84-7.22-17.84-7.55c-0.08-0.01,8.1,8.84,8.49,11.76c0.29,2.18-5.78,7.74-8.97,7.13 c-3.05-0.59-3.8-8.63-5.05-8.25c-1.15,0.35,0.31,9.87-1.51,11.1c-2.57,1.74-9.67,2.44-8.89,0.18c0.72-2.08,2.44-7.14,1.51-11.1 c-0.83-3.53-8.2-0.9-9.99-0.66C846.12,689.8,761.53,701.95,736.38,702.79z" transform="matrix(1, 0, 0, 1, -826.209534, -319.693481)" style="fill: rgb(212, 170, 140);"/>
  <polygon class="st25" points="1503.46,866.72 1552.07,1014.42 1534.13,1014.42 1483.11,866.72 " transform="matrix(1, 0, 0, 1, -826.209534, -319.693481)" style="fill: rgb(52, 58, 64);"/>
  <path class="st11" d="M1373.53,930.29c11.35,1.18,18.13,9.57,18.7,10.28c4.37,5.57,5.42,11.67,5.61,14.02l-86.94,50.48 c-1.52-0.96-6.54-4.12-6.54-8.41c0-1.87,0.19-3.19,4.67-7.48c5.21-4.99,10.84-7.85,11.22-8.41c9.35-14.02,21.5-29.91,30.85-43 C1353.53,934.35,1362.75,929.17,1373.53,930.29z" transform="matrix(1, 0, 0, 1, -826.209534, -319.693481)" style="fill: rgb(198, 198, 198);"/>
  <path class="st5" d="M1276.08,974.67c9.23,6.7,10.91,17.36,11.04,18.26c0.99,7.01-1.16,12.81-2.16,14.95l-100.53,0.18 c-0.83-1.59-3.6-6.84-1.45-10.56c0.94-1.62,1.76-2.66,7.79-4.13c7.01-1.71,13.32-1.37,13.92-1.67 c15.11-7.46,33.59-15.13,48.23-21.78C1256.75,968.17,1267.32,968.31,1276.08,974.67z" transform="matrix(1, 0, 0, 1, -826.209534, -319.693481)" style="fill: rgb(255, 255, 255);"/>
  <path class="st26" d="M1249.2,941.51c1.87,14.96,2.8,23.37,5.61,36.46c1.73,8.06,24.31,5.93,24.3-2.8 c-0.01-12.25,0-19.63-1.87-34.59L1249.2,941.51z" transform="matrix(1, 0, 0, 1, -826.209534, -319.693481)" style="fill: rgb(176, 138, 103);"/>
  <path class="st26" d="M1335.93,911.84c7.54,13.06,11.67,20.45,19.39,31.41c4.75,6.75,25.56-4.23,22.2-12.29 c-4.72-11.3-7.55-18.12-15.09-31.18L1335.93,911.84z" transform="matrix(1, 0, 0, 1, -826.209534, -319.693481)" style="fill: rgb(176, 138, 103);"/>
  <path class="st27" d="M1355.77,860.18c0,0.93,23.39,53.92,23.39,53.92l-43.02,16.19l-38.33-67.31L1355.77,860.18z" transform="matrix(1, 0, 0, 1, -826.209534, -319.693481)" style="fill: rgb(50, 75, 91);"/>
  <path class="st28" d="M1246.39,746.13c-17.76,3.74-29.91,12.15-29.91,25.24c0,42.77,22.44,175.74,22.44,175.74l0,0l50.48-0.93 c-6.54-73.85-10.28-116.85-12.15-148.63C1271.2,779.18,1262.67,742.71,1246.39,746.13z" transform="matrix(1, 0, 0, 1, -826.209534, -319.693481)" style="fill: rgb(9, 87, 125);"/>
  <polygon class="st25" points="1303.97,866.72 1255.37,1014.42 1273.31,1014.42 1324.33,866.72 " transform="matrix(1, 0, 0, 1, -826.209534, -319.693481)" style="fill: rgb(52, 58, 64);"/>
  <line class="st29" x1="1495.83" y1="833.07" x2="1283.79" y2="832.13" transform="matrix(1, 0, 0, 1, -826.209534, -319.693481)" style="fill: none; stroke: rgb(81, 85, 89); stroke-linecap: round; stroke-miterlimit: 10; stroke-width: 76px;"/>
  <path class="st28" d="M1275.37,797.55c20.57,0.93,150.5,14.02,170.13,13.09c31.17-1.48,45.16-5.56,56.05-33.37c9-23,1.98-42.8-13-49 c-32.93-13.62-85.11-10.17-173.92,4.78c-12.12,2.04-68.24,13.09-68.24,13.09S1270.6,797.33,1275.37,797.55z" transform="matrix(1, 0, 0, 1, -826.209534, -319.693481)" style="fill: rgb(9, 87, 125);"/>
  <line class="st30" x1="1550.55" y1="624.26" x2="1510.79" y2="835.87" transform="matrix(1, 0, 0, 1, -826.209534, -319.693481)" style="fill: none; stroke: rgb(81, 85, 89); stroke-linecap: round; stroke-miterlimit: 10; stroke-width: 40px;"/>
  <path class="st10" d="M1309.93,549.63c-15.37-10.36-29.9-28.44-43.45-39.15c-6.15-4.86-25.28-21.33-34.02-21.07 c-2.61,0.08-16.53,1.3-20.67,4.16c-3.74,2.58,5.21,17.54,8.43,21.65c6.17,7.87,10.4-5.57,38.74,15.36 c3.35,2.47,17.31,35.46,23.23,37.7L1309.93,549.63z" transform="matrix(1, 0, 0, 1, -826.209534, -319.693481)" style="fill: rgb(212, 170, 140);"/>
  <path class="st31" d="M1393.49,528.34c-10.44,7.83-26.11,30.46-34.81,58.31c-4.07,13.04,3.71,12.22,4.35,23.5 c0.53,9.37,0.87,7.53,0.87,17.41c0,28.72-0.54,44,0.87,50.48c4.35,20.02,0,42.64,0,42.64s16.73,0.64,19.15,0 C1417.18,711.87,1415.01,512.19,1393.49,528.34z" transform="matrix(1, 0, 0, 1, -826.209534, -319.693481)" style="fill: rgb(96, 145, 178);"/>
  <path class="st10" d="M1371.55,572.26c-0.3-3.25,1.73-7.7,11.5-19.56c9.81-11.92,13.05-20.02,13.05-20.89 c0,0-28.72,12.18-33.07-19.15c-0.97-6.99-11.31-5.22-11.31-13.05c0-6.09,6.45-4.99,6.09-12.18c-0.87-17.41,12.39-33.81,16.54-34.81 c3.67-0.88,17.87-7,37.42-5.22c9.57,0.87,15.48,9.64,17.41,14.79c6.26,16.78-8.5,39.7-6.96,50.48c0.87,6.09,18.21,13.02,20.02,14.79 c7.73,7.6,13.33,49.8-30.46,55.7C1393.1,585.68,1372.37,581.08,1371.55,572.26z" transform="matrix(1, 0, 0, 1, -826.209534, -319.693481)" style="fill: rgb(212, 170, 140);"/>
  <path class="st31" d="M1387.55,534.26c-39,8-25.42,30.97-54,33c0,0-33-25-39.04-31.46c-2.59-2.77-24.15,17.88-24.15,17.88 c9.84,22.25,56.28,59.14,66.19,59.58c9.24,0.41,24-7.4,39-29" transform="matrix(1, 0, 0, 1, -826.209534, -319.693481)" style="fill: rgb(96, 145, 178);"/>
  <path class="st32" d="M1470.07,544c-1.01-1.56-4.35-4.35-13.92-9.57c-9.76-5.32-14.05-9.41-16.54-8.7 c-6.09,1.74-7.06,20.54-13.06,39.54c0,0-27.84,4.85-53.95,1.37c0,0-13.05,13.92-16.54,27.85c-2.67,10.68,8.7,37.42,16.54,47 c0,0-0.63,13.8-1.74,36.55c-0.95,19.54,1.69,45.24,1.69,45.24c17,23,90,28,117,17C1489.55,740.26,1479.65,558.8,1470.07,544z" transform="matrix(1, 0, 0, 1, -826.209534, -319.693481)" style="fill: rgb(221, 226, 232);"/>
  <path class="st13" d="M1451.8,531.82c37.75,18.44,42.64,25.49,47.87,63.72c0.83,6.1,4.89,90.72,6.89,156.72 c0.12,4.06-55.72,1.82-74,0c0,0-11.32-91.97-10-133C1423.55,588.26,1445.06,528.53,1451.8,531.82z" transform="matrix(1, 0, 0, 1, -826.209534, -319.693481)" style="fill: rgb(106, 156, 198);"/>
  <path class="st14" d="M1412.64,496.14c4.35-2.61,5.07-10.98,5.22-12.18c0.87-6.96-1.02-16.54-5.22-16.54 c-9.57,0-4.87,8.18-10.44,9.57c-20.89,5.22-32.57-18.87-35.68-16.54c-3.48,2.61-6.96,14.79-7.83,17.41 c-1.25,3.76-14.89-8.15-11.31-14.79c6.09-11.31,53.16-26.45,67.88-28.72c11.31-1.74,38.29,23.77,38.29,44.38 c0,21.76-7.83,26.98-11.31,31.33c-1.96,2.45-16.54,4.35-25.24,5.22c-1.73,0.17,0.53-5.55-0.87-5.22c-1.16,0.27-1.75,3.38-3.48,5.22 c-1.2,1.27-9.57,1.74-9.57,1.74s2.87-5.04,6.96-13.05C1410.35,503.34,1412.64,496.14,1412.64,496.14z" transform="matrix(1, 0, 0, 1, -826.209534, -319.693481)" style="fill: rgb(139, 76, 27);"/>
  <path class="st32" d="M1369.55,570.26c3.36-4.07,8.3-11.23,14-19c8.99-12.26,10-14,10-14s-5,18-15,31 C1376.26,571.25,1371.72,570.52,1369.55,570.26z" transform="matrix(1, 0, 0, 1, -826.209534, -319.693481)" style="fill: rgb(221, 226, 232);"/>
  <path class="st5" d="M1256.91,569.31c0,0,12.25,23.52,39.26,58.61c9.34,12.13,28.3,27.24,28.3,27.24s7.26-8.14,4.34-10.04 c-15.54-10.09-53.08-79.16-53.08-79.16C1273.66,575.3,1256.91,569.31,1256.91,569.31z" transform="matrix(1, 0, 0, 1, -826.209534, -319.693481)" style="fill: rgb(255, 255, 255);"/>
  <path class="st10" d="M1412.38,692.44c-17.46-4.15-40.53-7.74-57.12-12.52c-7.53-2.17-32.06-8.13-36.94-15.38 c-1.46-2.17-8.56-14.19-8.65-19.22c-0.08-4.55,17.3-5.98,22.51-5.75c9.99,0.44,1.53,11.7,35.05,22.56 c3.96,1.28,38.91-6.57,44.18-3.07L1412.38,692.44z" transform="matrix(1, 0, 0, 1, -826.209534, -319.693481)" style="fill: rgb(212, 170, 140);"/>
  <path class="st31" d="M1442.55,701.26c2,6,24,11,34,11c10.12,0,11.49-27.53,13-37c14-88-5.91-84.15-9-70 C1466.55,669.26,1430.82,666.06,1442.55,701.26z" transform="matrix(1, 0, 0, 1, -826.209534, -319.693481)" style="fill: rgb(96, 145, 178);"/>
  <path class="st13" d="M1453,587.07c-1.66,33.05-7.23,46.24-5.49,69.2l-56,0.82c-2.58,13.09-7.99,31.28-7.99,31.28 c24.12,3.22,87.99,23.19,93.54,14.97c5.17-7.67,19.42-79.67,18.97-103.34" transform="matrix(1, 0, 0, 1, -826.209534, -319.693481)" style="fill: rgb(106, 156, 198);"/>
</svg>