<svg xmlns="http://www.w3.org/2000/svg" xmlns:xlink="http://www.w3.org/1999/xlink" width="366" height="239" version="1.1" viewBox="0 0 366 239"><title>Group 6</title><defs><filter id="filter-1" width="151.7%" height="151.7%" x="-25.9%" y="-25.9%" filterUnits="objectBoundingBox"><feGaussianBlur in="SourceGraphic" stdDeviation="10"/></filter><filter id="filter-2" width="266.7%" height="266.7%" x="-83.3%" y="-83.3%" filterUnits="objectBoundingBox"><feGaussianBlur in="SourceGraphic" stdDeviation="10"/></filter><filter id="filter-3" width="266.7%" height="266.7%" x="-83.3%" y="-83.3%" filterUnits="objectBoundingBox"><feGaussianBlur in="SourceGraphic" stdDeviation="10"/></filter><filter id="filter-4" width="178.9%" height="178.9%" x="-39.5%" y="-39.5%" filterUnits="objectBoundingBox"><feGaussianBlur in="SourceGraphic" stdDeviation="10"/></filter><filter id="filter-5" width="207.1%" height="207.1%" x="-53.6%" y="-53.6%" filterUnits="objectBoundingBox"><feGaussianBlur in="SourceGraphic" stdDeviation="10"/></filter><filter id="filter-6" width="230.4%" height="230.4%" x="-65.2%" y="-65.2%" filterUnits="objectBoundingBox"><feGaussianBlur in="SourceGraphic" stdDeviation="10"/></filter><filter id="filter-7" width="266.7%" height="266.7%" x="-83.3%" y="-83.3%" filterUnits="objectBoundingBox"><feGaussianBlur in="SourceGraphic" stdDeviation="10"/></filter><filter id="filter-8" width="215.4%" height="215.4%" x="-57.7%" y="-57.7%" filterUnits="objectBoundingBox"><feGaussianBlur in="SourceGraphic" stdDeviation="10"/></filter></defs><g id="Home" fill="none" fill-rule="evenodd" stroke="none" stroke-width="1"><g id="HOME---Extra-large:-Desktops---12-col" transform="translate(-258.000000, -978.000000)"><g id="Group-6" transform="translate(280.000000, 1008.000000)"><circle id="Oval" cx="183" cy="68" r="58" fill="#D8A2A1" filter="url(#filter-1)"/><circle id="Oval" cx="146" cy="118" r="18" fill="#D8A2A1" filter="url(#filter-2)"/><circle id="Oval" cx="133" cy="141" r="18" fill="#D8A2A1" filter="url(#filter-3)"/><circle id="Oval" cx="46" cy="88" r="38" fill="#FFF" fill-opacity=".8" filter="url(#filter-4)"/><circle id="Oval" cx="286" cy="58" r="28" fill="#FFF" fill-opacity=".8" filter="url(#filter-5)"/><g id="Group-26"><circle id="Oval" cx="99" cy="23" r="23" fill="#FFF" fill-opacity=".8" filter="url(#filter-6)"/><g id="Group-7" stroke="#000" stroke-linecap="round" stroke-linejoin="round" transform="translate(125.000000, 24.000000)"><path id="Stroke-1" d="M39,96.5 C39,102.296933 33.1814737,107 26,107 C18.8185263,107 13,102.296933 13,96.5 C13,90.6975145 18.8185263,86 26,86 C33.1814737,86 39,90.6975145 39,96.5 Z"/><path id="Stroke-3" d="M12,118.502576 C12,120.98569 9.31571754,123 5.99726651,123 C2.68428246,123 0,120.98569 0,118.502576 C0,116.01431 2.68428246,114 5.99726651,114 C9.31571754,114 12,116.01431 12,118.502576 Z"/><path id="Stroke-5" stroke-width="2" d="M120.899612,45.7508874 C120.215399,39.5778933 116.093433,34.4483768 110.158025,31.3399118 C110.964617,18.4447249 99.5276917,8.72390679 86.2828866,9.15777382 C79.1959979,-1.57906199 62.8583277,-3.11681853 52.9900856,5.82962931 C44.8685335,-3.94610866 27.4961998,0.738556785 26.0777096,13.0351171 C9.78454102,16.9124603 -1.54669298,31.1202323 0.172183461,46.6241134 C1.84099554,61.7106034 15.2971836,72.8648303 31.440159,73.6007566 C36.3742801,78.4337057 45.4526178,79.1256962 52.0499882,75.0616253 C62.5746297,83.8488055 81.6380263,80.4163133 87.640187,68.6689517 C105.396348,72.0410321 122.468295,59.9421834 120.899612,45.7508874 Z"/></g><g id="Group-13" stroke="#000" stroke-linecap="round" stroke-linejoin="round" transform="translate(0.000000, 54.000000)"><path id="Stroke-1" stroke-width="2" d="M83.1413583,48.038625 L83.1413583,3.717625 C83.1413583,2.15879167 82.0094417,0.956375 80.454525,0.956375 L11.517275,0.956375 C9.95844167,0.956375 8.72469167,2.15879167 8.72469167,3.717625 L8.72469167,48.038625"/><path id="Stroke-3" stroke-width="2" d="M50.83865,55.9103417 L50.83865,57.1010083 C50.83865,58.0410083 50.0749,58.796925 49.1349,58.796925 L42.8369,58.796925 C41.8969,58.796925 41.13315,58.0410083 41.13315,57.1010083 L41.13315,55.9103417 L0.9599,55.9103417 L0.9599,60.6103417 C0.9599,62.345425 2.36206667,63.743675 4.08931667,63.743675 L87.8785667,63.743675 C89.6097333,63.743675 91.0119,62.345425 91.0119,60.6103417 L91.0119,55.9103417 L50.83865,55.9103417 Z"/><polyline id="Stroke-5" points="25 24 27.985 32.217 30.926 24 33.91 32.217 36.848 24"/><polyline id="Stroke-7" points="40 24 42.984 32.217 45.926 24 48.91 32.217 51.848 24"/><polyline id="Stroke-9" points="56 24 58.988 32.217 61.926 24 64.91 32.217 67.852 24"/><line id="Stroke-11" x1="67.607" x2="67.607" y1="32.399" y2="32.399"/></g><g id="Group-11" stroke="#000" stroke-linecap="round" stroke-linejoin="round" transform="translate(232.000000, 119.000000)"><path id="Stroke-1" stroke-width="2" d="M13.1919826,33.6669826 C5.13893913,32.267287 0.370113043,25.4523304 0.370113043,17.1527652 C0.370113043,7.83698261 6.76872174,0.370113043 15.1175913,0.370113043 L30.4156348,0.370113043 C38.7617652,0.370113043 45.5301565,7.48911304 45.5301565,16.8048957 C45.5301565,26.1179391 38.7617652,33.2396783 30.4156348,33.2396783 L25.5975043,33.2396783 L13.1919826,45.7410696 L13.1919826,33.6669826 Z"/><path id="Stroke-3" d="M31.1179478,39.0704652 C33.0682087,41.9985957 36.1935565,44.1953783 39.7160783,44.1953783 L43.8658609,44.1953783 L50.7739478,51.1007261 L50.7739478,43.5927696 C56.1426435,43.3900739 61.2127739,38.119987 61.2127739,31.6446826 C61.2127739,25.0433783 56.4494261,19.8390304 50.5301652,19.8390304"/><line id="Stroke-5" x1="11.85" x2="33.325" y1="16.804" y2="16.804"/><line id="Stroke-7" x1="11.85" x2="33.325" y1="11.326" y2="11.326"/><line id="Stroke-9" x1="11.85" x2="22.588" y1="22.283" y2="22.283"/></g><g id="Group-7" stroke="#000" stroke-linecap="round" stroke-linejoin="round" transform="translate(266.000000, 34.000000)"><path id="Stroke-1" stroke-width="2" d="M42.18995,21.5532167 C42.18995,32.9492167 32.94995,42.1892167 21.5521167,42.1892167 C10.1561167,42.1892167 0.916116667,32.9492167 0.916116667,21.5532167 C0.916116667,10.1553833 10.1561167,0.917216667 21.5521167,0.917216667 C32.94995,0.917216667 42.18995,10.1553833 42.18995,21.5532167 Z"/><line id="Stroke-3" x1="21.554" x2="21.554" y1="18.344" y2="32.552"/><line id="Stroke-5" x1="21.554" x2="21.554" y1="13.532" y2="10.552"/></g><g id="Group-19" transform="translate(59.000000, 143.000000)"><circle id="Oval" cx="18" cy="18" r="18" fill="#FFF" fill-opacity=".8" filter="url(#filter-7)"/><g id="Group-7" stroke="#000" stroke-linecap="round" stroke-linejoin="round" transform="translate(5.142857, 2.571429)"><path id="Stroke-1" stroke-width="2" d="M27.1221107,13.8556393 C27.1221107,21.1816393 21.1821107,27.1216393 13.8549321,27.1216393 C6.52893214,27.1216393 0.588932143,21.1816393 0.588932143,13.8556393 C0.588932143,6.52846071 6.52893214,0.589639286 13.8549321,0.589639286 C21.1821107,0.589639286 27.1221107,6.52846071 27.1221107,13.8556393 Z"/><line id="Stroke-3" x1="13.856" x2="13.856" y1="11.793" y2="20.927"/><line id="Stroke-5" x1="13.856" x2="13.856" y1="8.699" y2="6.784"/></g></g></g><circle id="Oval" cx="261" cy="143" r="26" fill="#FFF" fill-opacity=".8" filter="url(#filter-8)"/><path id="Stroke-1" stroke="#000" stroke-linecap="round" stroke-linejoin="round" d="M104.602143,31.9034283 C108.768478,30.9356042 113,26.1358149 113,19.976296 C113,13.5442693 108.00465,8 102.188787,8 L91.5306231,8 C85.7147602,8 81,13.5077477 81,19.9397744 C81,26.3057811 85.7147602,31.8795487 91.5306231,31.8795487 L94.8877818,31.8795487 L104.602143,40 L104.602143,31.9034283 Z"/><text id="?" fill="#333" font-family="Montserrat-Regular, Montserrat" font-size="43" font-weight="normal" letter-spacing="-.067"><tspan x="174" y="80">?</tspan></text></g></g></g></svg>