<svg xmlns="http://www.w3.org/2000/svg" xmlns:xlink="http://www.w3.org/1999/xlink" width="217" height="218" version="1.1" viewBox="0 0 217 218"><title>Group 3</title><defs><filter id="filter-1" width="249.9%" height="249.9%" x="-74.9%" y="-74.9%" filterUnits="objectBoundingBox"><feGaussianBlur in="SourceGraphic" stdDeviation="18"/></filter><filter id="filter-2" width="308.8%" height="308.8%" x="-104.4%" y="-104.4%" filterUnits="objectBoundingBox"><feGaussianBlur in="SourceGraphic" stdDeviation="18"/></filter><filter id="filter-3" width="308.8%" height="308.8%" x="-104.4%" y="-104.4%" filterUnits="objectBoundingBox"><feGaussianBlur in="SourceGraphic" stdDeviation="18"/></filter></defs><g id="Home" fill="none" fill-rule="evenodd" stroke="none" stroke-width="1"><g id="GETTING-STARTED-DROPDOWN---Extra-large:-Desktops---12-col" transform="translate(-751.000000, -205.000000)"><g id="Group-24" transform="translate(805.803213, 230.000000)"><g id="Group-22" transform="translate(0.000000, 28.963855)"><g id="Group-3" transform="translate(0.000000, 0.923695)"><circle id="Oval" cx="36.024" cy="55.422" r="36.024" fill="#5AA8D1" filter="url(#filter-1)"/><circle id="Oval" cx="26.787" cy="25.863" r="25.863" fill="#5AA8D1" filter="url(#filter-2)"/><circle id="Oval" cx="82.209" cy="83.133" r="25.863" fill="#5AA8D1" filter="url(#filter-3)"/><path id="Stroke-1" stroke="#333" stroke-linecap="round" stroke-linejoin="round" stroke-width="2" d="M71.6199553,48.7066675 C70.7909917,47.8720705 69.6857069,47.7757709 68.2810742,49.1468945 C66.9178896,50.4813325 62.984918,54.31039 62.6026736,54.658903 C62.5059612,54.7552027 62.4046435,54.8285738 62.2802989,54.8881879 C56.2518915,57.9330911 34.4823868,34.7202897 38.6318101,30.3592913 L44.8398262,24.3061704 C45.6411577,23.5128447 45.6457631,22.2288494 44.8674584,21.4446951 L24.5532453,0.822812863 C23.7841513,0.0340728706 22.5084684,-0.00261271047 21.6841102,0.795298677 C11.6122027,10.6316201 -4.92562078,20.6055124 33.298811,59.4188572 C48.4227911,74.7809442 69.621232,93.1971059 85.2518008,78.6008304 L85.6386505,78.2431459 C85.9011556,78.0046897 91.8835095,72.1854394 92.0446969,72.0157686 C92.7907641,71.2224429 92.7677373,69.9888902 92.007854,69.2139073 L71.6199553,48.7066675 Z"/><path id="Stroke-3" stroke="#333" stroke-linecap="round" stroke-linejoin="round" d="M85.63819,78.2449802 C85.63819,78.2449802 90.3310449,88.8379417 79.927552,99.1970327 C72.7339902,106.364478 61.1377108,103.773559 54.7362698,96.674899 L20.9007396,62.0987389 C20.9007396,62.0987389 13.1775622,55.8759472 5.89649878,62.6857082 C5.7859703,62.7911792 5.68004718,62.8920646 5.57872941,62.9975356 C0.913506583,67.6199188 0.899690523,75.1496343 5.55570264,79.7857746 L17.4421193,91.6214602"/></g></g></g></g></g></svg>