<?xml version="1.0" encoding="UTF-8"?>
<svg width="394px" height="239px" viewBox="0 0 394 239" version="1.1" xmlns="http://www.w3.org/2000/svg" xmlns:xlink="http://www.w3.org/1999/xlink">
    <title>Group 19</title>
    <defs>
        <filter x="-44.1%" y="-44.1%" width="188.2%" height="188.2%" filterUnits="objectBoundingBox" id="filter-1">
            <feGaussianBlur stdDeviation="10" in="SourceGraphic"></feGaussianBlur>
        </filter>
        <filter x="-44.1%" y="-44.1%" width="188.2%" height="188.2%" filterUnits="objectBoundingBox" id="filter-2">
            <feGaussianBlur stdDeviation="10" in="SourceGraphic"></feGaussianBlur>
        </filter>
        <filter x="-44.1%" y="-44.1%" width="188.2%" height="188.2%" filterUnits="objectBoundingBox" id="filter-3">
            <feGaussianBlur stdDeviation="10" in="SourceGraphic"></feGaussianBlur>
        </filter>
        <filter x="-44.1%" y="-44.1%" width="188.2%" height="188.2%" filterUnits="objectBoundingBox" id="filter-4">
            <feGaussianBlur stdDeviation="10" in="SourceGraphic"></feGaussianBlur>
        </filter>
        <filter x="-44.1%" y="-44.1%" width="188.2%" height="188.2%" filterUnits="objectBoundingBox" id="filter-5">
            <feGaussianBlur stdDeviation="10" in="SourceGraphic"></feGaussianBlur>
        </filter>
        <filter x="-44.1%" y="-44.1%" width="188.2%" height="188.2%" filterUnits="objectBoundingBox" id="filter-6">
            <feGaussianBlur stdDeviation="10" in="SourceGraphic"></feGaussianBlur>
        </filter>
        <filter x="-44.1%" y="-44.1%" width="188.2%" height="188.2%" filterUnits="objectBoundingBox" id="filter-7">
            <feGaussianBlur stdDeviation="10" in="SourceGraphic"></feGaussianBlur>
        </filter>
        <filter x="-75.0%" y="-75.0%" width="250.0%" height="250.0%" filterUnits="objectBoundingBox" id="filter-8">
            <feGaussianBlur stdDeviation="10" in="SourceGraphic"></feGaussianBlur>
        </filter>
    </defs>
    <g id="Home" stroke="none" stroke-width="1" fill="none" fill-rule="evenodd">
        <g id="HOME---Extra-large:-Desktops---12-col" transform="translate(-798.000000, -975.000000)">
            <g id="Group-19" transform="translate(828.000000, 1001.000000)">
                <circle id="Oval" fill="#F4DF74" filter="url(#filter-1)" cx="121" cy="149" r="34"></circle>
                <circle id="Oval" fill="#FFFFFF" filter="url(#filter-2)" cx="34" cy="116" r="34"></circle>
                <circle id="Oval" fill="#FFFFFF" filter="url(#filter-3)" cx="74" cy="86" r="34"></circle>
                <circle id="Oval" fill="#F4DF74" filter="url(#filter-4)" cx="164" cy="76" r="34"></circle>
                <circle id="Oval" fill="#F4DF74" filter="url(#filter-5)" cx="244" cy="136" r="34"></circle>
                <circle id="Oval" fill="#FFFFFF" filter="url(#filter-6)" cx="252" cy="38" r="34"></circle>
                <circle id="Oval" fill="#FFFFFF" filter="url(#filter-7)" cx="300" cy="78" r="34"></circle>
                <circle id="Oval" fill="#FFFFFF" filter="url(#filter-8)" cx="119" cy="27" r="20"></circle>
                <g id="Group-18" transform="translate(7.000000, 0.000000)" stroke-linecap="round" stroke-linejoin="round">
                    <g id="Group-13" transform="translate(0.000000, 79.000000)" stroke="#333333">
                        <path d="M40.4156167,29.6361167 C40.4156167,35.5267833 35.6412,40.3051167 29.7505333,40.3051167 C23.85595,40.3051167 19.0815333,35.5267833 19.0815333,29.6361167 C19.0815333,23.74545 23.85595,18.9710333 29.7505333,18.9710333 C35.6412,18.9710333 40.4156167,23.74545 40.4156167,29.6361167 Z" id="Stroke-1"></path>
                        <path d="M50.46735,34.6369167 L58.26935,33.6146667 C58.6336,30.967 58.6492667,28.4094167 58.26935,25.6599167 L50.46735,24.6376667 C49.9425167,22.44825 49.08085,20.3959167 47.9371833,18.5315833 L52.7351,12.2884167 C51.1292667,10.1616667 49.2336,8.26991667 47.1107667,6.66016667 L40.8676,11.4580833 C38.99935,10.3105 36.9470167,9.44883333 34.7576,8.92008333 L33.7392667,1.11808333 C31.0289333,0.742083333 28.47135,0.746 25.7806,1.11416667 L24.7622667,8.91616667 C22.5689333,9.441 20.5126833,10.3065833 18.6405167,11.45025 L12.39735,6.65233333 C10.3606833,8.1955 8.41801667,10.1029167 6.77301667,12.2766667 L11.5709333,18.5159167 C10.42335,20.3880833 9.55776667,22.4443333 9.02901667,24.6415833 L1.23093333,25.6599167 C0.878433333,28.1900833 0.854933333,30.8925833 1.23093333,33.6146667 L9.02901667,34.633 C9.55776667,36.83025 10.42335,38.8865 11.5709333,40.7586667 L6.77301667,46.9979167 C8.33185,49.0580833 10.2471,50.9968333 12.39735,52.62225 L18.6405167,47.8243333 C20.5126833,48.968 22.5689333,49.8335833 24.7622667,50.3584167 L25.7806,58.1565 C28.47135,58.5285833 31.0289333,58.5325 33.7392667,58.1525833 L34.7576,50.3545 C36.9470167,49.82575 38.99935,48.9601667 40.8676,47.8165 L47.1107667,52.6105 C49.2336,51.0046667 51.1292667,49.109 52.7351,46.9861667 L47.9371833,40.743 C49.08085,38.87475 49.9425167,36.8263333 50.46735,34.6369167 Z" id="Stroke-3" stroke-width="2"></path>
                    </g>
                    <g id="Group-11" transform="translate(49.000000, 47.000000)" stroke="#333333">
                        <path d="M27.3847167,23.7180833 C25.93555,27.25875 21.8896333,28.9546667 18.3489667,27.5055 C14.8083,26.0563333 13.1084667,22.0104167 14.56155,18.46975 C16.0107167,14.9251667 20.0566333,13.22925 23.5973,14.6823333 C27.1418833,16.1315 28.8338833,20.1774167 27.3847167,23.7180833 Z" id="Stroke-5"></path>
                        <path d="M33.4453667,30.0999 L38.9326167,31.5490667 C39.90395,29.8805667 40.6128667,28.1768167 41.1102833,26.23415 L36.1792,23.4180667 C36.42595,21.8122333 36.4102833,20.2103167 36.1596167,18.6475667 L41.0711167,15.7923167 C40.5776167,13.9319 39.8295333,12.1498167 38.8503667,10.4930667 L33.37095,11.9892333 C32.4387833,10.7163167 31.30295,9.57656667 29.9830333,8.62481667 L31.4361167,3.13365 C29.72845,2.14273333 28.0207833,1.44556667 26.1212,0.9599 L23.3090333,5.88706667 C21.6992833,5.64031667 20.0895333,5.65206667 18.5267833,5.90665 L15.6676167,0.99515 C13.8972833,1.46515 12.0760333,2.2054 10.3722833,3.21198333 L11.8723667,8.69531667 C10.5916167,9.62748333 9.45186667,10.7672333 8.50011667,12.08715 L3.00895,10.6379833 C2.08461667,12.2320667 1.3287,14.0298167 0.8352,15.9489833 L5.76628333,18.7650667 C5.51953333,20.3748167 5.5352,21.9884833 5.78586667,23.5512333 L0.878283333,26.4104 C1.3522,28.1924833 2.09636667,30.0137333 3.09903333,31.7018167 L8.57845,30.20565 C9.51453333,31.4824833 10.6542833,32.6222333 11.9742,33.5700667 L10.5211167,39.0612333 C12.22095,40.0443167 13.9247,40.7414833 15.83995,41.2349833 L18.6560333,36.2999833 C20.2618667,36.5467333 21.8677,36.5310667 23.43045,36.2764833 L26.2857,41.1879833 C28.1422,40.6944833 29.9282,39.9464 31.5810333,38.9672333 L30.0848667,33.4878167 C31.3577833,32.5517333 32.4975333,31.4159 33.4453667,30.0999 Z" id="Stroke-7" stroke-width="2"></path>
                    </g>
                    <g id="Group-14" transform="translate(218.000000, 0.000000)" stroke="#333333">
                        <path d="M39.9184667,29.3599667 C39.9184667,35.2506333 35.14405,40.0289667 29.2533833,40.0289667 C23.3588,40.0289667 18.5843833,35.2506333 18.5843833,29.3599667 C18.5843833,23.4693 23.3588,18.6948833 29.2533833,18.6948833 C35.14405,18.6948833 39.9184667,23.4693 39.9184667,29.3599667 Z" id="Stroke-1" transform="translate(29.251425, 29.361925) rotate(-180.000000) translate(-29.251425, -29.361925) "></path>
                        <path d="M49.9612318,34.3633125 L57.7632318,33.3410625 C58.1274818,30.6933958 58.1431485,28.1358125 57.7632318,25.3863125 L49.9612318,24.3640625 C49.4363985,22.1746458 48.5747318,20.1223125 47.4310651,18.2579792 L52.2289818,12.0148125 C50.6231485,9.8880625 48.7274818,7.9963125 46.6046485,6.3865625 L40.3614818,11.1844792 C38.4932318,10.0368958 36.4408985,9.17522917 34.2514818,8.64647917 L33.2331485,0.844479167 C30.5228151,0.468479167 27.9652318,0.472395833 25.2744818,0.8405625 L24.2561485,8.6425625 C22.0628151,9.16739583 20.0065651,10.0329792 18.1343985,11.1766458 L11.8912318,6.37872917 C9.85456512,7.92189583 7.91189845,9.8293125 6.26689845,12.0030625 L11.0648151,18.2423125 C9.91723178,20.1144792 9.05164845,22.1707292 8.52289845,24.3679792 L0.724815117,25.3863125 C0.372315117,27.9164792 0.348815117,30.6189792 0.724815117,33.3410625 L8.52289845,34.3593958 C9.05164845,36.5566458 9.91723178,38.6128958 11.0648151,40.4850625 L6.26689845,46.7243125 C7.82573178,48.7844792 9.74098178,50.7232292 11.8912318,52.3486458 L18.1343985,47.5507292 C20.0065651,48.6943958 22.0628151,49.5599792 24.2561485,50.0848125 L25.2744818,57.8828958 C27.9652318,58.2549792 30.5228151,58.2588958 33.2331485,57.8789792 L34.2514818,50.0808958 C36.4408985,49.5521458 38.4932318,48.6865625 40.3614818,47.5428958 L46.6046485,52.3368958 C48.7274818,50.7310625 50.6231485,48.8353958 52.2289818,46.7125625 L47.4310651,40.4693958 C48.5747318,38.6011458 49.4363985,36.5527292 49.9612318,34.3633125 Z" id="Stroke-3" stroke-width="2" transform="translate(29.246941, 29.363198) rotate(-180.000000) translate(-29.246941, -29.363198) "></path>
                    </g>
                    <g id="Group-15" transform="translate(277.000000, 50.000000)" stroke="#333333">
                        <path d="M26.3427625,22.5558703 C24.8935958,26.096537 20.8476791,27.7924536 17.3070125,26.343287 C13.7663458,24.8941203 12.0665125,20.8482036 13.5195958,17.307537 C14.9687625,13.7629536 19.0146791,12.067037 22.5553458,13.5201203 C26.0999291,14.969287 27.7919291,19.0152036 26.3427625,22.5558703 Z" id="Stroke-5" transform="translate(19.930623, 19.930624) rotate(-180.000000) translate(-19.930623, -19.930624) "></path>
                        <path d="M32.6101667,29.14 L38.0974167,30.5891667 C39.06875,28.9206667 39.7776667,27.2169167 40.2750833,25.27425 L35.344,22.4581667 C35.59075,20.8523333 35.5750833,19.2504167 35.3244167,17.6876667 L40.2359167,14.8324167 C39.7424167,12.972 38.9943333,11.1899167 38.0151667,9.53316667 L32.53575,11.0293333 C31.6035833,9.75641667 30.46775,8.61666667 29.1478333,7.66491667 L30.6009167,2.17375 C28.89325,1.18283333 27.1855833,0.485666667 25.286,5.68434189e-14 L22.4738333,4.92716667 C20.8640833,4.68041667 19.2543333,4.69216667 17.6915833,4.94675 L14.8324167,0.03525 C13.0620833,0.50525 11.2408333,1.2455 9.53708333,2.25208333 L11.0371667,7.73541667 C9.75641667,8.66758333 8.61666667,9.80733333 7.66491667,11.12725 L2.17375,9.67808333 C1.24941667,11.2721667 0.4935,13.0699167 2.87769808e-13,14.9890833 L4.93108333,17.8051667 C4.68433333,19.4149167 4.7,21.0285833 4.95066667,22.5913333 L0.0430833333,25.4505 C0.517,27.2325833 1.26116667,29.0538333 2.26383333,30.7419167 L7.74325,29.24575 C8.67933333,30.5225833 9.81908333,31.6623333 11.139,32.6101667 L9.68591667,38.1013333 C11.38575,39.0844167 13.0895,39.7815833 15.00475,40.2750833 L17.8208333,35.3400833 C19.4266667,35.5868333 21.0325,35.5711667 22.59525,35.3165833 L25.4505,40.2280833 C27.307,39.7345833 29.093,38.9865 30.7458333,38.0073333 L29.2496667,32.5279167 C30.5225833,31.5918333 31.6623333,30.456 32.6101667,29.14 Z" id="Stroke-7" stroke-width="2" transform="translate(20.137542, 20.137542) rotate(-180.000000) translate(-20.137542, -20.137542) "></path>
                    </g>
                    <g id="Group-15" transform="translate(167.000000, 119.000000)" stroke="#333333">
                        <path d="M13.4926344,11.5530067 C12.7503783,13.3665189 10.6780796,14.2351592 8.86456736,13.4929031 C7.05105517,12.750647 6.18040882,10.6783482 6.92467102,8.864836 C7.66692712,7.04931771 9.7392259,6.18067746 11.5527381,6.92493966 C13.3682564,7.66719576 14.2348905,9.73949454 13.4926344,11.5530067 Z" id="Stroke-5" transform="translate(10.208368, 10.208368) rotate(-180.000000) translate(-10.208368, -10.208368) "></path>
                        <path d="M16.7027683,14.9253659 L19.513311,15.667622 C20.0108232,14.8130244 20.3739268,13.940372 20.6287012,12.9453476 L18.1030244,11.5029634 C18.2294085,10.6804634 18.2213841,9.85996951 18.0929939,9.05953659 L20.6086402,7.59709146 C20.355872,6.64419512 19.9727073,5.73142073 19.4711829,4.88284146 L16.6646524,5.64917073 C16.1872012,4.99718902 15.6054329,4.41341463 14.929378,3.92593293 L15.6736402,1.11338415 C14.7989817,0.605841463 13.9243232,0.248756098 12.9513659,5.68434189e-14 L11.5109878,2.52367073 C10.6864817,2.39728659 9.86197561,2.40330488 9.06154268,2.53370122 L7.59709146,0.018054878 C6.69033537,0.258786585 5.7575,0.637939024 4.88484756,1.1535061 L5.65318293,3.96204268 C4.99718902,4.4394939 4.41341463,5.02326829 3.92593293,5.69932317 L1.11338415,4.95706707 C0.639945122,5.77354878 0.252768293,6.69434756 2.87769808e-13,7.67733537 L2.52567683,9.11971951 C2.39929268,9.94422561 2.40731707,10.7707378 2.53570732,11.5711707 L0.0220670732,13.035622 C0.264804878,13.9483963 0.645963415,14.8812317 1.15952439,15.7458598 L3.96605488,14.9795305 C4.4455122,15.6335183 5.02928659,16.2172927 5.70534146,16.7027683 L4.96107927,19.5153171 C5.83172561,20.0188476 6.70437805,20.3759329 7.68535976,20.6287012 L9.1277439,18.1010183 C9.9502439,18.2274024 10.7727439,18.219378 11.5731768,18.0889817 L13.035622,20.604628 C13.9865122,20.3518598 14.9012927,19.9686951 15.7478659,19.4671707 L14.9815366,16.6606402 C15.6335183,16.1811829 16.2172927,15.5994146 16.7027683,14.9253659 Z" id="Stroke-7" transform="translate(10.314351, 10.314351) rotate(-180.000000) translate(-10.314351, -10.314351) "></path>
                    </g>
                    <g id="Group-15" transform="translate(104.000000, 6.000000)" stroke="#333333">
                        <path d="M13.4926344,11.5530067 C12.7503783,13.3665189 10.6780796,14.2351592 8.86456736,13.4929031 C7.05105517,12.750647 6.18040882,10.6783482 6.92467102,8.864836 C7.66692712,7.04931771 9.7392259,6.18067746 11.5527381,6.92493966 C13.3682564,7.66719576 14.2348905,9.73949454 13.4926344,11.5530067 Z" id="Stroke-5" transform="translate(10.208368, 10.208368) rotate(-180.000000) translate(-10.208368, -10.208368) "></path>
                        <path d="M16.7027683,14.9253659 L19.513311,15.667622 C20.0108232,14.8130244 20.3739268,13.940372 20.6287012,12.9453476 L18.1030244,11.5029634 C18.2294085,10.6804634 18.2213841,9.85996951 18.0929939,9.05953659 L20.6086402,7.59709146 C20.355872,6.64419512 19.9727073,5.73142073 19.4711829,4.88284146 L16.6646524,5.64917073 C16.1872012,4.99718902 15.6054329,4.41341463 14.929378,3.92593293 L15.6736402,1.11338415 C14.7989817,0.605841463 13.9243232,0.248756098 12.9513659,5.68434189e-14 L11.5109878,2.52367073 C10.6864817,2.39728659 9.86197561,2.40330488 9.06154268,2.53370122 L7.59709146,0.018054878 C6.69033537,0.258786585 5.7575,0.637939024 4.88484756,1.1535061 L5.65318293,3.96204268 C4.99718902,4.4394939 4.41341463,5.02326829 3.92593293,5.69932317 L1.11338415,4.95706707 C0.639945122,5.77354878 0.252768293,6.69434756 2.87769808e-13,7.67733537 L2.52567683,9.11971951 C2.39929268,9.94422561 2.40731707,10.7707378 2.53570732,11.5711707 L0.0220670732,13.035622 C0.264804878,13.9483963 0.645963415,14.8812317 1.15952439,15.7458598 L3.96605488,14.9795305 C4.4455122,15.6335183 5.02928659,16.2172927 5.70534146,16.7027683 L4.96107927,19.5153171 C5.83172561,20.0188476 6.70437805,20.3759329 7.68535976,20.6287012 L9.1277439,18.1010183 C9.9502439,18.2274024 10.7727439,18.219378 11.5731768,18.0889817 L13.035622,20.604628 C13.9865122,20.3518598 14.9012927,19.9686951 15.7478659,19.4671707 L14.9815366,16.6606402 C15.6335183,16.1811829 16.2172927,15.5994146 16.7027683,14.9253659 Z" id="Stroke-7" transform="translate(10.314351, 10.314351) rotate(-180.000000) translate(-10.314351, -10.314351) "></path>
                    </g>
                    <g id="Group-6" transform="translate(132.000000, 23.000000)" stroke="#333333">
                        <polyline id="Stroke-1" stroke-width="2" points="42.5 0.611111111 42.5 13.5 55.3888889 13.5"></polyline>
                        <path d="M55.3888889,72.1450889 C55.3888889,73.5532 54.2482222,74.7228667 52.8368889,74.7228667 L3.147,74.7228667 C1.74211111,74.7228667 0.611111111,73.5532 0.611111111,72.1450889 L0.611111111,3.20564444 C0.611111111,1.80075556 1.74211111,0.611755556 3.147,0.611755556 L42.5,0.611755556 C43.1702222,0.611755556 43.4795556,0.898533333 43.9564444,1.36897778 L54.6284444,11.8992 C55.1117778,12.3793111 55.3888889,12.8175333 55.3888889,13.5006444 L55.3888889,72.1450889 Z" id="Stroke-3" stroke-width="2"></path>
                        <path d="M47.4986333,26.4282 L8.75141111,26.4282 C7.9523,26.4282 7.30463333,27.0404222 7.30463333,27.7976444 L7.30463333,54.0394222 C7.30463333,54.7966444 7.9523,55.4088667 8.75141111,55.4088667 L47.4986333,55.4088667 C48.2977444,55.4088667 48.9454111,54.7966444 48.9454111,54.0394222 L48.9454111,27.7976444 C48.9454111,27.0404222 48.2977444,26.4282 47.4986333,26.4282 Z" id="Stroke-5"></path>
                        <path d="M17.7762111,40.9046778 C19.9222111,40.9046778 21.6589889,39.2581222 21.6589889,37.2249 C21.6589889,35.1981222 19.9222111,33.5483444 17.7762111,33.5483444 C15.6302111,33.5483444 13.8902111,35.1981222 13.8902111,37.2249 C13.8902111,39.2581222 15.6302111,40.9046778 17.7762111,40.9046778 Z" id="Stroke-7"></path>
                        <polyline id="Stroke-9" points="15.9985111 55.26 28.8390667 38.6494444 34.0429556 45.2968889 40.7322889 35.3337778 48.9135111 46.473"></polyline>
                    </g>
                    <g id="Group-15" transform="translate(206.000000, 90.000000)" stroke="#000000">
                        <polygon id="Stroke-1" stroke-width="2" points="0.624 80.229 67.068 80.229 67.068 5.154 0.624 5.154"></polygon>
                        <line x1="14.7381" y1="0.01985" x2="14.7381" y2="14.75485" id="Stroke-3" stroke-width="2"></line>
                        <line x1="34.03255" y1="0.01985" x2="34.03255" y2="14.75485" id="Stroke-4" stroke-width="2"></line>
                        <path d="M18.8107,17.31825 C18.8107,19.55475 16.9872,21.36775 14.7367,21.36775 C12.4862,21.36775 10.6627,19.55475 10.6627,17.31825 C10.6627,15.07825 12.4862,13.26525 14.7367,13.26525 C16.9872,13.26525 18.8107,15.07825 18.8107,17.31825 Z" id="Stroke-5" stroke-width="2"></path>
                        <line x1="53.2416" y1="0.01985" x2="53.2416" y2="14.75485" id="Stroke-6" stroke-width="2"></line>
                        <path d="M57.3156,17.31825 C57.3156,19.55475 55.4921,21.36775 53.2381,21.36775 C50.9911,21.36775 49.1641,19.55475 49.1641,17.31825 C49.1641,15.07825 50.9911,13.26525 53.2381,13.26525 C55.4921,13.26525 57.3156,15.07825 57.3156,17.31825 Z" id="Stroke-7" stroke-width="2"></path>
                        <path d="M38.09115,17.31825 C38.09115,19.55475 36.26765,21.36775 34.01715,21.36775 C31.76665,21.36775 29.94315,19.55475 29.94315,17.31825 C29.94315,15.07825 31.76665,13.26525 34.01715,13.26525 C36.26765,13.26525 38.09115,15.07825 38.09115,17.31825 Z" id="Stroke-8" stroke-width="2"></path>
                        <line x1="29.28305" y1="38.3732" x2="53.08655" y2="38.3732" id="Stroke-9"></line>
                        <polygon id="Stroke-10" points="14.736 41.841 21.8375 41.841 21.8375 34.6765 14.736 34.6765"></polygon>
                        <line x1="29.28305" y1="52.3746" x2="53.08655" y2="52.3746" id="Stroke-11"></line>
                        <line x1="29.28305" y1="66.37635" x2="53.08655" y2="66.37635" id="Stroke-12"></line>
                        <polygon id="Stroke-13" points="14.736 55.841 21.8375 55.841 21.8375 48.6765 14.736 48.6765"></polygon>
                        <polygon id="Stroke-14" points="14.736 69.8445 21.8375 69.8445 21.8375 62.68 14.736 62.68"></polygon>
                    </g>
                    <g id="Group-14" transform="translate(86.000000, 116.333333)" stroke="#000000">
                        <polyline id="Stroke-1" points="48.8749333 43.3893333 48.8749333 35.768 53.8082667 35.768"></polyline>
                        <line x1="48.8749333" y1="39.5781333" x2="53.1122667" y2="39.5781333" id="Stroke-2"></line>
                        <g id="Group-13" transform="translate(0.000000, 0.513067)">
                            <path d="M58.6914667,27.0949333 L24.2461333,27.0949333 C22.6994667,27.0949333 21.4461333,28.3482667 21.4461333,29.8949333 L21.4461333,48.3989333 C21.4461333,49.9456 22.6994667,51.1989333 24.2461333,51.1989333 L58.6914667,51.1989333 C60.2354667,51.1989333 61.4888,49.9456 61.4888,48.3989333 L61.4888,29.8949333 C61.4888,28.3482667 60.2354667,27.0949333 58.6914667,27.0949333 Z" id="Stroke-3" stroke-width="2"></path>
                            <polyline id="Stroke-5" stroke-width="2" points="37.112 0.486933333 37.1226667 11.0762667 48.16 11.0762667"></polyline>
                            <path d="M48.1602667,21.4832 L48.1602667,11.0778667 C48.1602667,10.5072 47.9309333,10.2912 47.5256,9.8912 L38.6056,1.0992 C38.2082667,0.7072 37.6722667,0.485866667 37.1122667,0.485866667 L2.4616,0.485866667 C1.2856,0.485866667 0.3336,1.44053333 0.3336,2.61386667 L0.3336,59.5392 C0.3336,60.7125333 1.2856,61.6672 2.4616,61.6672 L46.0296,61.6672 C47.2082667,61.6672 48.1602667,60.7125333 48.1602667,59.5392 L48.1602667,56.5792" id="Stroke-7" stroke-width="2"></path>
                            <path d="M29.5717333,42.8762667 L29.5717333,35.2549333 L32.4330667,35.2549333 C32.4330667,35.2549333 34.8810667,35.1642667 34.8810667,37.2229333 C34.8810667,39.3562667 32.4330667,39.3776 32.4330667,39.3776 L29.5717333,39.3829333" id="Stroke-9"></path>
                            <path d="M41.0989333,42.8632 C43.0802667,42.8632 44.6856,41.1592 44.6856,39.0578667 C44.6856,36.9565333 43.0802667,35.2525333 41.0989333,35.2525333 L38.5256,35.2525333 L38.5256,42.8765333 L41.0989333,42.8765333 L41.0989333,42.8632 Z" id="Stroke-11"></path>
                        </g>
                    </g>
                </g>
            </g>
        </g>
    </g>
</svg>