<?xml version="1.0" encoding="utf-8"?>
<!-- Generator: Adobe Illustrator 25.3.1, SVG Export Plug-In . SVG Version: 6.00 Build 0)  -->
<svg version="1.1" xmlns="http://www.w3.org/2000/svg" xmlns:xlink="http://www.w3.org/1999/xlink" x="0px" y="0px"
	 viewBox="0 0 1920 1080" style="enable-background:new 0 0 1920 1080;" xml:space="preserve">
<style type="text/css">
	.st0{fill:#ACC3DE;}
	.st1{opacity:0.5;fill:#6189AA;}
	.st2{fill:#FFFFFF;}
	.st3{opacity:0.72;fill:#ACC3DE;}
	.st4{fill:#72869B;}
	.st5{fill:#D4AA8C;}
	.st6{fill:#324B5B;}
	.st7{fill:#00537F;}
	.st8{fill:#8B4C1B;}
	.st9{fill:#6A9CC6;}
	.st10{fill:none;stroke:#507893;stroke-width:3;stroke-miterlimit:10;}
	.st11{fill:#AD1039;}
	.st12{fill:#FCE2BE;}
	.st13{fill:none;stroke:#74787C;stroke-width:5;stroke-miterlimit:10;}
	.st14{fill:none;stroke:#74787C;stroke-width:20;stroke-miterlimit:10;}
	.st15{fill:none;stroke:#343A40;stroke-width:20;stroke-miterlimit:10;}
	.st16{fill:#74787C;}
	.st17{fill:#343A40;}
	.st18{fill:#7994AE;}
	.st19{fill:none;stroke:#7C7C7C;stroke-width:15;stroke-linecap:round;stroke-miterlimit:10;}
	.st20{fill:#7A94AF;}
	.st21{fill:#7C7C7C;}
	.st22{fill:#F6EEC5;}
	.st23{fill:#D6C476;}
	.st24{fill:none;stroke:#D6C476;stroke-width:4;stroke-miterlimit:10;}
	.st25{fill:none;stroke:#FFFFFF;stroke-width:2;stroke-miterlimit:10;}
	.st26{fill:#FFFFFF;stroke:#FFFFFF;stroke-width:4;stroke-miterlimit:10;}
	.st27{display:none;fill:#EF9A9A;}
	.st28{display:none;}
	.st29{display:inline;fill:#FFFFFF;}
	.st30{display:inline;fill:#D6C476;}
	.st31{display:none;fill:#FFFFFF;}
	.st32{fill:none;}
	.st33{display:inline;fill:none;}
	.st34{fill:none;stroke:#FFFFFF;stroke-width:3;stroke-miterlimit:10;}
	.st35{fill:none;stroke:#FFFFFF;stroke-width:8;stroke-miterlimit:10;}
	.st36{font-family:'RussoOne-Regular';}
	.st37{font-size:32.9037px;}
	.st38{fill:#E8E8E8;}
	.st39{fill:#ABCC58;}
	.st40{fill:none;stroke:#808C5A;stroke-width:3;stroke-miterlimit:10;}
	.st41{fill:#A0925A;}
	.st42{fill:#008BBC;}
	.st43{fill:#A52E0E;}
	.st44{font-size:22.8818px;}
	.st45{fill:#917663;}
	.st46{fill:#9FB170;}
	.st47{fill:#B18B67;}
	.st48{fill:#21140F;}
	.st49{fill:#666D57;}
	.st50{fill:#838D70;}
	.st51{fill:#DDE3E9;}
	.st52{fill:#331F19;}
	.st53{fill:none;stroke:#74787C;stroke-width:34;stroke-linecap:round;stroke-miterlimit:10;}
	.st54{fill:none;stroke:#74787C;stroke-width:15;stroke-linecap:round;stroke-miterlimit:10;}
	.st55{fill:none;stroke:#74787C;stroke-width:18;stroke-linecap:round;stroke-miterlimit:10;}
	.st56{fill:none;stroke:#74787C;stroke-width:15;stroke-linecap:square;stroke-miterlimit:10;}
	.st57{fill:#262626;}
	.st58{fill:#303030;}
	.st59{display:inline;}
</style>
<g id="Layer_1">
</g>
<g id="Layer_13">
</g>
<g id="background">
	<path class="st22" d="M1324.36,719.02c-50.78,73.32-235.07,228.06-466.94,181.07C643.83,856.81,466.34,653.73,488.83,457.9
		c38.2-332.6,371.98-315.29,621.63-227.77c138.55,48.57,290.29,134.37,286.47,279.23C1394.55,599.76,1369.24,654.22,1324.36,719.02z
		"/>
	<ellipse id="shadow_5_" class="st23" cx="992.56" cy="988.22" rx="595.56" ry="22.78"/>
</g>
<g id="Layer_9">
	<g id="Layer_11">
	</g>
	<g>
		<path class="st23" d="M1138.87,348h-391c-12.82,0-23.21,10.39-23.21,23.21v267.12h437.41V371.21
			C1162.07,358.39,1151.68,348,1138.87,348z"/>
		<line class="st24" x1="638.58" y1="639.46" x2="1256.63" y2="639.46"/>
		<line class="st34" x1="740.98" y1="385.32" x2="1162.05" y2="385.32"/>
		<circle class="st26" cx="1107.53" cy="368.81" r="2.44"/>
		<circle class="st26" cx="1122.18" cy="368.81" r="2.44"/>
		<circle class="st26" cx="1136.83" cy="368.81" r="2.44"/>
	</g>
	<g>
		<path class="st22" d="M1131.18,603.78h-88.57c-6.64,0-12.02-5.38-12.02-12.02v-52.25c0-6.64,5.38-12.02,12.02-12.02h88.57
			c6.64,0,12.02,5.38,12.02,12.02v52.25C1143.2,598.4,1137.82,603.78,1131.18,603.78z"/>
		<polygon class="st2" points="1073.73,545.22 1073.73,585.83 1108.93,565.52 		"/>
	</g>
	<path class="st22" d="M1136.28,427.19H969.62c-3.85,0-6.98-3.12-6.98-6.98v0c0-3.85,3.12-6.98,6.98-6.98h166.67
		c3.85,0,6.98,3.12,6.98,6.98v0C1143.26,424.07,1140.14,427.19,1136.28,427.19z"/>
	<path class="st22" d="M1136.28,453.97H969.62c-3.85,0-6.98-3.12-6.98-6.98v0c0-3.85,3.12-6.98,6.98-6.98h166.67
		c3.85,0,6.98,3.12,6.98,6.98v0C1143.26,450.85,1140.14,453.97,1136.28,453.97z"/>
	<path class="st22" d="M1136.28,480.77h-98.85c-3.86,0-6.98-3.13-6.98-6.98l0,0c0-3.86,3.13-6.98,6.98-6.98h98.85
		c3.86,0,6.98,3.13,6.98,6.98v0C1143.26,477.64,1140.13,480.77,1136.28,480.77z"/>
	<g>
		<path class="st23" d="M1021.93,313.52h-59.52c-5.52,0-10-4.48-10-10V244c0-5.52,4.48-10,10-10h59.52c5.52,0,10,4.48,10,10v59.52
			C1031.93,309.04,1027.46,313.52,1021.93,313.52z"/>
		<text transform="matrix(1 0 0 1 958.6328 287.9623)" class="st2 st36 st37">PDF</text>
	</g>
	<g>
		<path class="st23" d="M1213.24,284.87h-101.78c-7.73,0-14-6.27-14-14V169.09c0-7.73,6.27-14,14-14h101.78c7.73,0,14,6.27,14,14
			v101.78C1227.24,278.61,1220.97,284.87,1213.24,284.87z"/>
		<path class="st35" d="M1200.46,261.7h-75.31c-2.21,0-4-1.79-4-4v-75.31c0-2.21,1.79-4,4-4h75.31c2.21,0,4,1.79,4,4v75.31
			C1204.46,259.91,1202.67,261.7,1200.46,261.7z"/>
		<polygon class="st2" points="1193.22,240.36 1132.57,240.33 1146.28,200.48 1164.61,220.7 1175.69,211.03 		"/>
	</g>
	<g>
		<path class="st22" d="M951.81,603.85H752.19c-3.97,0-7.19-3.39-7.19-7.57v-59.95c0-4.18,3.22-7.57,7.19-7.57h199.62
			c3.97,0,7.19,3.39,7.19,7.57v59.95C959,600.46,955.78,603.85,951.81,603.85z"/>
	</g>
	<g>
		<g>
			<path class="st23" d="M1544.97,412.52l-328.13,0c-5.52,0-10-4.48-10-10v-67.84c0-5.52,4.48-10,10-10l328.13,0
				c5.52,0,10,4.48,10,10l0,67.84C1554.97,408.04,1550.49,412.52,1544.97,412.52z"/>
			<g class="st28">
				<path class="st29" d="M1252.29,344.9h6.19c1.19,0,2.16,0.88,2.16,1.97v4.63c0,1.09-0.97,1.97-2.16,1.97h-6.19
					c-1.19,0-2.16-0.88-2.16-1.97v-4.63C1250.14,345.78,1251.1,344.9,1252.29,344.9z M1252.29,359.15h6.19
					c1.19,0,2.16,0.88,2.16,1.97v30.79c0,1.09-0.97,1.97-2.16,1.97h-6.19c-1.19,0-2.16-0.88-2.16-1.97v-30.79
					C1250.14,360.04,1251.1,359.15,1252.29,359.15z"/>
			</g>
		</g>
		<g id="Symbol_Sheet_7_">
			<g>
				<path class="st2" d="M1285.7,402.33h-65.01c-2.21,0-4-1.79-4-4v-59.41c0-2.21,1.79-4,4-4h65.01c2.21,0,4,1.79,4,4v59.41
					C1289.7,400.54,1287.91,402.33,1285.7,402.33z M1224.54,340.76c-1.1,0-2,0.9-2,2v51.72c0,1.1,0.9,2,2,2h57.32c1.1,0,2-0.9,2-2
					v-51.72c0-1.1-0.9-2-2-2H1224.54z"/>
			</g>
			<g>
				<path class="st2" d="M1370.7,402.33h-65.01c-2.21,0-4-1.79-4-4v-59.41c0-2.21,1.79-4,4-4h65.01c2.21,0,4,1.79,4,4v59.41
					C1374.7,400.54,1372.91,402.33,1370.7,402.33z M1309.54,340.76c-1.1,0-2,0.9-2,2v51.72c0,1.1,0.9,2,2,2h57.32c1.1,0,2-0.9,2-2
					v-51.72c0-1.1-0.9-2-2-2H1309.54z"/>
			</g>
			<g>
				<path class="st2" d="M1455.7,402.33h-65.01c-2.21,0-4-1.79-4-4v-59.41c0-2.21,1.79-4,4-4h65.01c2.21,0,4,1.79,4,4v59.41
					C1459.7,400.54,1457.91,402.33,1455.7,402.33z M1394.54,340.76c-1.1,0-2,0.9-2,2v51.72c0,1.1,0.9,2,2,2h57.32c1.1,0,2-0.9,2-2
					v-51.72c0-1.1-0.9-2-2-2H1394.54z"/>
			</g>
			<g>
				<path class="st2" d="M1540.7,402.33h-65.01c-2.21,0-4-1.79-4-4v-59.41c0-2.21,1.79-4,4-4h65.01c2.21,0,4,1.79,4,4v59.41
					C1544.7,400.54,1542.91,402.33,1540.7,402.33z M1479.54,340.76c-1.1,0-2,0.9-2,2v51.72c0,1.1,0.9,2,2,2h57.32c1.1,0,2-0.9,2-2
					v-51.72c0-1.1-0.9-2-2-2H1479.54z"/>
			</g>
			<g>
				<path class="st2" d="M1262.77,386.67c-0.47,0-0.93-0.11-1.36-0.34l-9.46-4.97l-9.46,4.97c-0.99,0.52-2.18,0.43-3.08-0.22
					c-0.9-0.65-1.35-1.76-1.16-2.86l1.81-10.54l-7.65-7.46c-0.8-0.78-1.08-1.94-0.74-3c0.34-1.06,1.26-1.83,2.36-1.99l10.58-1.54
					l4.73-9.58c0.49-1,1.51-1.63,2.62-1.63l0,0c1.11,0,2.13,0.63,2.62,1.63l4.73,9.58l10.58,1.54c1.1,0.16,2.02,0.93,2.36,1.99
					c0.35,1.06,0.06,2.22-0.74,3l-7.65,7.46l1.81,10.54c0.19,1.1-0.26,2.21-1.16,2.86C1263.98,386.49,1263.37,386.67,1262.77,386.67
					z M1240.72,365.21l4.51,4.4c0.69,0.67,1,1.64,0.84,2.59l-1.06,6.21l5.58-2.93c0.85-0.44,1.87-0.44,2.72,0l5.58,2.93l-1.07-6.21
					c-0.16-0.95,0.15-1.92,0.84-2.59l4.51-4.4l-6.24-0.91c-0.95-0.14-1.78-0.74-2.2-1.6l-2.79-5.65l-2.79,5.65
					c-0.43,0.86-1.25,1.46-2.2,1.6L1240.72,365.21z"/>
			</g>
			<g>
				<path class="st2" d="M1412.39,387.31c-0.08,0-0.17,0-0.25-0.01c-0.86-0.07-1.64-0.52-2.14-1.23l-8.58-12.18
					c-0.93-1.32-0.61-3.14,0.71-4.07c1.32-0.94,3.15-0.62,4.07,0.7l6.58,9.34l24.96-24.96c1.14-1.14,2.99-1.14,4.14,0
					c1.14,1.14,1.14,2.99,0,4.14l-27.41,27.41C1413.91,387,1413.16,387.31,1412.39,387.31z"/>
			</g>
			<g>
				<g>
					<line class="st2" x1="1495.43" y1="356.28" x2="1522.02" y2="382.86"/>
					<path class="st2" d="M1522.01,385.78c-0.75,0-1.5-0.28-2.07-0.85l-26.58-26.58c-1.14-1.14-1.14-2.99,0-4.13
						c1.14-1.14,2.99-1.14,4.14,0l26.58,26.58c1.14,1.14,1.14,2.99,0,4.14C1523.51,385.5,1522.76,385.78,1522.01,385.78z"/>
				</g>
				<g>
					<line class="st2" x1="1495.43" y1="382.86" x2="1522.02" y2="356.28"/>
					<path class="st2" d="M1495.43,385.78c-0.75,0-1.5-0.28-2.07-0.85c-1.14-1.14-1.14-2.99,0-4.14l26.58-26.58
						c1.14-1.14,2.99-1.14,4.14,0c1.14,1.14,1.14,2.99,0,4.13l-26.58,26.58C1496.93,385.5,1496.18,385.78,1495.43,385.78z"/>
				</g>
			</g>
			<g>
				<g>
					<path class="st2" d="M1337.47,373.9c-1.61,0-2.92-1.31-2.92-2.92v-22.15c0-1.61,1.31-2.92,2.92-2.92
						c1.61,0,2.92,1.31,2.92,2.92v22.15C1340.4,372.59,1339.09,373.9,1337.47,373.9z"/>
				</g>
				<g>
					<path class="st2" d="M1337.95,390.97c-0.76,0-1.46-0.41-1.84-1.07l-8.92-15.45c-0.38-0.66-0.38-1.47,0-2.13
						c0.38-0.66,1.08-1.07,1.84-1.07h17.85c0.76,0,1.46,0.41,1.84,1.07c0.38,0.66,0.38,1.47,0,2.13l-8.92,15.45
						C1339.42,390.56,1338.71,390.97,1337.95,390.97z M1332.71,375.51l5.24,9.07l5.23-9.07H1332.71z"/>
				</g>
			</g>
		</g>
	</g>
	<g>
		<path class="st22" d="M874.84,497.01H753.28c-4.5,0-8.16-3.87-8.16-8.64V420c0-4.77,3.65-8.64,8.16-8.64h121.56
			c4.5,0,8.16,3.87,8.16,8.64v68.38C883,493.14,879.35,497.01,874.84,497.01z"/>
	</g>
	<g>
		<path class="st23" d="M1374,267h-74c-5.52,0-10-4.48-10-10v-74c0-5.52,4.48-10,10-10h74c5.52,0,10,4.48,10,10v74
			C1384,262.52,1379.52,267,1374,267z"/>
		<g>
			<path class="st2" d="M1354.83,192.92c-7.54,0-14.06,3.24-17.04,7.9v34.97c0,0.63-0.51,1.15-1.15,1.15s-1.15-0.52-1.15-1.15V200.9
				c-2.96-4.7-9.51-7.98-17.1-7.98c-10.37,0-18.8,6.08-18.8,10.04v43.46c0,0.32,0.26,0.57,0.57,0.57c0.32,0,8.03-9.46,18.22-9.46
				c13.7,0,17.9,13.03,18.22,13.03c0.32,0,3.14-13.03,18.22-13.03c10.19,0,17.9,9.46,18.22,9.46c0.32,0,0.57-0.26,0.57-0.57v-43.46
				C1373.63,199,1365.21,192.92,1354.83,192.92"/>
		</g>
	</g>
</g>
<g id="Lady">
	<path class="st2" d="M581.1,968.93c-4.34,5.02-5.97,12.36-4.06,25.29c0.02,0.15,51.22,0.87,83.16,0.71c0.61,0,4.05-7.64-0.47-11.17
		c-11.41-8.9-20.16-1.66-48.7-17.97C599.59,959.27,585.04,964.38,581.1,968.93z"/>
	<path class="st38" d="M481.41,928.72c-7.01,0.16-19.84,9.24-25.84,21.35c-1.07,2.16-0.49,4.77,1.3,6.38
		c7.95,7.16,28.5,26.5,40.94,37.17c1.42,1.22,3.22,1.88,5.09,1.88h37.63c5.47-17.52-17.21-16.4-22.99-19.71
		c-15.33-8.76-10.36-31.96-17.52-39.41C492.57,928.63,482.21,928.71,481.41,928.72z"/>
	<path class="st5" d="M582.47,939.1c-0.82,13.33-0.82,16.4,0,25.63c1.08,12.16,24.3,12.44,26.1,0c1.63-11.28,2.45-13.33,2.45-26.65
		C611.02,925.28,583.25,926.37,582.47,939.1z"/>
	<path class="st5" d="M488.96,908.86c-5.12,9.32-6.13,11.55-8.42,18.57c-3.02,9.26,18.05,19.04,23.77,10.78
		c5.19-7.5,6.61-8.65,10.98-18.3C519.5,910.63,493.85,899.96,488.96,908.86z"/>
	<path class="st6" d="M625.92,535.69c3.28,9.85,20.8,38.32,15.33,191.59c-3.7,103.64-21.52,192.93-28.09,224.68l-34.32-1.09
		c-3.28-47.08-3.28-93.3-10.95-199.5c-3.58-49.54-12.84-92.17-8.76-157.65c0.97-15.6,3.7-42.59,22.99-55.84
		C591.67,531.33,621.91,523.64,625.92,535.69z"/>
	<path class="st7" d="M525.75,527.48c-29.24,15.7-24.85,66.87-24.09,74.45c5.74,57.18,34.49,80.47,52.55,110.58
		c0.4,0.66-15.87,36.68-42.15,97.98c-21.15,49.35-22.73,75.99-29.84,103.91c-0.19,0.75,32.18,10.06,32.58,9.4
		c23.54-38.87,68.43-120.98,108.93-207.47c10.19-21.77-50.91-123.17-50.91-123.17s11.69-9.34,15.33-20.8
		c3.3-10.39,2.04-23.3-4.38-32.84C571.69,521.56,543.05,518.19,525.75,527.48z"/>
	<path class="st43" d="M593.08,330.96c6.59,2.62,10.29,7.28,13.14,10.95c3.08,3.97,17.91,23.11,8.76,40.51
		c-6.76,12.85-23.56,18.95-36.13,15.33c-22.68-6.54-31.83-44.8-17.52-60.21C568.29,330.04,582.06,326.58,593.08,330.96z"/>
	<path class="st43" d="M598.55,276.22c0-12.8-39.48-32.01-68.97-10.95c-7.66,5.47-14.11,11.19-16.6,32.12
		c-2.94,24.66,13.26,28.08-2.06,45.6c-10.44,11.94-14.48,10.4-19.65,21.91c-6.68,14.87-3.28,28.46,7.66,47.08
		c9.74,16.56-15.07,24.72-10.95,38.32c2.32,7.66,9.22,15.14,16.42,15.33c9.29,0.24,22.38-11.47,25.18-17.52
		c55.84-120.43,7.78-134.65,26.28-140.13c6.21-1.84,10.95-2.19,20.8-7.66C586.6,294.78,598.55,288.26,598.55,276.22z"/>
	<path class="st39" d="M701.47,491.9c-1.28,1.11-5.28,4.11-25.18,2.19c-26-2.5-32.8-4.44-39.41,0c-4.17,2.81-5.33,9.17-9.85,30.65
		c-2.49,11.81-0.14,10.54-2.19,12.04c-16.42,12.04-48.75,16.95-53.65,16.42c-15.41-1.66-48.94-20.56-49.27-22.99
		c-2.19-16.42-6.57-37.22-7.66-55.84c-19.71-40.51-37.36-69.49-27.37-81.02c14.23-16.42,53.65-30.65,81.02-27.37
		c18.51,2.22,53.65,12.04,67.88,18.61c14.05,6.49,18.35,31.92,20.8,51.46c1.87,14.88,1.09,24.09,1.09,24.09s33.54,2.44,44.89,10.95
		C711.25,477.61,710.22,484.38,701.47,491.9z"/>
	<path class="st5" d="M594.72,273.48c5.84,0.59,9.85,13.14,9.85,20.8c0,7.42-1.81,5.31,1.09,10.95c2.2,4.27,6.8,4.2,6.57,7.66
		c-0.55,8.21-7.76,5.08-8.76,12.04c-2.19,15.33-3.78,23.27-10.95,27.37c-7.23,4.14-19.71-2.19-19.71-2.19s0.32,9.77,14.23,19.71
		c7.66,5.47-6.57,21.9-20.8,20.8c-12.25-0.94-20.58-10.83-20.8-20.8c-0.2-9,6.24-14.94,5.47-22.99
		c-2.19-22.99-12.72-20.86-15.33-27.37c-2.19-5.47-0.8-16.18,4.38-18.61c5.53-2.6,10.63,9.39,18.61,6.57
		C595.82,294.29,594.72,273.48,594.72,273.48z"/>
	<path class="st40" d="M614.43,407.05c9.17,9.19,16.73,19.68,17.52,25.18c2.19,15.33-5.12,20.12-6.57,36.13
		c-0.69,7.66-0.09,1.88,0,7.66c0.13,7.91,1.25,14.36,2.19,18.61"/>
	<g>
		<g>
			<polygon class="st2" points="753.03,334.88 741.08,343.41 731.84,330.47 732.18,330.23 			"/>
			<polygon class="st2" points="797.28,396.06 722.96,449.12 669.52,374.96 708.44,347.17 727.68,333.43 739.89,350.53 756.04,339 
				753.13,334.9 			"/>
			
				<rect x="678.03" y="363.23" transform="matrix(0.8139 -0.5811 0.5811 0.8139 -87.4213 481.6505)" class="st11" width="60.01" height="28.09"/>
			<text transform="matrix(0.8139 -0.5811 0.5811 0.8139 691.7785 398.2537)" class="st2 st36 st44">PDF</text>
		</g>
		<path class="st42" d="M678.15,416.93l18.88,82.13c0.63,2.75,3.37,4.47,6.12,3.83l144.39-33.19c2.75-0.63,4.47-3.37,3.83-6.12
			l-21.36-92.44c-0.57-2.46-3.04-3.99-5.5-3.41l-13.42,3.2c-0.82,0.2-1.57,0.61-2.17,1.21l-10.02,10.02
			c-0.6,0.6-1.34,1.01-2.16,1.21l-114.76,27.43C679.23,411.44,677.51,414.18,678.15,416.93z"/>
	</g>
	<path class="st5" d="M608.41,477.66c19.74,0,41.72,0.4,61.31-5.47c10.95-3.28,19.71-27.37,28.46-27.37
		c3.15,0-5.47,18.61-5.47,18.61s10.25-7.41,24.09-9.85c7.14-1.26,18.61,2.19,19.71,5.47c2.55,7.64-13.14,25.18-20.8,29.56
		c-5.12,2.93-23.03-0.41-43.79,2.19c-17.52,2.19-52.55,21.9-59.12,21.9C609.5,512.7,602.93,477.66,608.41,477.66z"/>
	<path class="st40" d="M516.44,476.57c16.97,27.92,34.25,50.3,42.7,49.27c22.44-2.74,53.1-12.59,53.1-12.59s-4.55-6.04-5.47-16.42
		c-0.86-9.74,1.64-19.16,1.64-19.16s-18.06-0.55-49.27,1.09"/>
	<path class="st40" d="M543.27,424.57c7.68,10.24,15.51,21.9,22.99,35.03c3.19,5.59,7.19,12.17,9.85,17.52"/>
</g>
<g id="boy_sitting_x5F_1">
	<g id="Layer_7">
	</g>
	<path class="st45" d="M1110.86,884.64c52.2-14.38,63.6-35.4,77.11-49.31l-20.68-20.41c-3.6,4.95-7.35,10.16-11.25,15.58
		C1128.66,868.51,1107.65,885.52,1110.86,884.64z"/>
	<path class="st46" d="M1134.4,855.75l21.75,19.46c15.49-11.85,77.29-84.6,103.35-94.42c19.74-7.44,101.41-43.88,93.5-46.84
		c-14.58-5.47-79.29-11.85-111.18-7.29C1230.5,728.28,1164.35,814.15,1134.4,855.75z"/>
	<path class="st47" d="M1107.06,876.52l-3.01,11.13l38.39,10.07c0.98-2.14,3.59-4.91,6.59-6.64c18.44-10.59,30.41-16.41,46.54-28.95
		c8.33-6.48,15.71-13.49,21.99-20.2l-42.26-29.74c-2.67,4.29-5.55,8.87-8.66,13.79C1156.12,842.64,1133.1,873.78,1107.06,876.52z"/>
	<path class="st38" d="M1060.78,888.33c-0.06,0.64,78.39,29.1,78.96,28.8c3.46-1.79,7.88-6.87,8.77-24.75
		c0,0-16.57,10.04-27.09-20.07l-14.27,3.59c-1.39,0.09-2.78,0.09-4.18,0.01C1095.44,875.47,1062.84,867.09,1060.78,888.33z"/>
	<path class="st39" d="M1133.36,864.27l29.16,23.69c36.45-24.61,109.72-91.68,109.72-91.68c10.02-0.91,103.23,16.46,155.84-10.02
		c26.06-13.12,26.06-31.35,22.42-58.69c-0.35-2.63-16.91,4.06-21.51,4.01c-156.75-1.82-182.27-8.2-191.38,2.73
		C1225.64,748.7,1168.91,819.62,1133.36,864.27z"/>
	<path class="st47" d="M1336.33,630.08c-11.57-3.15-75.97-10.85-94.47-14.1c-3.45-0.61-7.88-1.5-11.66-5.19
		c-5.82-5.67-5.28-9.31-9.9-11.38c-4.53-2.03-6.2-1.52-15.45,1.11c-6.85,1.94-6.48,1.11-10.55,1.29c-2.4,0.11-8.8,2.24-7.5,5.64
		c0.46,1.2,16.85,7.5,43.3,19.26c19.98,8.89,16.26,8.48,32.47,14.45c35.26,12.99,51.93,19.77,63.75,11.4
		C1333.51,647.48,1343.17,631.94,1336.33,630.08z"/>
	<g>
		<path class="st11" d="M1204.69,608.45l-140.27,42.2c-6.36,1.91-13.06-1.69-14.98-8.05l-26.35-87.6
			c-1.91-6.36,1.69-13.06,8.05-14.98l140.27-42.2c6.36-1.91,13.06,1.69,14.98,8.05l26.35,87.6
			C1214.65,599.83,1211.05,606.53,1204.69,608.45z"/>
		<polygon class="st2" points="1089.93,550.36 1107.64,609.25 1149.82,564.45 		"/>
	</g>
	<path class="st52" d="M1364.84,519.72c-5.02-1.29-6.23-11.48-6.38-12.76c-0.99-8.38,9.96-15.18,13.67-12.76
		c8.87,5.79,12.88-4.78,27.87-6.21c2.05-0.19,16.39-0.55,27.73,9.85C1438.8,508.01,1442,552,1418,566c-5.25,3.06-32.77-42.18-38-43
		C1371.78,521.71,1372.03,521.57,1364.84,519.72z"/>
	<path class="st49" d="M1392.18,592.69c-12.65-10.32-36.77,31.38-64.71,30.99c-28.75-0.41-68.35-7.29-72-6.38
		c-10.46,2.61-10.94,16.4-10.02,18.23c3.18,6.37,15.22,13.71,72.91,23.69c30.09,5.21,46.29-0.55,56.5-5.47
		c10.21-4.91,12.15-10.02,14.58-20.96C1391.27,624.59,1393.54,593.8,1392.18,592.69z"/>
	<path class="st47" d="M1408.79,526.75c-1,16.4,5.21,4.53,11.94,4.56c3.27,0.01,5.16,3.63,5.47,7.29c0.52,6.23-2.19,16.4-8.19,16.4
		c-2.3,0,0.3,10.6,2,16c2.8,8.91,13.67,11.89,13,17c-1.24,9.46-28.08,20.16-40.82,11.99c-3.9-2.5-5.47-0.91-5.47-7.29
		c0-5.07-0.91-13.09-0.91-13.09s-10.94-4.56-14.58-10.02c-2.26-3.39-7.22-17.58-7.22-17.58c-5.47-2.73-6.22-8.29-4-12
		c3-5,5.75-5.05,5.75-11.43c0-7.29-0.91-6.38-0.91-11.85c0-4.33,2.26-5.36,4.16-4.72c3,1,17,1.15,21,1
		C1416,512,1410,507,1408.79,526.75z"/>
	<path class="st51" d="M1398.56,591.78h-11.85c-6.38,34.63-13.67,43.74-19.14,59.24c-13.62,38.6-22.78,50.12-5.47,59.24
		c5.08,2.67,10.84,5.93,16.4,4.56C1408.84,707.35,1398.56,591.78,1398.56,591.78z"/>
	<path class="st49" d="M1433,619c-5.86-4.8-12.36-37.06-9-40c8-7,20.91-3.56,38,10c14.48,11.48,40.68-0.76,41,14
		c0.3,14.16-27.7,40.59-42,40C1444.15,642.3,1444,628,1433,619z"/>
	<path class="st50" d="M1464.18,632.46c3.92-16.99-0.66-34.75-11.85-45.57c-10.02-9.7-20.71-10.82-29.16-5.14
		c-4.56,3.06-12.76,10.02-24.61,10.02c0,0-7.29,22.78-16.4,51.95c-6.04,19.31-12.52,69.68-10.94,73.82
		c7.11,18.55,75.81,25.24,78.38,13.67C1456.89,698.41,1458.71,656.16,1464.18,632.46z"/>
</g>
<g id="mob_x5F_chair">
	<path class="st7" d="M1433.65,794.59v19.62c0,2.08-2.02,3.76-4.51,3.76h-213.67c-2.84,0-4.84-6.62-4.42-8.97
		c2.49-14.02,21.4-35.06,37.77-34.73c53.91,1.06,161.83,12.88,182.12,16.88C1432.66,791.48,1433.65,793.09,1433.65,794.59z"/>
	<path class="st7" d="M1489.67,626.78l-21.37,159.5c-0.6,3.1-3.19,5.18-6.01,4.83l-6.71-0.83c-2.8-0.35-4.91-2.99-4.91-6.14
		c0.02-19.22-3.63-30.71,2.58-90.29c3.97-38.12,10.18-56.33,18.42-73.2c1.17-2.4,3.61-3.64,6-3.07l7.76,1.86
		C1488.41,620.16,1490.31,623.45,1489.67,626.78z"/>
	<polygon class="st16" points="1358.03,825.78 1370.57,886.26 1265,886.26 1270.43,825.78 	"/>
	<path class="st53" d="M1414.62,799.47v-71.89c0-1.41-0.94-2.61-2.2-2.78l-129.48-17.73"/>
	<path class="st16" d="M1213.84,834.18h234.5c1.57,0,3.07-0.8,4.03-2.2c4.77-6.94,12.33-14.6-5.47-14.6h-232.85
		c-9.21,0-7.52,3.48-7.71,7.99C1206.13,830.2,1209.57,834.18,1213.84,834.18z"/>
	<path class="st16" d="M1248.67,879.54h209.15c7.12,0,11.15,9.13,6.82,15.45l-30.17,44.06c-1.63,2.37-4.15,3.77-6.82,3.77h-205.92
		c-6.91,0-10.99-8.66-7.09-15.03l26.94-44.06C1243.18,881.11,1245.83,879.54,1248.67,879.54z"/>
	<path class="st54" d="M1213.06,825.78h-18.14c-0.99,0-1.89,0.65-2.29,1.67l-52.38,104.62c-0.54,1.35-1.92,2.01-3.16,1.49
		l-37.03-13.31"/>
	<path class="st54" d="M1444.08,825.78l24.52,4.48c1.38,0,2.5-1.25,2.5-2.8l3-15.12c0-1.55-1.12-2.8-2.5-2.8l-13.94-3.36
		c-1.56,0-2.74-1.58-2.46-3.3l6.24-32.26"/>
	<polyline class="st55" points="1427.5,897.37 1490.87,897.37 1505.9,927.73 	"/>
	<line class="st56" x1="1126.08" y1="919.07" x2="1059.67" y2="894.24"/>
	<path class="st16" d="M1074.2,900.09l33.33,11.9c2.6,0.93,5.46-0.43,6.39-3.03l3.42-9.58c0.93-2.6-0.43-5.46-3.03-6.39l-33.33-11.9
		c-2.6-0.93-5.46,0.43-6.39,3.03l-3.42,9.58C1070.24,896.3,1071.6,899.16,1074.2,900.09z"/>
	<line class="st54" x1="1283.13" y1="707.47" x2="1242.01" y2="702.44"/>
	
		<rect x="1247.83" y="681.33" transform="matrix(-0.9915 -0.1298 0.1298 -0.9915 2415.624 1540.5082)" class="st16" width="20.38" height="20.38"/>
	<ellipse class="st57" cx="1414.37" cy="799.19" rx="6.26" ry="7"/>
	<ellipse class="st57" cx="1461.44" cy="770.63" rx="2.25" ry="2.52"/>
	<ellipse class="st57" cx="1458.94" cy="784.63" rx="2.25" ry="2.52"/>
	<g>
		<path class="st16" d="M1246.3,971.05c-27.46,0-49.79-22.34-49.79-49.8s22.34-49.8,49.79-49.8c27.46,0,49.8,22.34,49.8,49.8
			S1273.76,971.05,1246.3,971.05z"/>
		<path class="st58" d="M1246.3,887.46c18.63,0,33.79,15.16,33.79,33.79s-15.16,33.79-33.79,33.79s-33.8-15.16-33.8-33.79
			S1227.66,887.46,1246.3,887.46 M1246.3,855.46c-36.34,0-65.8,29.46-65.8,65.79s29.46,65.79,65.8,65.79
			c36.34,0,65.79-29.46,65.79-65.79S1282.64,855.46,1246.3,855.46L1246.3,855.46z"/>
	</g>
	<g>
		<circle class="st16" cx="1513.4" cy="948.7" r="25.74"/>
		<path class="st58" d="M1513.4,934.46c7.85,0,14.24,6.39,14.24,14.24s-6.39,14.24-14.24,14.24c-7.85,0-14.24-6.39-14.24-14.24
			S1505.55,934.46,1513.4,934.46 M1513.4,911.46c-20.57,0-37.24,16.67-37.24,37.24s16.67,37.24,37.24,37.24
			c20.57,0,37.24-16.67,37.24-37.24S1533.96,911.46,1513.4,911.46L1513.4,911.46z"/>
	</g>
</g>
<g id="boy_sitting_arm">
	<path class="st47" d="M1390.18,708c11.3,1.08,18.4-16.94,17.4-27.24c-1.23-12.65-10.89-21.16-15.65-22.09
		c-33.09-6.47-92.37,7.02-102.56,6.88c-9.55-0.13-21.36,0.47-40.23-3.22c-3.58-0.7-15.38,8.61-16.93,10.62
		c-2.49,3.23-4.8,5.78-3.36,7.7c4.07,5.42,9.89,9.45,11.5,10.69c2.28,1.76,16.59,6.86,18.95,4.54c1.45-1.43-1.85-6.76-0.76-10.36
		c0.97-3.22,7.64-0.36,9.29-0.04C1289.29,689.68,1366.93,705.78,1390.18,708z"/>
	<g id="Layer_8">
		<path class="st50" d="M1385.8,655.58c-31.9,0.91-43.74,1.82-60.15,3.65c-10.64,1.18-43.91,4.28-45.57,5.47
			c-6.38,4.56-9.07,23.05-4.56,23.69c6.38,0.91,106.63,24.61,140.35,19.14c14.74-2.39,20.55-28.77,14.58-40.1
			C1425.14,657.31,1409.26,654.91,1385.8,655.58z"/>
	</g>
</g>
<g id="Layer_12">
</g>
<g id="Layer_5" class="st28">
	<g id="Waves_3_" class="st59">
		<path class="st22" d="M334.53,60.71c-6.87,7.5-14.38,14.51-22.45,20.78c-8.08,6.27-16.75,11.79-25.9,16.34
			c-9.15,4.56-18.77,8.15-28.62,10.7c-9.85,2.56-19.94,4.09-30.03,4.73c-10.11,0.63-20.21,0.42-30.23-0.44
			c-10.02-0.86-19.95-2.37-29.78-4.28c-9.83-1.91-19.55-4.25-29.22-6.77c-9.66-2.51-19.26-5.2-28.86-7.83
			c-0.47-0.14-0.74-0.61-0.62-1.08c0.13-0.46,0.6-0.74,1.06-0.62c9.68,2.37,19.33,4.84,29.03,7.07c9.7,2.23,19.43,4.25,29.21,5.85
			c9.79,1.6,19.63,2.79,29.49,3.34c4.93,0.27,9.85,0.38,14.78,0.32c4.92-0.07,9.83-0.35,14.72-0.83c9.76-0.96,19.42-2.77,28.77-5.54
			c9.35-2.78,18.38-6.51,26.9-11.16c8.53-4.64,16.56-10.18,24-16.4c3.73-3.11,7.3-6.4,10.75-9.82c3.44-3.44,6.74-6.98,9.94-10.69
			c1.71-1.99,4.71-2.21,6.7-0.5c1.99,1.71,2.21,4.71,0.5,6.7c-0.03,0.03-0.06,0.06-0.08,0.09L334.53,60.71z"/>
		<path class="st22" d="M407.87,107.64c-13.61,7.33-27.72,13.83-42.26,19.23c-14.54,5.4-29.53,9.65-44.78,12.46
			c-15.26,2.82-30.78,4.17-46.26,4.09c-15.48-0.07-30.89-1.59-46.09-3.95c-15.2-2.35-30.21-5.51-45.17-8.56
			c-14.96-3.05-29.92-5.99-45.03-7.65c-7.54-0.83-15.13-1.33-22.71-1.38c-7.58-0.05-15.17,0.37-22.69,1.33
			c-7.52,0.96-14.98,2.47-22.29,4.52c-7.32,2.04-14.48,4.61-21.46,7.62c-0.45,0.2-0.96-0.01-1.15-0.45
			c-0.19-0.44,0.01-0.95,0.44-1.15c7-3.16,14.21-5.88,21.58-8.07c7.37-2.2,14.91-3.85,22.54-4.97c7.62-1.13,15.32-1.7,23.03-1.8
			c7.71-0.12,15.41,0.25,23.06,0.94c15.33,1.38,30.47,4.05,45.51,6.81c7.53,1.38,15.03,2.79,22.55,4.09
			c7.51,1.31,15.02,2.5,22.56,3.49c15.06,1.99,30.2,3.12,45.3,2.85c15.1-0.25,30.14-1.9,44.88-4.99
			c14.74-3.08,29.18-7.55,43.17-13.13c14.01-5.57,27.56-12.24,40.73-19.66c2.28-1.29,5.18-0.48,6.46,1.8
			c1.29,2.29,0.48,5.18-1.8,6.47c-0.02,0.01-0.04,0.02-0.06,0.04L407.87,107.64z"/>
		<path class="st22" d="M401.85,59.79c-11.07,9.57-22.68,18.62-34.84,26.86c-12.17,8.24-24.93,15.68-38.31,21.88
			c-13.37,6.2-27.38,11.14-41.78,14.39c-7.19,1.63-14.48,2.84-21.81,3.62c-7.32,0.79-14.68,1.15-22.03,1.13
			c-14.69-0.04-29.28-1.59-43.65-3.9c-14.38-2.3-28.56-5.33-42.75-8.07c-14.19-2.74-28.42-5.16-42.77-6.12
			c-7.17-0.47-14.37-0.58-21.55-0.19c-7.18,0.38-14.33,1.26-21.38,2.69c-0.48,0.09-0.94-0.22-1.04-0.69
			c-0.1-0.47,0.2-0.94,0.68-1.04c7.1-1.62,14.33-2.68,21.6-3.25c7.27-0.57,14.58-0.63,21.85-0.32c14.57,0.62,29,2.73,43.3,5.13
			c14.3,2.39,28.52,5.06,42.79,6.97c7.13,0.96,14.28,1.74,21.43,2.22c7.15,0.49,14.3,0.67,21.43,0.49
			c14.26-0.35,28.44-2.23,42.2-5.75c13.76-3.51,27.08-8.62,39.79-14.97c12.73-6.34,24.85-13.87,36.42-22.21
			c11.57-8.34,22.57-17.46,33.18-27.08c2.23-2.02,5.69-1.86,7.72,0.38c2.03,2.24,1.86,5.69-0.38,7.73
			c-0.03,0.02-0.05,0.05-0.08,0.07L401.85,59.79z"/>
	</g>
	<g class="st59">
		<g>
			<g>
				<path class="st7" d="M140.11,184.45v15.43h-2.7v-33.12h11.93c6.54,0,10.01,3.51,10.01,8.71c0,4.22-2.51,6.95-6.17,7.76
					c3.37,0.8,5.64,3.01,5.64,8.65v1.29c0,2.32-0.18,5.43,0.43,6.71h-2.69c-0.61-1.42-0.48-4.07-0.48-6.92v-0.84
					c0-5.4-1.59-7.66-7.91-7.66H140.11z M140.11,182.01h7.95c5.78,0,8.45-2.16,8.45-6.48c0-4.04-2.63-6.34-7.75-6.34h-8.65V182.01z"
					/>
				<path class="st7" d="M167.05,188.34c0.05,6.04,3.09,9.81,7.61,9.81c4.41,0,5.91-2.48,6.76-4.41h2.51
					c-0.99,3.12-3.5,6.7-9.37,6.7c-7.21,0-10.02-6.2-10.02-12.22c0-6.79,3.37-12.6,10.3-12.6c7.31,0,9.64,6.29,9.64,10.78
					c0,0.67,0,1.33-0.05,1.94H167.05z M181.93,186.21c-0.05-4.65-2.57-8.31-7.18-8.31c-4.84,0-7.04,3.38-7.56,8.31H181.93z"/>
				<path class="st7" d="M190.34,193.33c0.8,3.05,2.96,4.88,6.68,4.88c4.18,0,5.86-1.92,5.86-4.54c0-2.67-1.13-3.98-6.4-5.25
					c-6.15-1.48-7.66-3.34-7.66-6.47c0-3.27,2.46-6.32,7.86-6.32s7.95,3.28,8.32,6.64h-2.46c-0.42-1.96-1.96-4.41-5.97-4.41
					c-4.08,0-5.25,2.01-5.25,3.89c0,2.16,1.13,3.23,5.8,4.37c6.71,1.62,8.35,3.81,8.35,7.36c0,4.3-3.49,6.98-8.52,6.98
					c-5.44,0-8.47-2.86-9.13-7.12H190.34z"/>
				<path class="st7" d="M230.59,187.99c0,6.6-3.66,12.46-10.73,12.46c-6.42,0-10.4-5.26-10.4-12.41c0-6.79,3.76-12.41,10.64-12.41
					C226.41,175.62,230.59,180.55,230.59,187.99z M212.06,188.03c0,5.61,3.01,10.12,7.99,10.12c5.07,0,7.94-4.18,7.94-10.12
					c0-5.58-2.82-10.12-8.03-10.12C214.6,177.92,212.06,182.36,212.06,188.03z"/>
				<path class="st7" d="M254.21,192.96c0,2.32,0.05,5.99,0.05,6.92h-2.37c-0.09-0.62-0.14-2.17-0.14-4.09
					c-1,2.79-3.41,4.66-7.6,4.66c-3.44,0-7.77-1.36-7.77-8.58v-15.67h2.42v15.09c0,3.44,1.08,6.77,5.73,6.77
					c5.25,0,7.23-2.95,7.23-9.68v-12.18h2.46V192.96z"/>
				<path class="st7" d="M261.94,182.63c0-3.94-0.05-5.66-0.05-6.44h2.41c0.05,0.75,0.1,2.29,0.1,5.28
					c1.37-3.53,4.39-5.66,8.23-5.85v2.64c-4.92,0.32-8.23,3.68-8.23,9.34v12.27h-2.46V182.63z"/>
				<path class="st7" d="M294.87,192.9c-1.13,4.16-3.88,7.55-9.22,7.55c-5.95,0-10.16-4.42-10.16-12.31
					c0-6.5,3.48-12.51,10.45-12.51c6.06,0,8.52,4.3,8.94,7.6h-2.51c-0.7-2.73-2.49-5.31-6.48-5.31c-4.98,0-7.79,4.23-7.79,10.12
					c0,5.62,2.63,10.12,7.56,10.12c3.43,0,5.5-1.74,6.71-5.26H294.87z"/>
				<path class="st7" d="M300.95,188.34c0.05,6.04,3.09,9.81,7.61,9.81c4.41,0,5.91-2.48,6.76-4.41h2.51
					c-0.99,3.12-3.5,6.7-9.37,6.7c-7.21,0-10.02-6.2-10.02-12.22c0-6.79,3.37-12.6,10.3-12.6c7.31,0,9.64,6.29,9.64,10.78
					c0,0.67,0,1.33-0.05,1.94H300.95z M315.83,186.21c-0.05-4.65-2.57-8.31-7.18-8.31c-4.84,0-7.04,3.38-7.56,8.31H315.83z"/>
				<path class="st7" d="M324.24,193.33c0.8,3.05,2.96,4.88,6.68,4.88c4.18,0,5.86-1.92,5.86-4.54c0-2.67-1.13-3.98-6.4-5.25
					c-6.15-1.48-7.66-3.34-7.66-6.47c0-3.27,2.46-6.32,7.86-6.32c5.39,0,7.95,3.28,8.32,6.64h-2.46c-0.42-1.96-1.96-4.41-5.97-4.41
					c-4.08,0-5.25,2.01-5.25,3.89c0,2.16,1.13,3.23,5.8,4.37c6.71,1.62,8.35,3.81,8.35,7.36c0,4.3-3.49,6.98-8.52,6.98
					c-5.44,0-8.47-2.86-9.13-7.12H324.24z"/>
			</g>
		</g>
	</g>
</g>
</svg>
