<svg xmlns="http://www.w3.org/2000/svg" width="266.667" height="266.667" preserveAspectRatio="xMidYMid meet" version="1.0" viewBox="0 0 200 200"><metadata>Created by potrace 1.14, written by Peter Selinger 2001-2017</metadata><g fill="#000" stroke="none"><path d="M1573 1591 c-230 -231 -451 -376 -718 -470 -126 -45 -296 -86 -400 -96 -11 -1 -45 -5 -75 -9 -30 -4 -128 -7 -217 -7 l-163 0 0 -29 c0 -27 2 -28 53 -32 62 -6 413 -1 442 5 11 3 47 8 80 11 33 4 76 11 95 16 19 5 48 11 63 14 207 36 560 204 747 355 24 20 56 45 70 56 68 54 230 221 239 247 9 25 7 33 -14 54 -13 13 -33 24 -45 24 -13 0 -70 -51 -157 -139z" transform="translate(0.000000,200.000000) scale(0.100000,-0.100000)"/><path d="M1900 1187 c-209 -130 -529 -270 -749 -327 -98 -26 -286 -59 -381 -68 -171 -15 -500 -6 -660 18 -104 15 -110 14 -110 -19 0 -37 11 -41 155 -57 33 -3 69 -8 80 -10 127 -25 585 -24 730 1 17 3 46 8 65 11 73 13 115 21 190 39 37 9 166 46 180 52 8 3 20 7 26 8 71 16 490 211 557 260 15 11 17 25 15 82 l-3 69 -95 -59z" transform="translate(0.000000,200.000000) scale(0.100000,-0.100000)"/><path d="M1935 694 c-140 -52 -433 -119 -605 -139 -19 -2 -64 -7 -100 -11 -84 -10 -492 -10 -590 0 -83 8 -294 34 -325 40 -11 2 -40 7 -65 11 -25 3 -56 8 -70 11 -14 2 -58 10 -97 17 -40 8 -75 12 -78 9 -3 -3 -5 -18 -5 -33 0 -24 4 -27 48 -34 26 -5 52 -9 57 -11 31 -7 356 -64 390 -68 22 -2 65 -8 95 -11 30 -4 69 -9 85 -12 54 -9 558 -12 625 -3 36 4 92 11 125 14 55 6 132 18 195 31 14 3 39 8 55 11 46 8 181 42 257 64 l68 21 0 54 c0 61 -2 62 -65 39z" transform="translate(0.000000,200.000000) scale(0.100000,-0.100000)"/></g></svg>