<svg xmlns="http://www.w3.org/2000/svg" xmlns:xlink="http://www.w3.org/1999/xlink" width="1440" height="350" version="1.1" viewBox="0 0 1440 350"><title>Group 4</title><defs><polygon id="path-1" points="0 0 1440 0 1440 350 0 350"/></defs><g id="Resources" fill="none" fill-rule="evenodd" stroke="none" stroke-width="1"><g id="RESOURCES---Extra-large:-Desktops---12-col" transform="translate(0.000000, -170.000000)"><g id="Group-4" transform="translate(0.000000, 170.000000)"><rect id="Rectangle" width="1440" height="350" x="0" y="0" fill="#F6EEC5"/><g id="Group-3-Copy"><mask id="mask-2" fill="#fff"><use xlink:href="#path-1"/></mask><path id="Fill-1" fill="#FFF" fill-opacity=".2" d="M219.922759,135.957552 C253.850784,135.444153 287.74721,137.065411 321.463072,140.073745 C388.971536,146.144455 455.617806,157.885063 521.844263,170.003964 C554.98232,176.05666 588.012038,182.24446 621.100439,187.977408 C654.139185,193.710356 687.236614,198.947919 720.40627,203.311804 C786.695925,212.035072 853.364765,217.011432 919.848527,215.827013 C986.305204,214.71465 1052.51361,207.464025 1117.4084,193.908509 C1182.31674,180.384518 1245.85279,160.749285 1307.4884,136.241272 C1352.70169,118.294849 1396.82257,97.7454073 1440,75.2279385 L1440,-88 L720,-88 L0,-88 L0,171.809865 C6.41905956,169.711237 12.8471473,167.630623 19.3294044,165.712135 C51.7768025,156.061148 84.9825705,148.815026 118.544953,143.874694 C152.093793,138.925354 186.01279,136.403398 219.922759,135.957552 Z" mask="url(#mask-2)"/></g></g></g></g></svg>