<svg xmlns="http://www.w3.org/2000/svg" viewBox="311.41 174.69 1222.66 887.5"><defs><style>.cls-1,.cls-23,.cls-24,.cls-26,.cls-9{fill:none;}.cls-1,.cls-28{stroke:#000;}.cls-1,.cls-23,.cls-24,.cls-26,.cls-28,.cls-9{stroke-miterlimit:10;}.cls-1,.cls-26{stroke-width:2px;}.cls-2{fill:#eeb975;}.cls-3{fill:#efefee;}.cls-4{fill:#ffc1aa;}.cls-5{fill:#ff2e56;}.cls-6{fill:#eb2151;}.cls-7{fill:#2e1c66;}.cls-8{fill:#f79889;}.cls-26,.cls-9{stroke:#fff;}.cls-9{stroke-width:4px;}.cls-10{fill:#fff;}.cls-11{fill:#f68f4d;}.cls-12{fill:#57341f;}.cls-13{fill:#e8e8e8;}.cls-14,.cls-28{fill:#4735bc;}.cls-15{fill:#ffb600;}.cls-16{fill:#fed000;}.cls-17{fill:#9ca9af;}.cls-18{fill:#3c3d3e;}.cls-19{fill:#51565a;}.cls-20{fill:#5d656c;}.cls-21{fill:#d5a181;}.cls-22{fill:#d4aa8c;}.cls-23,.cls-24{stroke:#8e8e8e;stroke-width:10px;}.cls-23{stroke-linecap:round;}.cls-25{fill:#515151;}.cls-27{fill:#8b4c1b;}.cls-28{stroke-width:3px;}</style></defs><g id="Layer_4" data-name="Layer 4"><line class="cls-1" x1="312.41" y1="1045.23" x2="1533.07" y2="1045.23"/><path class="cls-2" d="M1029.8,1043.59c191.89-6.32,402-134.1,469.8-340.75s-19.38-527.15-248.82-527.15c-205.8,0-362.34,162-479.92,239.54C619.88,514.75,434,445.11,393,623.56,338.17,862.25,661.6,1055.73,1029.8,1043.59Z"/><path class="cls-2" d="M820,257.4c36,61.77-26.35,108.26-72.8,141.19-58.1,41.18-213.77,61.87-233.85,14.71C488.69,355.34,743.81,126.78,820,257.4Z"/><path class="cls-3" d="M1265,1009.45c-13.48,2.66-12.62,5.21-27,8.44-7.32,1.64-12.14,1.58-21.08,5.06-5.93,2.31-9,4.37-11,7.59a16.27,16.27,0,0,0-1.69,11.81h93.63c2-6-1.57-16.55-2.53-19.4-2-6-3.52-8.73-7.59-11.81C1281.31,1006.25,1272.61,1008,1265,1009.45Z"/><path class="cls-3" d="M1354.89,1008.61c-13.48,2.65-12.62,5.21-27,8.44-7.32,1.64-12.15,1.57-21.09,5.06-5.92,2.3-9,4.37-11,7.59a16.26,16.26,0,0,0-1.69,11.81h93.63c2-6-1.57-16.55-2.54-19.4-2-6-3.52-8.74-7.59-11.81C1371.19,1005.4,1362.48,1007.12,1354.89,1008.61Z"/><path class="cls-4" d="M1348.14,990.9c.85,7.59,3.38,20.24,5.91,21.93,6.63,4.42,21.91,7.67,23.61-.85.85-4.21,1.69-8.43,3.38-20.24Z"/><path class="cls-4" d="M1255.64,994.34c2,7.38,6.35,19.52,9.11,20.81,7.22,3.38,22.81,4.31,23.22-4.36.21-4.3.41-8.59.32-20.52Z"/><path class="cls-5" d="M1262.48,624c-11.81,47.23-30.36,108-30.36,178,0,100.37,6.75,150.13,18.55,197.36l43.86.85c-5.9-57.36-2.53-74.22-2.53-151,0-55.67,16.87-122.3,16.87-122.3s6.75,116.4,10.12,151c3.53,36.13,16.87,90.25,25.31,126.51l39.64-.84c3.37-31.21,2.68-69.15,6.75-167.85,3.37-81.81.84-154.35.84-154.35,2.61-47.55-5.06-46.39-4.22-61.57Z"/><path class="cls-6" d="M1283.57,679.67c-8.5-13.31-13.11-49.06-21.09-55.67-11.81,47.23-30.36,108-30.36,178,0,100.37,6.75,150.13,18.55,197.36l43.86.85c-5.9-57.36-2.53-74.22-2.53-151,0-62.89,16.83-122,16.87-122.3h0C1309.09,712.94,1302.46,709.25,1283.57,679.67Z"/><path class="cls-7" d="M1308.82,474.46c4,32.21-13.74,97.66-20.35,115l-48.12-11.11c3.2-25,9.06-68.76,29.29-105.28"/><path class="cls-8" d="M1241.05,585.7c-10.35,23.49-11.85,24.47-27.21,61.19-3.33,8-13,21.41-27.09,29.14-2.23,1.22,1.09,8.88-1.3,14-.24.52,4.06,3.71,5.32,4.16s9.31,33,13.45,33.53c7.57,1,22.75-18.44,24.14-23.89,2.84-11.16-2.7-28,5.18-38.28,25.92-33.8,25.92-33.8,44.28-60.67C1278.15,604.35,1241.29,585.15,1241.05,585.7Z"/><path class="cls-7" d="M1239.68,575.39s23.27,5.25,51,13.1l-4.88,8.07a8.4,8.4,0,0,1,2.06,1.69s-4.19,8.81-6,8.55c-15.38-2.25-40-6.23-50.48-12,0,0,1.62-6.61,4.4-9.16C1237.64,583.92,1237.82,578.22,1239.68,575.39Z"/><path class="cls-7" d="M1249,539.33c2.57,10.66,3.54,54,5,85.56a381.45,381.45,0,0,1-.13,39.07s18.58-3.39,25.87-11.44c15.19-16.75,17.06-48.33.37-66.89C1268.52,572.74,1247,531.17,1249,539.33Z"/><circle class="cls-9" cx="630.73" cy="658.8" r="23.55"/><path class="cls-9" d="M617.17,670.16c7.64-7.59,18.6-8.43,27.12,0"/><circle class="cls-10" cx="622.17" cy="651.67" r="4.28"/><circle class="cls-10" cx="639.3" cy="651.67" r="4.28"/><path class="cls-10" d="M1298.76,365.3h97a10.43,10.43,0,0,0,10.43-10.43v-64.7a10.43,10.43,0,0,0-10.43-10.43H1286.24a10.43,10.43,0,0,0-10.44,10.43v93Z"/><circle class="cls-11" cx="1323.28" cy="338.69" r="8.87"/><circle class="cls-11" cx="1350.41" cy="338.69" r="8.87"/><circle class="cls-11" cx="1377.54" cy="338.69" r="8.87"/><path d="M1404.86,273.18c5.61,0,10.16,4.84,10.16,10.79v79.28c0,5.95-4.55,10.79-10.16,10.79h-99l-.53.38-38.34,28V284c0-6,4.56-10.79,10.16-10.79h127.69m0-2H1277.17c-6.71,0-12.16,5.73-12.16,12.79V406.39L1306.53,376h98.33c6.72,0,12.16-5.73,12.16-12.79V284c0-7.06-5.44-12.79-12.16-12.79Z"/><rect class="cls-10" x="526.81" y="357.25" width="534.5" height="358.44" rx="14.68"/><circle class="cls-2" cx="983.47" cy="384.86" r="6.01"/><circle class="cls-2" cx="1007.02" cy="384.86" r="6.01"/><circle class="cls-2" cx="1032.04" cy="384.86" r="6.01"/><path d="M1050.31,340.79a28.87,28.87,0,0,1,28.83,28.84V703.31a28.87,28.87,0,0,1-28.83,28.84h-511a28.88,28.88,0,0,1-28.84-28.84V369.63a28.88,28.88,0,0,1,28.84-28.84h511m0-2h-511a30.84,30.84,0,0,0-30.84,30.84V703.31a30.84,30.84,0,0,0,30.84,30.84h511a30.83,30.83,0,0,0,30.83-30.84V369.63a30.83,30.83,0,0,0-30.83-30.84Z"/><path class="cls-2" d="M979.7,479l-2.15-.49c.94-4.08,7.34-23,11.09-26,5.44-4.22,33.32-10.92,37.2-10.92h.09l-.07,2.2h-.09c-3.93,0-31.12,6.84-35.78,10.46C987,456.64,980.78,474.34,979.7,479Z"/><path class="cls-2" d="M985.83,482l-2-.86c3.34-7.78,10.25-17.78,13.76-20.88,2.74-2.43,25.7-4.65,28.94-4.55l-.08,2.2c-4.09-.13-25.54,2.37-27.4,4C996.05,464.56,989.21,474.16,985.83,482Z"/><rect class="cls-2" x="976.27" y="438.49" width="2.2" height="11" transform="translate(25.76 940.79) rotate(-52)"/><polygon class="cls-2" points="979.38 449.04 984.82 449.81 982.76 444.71 979.38 449.04"/><path class="cls-2" d="M569.87,562.58a22,22,0,1,1,22-22A22,22,0,0,1,569.87,562.58Zm0-41a19,19,0,1,0,19,19A19.06,19.06,0,0,0,569.87,521.58Z"/><path class="cls-2" d="M570.14,555.13a14.38,14.38,0,0,1-13.45-9.67l2.76-1a11.22,11.22,0,0,0,20.9,1.11l2.65,1.26a14.27,14.27,0,0,1-12.46,8.29Z"/><circle class="cls-2" cx="562.42" cy="534.4" r="3.73"/><circle class="cls-2" cx="577.33" cy="534.4" r="3.73"/><path class="cls-2" d="M569.87,617.6a22,22,0,1,1,22-22A22,22,0,0,1,569.87,617.6Zm0-41a19,19,0,1,0,19,19A19.06,19.06,0,0,0,569.87,576.6Z"/><path class="cls-2" d="M575.94,606.59a18.91,18.91,0,0,1-6.75-1.6c-3.54-1.35-6.34-2.4-9.88.71l-1.94-2.21c4.87-4.28,9.11-2.67,12.86-1.25,3.58,1.35,6.66,2.52,10.77-.32l1.67,2.41A11.55,11.55,0,0,1,575.94,606.59Z"/><circle class="cls-2" cx="562.42" cy="589.42" r="3.73"/><circle class="cls-2" cx="577.33" cy="589.42" r="3.73"/><path class="cls-2" d="M569.87,671.58a22,22,0,1,1,22-22A22,22,0,0,1,569.87,671.58Zm0-41a19,19,0,1,0,19,19A19.06,19.06,0,0,0,569.87,630.58Z"/><circle class="cls-2" cx="562.42" cy="643.4" r="3.73"/><circle class="cls-2" cx="577.33" cy="643.4" r="3.73"/><rect class="cls-2" x="558.69" y="656.31" width="23.65" height="2.53"/><path class="cls-2" d="M1026.65,569.69H617.2c-5.32,0-9.63-4.64-9.63-10.36V524.47c0-5.73,4.31-10.37,9.63-10.37h409.45c5.32,0,9.63,4.64,9.63,10.37v34.86C1036.28,565.05,1032,569.69,1026.65,569.69Z"/><path class="cls-2" d="M1026.65,676.54H617.2c-5.32,0-9.63-4.64-9.63-10.37V631.31c0-5.72,4.31-10.36,9.63-10.36h409.45c5.32,0,9.63,4.64,9.63,10.36v34.86C1036.28,671.9,1032,676.54,1026.65,676.54Z"/><path class="cls-2" d="M754.69,493.6H711.36a15.94,15.94,0,0,1-15.92-15.92V440.11a15.94,15.94,0,0,1,15.92-15.92h43.33a15.94,15.94,0,0,1,15.93,15.92v37.57A15.94,15.94,0,0,1,754.69,493.6Zm-43.33-63.39a9.91,9.91,0,0,0-9.9,9.9v37.57a9.91,9.91,0,0,0,9.9,9.9h43.33a9.92,9.92,0,0,0,9.91-9.9V440.11a9.92,9.92,0,0,0-9.91-9.9Z"/><path class="cls-2" d="M732.71,471.54a39.51,39.51,0,0,1-26.16-9.49h0a2.43,2.43,0,0,1-.9-1.69,2.46,2.46,0,0,1,.61-1.84c3.42-3.87,12.85-12.92,26.43-13.2,11-.24,22,9.1,26.2,13.11a2.42,2.42,0,0,1,.76,1.93,2.45,2.45,0,0,1-1,1.82C754.84,465,744.66,471.54,732.71,471.54Zm-24.78-11.21a36.89,36.89,0,0,0,24.78,9c11.3,0,21-6.25,24.64-8.93a.24.24,0,0,0,.1-.19.2.2,0,0,0-.07-.19c-3.14-3-14.21-12.7-24.65-12.5-12.71.25-21.59,8.79-24.82,12.45a.28.28,0,0,0-.07.19.24.24,0,0,0,.09.16Z"/><path class="cls-2" d="M732.71,467.75a8.69,8.69,0,1,1,8.68-8.69A8.69,8.69,0,0,1,732.71,467.75Z"/><path class="cls-2" d="M665.27,493.6H621.94A16,16,0,0,1,606,477.67V440.11a16,16,0,0,1,15.93-15.93h43.33a15.94,15.94,0,0,1,15.92,15.93v37.56A15.94,15.94,0,0,1,665.27,493.6Zm-43.33-63.4a9.92,9.92,0,0,0-9.91,9.91v37.56a9.92,9.92,0,0,0,9.91,9.91h43.33a9.91,9.91,0,0,0,9.9-9.91V440.11a9.91,9.91,0,0,0-9.9-9.91Z"/><path class="cls-2" d="M636.88,466.79c.91-.23,1.19-19,1.19-24.94s5.94-7.12,7.12-1.18c.3,1.48.66,8.38,1.19,15.43.09,1.18,2.45,3.2,3.56,3.57,3.57,1.19,9.06,1.32,14.2,4.75,5.5,3.66-2.37,17.81-2.37,17.81H642.82c-1.94,0-3.56-1.19-9.5-8.31-2-2.39-12.45-7.74-10.69-9.5C626.19,460.86,636.32,466.94,636.88,466.79Z"/><path class="cls-2" d="M843.54,493.6H800.21a15.94,15.94,0,0,1-15.92-15.93V440.11a15.94,15.94,0,0,1,15.92-15.93h43.33a16,16,0,0,1,15.93,15.93v37.56A16,16,0,0,1,843.54,493.6Zm-43.33-63.4a9.91,9.91,0,0,0-9.9,9.91v37.56a9.91,9.91,0,0,0,9.9,9.91h43.33a9.92,9.92,0,0,0,9.91-9.91V440.11a9.92,9.92,0,0,0-9.91-9.91Z"/><path class="cls-2" d="M808.7,449c0-14.26,19-14.26,26.15-8.32s11.88,22.59-4.76,32.09v9.51H815.83v-8.32c-2.38,0-7.13,0-8.32-1.19s0-11.88,0-11.88c-2.38,0-4.76-.82-4.76-2.38C802.75,456.08,808.7,454.16,808.7,449Z"/><path class="cls-2" d="M931.75,493.6H888.42a15.94,15.94,0,0,1-15.92-15.93V440.11a15.94,15.94,0,0,1,15.92-15.93h43.33a16,16,0,0,1,15.93,15.93v37.56A16,16,0,0,1,931.75,493.6Zm-43.33-63.4a9.91,9.91,0,0,0-9.9,9.91v37.56a9.91,9.91,0,0,0,9.9,9.91h43.33a9.91,9.91,0,0,0,9.91-9.91V440.11a9.91,9.91,0,0,0-9.91-9.91Z"/><path class="cls-2" d="M917.75,436.25c0,13.67-1.21,21.9-3.73,24.85-3,3.54-2,4.55-6.21,6.21-6.21,2.49-12.62,3.88-14.91,5-4,1.93-11.18,0-9.94,3.73,2.39,7.17,7.56,1.86,9.32,1.86,1.24,0,1.87-.43,3.1.62,3.43,2.91,10.15,1.93,13.67,1.25,6.91-1.34,4.15-1,8.7-1.25,6.76-.4,9.94,3.73,14.91,0,4.44-3.33-.06-7.39-1.25-12.42-1.5-6.38-2.32-15.81,1.25-28.57"/><path class="cls-2" d="M1020,493.6H976.63a15.94,15.94,0,0,1-15.92-15.93V440.11a15.94,15.94,0,0,1,15.92-15.93H1020a15.94,15.94,0,0,1,15.92,15.93v37.56A15.94,15.94,0,0,1,1020,493.6Zm-43.34-63.4a9.91,9.91,0,0,0-9.9,9.91v37.56a9.91,9.91,0,0,0,9.9,9.91H1020a9.91,9.91,0,0,0,9.9-9.91V440.11a9.91,9.91,0,0,0-9.9-9.91Z"/><circle class="cls-11" cx="645.62" cy="545.42" r="13.06"/><path class="cls-10" d="M733.34,535.36a9.57,9.57,0,1,1-9.57,9.57,9.58,9.58,0,0,1,9.57-9.57m0-3a12.57,12.57,0,1,0,12.57,12.57,12.57,12.57,0,0,0-12.57-12.57Z"/><circle class="cls-11" cx="822.04" cy="545.42" r="13.06"/><path class="cls-10" d="M910.25,531.63a10.07,10.07,0,1,1-10.06,10.07,10.08,10.08,0,0,1,10.06-10.07m0-3a13.07,13.07,0,1,0,13.07,13.07,13.07,13.07,0,0,0-13.07-13.07Z"/><path class="cls-10" d="M998.46,531.63A10.07,10.07,0,1,1,988.4,541.7a10.08,10.08,0,0,1,10.06-10.07m0-3a13.07,13.07,0,1,0,13.07,13.07,13.07,13.07,0,0,0-13.07-13.07Z"/><path class="cls-2" d="M645.62,586.79a10.07,10.07,0,1,1-10.06,10.06,10.08,10.08,0,0,1,10.06-10.06m0-3a13.07,13.07,0,1,0,13.07,13.06,13.06,13.06,0,0,0-13.07-13.06Z"/><circle class="cls-11" cx="733.83" cy="596.85" r="13.06"/><path class="cls-2" d="M821.88,587.28a9.57,9.57,0,1,1-9.57,9.57,9.58,9.58,0,0,1,9.57-9.57m0-3a12.57,12.57,0,1,0,12.57,12.57,12.57,12.57,0,0,0-12.57-12.57Z"/><path class="cls-2" d="M910.25,586.79a10.07,10.07,0,1,1-10.06,10.06,10.08,10.08,0,0,1,10.06-10.06m0-3a13.07,13.07,0,1,0,13.07,13.06,13.06,13.06,0,0,0-13.07-13.06Z"/><circle class="cls-11" cx="998.46" cy="596.85" r="13.06"/><path class="cls-10" d="M645.62,642.21a10.07,10.07,0,1,1-10.06,10.06,10.08,10.08,0,0,1,10.06-10.06m0-3a13.07,13.07,0,1,0,13.07,13.06,13.06,13.06,0,0,0-13.07-13.06Z"/><path class="cls-10" d="M733.34,638.16a9.57,9.57,0,1,1-9.57,9.57,9.59,9.59,0,0,1,9.57-9.57m0-3a12.57,12.57,0,1,0,12.57,12.57,12.57,12.57,0,0,0-12.57-12.57Z"/><path class="cls-10" d="M822,642.21A10.07,10.07,0,1,1,812,652.27,10.08,10.08,0,0,1,822,642.21m0-3a13.07,13.07,0,1,0,13.07,13.06A13.06,13.06,0,0,0,822,639.21Z"/><circle class="cls-11" cx="910.25" cy="648.54" r="13.06"/><path class="cls-10" d="M998.46,638.48a10.07,10.07,0,1,1-10.06,10.06,10.08,10.08,0,0,1,10.06-10.06m0-3a13.07,13.07,0,1,0,13.07,13.06,13.06,13.06,0,0,0-13.07-13.06Z"/><path id="head" class="cls-12" d="M1067.2,555.87c-7.84,8-4.19,21.62-7.59,24.46-5.06,4.22-10.13,2.53-11.81,9.28-2.29,9.14,5.06,10.12,5.38,16.26,1.15,21.79,10.35,29.4,16.4,30.61,9.85,2,15.18-8.37,17-7.23s-1.69,16.87-1.71,20.35c-.07,9.86,23.39,10.3,29.51,3.28,6.28-7.21-5.72-17.6-2.18-37.17,2.85-15.8,12.12-17,13.11-31.7.12-1.73,1.17-21.75-13.11-30.61C1100.68,546.24,1075.3,547.62,1067.2,555.87Z"/><g id="back_foot" data-name="back foot"><path class="cls-13" d="M761.75,994c1.83,6.11.36,13.19-6.41,23.76-.08.12-45.22-19.44-73.14-32.19-.54-.24-.53-8.29,4.82-9.6,13.51-3.29,18.32,6.51,49.76,3.48C749.37,978.23,760.1,988.45,761.75,994Z"/><path class="cls-12" d="M766.32,975.26c-5,8.24-3.69,8.38-8,13.53-5.62,6.78-16.93-1.33-13.81-9.83,3-8.11,3-7.27,6.91-15.14C755.61,955.57,771.06,967.38,766.32,975.26Z"/></g><path id="back_leg" data-name="back leg" class="cls-7" d="M955.86,814c-67.47,5.06-89.3,13.06-98.68,15.18-18.12,4.1-95.31,113.87-110.49,138.33l16,8.43c11-11.81,60.64-87.45,113.73-85.13,52.16,2.29,75.42,27.42,110.27,7.36,21-12.08,45.73-55,39.3-68.35C1020.78,818.93,1000.83,810.6,955.86,814Z"/><g id="front_foot" data-name="front foot"><path class="cls-10" d="M776,1002.86c1.51,6.2-.3,13.19-7.6,23.41-.08.11-44.19-21.68-71.43-35.81-.52-.27-.12-8.31,5.29-9.34,13.66-2.62,18,7.41,49.53,6C764.37,986.5,774.58,997.24,776,1002.86Z"/><path class="cls-12" d="M783.9,982.63C777.61,992,776,994,770.76,999.8c-7,7.59-22.65-4.13-17.48-13.38,4.69-8.39,5.19-10.18,12-19.11C771.86,958.74,789.9,973.7,783.9,982.63Z"/></g><path id="front_leg" data-name="front leg" class="cls-14" d="M955.86,821.56c-44.7,4.22-80.13,9.28-89.4,11.81-17.92,4.88-80.13,89.4-108.81,143.38l22.78,15.19c13.49-15.19,70-84.35,93.62-88.57,51.4-9.17,76.55,24.1,110.49,2.53,20.44-13,43.28-56.93,36.27-70C1015.11,825.28,1000.76,817.32,955.86,821.56Z"/><path class="cls-12" d="M932.25,781.07c-3.38-4.21-40.35,14.75-44.71,18.56-5.39,4.71-11.49,10.15-10.12,14.34,2.19,6.67,21.73,5.26,24.46,5.06,10.93-.79,29.16-2.11,34.58-15.18C939.55,796.41,937,787,932.25,781.07Z"/><path class="cls-15" d="M1071.92,680.35c-19.25-6.06-29.42,47-83.16,70.36-36.35,15.77-48.16,21.6-67.48,29.52-.32.13,9.28,21.09,9.42,21,.61-.36,26,3,75.69-15.81,66.36-25.18,73.69-28.58,79.09-39.54C1097.33,721.78,1088,685.39,1071.92,680.35Z"/><path id="body" class="cls-16" d="M1084.91,647.81c-10.86-2.61-80.13,103.74-88.41,147.1-6.54,34.25-42.8,28.89-40.61,38.68,4.11,18.42,74.76,33.55,124.75,1.94,52.85-33.43,53.14-100.49,53.19-111.22,0-7.83,8.28-53.14-16.87-79C1116.53,644.84,1093.15,649.79,1084.91,647.81Z"/><path class="cls-15" d="M1094.19,734.68C1087.74,697.86,962,793,974.42,801.32,1033.46,841,1100.09,768.42,1094.19,734.68Z"/><path id="hair" class="cls-17" d="M1063.82,560.09c-3.28-.47-3.37-4.22-3.37-5.9,0-9,30.84-23.43,51.45-16,17.08,6.13,24.34,27.55,22.77,42.17-.69,6.42-14.15,29-19.4,29.52-3.25.33-9.31-8.07-5.9-10.12,4.22-2.53,11.81-18.55,5.06-23.61-5.8-4.36-9.28,7.59-14.34,5.06-1.69-.85,4.22-12.66-14.34-16.87C1078.07,562.56,1069.73,560.93,1063.82,560.09Z"/><polygon class="cls-18" points="910.41 1043.88 934.54 1043.88 942.77 1008.65 910.41 1008.65 910.41 1043.88"/><polygon class="cls-18" points="1133.38 1044.23 1109.24 1044.23 1101.02 1009 1133.38 1009 1133.38 1044.23"/><path class="cls-19" d="M1056.23,898c14.76-68.09,73.7-211,92.65-237,20.74-28.5,69.09.28,61.06,25-35.87,110.29-68.45,225.88-92.8,228.89C1088,918.46,1050.8,923.05,1056.23,898Z"/><path class="cls-19" d="M924.18,877.19c-4.38,0-56.13,133.4-28.94,132.7,29.82-.77,177,0,254.15,0,24.66,0-14.13-132.7-14.69-132.7Z"/><path class="cls-19" d="M904,871.27c-27.14,12-93.92,67-122.32,129.6-2.14,4.73,5,46.29,31,28.79,70.89-47.73,106.07-83.56,136.9-129.25C961.93,882,925,862,904,871.27Z"/><path class="cls-20" d="M892.65,860.53c1.22-20.28,16.32-40.94,29.15-41.64,57.26-3.13,129.1,1,179.08,1,28.57,0,31.86,31.53,32.27,35.4,1.88,17.74-15.42,36.34-24,37.48-46.85,6.24-177.39,20.79-192.6,12.49C905.14,899.05,891.33,882.58,892.65,860.53Z"/><path class="cls-12" d="M928,803c-6.45-3.37-12.7-1.57-49.76,13.5-11.39,4.63,13.23,17.36,17.71,19.4,9.28,4.21,21.4-8.17,23.61-9.28,7.93-4,17-5.14,16.87-12.65C936.36,809.26,932,805.07,928,803Z"/><path class="cls-16" d="M1067.2,705.81c-28.13,35.51-104.79,80.06-151.16,95.13-.56.18,8,24.19,8.34,24.2,36.52.66,81.47-9.57,115.41-26.42,16.77-8.32,59.73-55.91,68.88-69.78"/><path class="cls-21" d="M738.25,646.12c-2.29-4.58-24.14-5.65-40.14,7.09-1.1.88-16.37,19.9-22.27,32.55-3.12,6.69,13.34,14,17.71,11.81,3.71-1.85,2.53-7.59,10.12-9.28,6.09-1.35,5.91,0,11.81-1.68,4.65-1.33,18.56-21.09,15.18-22.78-3.08-1.53-12.53,12.29-14.56,8.71C712.53,666.28,741.17,652,738.25,646.12Z"/><path class="cls-6" d="M680.7,676.19a.89.89,0,0,0-1.24,0c-11.82,11.18-16.35,20.35-37,32.24-17.51,10.08-27.57,4-32.72,13.68-4.16,7.84.47,21.17,8.91,26.59,19.38,12.47,54.51-19.58,58.18-23,9.14-8.51,15.46-18.56,20.61-31.29C697.85,693.43,683.83,679.32,680.7,676.19Z"/><path class="cls-11" d="M746.69,767.58c-2.7-2.28,8.65-13.61,17.71-38.8A636,636,0,0,0,783,667.21c5.9,3.37,7.18,5.85,16,5.9a26.19,26.19,0,0,0,15.18-5.06s-11.28,47.17-30.36,74.22C766.21,767.21,750.37,770.7,746.69,767.58Z"/><path class="cls-13" d="M626.22,1017.19c-4.17,4.82-5.74,11.87-3.9,24.3,0,.14,49.21.83,79.9.68.59,0,3.89-7.34-.45-10.73-11-8.56-19.37-1.59-46.8-17.27C644,1007.9,630,1012.81,626.22,1017.19Z"/><path class="cls-13" d="M441.4,976.49c-5-3.6-18.92-4.88-29.58.5a4.78,4.78,0,0,0-2.47,5.2c1.82,9.27,2.55,34.72,5.68,48.85.36,1.61,6.58,7.45,7.9,8.45l28.34,1.4c11.27-14.77-10.52-12.76-12.85-18.16-6.19-14.32,9.63-21.89,8.53-31C445.79,982.34,442,976.9,441.4,976.49Z"/><path class="cls-22" d="M630.05,993.28c-.69,11.24-.69,13.83,0,21.61.9,10.27,20.49,10.49,22,0,1.38-9.51,2.06-11.23,2.06-22.47C654.12,981.62,630.7,982.54,630.05,993.28Z"/><path class="cls-22" d="M459.56,989.33c-8.28-3.46-10.24-4.1-16.33-5.39-8-1.7-14.35,16.85-6.89,20.91,6.75,3.67,7.84,4.76,16.34,7.56C460.83,1015.1,467.47,992.62,459.56,989.33Z"/><path class="cls-7" d="M594.87,696.73s45.33,13.46,64.94,5.06c11.81-5.06,17.44-82.19-1.68-96.15-8.3-6.06-27.32-10.44-37.12-5.91C601.57,608.74,578.73,679.13,594.87,696.73Z"/><path class="cls-21" d="M619.55,689.78c3.75-10.43,1.29-17.34,4.4-18.67,4.69-2,11.22,13.32,19.77,12.08,5.2-.75,11-13.45,14.41-21,2.17-4.9,7.59-2.53,8.43-9.28.63-5-3.54-5.84-5.27-10.32-3.16-8.24,1.78-16-1.09-24.16-4.2-11.84-25.08-20.62-38.45-14.28-6.52,3.09-9.93,12-16.48,29.66-8.46,22.82-12.63,34.54-9.88,49.42,1.64,8.87,6.27,21.81,12.08,22C612.68,705.31,617.63,695.14,619.55,689.78Z"/><path class="cls-6" d="M606.68,768.42c13.19,5.56,4.55,27.82,25.3,66.63,14.83,27.74,29,34.56,25.3,43.86-5.58,14.16-45.11,15.52-75.06,3.38-10.59-4.29-39.44-16-44.71-40.49C529.2,803.14,585.39,759.45,606.68,768.42Z"/><path class="cls-10" d="M578,735.53c11,10.12,39.64,17.71,40.48,32.05,2.17,36.9-34.63,105.61-48.07,118.92-24.61,24.37-40.91,8.35-56.06-10.06-12.71-15.44,6.22-43.17,13.12-53.27C555.07,782.76,551.33,741.64,578,735.53Z"/><path class="cls-7" d="M578,911c9.28,28.68,12.27,99.33-3.38,116.4-9.27,10.12-99.52-1.69-132.42-17.71l11-24.46c17.71,4.21,71.69,13.49,78.44,6.75,3-3-52.92-75.66-22.77-97C521.67,885.85,573.86,898.17,578,911Z"/><path class="cls-14" d="M502.09,874.7c23-15.33,142.08-25.08,156-21.09,11.8,3.37,11.5,7.81,13.49,13.49,5.91,16.87-8.43,109.65-16.87,137.49h-25.3c0-38.8,0-80.13,2.53-98.69.92-6.73-106.28,54.83-124.83,29.52C490.55,912.78,499.56,876.38,502.09,874.7Z"/><path class="cls-5" d="M625.23,714.44c-4.09-7.67-14.08-28.5-27-34.58-43-20.24-88.95,124.25-93.94,144.23-12.69,50.82-7.36,94.53-3.9,98.68C513.05,938,544.26,803,622.7,765.89,637.37,759,632,727.09,625.23,714.44Z"/><path class="cls-21" d="M789.38,740.59c3.49,3.75-6.92,23.22-24.46,33.74-1.21.72-24.67,14.46-35.42,5.06-5.55-4.86-7-15.23-3.37-18.56,3-2.82,7.69,1.23,11.8-1.69,5.09-3.61,4.56-11.88,10.44-18.55,3.2-3.63,14.15-7.22,13.5-5.06-2.53,8.43-9.28,11.81-8.75,15.18C754.22,757.83,784.94,735.82,789.38,740.59Z"/><path class="cls-5" d="M603,727.94c16-4.15,19.6,33.1,52.3,38.79,30.57,5.33,58.19-9.27,75.06-11L743,787c-32.89,15.18-63.45,35.45-100.37,29.52-15.49-2.49-40.12-6.69-51.45-32C581.23,762.18,589.91,731.33,603,727.94Z"/><path class="cls-7" d="M664.87,618.29C661.5,630.1,637,630.94,628.61,630.1c0,0-3.77-7-7.6-5.91-5.57,1.58-10.4,8.87-9.27,13.5.94,3.88,1.47,5.58,3.37,8.43a8.14,8.14,0,0,1-.84,10.12c-9.13,9.93,4.49,28.68-.85,37.12-8.22,13-56.51,8.43-58.19,2.53-2.82-9.87,23.65-22.64,32-49.77,11-35.42,22.77-53.14,48.07-50.6C652.33,597.21,666.64,612.12,664.87,618.29Z"/><path class="cls-10" d="M645.47,663c.86,0,.77,3.85,3.38,5.06,2,.93,4-.4,4.22,0,.32.71-5.75,6-8.44,4.22S644.29,663,645.47,663Z"/><path class="cls-10" d="M1069.77,617.17c-1-.49-2.34.65-6,.27-2.75-.28-4.76-.32-5.13-.08-.67.43,2.89,6.06,6.82,6S1071.19,617.84,1069.77,617.17Z"/><rect class="cls-19" x="1103.62" y="581.41" width="3.18" height="32.89" transform="translate(-149 521.13) rotate(-24.91)"/><path class="cls-6" d="M1104.52,580.19a10.27,10.27,0,0,1-13.18,6.12c-5.33-1.94-11.15-15.51-9.2-20.84a10.27,10.27,0,0,1,13.18-6.12C1100.65,561.3,1106.47,574.86,1104.52,580.19Z"/><path class="cls-1" d="M1110.66,609.66c24.46,48.92,54,234.48,90.67,308.28,21.39,43,23,80.29,7.51,101.81-16.21,22.51-50.25,23.6-75.4,24.29-18.57.5-114-11.19-197.37-86-65.79-59-17.71-144.23-32.9-209.17"/><line class="cls-23" x1="916.02" y1="1012.93" x2="916.02" y2="751.55"/><path class="cls-24" d="M823.76,1031.12V1013a21.08,21.08,0,0,1,21.09-21.08H953.3A21.08,21.08,0,0,1,974.39,1013v20.91"/><circle cx="823.05" cy="1030.54" r="12.65"/><circle cx="974.02" cy="1030.54" r="12.65"/><path class="cls-24" d="M858.34,1031.12V1013a21.09,21.09,0,0,1,21.09-21.08H987.89A21.08,21.08,0,0,1,1009,1013v20.91"/><circle cx="857.63" cy="1030.54" r="12.65"/><circle cx="1008.6" cy="1030.54" r="12.65"/><path class="cls-25" d="M882.49,749.55h61a9,9,0,0,0,8.76-10.77l-17.07-82a8.94,8.94,0,0,0-8.76-7.12H864.53a9,9,0,0,0-8.74,10.86l18,82A9,9,0,0,0,882.49,749.55Z"/><line class="cls-26" x1="926.37" y1="657.32" x2="942.39" y2="735.76"/><path class="cls-8" d="M1242.36,416.94c-.61-.58-.47-15.55-2.75-21.06-3.94-9.56-16.4-20.35-30.78-21.75-15.74-1.54-33.19,7-36.94,19a27.47,27.47,0,0,0-1,9.82c.7,6.7,3.7,7.3,5.8,15.93,1.32,5.46,2.24,9.23.87,13.7-.77,2.53-1.84,3.89-1.2,5.53,1.29,3.29,7.87,3.57,9.63,3.64,12.41.53,19.81-4.63,25-1.13.25.17.45,2.37,2.07,4.7,6.15,8.87,9.75,11.41,13.15,14.06,7.6,5.9,12.25,8.83,12.73,8.94,7.61,1.78,24.47-33.24,21.51-38.55C1259.3,427.73,1250.38,424.47,1242.36,416.94Z"/><path class="cls-27" d="M1148.73,384.21c.61-1,18,2.37,23.72-2.56,7.44-6.43,20.18-16.45,34.7-17.54,8.58-.64,27.14,10,32.83,23,6.2,14.09.52,29.69-.28,29.67s1.51-15.41-5-19.62c-2.9-1.88-10.85-1.59-9.2,1.47,4.47,8.3,5.79,32.54,4.25,37.22-6.86,20.89-14.63,21.13-22,23-5.27,1.34-8.87-8.91-13.75-9.55-4.5-.6-6.7,1.53-8.8-.37-1.93-1.76-1.87-7.36-1.87-7.36,4.71,1.41,20.45-1.73,23.91-5.22,8.25-8.32,13.69-19.42,12-28.28-2.93-14.92-10.94-22.77-15.65-23.87-25-5.82-33.28,16.31-33.28,16.31C1157.59,398.49,1148.12,385.23,1148.73,384.21Z"/><path class="cls-7" d="M1228.44,461.39c-5.52,1.44,0,41.5,3.13,60.13,6.17,36.36,11.07,35.76,13.78,64.38,1.34,14.13,1.09,24.27,5.9,40.27,1,3.29,9.33,31,14.66,30.22,9.21-1.36,10.89-88-20.15-164.59C1243.13,485.31,1233,460.21,1228.44,461.39Z"/><path class="cls-14" d="M1260.82,427.91c13.51,1.78,33.16,3.74,39.76,16,17.21,31.94,41.44,73.88,59.8,108.37,7.55,14.2,13.22,31.44,22.32,53.5,4.07,9.86,7.38,17.79,3.36,20-11.43,6.39-125.23,38-125.23,38s2.14-25.78-4.63-76.28c-6-45-20.08-52.31-18.82-94.43C1237.69,482.69,1236.9,424.75,1260.82,427.91Z"/><path class="cls-14" d="M1297.72,446c-7.94-2.95-25.56,4.82-34,18.24-14.94,23.6-8.85,45-11.41,49.16-8.44,13.86-22.72,26.52-36.84,36.66l28.18,37.18c9.92-10.39,24.1-26.28,32-40.32C1301.79,500.32,1311.59,451.18,1297.72,446Z"/><path class="cls-8" d="M1210.89,562c-25.57,10.71-39.54,18.32-66.35,28.54-2.85,1.09-10.26,1.07-19.47.52-8.42-.51-12.42,2.25-14.61,4.19-4,3.59-15.67,1.83-17.51,4.25-2.88,3.8,13.06,27.42,14.69,28.54,2,1.39,16.89.17,26.45-4.33,5.51-2.59,4.92-3.56,9.77-7.86,5.36-4.75,22.06-5.44,37.31-9.17,23.58-5.76,31.66-6.54,54.45-13.2C1236.19,593.35,1211.44,561.81,1210.89,562Z"/><polygon class="cls-28" points="1201.44 557.67 1217.3 549.41 1246.18 587.39 1229.8 598.66 1201.44 557.67"/><path class="cls-1" d="M1251.63,580.12A126.45,126.45,0,0,0,1302,514.71"/><path class="cls-1" d="M1221.61,545.36c5.33-3.59,16.78-16.27,23.41-23.94A94.68,94.68,0,0,0,1260,497.81"/><polygon class="cls-14" points="1240.28 501.03 1230.55 462.82 1254.85 418.11 1264.72 429.53 1240.28 501.03"/></g></svg>