<svg xmlns="http://www.w3.org/2000/svg" viewBox="335.46 176.71 1261.61 884.21"><defs><style>.cls-1{fill:#f1d1d0}.cls-2{fill:#fff}.cls-3,.cls-6{fill:#2e1c66}.cls-3{stroke:#fff}.cls-17,.cls-18,.cls-19,.cls-20,.cls-24,.cls-29,.cls-3,.cls-30,.cls-31,.cls-32,.cls-33,.cls-34,.cls-35,.cls-5,.cls-7,.cls-8{stroke-miterlimit:10}.cls-3,.cls-5{stroke-width:10px}.cls-4{fill:#fed000}.cls-17,.cls-18,.cls-19,.cls-20,.cls-24,.cls-29,.cls-30,.cls-31,.cls-32,.cls-33,.cls-34,.cls-35,.cls-5,.cls-8{fill:none}.cls-33,.cls-5{stroke:#fed000}.cls-17,.cls-18,.cls-19,.cls-32,.cls-33,.cls-5,.cls-8{stroke-linecap:round}.cls-34,.cls-35,.cls-7{stroke:#000}.cls-35,.cls-7{stroke-width:2px}.cls-29,.cls-30,.cls-31,.cls-32,.cls-8{stroke:#2e1c66}.cls-8{stroke-width:20px}.cls-9{fill:#f58f80}.cls-10{fill:#c6c6c6}.cls-11{fill:#ffb600}.cls-12{fill:#ffc1aa}.cls-13{fill:#9b5f1e}.cls-14{fill:#be2651}.cls-15{fill:#ff2e56}.cls-16{fill:#74787c}.cls-17,.cls-18,.cls-19,.cls-20{stroke:#74787c}.cls-17{stroke-width:34px}.cls-18,.cls-20,.cls-33{stroke-width:15px}.cls-19{stroke-width:18px}.cls-20{stroke-linecap:square}.cls-21{fill:#262626}.cls-22{fill:#303030}.cls-23{fill:#eaeaea}.cls-24{stroke:#361b08}.cls-24,.cls-34{stroke-width:4px}.cls-25{fill:#4735bc}.cls-26{fill:#e2cbc3}.cls-27{fill:#f79889}.cls-28{fill:#3a1e0c}.cls-29,.cls-30,.cls-31,.cls-32{stroke-width:3px}.cls-30{stroke-dasharray:4.02 4.02}.cls-31{stroke-dasharray:3.92 3.92}</style></defs><g id="Layer_1" data-name="Layer 1"><path d="M827.66,1043.88C636.15,1037.57,426.47,910,358.8,703.81s19.33-526.1,248.32-526.1c205.39,0,361.62,161.7,479,239.06,150.68,99.33,336.21,29.82,377.11,207.91C1517.9,862.9,1195.13,1056,827.66,1043.88Z" class="cls-1"/><path d="M1056.39,245.79c-36,61.65,26.29,108,72.66,140.91,58,41.1,213.34,61.74,233.37,14.68C1387.05,343.53,1132.44,115.43,1056.39,245.79Z" class="cls-1"/><path d="M900.05,655.83c-16.69,8.85-43,65.55-36.2,79.12l86.71-.84c-10.11-12.62-16.84-38.72-1.69-78.28Z" class="cls-2"/><path d="M785.14,480.74h255.14c4.92,0,9.09,4.2,9.82,9.88l19.53,152.11c.9,7-3.75,13.32-9.82,13.32H801.91c-5,0-9.21-4.33-9.85-10.12L775.29,493.82C774.52,486.89,779.15,480.74,785.14,480.74Z" class="cls-3"/><path d="M795.05,509.47l13.24,117a8.43,8.43,0,0,0,8.37,7.47h119a8.42,8.42,0,0,0,8.35-9.49l-15-117a8.42,8.42,0,0,0-8.35-7.35H803.41A8.41,8.41,0,0,0,795.05,509.47Z" class="cls-4"/><line x1="943.81" x2="1032.04" y1="505.21" y2="505.21" class="cls-5"/><line x1="946.34" x2="1034.57" y1="526.26" y2="526.26" class="cls-5"/><line x1="949.7" x2="1037.94" y1="547.3" y2="547.3" class="cls-5"/><path d="M856.28,734.11c-2.28-8.29,17.42-27.42,40.4-25.25,18.78,1.77,35.22,17.34,32.83,25.25C925.31,748,860,747.52,856.28,734.11Z" class="cls-2"/><polygon points="554.73 650.07 538.01 568.11 650.84 568.39 669.08 650.38 554.73 650.07" class="cls-2"/><path d="M515.26,729.8l.1-82.4a5,5,0,0,1,5-5H761.76a5,5,0,0,1,5,5V729.9a5.05,5.05,0,0,1-5.06,5.05l-241.44-.1A5,5,0,0,1,515.26,729.8Z" class="cls-6"/><rect width="125.42" height="26.09" x="627.32" y="700.44"/><line x1="599.76" x2="599.76" y1="650.38" y2="726.54" class="cls-7"/><polygon points="588.17 764.63 616.37 739.31 587.95 739.15 588.17 764.63" class="cls-4"/><polygon points="1335.14 764.81 1363.34 739.49 1334.92 739.33 1335.14 764.81" class="cls-4"/><line x1="435.21" x2="520.33" y1="1039.29" y2="739.15" class="cls-8"/><path d="M1377.28,765.16H490.71a12.38,12.38,0,0,1-12.38-12.38v-7.56a12.38,12.38,0,0,1,12.38-12.38h886.57Z" class="cls-6"/><line x1="642.02" x2="556.9" y1="1039.44" y2="739.31" class="cls-8"/><line x1="1181.96" x2="1267.08" y1="1039.29" y2="739.15" class="cls-8"/><polygon points="1242.84 739.15 1231.02 764.63 1334.92 764.63 1334.7 739.15 1242.84 739.15" class="cls-6"/><line x1="1388.78" x2="1303.65" y1="1039.44" y2="739.31" class="cls-8"/><line x1="482.7" x2="594.49" y1="871.85" y2="871.85" class="cls-8"/><path d="M1091.38,899.45c48.83-38.84,51.42-66.27,59.45-87.12l-31.15-12.28c-1.58,6.87-3.2,14.09-4.89,21.59C1103,874.31,1088.37,901.84,1091.38,899.45Z" class="cls-9"/><path d="M1006.85,925.1c-.08.74,82.94,31.57,83.61,31.26,4.09-1.86,7.68-10,8.79-14.74l-43-15.69,4.65-12.45a38.73,38.73,0,0,1-4.81-.23C1047.49,912.31,1008.37,910.54,1006.85,925.1Z" class="cls-10"/><path d="M1112.84,803.55,1149.09,816c6.57-14.82,16.44-26.24,51.76-35.92,26.76-7.33,115.81-14.7,131.62-38.78,2.32-3.53,15.08-18.9,4.67-22.75-19.22-7.1-146.88-2.57-187.5,5C1134.75,726.33,1124.89,757.39,1112.84,803.55Z" class="cls-11"/><path d="M1061,913.84l-6.15,12.69,44,15.34c.56-2.66,4.47-14.23,7.42-16.93,18.08-16.55,30.11-32,45.09-50.13A217.92,217.92,0,0,0,1171,846.56l-48.57-18.41C1120.55,833.65,1089.64,904.21,1061,913.84Z" class="cls-12"/><path d="M1121.17,827.16l55,22.82a237.79,237.79,0,0,0,19.73-42c11.58-.54,205.94,42.83,264,7.66,34.75-21,26.47-53.81,24.89-73.37-.25-3-16.15-2.23-21.44-2.52-180.37-10.07-293.12-17-304.17-4.88C1144.65,750.8,1145.27,758.33,1121.17,827.16Z" class="cls-4"/><path d="M1419.89,520.63a26.26,26.26,0,0,0-29.7,6c-9.9,10.56-8.85,27.74-.53,35.72,12.12,11.63,40,4.1,44.72-12.74C1437.19,539.57,1431.7,526,1419.89,520.63Z" class="cls-13"/><path d="M1425.85,552.43a34.29,34.29,0,0,0-17.66-5,32.33,32.33,0,0,0-12.73,2.59c-9.73,4.33-14.19,12.75-16.52,17.14a43.81,43.81,0,0,0-5.17,21.85c.21,5.14.45,11.15,3.55,14.87,11.06,13.33,62.52,2.32,66.11-21.25C1445.12,571.57,1436.11,558.57,1425.85,552.43Z" class="cls-14"/><path d="M1415.56,523.6c-1.86,3.35,2.62,7,2.45,15.87,0,2.64-2.65,7.46-9.23,18.52-7.43,12.48-16.8,23.43-36.39,38.34-4.62,3.52-5.58,4-5.52,6.06.14,4.68,18.59,10.09,32.2,8.78,37-3.53,70.68-59.71,58.22-80.47C1449.09,517,1419.52,516.41,1415.56,523.6Z" class="cls-12"/><path d="M1406,651.16c-13.73,1.49-86,20.37-107.26,24.69-4,.81-9.09,1.71-14.69-.65-8.63-3.63-10.59-4.21-16.31-3.06-8.54,1.7-21.69,6.64-26,8.55-2.53,1.13-6.75,7.14-3.91,10.24,1,1.09,19.48-.09,52.8,1.38,25.18,1.12,21,2.24,40.92,1.81,43.29-.93,64-.68,73.18-14.64C1410.3,671,1414.12,650.27,1406,651.16Z" class="cls-9"/><path d="M1499.12,607.18c5.37-19.36,2.12-38.61-12.56-48.91-11.13-7.8-28.76-8.13-37.86.43-8.29,7.79-12.52,21.52-12.52,21.52-5.81,1-17.88.26-18.24-15.52-.18-8.18-10.6,11.21-26.15,20.92-17.3,10.8-35.44,15.22-40,24.52-11.56,23.66,5.63,39.14,5.63,39.14-2,7.31-3.38,8.47-6.08,18.66-2.23,8.41-2.63,18.24-1,23.08,7.24,21.72,127.36,75.44,130.91,62.25C1491.31,715.87,1491.62,634.18,1499.12,607.18Z" class="cls-15"/><path d="M1412.15,448.79c-3.66,1.42-8.07,1.88-12,9-2.13,3.81-5.06,12.09-7.69,15.38-4.73,5.91-8,5.46-7.68,11.1.54,8.64,6,10.7,11.62,25.77,3.37,9,1.61,7.39,6.46,13.38,4.52,5.58,11.42,6.91,16.83,7.87s25.44,4.52,39.3-8.1c15.59-14.18,15.58-41.9,2.15-59.09C1448.35,447.76,1425.58,443.56,1412.15,448.79Z" class="cls-12"/><path d="M1500.4,602c-.17,1.48,12.23-27.24,14.44-41.41,4.4-28.19-10.1-33-10.1-33s6.94-14.41,1.25-28.33c-6.06-14.81-18.15-17.62-18.15-17.62s6-15.51-7-30.8c-14.92-17.56-36.47-10.79-36.47-10.79s-3.2-16-19.22-13.75c-10.45,1.5-17.13,19.19-13.61,22.53,2,1.91,8.4.37,8.4.37s-8.77,8,12.62,23.68c6.83,5,8.67-5.92,13.73-1.49a19.19,19.19,0,0,1,5.88,9.72c1.11,5.06-1.56,11.49-1.56,11.49s-11.53,6.88-15.43,16.14c-3.64,8.63.07,22.08.07,22.08s-11.56,3.71-17.39,12.9c-5.48,8.64-6.2,26,1.71,32.66,5.83,4.88,16.82,7,17.75,2.89,5.21-22.9,27.85-27.54,39-25.61C1489.6,555.92,1502.14,586.29,1500.4,602Z" class="cls-13"/><path d="M1455.87,817.84v23c0,2.43-2.37,4.41-5.29,4.41H1199.87c-3.33,0-5.67-7.76-5.18-10.52,2.92-16.45,25.11-41.14,44.31-40.76,63.25,1.25,189.88,15.11,213.69,19.8A4.1,4.1,0,0,1,1455.87,817.84Z" class="cls-6"/><path d="M1555.81,501.18l-59.3,306.91c-.7,3.63-3.74,6.08-7,5.67l-7.88-1c-3.28-.41-5.76-3.51-5.76-7.21,0-22.55.65-99.89,7.93-169.8,4.66-44.73,41.26-122,50.93-141.79a6.26,6.26,0,0,1,7-3.6l9.11,2.18C1554.34,493.4,1556.57,497.26,1555.81,501.18Z" class="cls-6"/><polygon points="1367.14 854.44 1381.85 925.39 1257.99 925.39 1264.35 854.44 1367.14 854.44" class="cls-16"/><path d="M1433.54,823.56V739.21A3.17,3.17,0,0,0,1431,736L1279,715.15" class="cls-17"/><path d="M1198,864.29h275.14a5.74,5.74,0,0,0,4.73-2.58c5.6-8.14,14.47-17.13-6.41-17.13H1198.2c-10.8,0-8.83,4.08-9,9.38C1188.91,859.62,1192.94,864.29,1198,864.29Z" class="cls-16"/><path d="M1238.82,917.51h245.41c8.35,0,13.08,10.71,8,18.13l-35.4,51.69a9.75,9.75,0,0,1-8,4.42H1207.21c-8.11,0-12.9-10.15-8.32-17.64l31.61-51.69A9.83,9.83,0,0,1,1238.82,917.51Z" class="cls-16"/><path d="M1197,854.44h-21.28a2.94,2.94,0,0,0-2.69,1.95l-61.46,122.75a2.84,2.84,0,0,1-3.71,1.75l-43.44-15.61" class="cls-18"/><path d="M1468.11,854.44l28.77,5.25a3.12,3.12,0,0,0,2.93-3.28l3.53-17.74a3.13,3.13,0,0,0-2.94-3.29l-16.35-3.94a3.2,3.2,0,0,1-2.9-3.87l7.32-37.85" class="cls-18"/><polyline points="1448.65 938.43 1523.01 938.43 1540.64 974.06" class="cls-19"/><line x1="1094.98" x2="1017.06" y1="963.9" y2="934.76" class="cls-20"/><rect width="53.26" height="23.67" x="1031.01" y="925.62" class="cls-16" rx="5" transform="translate(1738.63 2175.87) rotate(-160.36)"/><line x1="1279.25" x2="1231" y1="715.61" y2="709.72" class="cls-18"/><rect width="23.91" height="23.91" x="1237.84" y="684.95" class="cls-16" transform="translate(2398.54 1550.15) rotate(-172.54)"/><ellipse cx="1433.25" cy="823.23" class="cls-21" rx="7.34" ry="8.21"/><ellipse cx="1488.47" cy="789.72" class="cls-21" rx="2.64" ry="2.96"/><ellipse cx="1485.53" cy="806.15" class="cls-21" rx="2.64" ry="2.96"/><path d="M1236,1027.66a61.2,61.2,0,1,1,61.2-61.2A61.28,61.28,0,0,1,1236,1027.66Z" class="cls-16"/><path d="M1236,921.26a45.2,45.2,0,1,1-45.2,45.2,45.25,45.25,0,0,1,45.2-45.2m0-32a77.2,77.2,0,1,0,77.2,77.2,77.2,77.2,0,0,0-77.2-77.2Z" class="cls-22"/><path d="M1549.44,1030.84a32.19,32.19,0,1,1,32.19-32.19A32.23,32.23,0,0,1,1549.44,1030.84Z" class="cls-16"/><path d="M1549.44,978a20.69,20.69,0,1,1-20.69,20.69A20.71,20.71,0,0,1,1549.44,978m0-23a43.69,43.69,0,1,0,43.69,43.69A43.69,43.69,0,0,0,1549.44,955Z" class="cls-22"/><path d="M1426.39,720.22c13.07.44,19.95-20.8,18.07-32.58-2.33-14.46-14-23.56-19.58-24.29-38.52-5.08-105.74,14.65-117.47,15.22-11,.54-24.54,2.06-46.5-.83-4.16-.55-17.08,11-18.72,13.42-2.63,3.89-6,8.35-3.32,9.09,7.15,2,13.73-7.72,19.08-8.08.09,0-8.67,9.46-9.08,12.58-.3,2.33,6.19,8.28,9.59,7.62s4.07-9.23,5.4-8.82-.33,10.55,1.61,11.86c2.76,1.86,10.35,2.61,9.51.2-.76-2.22-2.61-7.64-1.61-11.87.89-3.78,8.76-1,10.69-.71C1309.05,706.33,1399.49,719.32,1426.39,720.22Z" class="cls-12"/><path d="M630.69,715.59c23.57,11.79,48.82,23.57,63.13,85H806.61c-7.57-47.14-35.14-73.07-62.29-85Z" class="cls-2"/><g id="going_to" data-name="going to"><path d="M837.59,598.52l1.44,9.12,6.46-4.29,2.65-1.76.69-.46,2.35-1.55,1.5-1,2.2-1.54-2.68-1.51-.29-.16L850,594.27l-2.81-1.57-.48-.28-3.22-1.81-7.66-4.3-.17-.1,1.37,8.64h-5.22l.58,3.67Zm1.82-7,4.6,2.58,1.36.76.85.48.11.06.91.51,1,.54,1.12.62-.61.41-1.1.72-.19.13-1.06.71-.77.51-.64.42-3.8,2.52Z" class="cls-2"/><path d="M824.41,597.57c0,.12.05.25.08.37l.09.35a6.93,6.93,0,0,0,.2.75c.06.25.14.49.21.73v0c.16.48.33,1,.52,1.42,0,.11.09.2.13.3l.13.3c.08.18.16.36.25.53s.23.49.35.72l0,.08c.09.18.18.35.28.52l.29.49a5.09,5.09,0,0,0,.3.5c.07.11.14.23.23.35h0l0,.05a.22.22,0,0,1,.05.08l.44.63.13.17.41.56h0l0,0c.3.38.62.77,1,1.14l.42.46.16.17.05,0a5.93,5.93,0,0,0,.43.44,3.57,3.57,0,0,0,.28.27l.29.28.19.17.42.37.72.6.5.38a.71.71,0,0,1,.09.07c.13.09.25.19.39.28.32.23.65.45,1,.67l.15.08c.28.19.56.36.85.52l.16.1c.18.1.37.21.57.3l.16.09a4.44,4.44,0,0,0,.49.24c.23.12.46.23.7.33s.45.2.69.29a3.84,3.84,0,0,0,.36.14l.56.21.54.18h0l.22.07.32.1.32.1h.07l.72.19.37.08.38.08.7.12.56.08.14,0h0l.18,0h0l.44,0,.14,0h.47l.24,0h1.75l.23,0h.46l.14,0,.4,0h0l.2,0,.59-.08q.72-.12,1.41-.3a4.75,4.75,0,0,0,.54-.14l.42-.13.21-.06.68-.25.15-.06.72-.3.69-.33.18-.11.07,0,0,0a2.71,2.71,0,0,0,.41-.23c.33-.18.64-.38.94-.58s.4-.28.58-.43a7,7,0,0,0,.6-.48l.1-.08c.16-.13.31-.27.46-.41l.26-.25a13.87,13.87,0,0,0,1.76-2.06c.09-.12.17-.23.25-.36s.26-.39.38-.6l.12-.21c.12-.19.22-.39.33-.6l0,0,.28-.57.14-.32c.07-.17.14-.33.2-.5l.07-.15c.09-.25.18-.51.26-.76s.17-.55.24-.83.13-.46.18-.71a.17.17,0,0,1,0-.07.43.43,0,0,1,0-.05s0,0,0,0c.06-.29.11-.57.15-.86a5.59,5.59,0,0,0,.08-.59c0-.13,0-.27,0-.41a15.16,15.16,0,0,0,.08-1.52c0-.22,0-.45,0-.68s0-.5,0-.76l0-.35c0-.13,0-.25,0-.37,0-.3-.07-.59-.12-.88s-.08-.46-.12-.69v-.08c0-.19-.08-.37-.13-.56s-.11-.49-.18-.74c0,0,0-.1,0-.14a0,0,0,0,0,0,0c-.06-.23-.12-.45-.19-.68s-.16-.46-.24-.69-.18-.5-.28-.74-.16-.4-.25-.6-.1-.26-.17-.38-.11-.26-.18-.38a.36.36,0,0,0,0-.09l-.31-.64v0c-.15-.28-.3-.56-.47-.83l-.37-.62c-.08-.14-.17-.27-.26-.4l0-.07c-.07-.1-.13-.2-.21-.3s-.18-.27-.27-.4v0l-.15-.2,0,0-.18-.25c-.06-.08-.13-.16-.18-.24-.2-.25-.4-.5-.61-.74s-.33-.4-.51-.59l-.45-.49-.47-.48-.06-.06c-.15-.15-.31-.29-.45-.44l-.68-.61c-.41-.36-.84-.7-1.27-1l-.11-.08-.37-.27c-.19-.14-.39-.27-.59-.4l-.69-.45c-.28-.17-.55-.34-.84-.49l-.34-.19h0l0,0a6.54,6.54,0,0,0-.59-.3h0c-.22-.12-.45-.23-.68-.33l-.57-.25c-.09,0-.19-.08-.28-.12s-.38-.16-.57-.22-.46-.18-.69-.25l-.44-.14-.25-.08-.26-.07a4.91,4.91,0,0,0-.51-.15l-.06,0h0l-.29-.08c-.54-.13-1.07-.23-1.62-.32l-.62-.08-.22,0h0c-.14,0-.27,0-.41,0l-.14,0h-.25l-.23,0h-2.22l-.22,0h-.13l-.12,0-.53.05-.8.1h0l-.39.07-.29.06-.29.07h0l-.58.13-.2.06-.72.22c-.28.09-.55.18-.82.29l-.55.23h0a2.63,2.63,0,0,0-.35.15l-.05,0h0l-.45.22-.33.18h0l0,0-.49.28-.1,0c-.16.09-.3.19-.45.29l-.28.18c-.16.11-.33.23-.49.36l-.2.14-.53.44c-.18.14-.34.3-.52.46l-.35.34,0,0,0,0-.36.37-.23.26a3.24,3.24,0,0,0-.29.34,10.59,10.59,0,0,0-.82,1.08l-.36.57c-.09.13-.17.27-.25.41l-.25.44c-.07.13-.15.27-.21.41l-.25.52a1.89,1.89,0,0,0-.11.25l0,.1c-.07.17-.15.35-.22.53l-.2.57c0,.11-.07.23-.11.34a15,15,0,0,0-.38,1.5,8.85,8.85,0,0,0-.16.87c0,.26-.07.52-.1.78a1.94,1.94,0,0,0,0,.24c0,.2,0,.39,0,.58s0,.34,0,.52c0,.44,0,.89,0,1.34v0c0,.25,0,.51.05.76s0,.37,0,.56V596c0,.23.06.45.1.69S824.35,597.27,824.41,597.57Zm2.71-2.21a13.59,13.59,0,0,1,2.12-8.6,11.18,11.18,0,0,1,1.73-2.09,13.09,13.09,0,0,1,8-3.61,14,14,0,0,1,1.46-.07,14.8,14.8,0,0,1,1.48.07,18.36,18.36,0,0,1,9.1,3.53,20.51,20.51,0,0,1,2.39,2.07,18.6,18.6,0,0,1,4.94,8.7c.11.44.2.88.27,1.33a15,15,0,0,1,.17,1.6,13.56,13.56,0,0,1-2.25,8.49,12.37,12.37,0,0,1-1.76,2.06,13.17,13.17,0,0,1-7.92,3.46,11.53,11.53,0,0,1-1.45.08,12.23,12.23,0,0,1-1.48-.08,18.15,18.15,0,0,1-9.11-3.54,18.36,18.36,0,0,1-2.41-2.08,18.64,18.64,0,0,1-4.84-8.39c-.14-.52-.25-1.06-.34-1.6S827.15,595.8,827.12,595.36Z" class="cls-2"/><path d="M816.11,598.29l-.47-2.93h5.51c0,.44.09.88.16,1.33s.2,1.08.32,1.6Z" class="cls-2"/><path d="M864.62,596.69c-.07-.45-.16-.89-.25-1.33H870l.46,2.93h-5.61C864.77,597.77,864.71,597.23,864.62,596.69Z" class="cls-2"/><path d="M845.8,623.84l-.89-5.56c.5,0,1,.06,1.48.06s1,0,1.46-.06l.88,5.56Z" class="cls-2"/><path d="M838.07,575.09l-.88-5.56h2.94l.88,5.56a14.65,14.65,0,0,0-1.48-.06A14.14,14.14,0,0,0,838.07,575.09Z" class="cls-2"/><path d="M859.7,613.06a15.67,15.67,0,0,0,1.76-2.07l4.58,4L864.3,617Z" class="cls-2"/><path d="M819.81,578.62l1.75-2.08,4.52,3.91a17.29,17.29,0,0,0-1.73,2.09Z" class="cls-2"/><path d="M825.61,614.81l3.3-3.91a24,24,0,0,0,2.4,2.08l-3.3,3.91Z" class="cls-2"/><path d="M854.6,580.37l3.34-4,2.4,2.08-3.33,4A29.56,29.56,0,0,0,854.6,580.37Z" class="cls-2"/></g><g id="day_-_time" data-name="day - time"><path d="M903.25,553c-12.21,0-23.72-9.94-25.65-22.15s6.43-22.14,18.64-22.14,23.71,9.93,25.64,22.14S915.46,553,903.25,553Zm-6.46-40.78c-10.27,0-17.31,8.36-15.68,18.63s11.31,18.64,21.58,18.64,17.31-8.36,15.68-18.64S907.07,512.22,896.79,512.22Z" class="cls-2"/><polygon points="910.35 540.53 898.36 530.97 896.27 517.78 899.08 517.78 900.97 529.73 911.91 538.46 910.35 540.53" class="cls-2"/><path d="M838.66,549.49c-9.42,0-18.3-7.67-19.79-17.09s5-17.09,14.38-17.09S851.55,523,853,532.4,848.08,549.49,838.66,549.49Zm-5-31.47c-7.93,0-13.36,6.45-12.11,14.38s8.73,14.38,16.66,14.38,13.36-6.45,12.1-14.38S841.6,518,833.68,518Z" class="cls-2"/><path d="M839.56,559.18h-.25c-1.76-.17-2.8-1.87-3.73-3.37-.62-1-1.39-2.26-2.06-2.45-.83-.24-1.77.54-2.68,1.29-1.31,1.08-3.29,2.72-5.65.67a4.34,4.34,0,0,1-1.36-3.08,4.44,4.44,0,0,0-1.45-3.2c-.91-.86-2-.88-3.44-.82-1.12,0-3,.13-3.59-1.69-.44-1.29.3-2.4,1.08-3.57a5.22,5.22,0,0,0,1.08-2.23,10.75,10.75,0,0,0-2.59-1.17c-2.08-.74-4.44-1.58-4.74-3.66-.24-1.7,1.28-2.59,2.74-3.44.65-.38,2-1.17,2-1.57,0-.66-1.3-1.66-2.33-2.47-1.53-1.2-3.27-2.57-3.08-4.38.18-1.66,1.86-2,3.21-2.37.55-.13,1.71-.41,1.77-.68.21-.89-1.49-2.78-2.51-3.9-1.29-1.43-2.5-2.78-1.71-4,.65-.94,1.92-.66,4.22-.14a28.34,28.34,0,0,0,5.12.81c.75,0,1-.08.72-2.71-.19-1.56-.43-3.5,1.16-4.13s3.27.53,5.18,1.7c1.24.76,2.94,1.81,3.7,1.69.92-.13,1.36-1.43,1.75-2.58s1-3,2.79-2.55,2.49,2.27,3.08,3.91c.36,1,.85,2.34,1.4,2.57,1,.42,2.51-.81,3.64-1.7,1.45-1.14,3-2.33,4.56-1.28,1.24.81,1.35,2.12,1.44,3.27a5.49,5.49,0,0,0,1.09,3.38c.5.6,1.8.72,2.94.82,1.55.13,3.47.3,4.26,2s-.33,3-1.28,4.26a5.68,5.68,0,0,0-1.12,1.81,9.14,9.14,0,0,0,2,1c1.74.67,4.11,1.58,4.45,3.75.28,1.75-1,2.77-2,3.59s-1.86,1.57-1.63,2.69,1.33,2.2,2.37,3.14,2.51,2.26,2.08,3.81c-.39,1.4-1.93,1.58-3.17,1.72-.93.11-1.9.22-2.18.72s.79,2.56,1.39,3.63c1,1.71,1.86,3.33.68,4.24s-2.65-.18-4.41-1.41a11.39,11.39,0,0,0-2.92-1.7c-.54.29-.49,3-.47,4,0,2.3.08,4.29-1.57,4.57-1.43.25-2.44-1.12-3.34-2.32-.5-.67-1.43-1.91-1.89-1.93s-1.14,1.52-1.49,2.21C842,557.54,841.21,559.18,839.56,559.18Zm-6.8-8.59a4.09,4.09,0,0,1,1.12.16c1.91.55,3.06,2.42,4,3.92a9.14,9.14,0,0,0,1.25,1.76,7.38,7.38,0,0,0,1.22-2c.82-1.6,1.74-3.42,3.56-3.42H844c1.93.1,3.3,1.92,4.3,3.26l.06.08c0-.44,0-.93,0-1.33,0-2.56-.1-5.46,1.94-6.21,1.56-.57,3.53.74,5.31,2-1-1.9-2.16-4.12-1.23-5.77.83-1.47,2.61-1.67,3.9-1.82.32,0,.74-.08,1-.15-.24-.25-.6-.58-.87-.82-1.24-1.12-2.94-2.65-3.4-4.89-.53-2.64,1.16-4,2.39-5,.6-.48,1.27-1,1.21-1.39s-1.74-1-2.37-1.25c-1.59-.61-3.24-1.25-3.88-2.71-.76-1.72.36-3.15,1.34-4.41a7.27,7.27,0,0,0,1-1.53,10.9,10.9,0,0,0-1.54-.2c-1.67-.15-3.74-.33-5.13-2a8.37,8.37,0,0,1-1.82-5.11c0-.16,0-.35,0-.53-.4.25-.92.66-1.31,1-1.7,1.35-3.82,3-6.3,1.95-1.88-.81-2.62-2.85-3.22-4.49-.13-.36-.31-.86-.49-1.26l-.2.57c-.53,1.57-1.26,3.72-3.55,4-1.77.27-3.75-.95-5.67-2.12a14,14,0,0,0-2.57-1.37,9.8,9.8,0,0,0,.11,1.64c.24,1.89.65,5.41-3.07,5.33h0a30.69,30.69,0,0,1-5.69-.88l-.31-.07c1.6,1.76,3.71,4.15,3.19,6.4-.37,1.62-2.07,2-3.43,2.34a5.87,5.87,0,0,0-1.48.47,10.39,10.39,0,0,0,1.82,1.62c1.58,1.24,3.54,2.78,3.58,4.86,0,1.77-1.62,2.74-3.07,3.58a8.33,8.33,0,0,0-1.61,1.1,12,12,0,0,0,2.51,1.09c2.07.74,4.43,1.58,4.74,3.66.23,1.52-.65,2.84-1.42,4-.17.24-.37.55-.54.83h.13a7.15,7.15,0,0,1,5.73,1.73,7.58,7.58,0,0,1,2.44,5.11,2.53,2.53,0,0,0,.24,1.06c.34.29.61.29,2.1-.94A6.21,6.21,0,0,1,832.76,550.59Z" class="cls-2"/></g><path d="M910.34,618.1c-12.09,0-23.49-9.83-25.4-21.92s6.36-21.93,18.45-21.93,23.48,9.84,25.4,21.93S922.42,618.1,910.34,618.1Zm-6.49-40.92c-10.47,0-17.64,8.52-16,19s11.53,19,22,19,17.65-8.52,16-19S914.33,577.18,903.85,577.18Z" class="cls-2"/><path d="M909.43,610.67c-6,0-11.94-3.84-15-9.66l2.6-1c2.46,4.75,7.36,7.84,12.2,7.71a9.41,9.41,0,0,0,8.83-6.6l2.85,1.26a11.69,11.69,0,0,1-11.13,8.27Z" class="cls-2"/><ellipse cx="898.44" cy="589.98" class="cls-2" rx="3.44" ry="4.03" transform="translate(-144.59 849.5) rotate(-47.26)"/><ellipse cx="913.32" cy="589.98" class="cls-2" rx="3.44" ry="4.03" transform="translate(-139.81 860.43) rotate(-47.26)"/><g id="going_to-2" data-name="going to"><path d="M748,735.1l-4.4-4.62-1.34,3.44-.55,1.42-.14.37L741,737l-.31.8L740.3,739l1.9.33.21,0,1.36.24,2,.34.34.06,2.27.4,5.41.93.12,0L749.73,737l2.49-.94-1.77-1.85Zm2,4.09-3.25-.56-1-.17-.6-.1h-.08l-.64-.11-.67-.12L743,738l.13-.32.22-.58,0-.11.22-.56.16-.41.13-.34.79-2Z"/><path d="M754.64,733.26l-.19-.19-.18-.17-.4-.37-.4-.35h0c-.27-.23-.55-.46-.83-.67l-.18-.14-.18-.13-.34-.24-.46-.33-.05,0-.35-.23-.33-.21-.35-.21-.25-.15h0l0,0-.06,0-.46-.26-.14-.07-.42-.22h0c-.3-.16-.61-.3-.92-.44l-.39-.17-.14-.07,0,0-.38-.15-.25-.1-.25-.09-.16-.06-.35-.12-.59-.2-.4-.11-.07,0-.29-.08-.75-.18-.1,0c-.21,0-.42-.1-.62-.13l-.11,0a2.76,2.76,0,0,0-.4-.06l-.11,0-.33,0-.47-.05-.45,0-.23,0H739.9l-.42,0-.21,0-.21,0-.39,0-.3.06-.07,0h0l-.1,0h0a1.55,1.55,0,0,0-.23.06h-.07l-.06,0-.06,0-.12,0-.12,0h0l-.39.13-.37.15,0,0-.11,0-.1,0-.06,0,0,0-.06,0-.17.09h0l-.08,0-.25.15a3.74,3.74,0,0,0-.55.41l-.2.17-.15.14-.07.07c-.08.09-.16.17-.23.26l-.05,0-.22.3c-.06.09-.13.19-.19.3a.2.2,0,0,0,0,.08l0,0h0a2,2,0,0,0-.11.2,2.55,2.55,0,0,0-.2.48c0,.11-.08.22-.11.33s-.07.24-.09.36v.06c0,.1,0,.2-.06.3s0,.12,0,.18a5.62,5.62,0,0,0,0,1.42,1,1,0,0,0,0,.24c0,.12,0,.25.06.39l0,.13c0,.12,0,.25.08.38v0c0,.12.06.24.1.36a1.46,1.46,0,0,0,.07.19,1.86,1.86,0,0,0,.1.31l0,.09.18.45c.07.16.14.32.22.48l.21.42,0,0v0h0l.27.49c.06.11.14.22.21.33l.14.23c.18.27.38.55.59.82l.28.36a4.12,4.12,0,0,0,.33.4,1.46,1.46,0,0,0,.16.19l.16.19.42.45c.11.12.22.23.34.34l0,0,.28.27.39.36.08.07v0l.37.32.4.33.43.35.36.27.24.18.24.17.06,0,.41.28h0l.56.37.43.26.29.17.05,0,.22.12.29.17h0l.16.09h0l.18.1.19.1.59.29.48.22.42.18.42.18.05,0,.4.15c.19.08.38.14.57.21s.68.22,1,.32l.09,0,.29.08.44.11.51.12.61.11.23,0h0l.41.06h0c.15,0,.31,0,.46.06l.37,0h.19l.36,0h1l.31,0s0,0,0,0h.19c.31,0,.61-.07.91-.12l.32-.07.12,0h0l.21-.06h.07l.06,0,.07,0,.11,0,.12,0h0l.39-.13.37-.15,0,0,.1-.05.1,0,.06,0,0,0,.24-.13.34-.19h0l.16-.11.11-.09.11-.08h0a1.84,1.84,0,0,0,.22-.17l.07-.07.26-.24a2.61,2.61,0,0,0,.27-.31,1.84,1.84,0,0,0,.17-.22h0l.11-.14v0h0l.13-.2a1.09,1.09,0,0,1,.08-.15h0v0l.12-.24s0,0,0,0a1.6,1.6,0,0,0,.1-.23l.06-.15.09-.27,0-.12c0-.11.06-.22.08-.32s0-.23.06-.34l0-.25v0s0,0,0,0a1.1,1.1,0,0,0,0-.26,1.09,1.09,0,0,0,0-.18v-.23a6,6,0,0,0-.05-.73l-.06-.37c0-.08,0-.17,0-.26a2.3,2.3,0,0,0-.06-.28l-.06-.26c0-.1-.06-.21-.1-.32a1.42,1.42,0,0,0-.05-.16.11.11,0,0,0,0-.05c0-.11-.07-.22-.11-.33s-.09-.22-.13-.34l-.09-.2c-.13-.29-.27-.58-.43-.87s-.18-.33-.28-.49-.17-.29-.27-.44l-.08-.13-.22-.32-.2-.28c-.17-.24-.36-.48-.55-.71v0l-.33-.39-.26-.29,0,0c-.1-.12-.21-.23-.32-.35S754.79,733.4,754.64,733.26Zm-.39,1.66a10.16,10.16,0,0,1,2.49,5,5.22,5.22,0,0,1,0,1.42,4.21,4.21,0,0,1-2.37,3.37,6.8,6.8,0,0,1-.67.3c-.24.08-.48.16-.74.22a11.52,11.52,0,0,1-5.78-.26,17.32,17.32,0,0,1-2-.68,19.37,19.37,0,0,1-5.9-3.77l-.67-.66c-.26-.28-.51-.55-.74-.83a9.87,9.87,0,0,1-2.37-4.94,4.83,4.83,0,0,1,0-1.42,4.22,4.22,0,0,1,2.37-3.26,5.44,5.44,0,0,1,1.4-.52,11.45,11.45,0,0,1,5.79.27,16.84,16.84,0,0,1,2,.68,19.27,19.27,0,0,1,5.73,3.62c.28.26.55.52.81.8S754.05,734.69,754.25,734.92Z"/><path d="M758.31,731.39l1.42,1.48-2.63,1c-.2-.22-.4-.45-.62-.68s-.53-.54-.81-.8Z"/><path d="M735.8,740.9c.21.23.43.45.66.67l-2.67,1-1.42-1.48,2.68-1C735.28,740.35,735.53,740.63,735.8,740.9Z"/><path d="M733.73,723l2.69,2.82c-.26.07-.5.15-.73.23a6.06,6.06,0,0,0-.68.3l-2.68-2.82Z"/><path d="M757.27,747.71l2.69,2.82-1.41.52-2.68-2.81c.25-.07.49-.15.73-.24A5,5,0,0,0,757.27,747.71Z"/><path d="M731.48,731.27a6.74,6.74,0,0,0,0,1.42l-3.8-1.3V730Z"/><path d="M764.56,742.57V744l-3.75-1.28a7.65,7.65,0,0,0,0-1.43Z"/><path d="M747.05,724.25l0,2.68c-.66-.26-1.33-.49-2-.68l0-2.68Z"/><path d="M747.22,747.84l0,2.71-2-.68,0-2.71C745.9,747.42,746.56,747.64,747.22,747.84Z"/></g><g id="day_-_time-2" data-name="day - time"><path d="M713.08,763.58c6.75-2.18,14.91,1.08,18.18,7.26s.44,13-6.32,15.16-14.91-1.07-18.18-7.26S706.32,765.76,713.08,763.58ZM724,784.23c5.69-1.84,8.07-7.56,5.32-12.76a13.28,13.28,0,0,0-15.3-6.11c-5.69,1.83-8.07,7.55-5.32,12.76A13.31,13.31,0,0,0,724,784.23Z"/><polygon points="711.4 771.51 719.76 774.48 723.29 781.16 721.74 781.66 718.53 775.61 710.9 772.9 711.4 771.51"/><path d="M760.4,766.56a12.18,12.18,0,0,1,14,5.6c2.52,4.77.34,10-4.88,11.7a12.2,12.2,0,0,1-14-5.6C753,773.49,755.18,768.24,760.4,766.56Zm8.43,15.93a6.73,6.73,0,0,0,4.1-9.85,10.26,10.26,0,0,0-11.81-4.71,6.72,6.72,0,0,0-4.1,9.84A10.27,10.27,0,0,0,768.83,782.49Z"/><path d="M758.15,761.53l.14,0c1-.23,1.89.49,2.67,1.13.53.43,1.18,1,1.59.94s.87-.6,1.24-1.17c.53-.81,1.33-2,3-1.36a2.45,2.45,0,0,1,1.31,1.4,2.49,2.49,0,0,0,1.38,1.45,2.54,2.54,0,0,0,2-.17c.61-.23,1.63-.6,2.29.26.48.61.27,1.34,0,2.1a2.92,2.92,0,0,0-.19,1.39,6.35,6.35,0,0,0,1.64.16c1.29,0,2.74.06,3.29,1.11.44.87-.24,1.61-.9,2.33-.29.32-.89,1-.81,1.2s1,.65,1.73.9c1.06.37,2.27.79,2.49,1.79s-.66,1.43-1.35,1.84c-.28.17-.87.52-.85.68,0,.52,1.32,1.22,2.09,1.64,1,.53,1.88,1,1.65,1.81s-.94.69-2.3.82a17.28,17.28,0,0,0-3,.48c-.42.14-.57.24.09,1.58.38.8.87,1.8.1,2.41s-1.91.3-3.18,0A5.5,5.5,0,0,0,772,786c-.48.23-.49,1-.5,1.69s0,1.77-1.08,1.86-1.79-.77-2.41-1.54c-.38-.46-.89-1.1-1.24-1.13-.61,0-1.25.89-1.71,1.57-.59.87-1.21,1.76-2.29,1.49-.84-.21-1.13-.89-1.39-1.49a3.06,3.06,0,0,0-1.21-1.61,2.92,2.92,0,0,0-1.78.09c-.87.2-2,.45-2.72-.33s-.36-1.68-.06-2.5a3,3,0,0,0,.29-1.17,5.41,5.41,0,0,0-1.28-.15c-1.08,0-2.56-.11-3.14-1.21a2.14,2.14,0,0,1,.45-2.28c.47-.7.75-1.17.42-1.73a3.79,3.79,0,0,0-1.88-1.25c-.8-.34-1.8-.76-1.84-1.66s.79-1.2,1.45-1.49c.49-.23,1-.46,1.08-.77s-.91-1.24-1.43-1.7c-.84-.74-1.63-1.44-1.14-2.15s1.5-.37,2.69,0a6.78,6.78,0,0,0,1.93.39c.24-.25-.27-1.68-.47-2.23-.44-1.22-.81-2.27.05-2.72s1.55.16,2.27.64c.39.27,1.13.77,1.39.7s.36-1,.43-1.45C757.08,762.85,757.24,761.83,758.15,761.53Zm5.31,3.38a2.15,2.15,0,0,1-.65.12,4.63,4.63,0,0,1-2.91-1.39,5.69,5.69,0,0,0-1-.72,4.18,4.18,0,0,0-.32,1.28c-.16,1-.34,2.13-1.35,2.46l-.08,0c-1.09.29-2.17-.44-3-1l0,0c.08.24.17.5.25.71.49,1.36,1,2.9,0,3.67-.76.58-2.08.23-3.29-.12.92.83,1.93,1.82,1.72,2.87s-1.14,1.36-1.84,1.67a5.36,5.36,0,0,0-.54.26c.18.09.44.2.63.28a5.38,5.38,0,0,1,2.76,2,2.68,2.68,0,0,1-.41,3.11c-.25.36-.52.77-.42,1s1.14.22,1.54.24a3.7,3.7,0,0,1,2.63.75c.73.79.37,1.75,0,2.6a4.55,4.55,0,0,0-.29,1,6.87,6.87,0,0,0,.9-.16,4.14,4.14,0,0,1,3.19.15,4.69,4.69,0,0,1,1.93,2.4c0,.09.08.19.13.28a7.19,7.19,0,0,0,.54-.75c.7-1,1.57-2.29,3.14-2.16a4,4,0,0,1,2.59,1.82c.14.17.33.41.5.59,0-.11,0-.24,0-.34,0-.93,0-2.21,1.23-2.8.93-.46,2.25-.16,3.52.12a8.9,8.9,0,0,0,1.67.28,4.29,4.29,0,0,0-.36-.86c-.47-1-1.33-2.78.74-3.4h0a18.67,18.67,0,0,1,3.31-.54l.18,0c-1.2-.66-2.79-1.56-2.91-2.85-.09-.93.78-1.45,1.47-1.87a3.63,3.63,0,0,0,.74-.51,6.22,6.22,0,0,0-1.3-.55c-1.1-.37-2.46-.85-2.86-2-.34-.94.4-1.74,1.05-2.46a5,5,0,0,0,.7-.87,7.58,7.58,0,0,0-1.59-.14c-1.28,0-2.73-.05-3.28-1.11a3.19,3.19,0,0,1,.07-2.39c0-.16.1-.36.14-.54l-.07,0a4.21,4.21,0,0,1-5.75-2.2c-.11-.23-.23-.49-.33-.52s-.38-.05-1,.88A3.57,3.57,0,0,1,763.46,764.91Z"/></g><path d="M689.34,728.35c5.78-2.16,15.22,1.07,21.06,7.19s5.89,12.86.11,15-15.22-1.07-21-7.19S683.57,730.51,689.34,728.35Zm19.76,20.72c5-1.87,5-7.7-.1-13s-13.24-8.09-18.24-6.22-5,7.7.1,13S704.1,750.94,709.1,749.07Z"/><path d="M692.8,732.16c2.85-1.06,7.27-.07,11.08,2.5l-.84,1c-3.11-2.1-6.71-2.88-9-1.94-1.92.8-2.52,2.8-1.53,5.1l-1.87-.16c-1.27-2.93-.52-5.39,2-6.41Z"/><ellipse cx="706.47" cy="741.27" rx="1.64" ry="2.77" transform="translate(-291.77 969.48) rotate(-59.25)"/><ellipse cx="699.37" cy="743.92" rx="1.64" ry="2.77" transform="translate(-297.53 964.67) rotate(-59.25)"/><path d="M1279.46,873.83h19c1.46,0,2.64-.88,4-1.47,8.92-4,16.61-17.82,17.11-24,2.73-33.69,1.82-61-3.64-68.3-11.82-15.76-99.22-24.58-99.26-23.67,0,.62,37.34,4.55,62.83,11.84,9.84,2.81,19,3.68,22.77,13.65,5.46,14.57,5.46,65.57-2.73,77.41C1292.39,869.53,1279.46,873.83,1279.46,873.83Z" class="cls-23"/><path d="M1182.94,753.64a19.66,19.66,0,0,0-17.3,12.74c-2,5.07-.79,15,1.37,20.49,5.92,15,11.46,36.06,22.76,64.65,7.74,19.58,26,20.49,26,20.49s-31-.91-36-9.56c-11.52-19.91-20.48-51.45-29.13-75.58-2.35-6.55-.36-19.5,4.55-25.49C1163.72,750.94,1182.94,753.64,1182.94,753.64Z" class="cls-23"/><path d="M1277,872.89c22.24.89,28.56-29.75,28.74-35.64.57-19,2.47-40.44-3.45-54-9.77-22.42-102.32-28.74-131.64-30.47-16-.94-24.82,23.84-19.54,36.79,12.65,31,23,69,30.46,74.15,6.71,4.65,11.9,8.46,23,9.2C1213.17,873.46,1262.6,872.31,1277,872.89Z" class="cls-24"/><path d="M1056.29,1015.46c6,.67,24.19-10.6,31.11-19.85,17.52-23.41,12.64-65.4.66-70.15-12.89-5.12-41.2,29.74-41.69,61.55C1046.33,989.58,1045.43,1014.26,1056.29,1015.46Z" class="cls-14"/><path d="M1183.36,1013.45c6,.65,24.19-10.37,31.11-19.41,17.52-22.89,12.64-63.95.66-68.59-12.89-5-41.2,29.08-41.69,60.18C1173.4,988.15,1172.5,1012.27,1183.36,1013.45Z" class="cls-14"/><path d="M1213.15,922.81c15.22,17.87,24.48,18.53,40.37,21.84,10.2,2.12,12,22.32,5.29,34.41s.68,33.32,1.33,40.38c1.13,12.35-13,23.85-13.9,24.48h-37.73c-3.71-17.92,15.83-15.22,17.21-48.31,1.07-25.63-49.64-30.44-49.64-30.44C1176.39,950.5,1203.84,911.89,1213.15,922.81Z" class="cls-25"/><path d="M1254.18,944.65c11.77,3.21,12,22.32,5.29,34.41s2,26.48,1.33,40.38-13,23.85-13.9,24.48l-33.09-.66c-.66-16.54,25.15-23.82,17.87-56.25S1232.34,938.69,1254.18,944.65Z" class="cls-26"/><path d="M1225.72,766.62c-28.67-3.24-53.27,2.67-80.74,9.26-33.43,8-50.14,12-59.57,22.51-31.85,35.35.33,124.36,27.8,166.11,25.11,38.16,68.83,49,68.83,49-1.32-1.32-7.45-29.26,6-52.29,10.25-17.6,29.78-33.75,29.78-33.75-8.61-11.25-32.67-32.48-32.43-53.61.12-10.49,54.23,3.3,93.32-2.64C1303,867.49,1274.82,772.16,1225.72,766.62Z" class="cls-15"/><path d="M1085.41,798.39c-31.85,35.35.33,124.36,27.8,166.11,25.11,38.16,68.83,49,68.83,49-1.32-1.32-2.65-17.87-2.65-17.87-37.72-19.86-76.77-70.82-56.91-98.61,6.09-8.54,33.26-17.2,47-54.27C1176.08,824.86,1094.84,787.92,1085.41,798.39Z" class="cls-14"/><path d="M1086.74,922.81c15.22,17.87,24.49,18.53,40.37,21.84,10.2,2.12,12,22.32,5.29,34.41s.68,33.32,1.33,40.38c1.13,12.35-13,23.85-13.9,24.48h-37.72c-3.71-17.92,15.82-15.22,17.2-48.31,1.07-25.63-49.63-30.44-49.63-30.44C1050,950.5,1077.43,911.89,1086.74,922.81Z" class="cls-25"/><path d="M1127.77,944.65c11.77,3.21,12,22.32,5.3,34.41s2,26.48,1.32,40.38-13,23.85-13.9,24.48l-33.09-.66c-.66-16.54,25.15-23.82,17.87-56.25S1105.93,938.69,1127.77,944.65Z" class="cls-26"/><path d="M1100,766.62c-28.66-3.24-53.26,2.67-80.74,9.26-33.42,8-50.14,12-59.56,22.51-31.85,35.35.32,124.36,27.79,166.11,25.11,38.16,76.75,56.9,68.83,49-1.32-1.32-7.45-29.26,6-52.29,10.25-17.6,29.78-32.42,29.78-32.42-8.6-10.59-32.67-33.81-32.43-54.94.12-10.49,54.24,3.3,93.32-2.64,24.32-3.7,47.9-22.77,49.64-41C1205.05,804,1149.07,772.16,1100,766.62Z" class="cls-15"/><path d="M1239.77,577.56c4.43-10.24-8.44-16.64-9.77-34.56-2.1-28.16,27.8-38.1,27.8-61.61,0-53.68-37.21-60.13-68.37-52.6-33.57,8.12-41.6,59.75-33.81,88.66.75,2.81,7,26,19.53,27.8,8.06,1.14,14.72-7.15,18-4.51,2.7,2.16-.57,8.59-3,23.3-2,11.78-2.93,17.68-.75,21C1196.69,596.27,1233.14,592.87,1239.77,577.56Z" class="cls-27"/><path d="M1100,655.43c31.11-37.72,73.61-75.12,82.07-78.09,20-7,55-16.36,82.73-.66,26.76,15.13,33.08,43.91,39,72.8,3.94,19.08,9.92,127.07-47.66,195.9-1.81,2.17-70.15,17.2-70.15,17.2s-44.15-15.48-71.31-40.92c-28.72-26.9-31.93-57-31.93-57,53.82-24.63,55.59-47,55.59-47a147.8,147.8,0,0,1-27.8-23.82C1097.66,679.75,1097.85,658,1100,655.43Z" class="cls-25"/><path d="M1100,655.43s-9.18,12.87-43,28.46c-8.33,3.84-24.92,9.35-39.71,13.9-25.81,7.94-69.5,18.36-73.47,15.88-10.58-6.61-23.73-18.64-39.7-21.84-6.62-1.32-33.76,17.87-43,33.09-1.95,3.2-1.28,8,.66,8.61,3,.92,10.92-9.48,11.25-9.27s4.63,9.27,9.26,9.93c2,.29-1.5-7.61,2.65-12.57,4.49-5.37,9.73-8,11.92-6,2.62,2.48,5.76,6.89,8.6,12.57,3.31,6.62,22.46,6,24.49,6,44.45.1,97.95,0,176.7.66,9.15.08,37.06-19.19,37.06-19.19a102.22,102.22,0,0,1-16.61-11c-4.44-3.62-11.06-9-16.55-17.15A64.58,64.58,0,0,1,1100,655.43Z" class="cls-27"/><path d="M1210.66,514.41c10.1.84,18.24,9.28,22.73,10.1,9.46,1.75,25.07-17.93,28.62-38.72,3.39-19.86-3.19-46.75-21-56.4-17.31-9.34-21.19-5.83-49.66-10.1-16.84-2.52-25.25-12.62-26.94-10.94-5.06,5.07-6.58,24.92,2.53,32,8,6.24,6.6,2.71,12.63,6.73,2.52,1.68,1.61,10.29,8.41,15.15,5.9,4.21,4.21,32-5.89,42.93-13.68,14.83-28.62,7.58-27.78,13.47.3,2,0,7.22,4.21,12.63,5.89,7.57-.84,10.1,5,16,7.28,7.28,40.26-3.92,44.62-14.31,3.51-8.39-13.47-21-10.11-44.61,1.59-11.12,13.68-24.78,22.73-13.47,3.37,4.21,3.38,17.66-1.68,25.25C1217.39,502.63,1205.77,514,1210.66,514.41Z" class="cls-28"/><path d="M1121,827.13c-.49.42-1,.83-1.57,1.22" class="cls-29"/><path d="M1116,830.48c-30.31,16.42-114,7.14-133.3,4.74" class="cls-30"/><path d="M980.73,835l-2-.27s0,.7,0,2" class="cls-29"/><path d="M979,840.61c.88,18.38,5,74.77,23.34,98.47,15.28,19.76,33.8,42.3,46.12,49.61" class="cls-31"/><path d="M1050.16,989.63a17.59,17.59,0,0,0,1.83.8" class="cls-29"/><path d="M984.65,841.44c4,5.34,16.83,25.25,49.66,27.77" class="cls-32"/><path d="M1166.89,498.42c0,5.58-4.52,7.57-10.1,7.57s-11-2.83-11-8.41,6.21-14.31,11.79-14.31S1166.89,492.84,1166.89,498.42Z" class="cls-27"/><line x1="1190.77" x2="1190.77" y1="850.74" y2="1022.41" class="cls-33"/><path d="M1285.58,876.11H1012a4.21,4.21,0,0,1,0-8.42h273.58a4.21,4.21,0,1,1,0,8.42Z" class="cls-6"/><path d="M1141.87,874.71c78.65-33.2,13-147.2,65.92-250.09.21-.41,139.6-.26,139.45,0-62.5,108.66-2.61,206.07-62.06,250.08C1284.85,874.94,1141.62,874.81,1141.87,874.71Z" class="cls-6"/><path d="M1141.21,875.43h18.4c1.41,0,2.56-.86,3.85-1.43,8.64-3.87,16.1-17.28,16.59-23.29,2.65-32.66,1.76-59.15-3.53-66.21-11.46-15.28-96.2-23.83-96.23-23,0,.6,36.2,4.41,60.92,11.47,9.53,2.73,18.44,3.58,22.07,13.25,5.29,14.12,5.29,63.56-2.65,75C1153.74,871.25,1141.21,875.43,1141.21,875.43Z" class="cls-23"/><path d="M1047.63,758.9a19.06,19.06,0,0,0-16.77,12.36c-1.91,4.91-.77,14.55,1.32,19.86,5.74,14.57,11.11,35,22.07,62.68,7.5,19,25.16,19.86,25.16,19.86s-30-.88-34.87-9.27c-11.18-19.3-19.86-49.88-28.25-73.27-2.28-6.36-.35-18.91,4.41-24.72C1029,756.29,1047.63,758.9,1047.63,758.9Z" class="cls-23"/><path d="M1078.53,876.78c-4.68,0-8.28,0-10.09-.17-11-.73-16.46-4.51-22.76-8.88l-.59-.4c-5-3.46-10.18-17.58-18.22-40.31-3.82-10.8-7.77-22-12.07-32.52-3.42-8.4-1.36-21.22,4.79-29.81,4.29-6,10.05-9.11,16.23-8.75,27.75,1.63,51.69,4.08,71.13,7.27,34.81,5.71,53.88,13.41,58.29,23.53,5.13,11.76,4.46,28.89,3.8,45.45-.1,2.64-.2,5.26-.28,7.83-.15,4.92-3.57,21.2-13.27,30.25a22.58,22.58,0,0,1-16.78,6.34c-7.06-.28-22.78-.13-38,0C1092.55,876.7,1084.63,876.78,1078.53,876.78Zm-43.7-116.66c-5.59,0-9.5,3.77-11.82,7-5.29,7.39-7.19,18.71-4.31,25.77,4.33,10.65,8.3,21.86,12.13,32.71,6.16,17.39,12.52,35.38,16.65,38.25l.59.41c6,4.17,10.79,7.47,20.65,8.13,4,.27,17.6.14,32,0,15.26-.15,31-.3,38.19,0h0a18.52,18.52,0,0,0,13.74-5.22c8.62-8,11.8-23,11.93-27.29q.12-3.89.29-7.88c.63-16.08,1.29-32.72-3.46-43.6-5.93-13.62-51.79-23.93-125.81-28.28Z" class="cls-6"/><path d="M1089.32,1029.65v-9.06c0-10.05,9.68-18.2,21.63-18.2h116.56c12,0,21.63,8.15,21.63,18.2v9.06" class="cls-34"/><path d="M1127.39,1029.65v-9.06c0-10.05,9.68-18.2,21.63-18.2h116.56c12,0,21.63,8.15,21.63,18.2v9.06" class="cls-34"/><circle cx="1089.32" cy="1033.11" r="10.81"/><circle cx="1127.39" cy="1033.11" r="10.81"/><circle cx="1249.38" cy="1033.11" r="10.81"/><circle cx="1287.45" cy="1033.11" r="10.81"/><line x1="401.89" x2="1596.07" y1="1045" y2="1045" class="cls-35"/></g></svg>