<svg xmlns="http://www.w3.org/2000/svg" viewBox="321.52 168.3 1154.48 877.93"><defs><style>.cls-1{fill:#bfdded}.cls-2,.cls-25,.cls-26,.cls-27,.cls-28,.cls-3,.cls-31,.cls-33,.cls-4,.cls-6{fill:none}.cls-2{stroke:#000}.cls-2,.cls-25,.cls-26,.cls-27,.cls-28,.cls-3,.cls-31,.cls-33,.cls-4,.cls-6,.cls-7{stroke-miterlimit:10}.cls-2,.cls-31{stroke-width:2px}.cls-3,.cls-4{stroke:#bfdded}.cls-25,.cls-26,.cls-27,.cls-3,.cls-31,.cls-4{stroke-linecap:round}.cls-3{stroke-width:8px;stroke-dasharray:18}.cls-4{stroke-width:10px}.cls-5,.cls-7{fill:#fff}.cls-6,.cls-7{stroke:#fff}.cls-33,.cls-6{stroke-width:3px}.cls-7{stroke-width:4px}.cls-8{fill:#39a4d3}.cls-9{fill:#e8e8e8}.cls-10{fill:#f4a69f}.cls-11{fill:#db1b52}.cls-12{fill:#ff2e56}.cls-13{fill:#fed000}.cls-14{fill:#f29994}.cls-15{fill:#7c52fe}.cls-16{fill:#3f3f3f}.cls-17{fill:#f58f80}.cls-18{fill:#c6c6c6}.cls-19{fill:#ffb600}.cls-20{fill:#ffc1aa}.cls-21{fill:#2e1c66}.cls-22{fill:#d4aa8c}.cls-23{fill:#4735bc}.cls-24{fill:#74787c}.cls-25,.cls-26,.cls-27,.cls-28{stroke:#74787c}.cls-25{stroke-width:34px}.cls-26,.cls-28{stroke-width:15px}.cls-27{stroke-width:18px}.cls-28{stroke-linecap:square}.cls-29{fill:#262626}.cls-30{fill:#303030}.cls-31{stroke:#eb2151}.cls-32{fill:#fbc59f}.cls-33{stroke:#000062}.cls-34{fill:#000062}</style></defs><g id="Layer_6" data-name="Layer 6"><path d="M826.87,1044.57c-193.75-6.38-405.88-135.41-474.35-344s19.56-532.27,251.23-532.27c207.8,0,365.86,163.6,484.57,241.86,152.44,100.49,340.14,30.18,381.53,210.35C1525.2,861.47,1198.64,1056.82,826.87,1044.57Z" class="cls-1"/><path d="M1038.7,250.76c-36.38,62.37,26.6,109.31,73.51,142.56,58.65,41.58,215.83,62.47,236.1,14.85C1373.23,349.65,1115.64,118.88,1038.7,250.76Z" class="cls-1"/><line x1="1339" x2="322.52" y1="1045.23" y2="1045.23" class="cls-2"/><path d="M1233,612.55C1161.46,815.24,946,983,716.06,908.07" class="cls-3"/><path d="M389,683.24c11.92,48.54,40,111.56,91.12,159.25" class="cls-4"/><path d="M935.16,437V672H1320V437a20.41,20.41,0,0,0-20.42-20.41h-344A20.41,20.41,0,0,0,935.16,437Z" class="cls-5"/><line x1="1305.62" x2="935.18" y1="449.46" y2="449.46" class="cls-6"/><circle cx="983.14" cy="434.94" r="2.15" class="cls-7"/><circle cx="970.26" cy="434.94" r="2.15" class="cls-7"/><circle cx="957.37" cy="434.94" r="2.15" class="cls-7"/><path d="M1298,408.3a31.16,31.16,0,0,1,31.12,31.13V672.56H926.07V439.43A31.17,31.17,0,0,1,957.2,408.3H1298m0-2H957.2a33.13,33.13,0,0,0-33.13,33.13V674.56h407.07V439.43A33.12,33.12,0,0,0,1298,406.3Z"/><rect width="99.08" height="67.12" x="951.77" y="574.54" class="cls-1" rx="12.02" transform="translate(2002.61 1216.19) rotate(-180)"/><polygon points="1012.88 590.13 1012.88 625.86 981.91 607.99 1012.88 590.13" class="cls-1"/><rect width="158.9" height="12.28" x="951.72" y="474.02" class="cls-1" rx="6.14" transform="matrix(-1, 0, 0, -1, 2062.33, 960.32)"/><rect width="158.9" height="12.28" x="951.72" y="497.58" class="cls-1" rx="6.14" transform="matrix(-1, 0, 0, -1, 2062.33, 1007.44)"/><rect width="99.25" height="12.29" x="951.72" y="521.14" class="cls-1" rx="6.14" transform="translate(2002.68 1054.57) rotate(-180)"/><path d="M1113.82,635.05V582.31a6.5,6.5,0,0,1,6.32-6.66h175.62a6.5,6.5,0,0,1,6.32,6.66v52.74a6.5,6.5,0,0,1-6.32,6.66H1120.14A6.5,6.5,0,0,1,1113.82,635.05Z" class="cls-1"/><path d="M1180.68,540.12V480a7.39,7.39,0,0,1,7.17-7.6h107A7.39,7.39,0,0,1,1302,480v60.15a7.39,7.39,0,0,1-7.17,7.6h-107A7.39,7.39,0,0,1,1180.68,540.12Z" class="cls-1"/><path d="M540.85,313.76a9.54,9.54,0,0,1,9.52-9.53H804.84a9.54,9.54,0,0,1,9.53,9.53V379a9.54,9.54,0,0,1-9.53,9.53H562.66l-21.81,17Z" class="cls-5"/><path d="M804.84,305.23a8.54,8.54,0,0,1,8.53,8.53V379a8.54,8.54,0,0,1-8.53,8.53H562.32l-.54.42-19.93,15.53V313.76a8.54,8.54,0,0,1,8.52-8.53H804.84m0-2H550.37a10.53,10.53,0,0,0-10.52,10.53v93.85l23.16-18H804.84A10.53,10.53,0,0,0,815.37,379V313.76a10.53,10.53,0,0,0-10.53-10.53Z"/><circle cx="587.75" cy="362.72" r="8.95" class="cls-8"/><circle cx="615.12" cy="362.72" r="8.95" class="cls-8"/><circle cx="642.5" cy="362.72" r="8.95" class="cls-8"/><path d="M478.75,1025.11c-3.12,3.6-4.29,8.86-2.92,18.13,0,.11,36.73.63,59.63.51.44,0,2.9-5.47-.34-8-8.18-6.39-14.45-1.19-34.92-12.89C492,1018.18,481.57,1021.84,478.75,1025.11Z" class="cls-9"/><path d="M412.37,996.28c-5,.11-14.23,6.62-18.53,15.31a3.87,3.87,0,0,0,.93,4.57c5.7,5.14,20.44,19,29.36,26.66a5.62,5.62,0,0,0,3.65,1.35h27c3.93-12.57-12.34-11.77-16.49-14.14-11-6.28-7.42-22.92-12.56-28.26A19.13,19.13,0,0,0,412.37,996.28Z" class="cls-9"/><path d="M479.73,1003.72c-.59,9.55-.59,11.76,0,18.37.77,8.73,17.42,8.92,18.71,0,1.17-8.08,1.76-9.55,1.76-19.11C500.2,993.81,480.29,994.59,479.73,1003.72Z" class="cls-10"/><path d="M410.69,983.48c-2.27,7.28-2.66,9-3.26,14.26-.8,6.93,15.4,10.8,18.24,4.17,2.58-6,3.41-7,5.1-14.43C432.4,980.36,412.85,976.53,410.69,983.48Z" class="cls-10"/><path d="M510.89,714.44c2.35,7.06,9.53,25.65,5.6,135.56-2.65,74.31-11.47,138.19-16.18,161l-23.18,1.2c-2.36-33.76,4-68.12-1.52-144.27C473.05,832.35,460.07,803,463,756.05c.7-11.19,2.65-30.55,16.48-40C486.32,711.31,508,705.8,510.89,714.44Z" class="cls-11"/><path d="M429.63,705.22c-11.08,23-8.39,51.28-7.85,56.71,4.12,41,7.85,48.89,11.28,79.3.07.55-6.84,24.1-13.65,71.79-5.45,38.11-8.52,52.8-11.57,73-.08.55,23.19,7.27,23.36,6.74,11.2-35.44,24-70.36,44.41-136.78,5.07-16.48,5.11-89.42,5.11-89.42s.47-17.58,3.08-25.8a28.23,28.23,0,0,0-3.14-23.55C472,704.3,435.73,692.53,429.63,705.22Z" class="cls-12"/><path d="M495.38,497.68c10.08-1.53,22.78,10.33,27.48,22.46,6.29,16.23-.7,35.74-13.59,46.68-17.86,15.16-46.27,13.23-58.8,0-6.74-7.11-4.39-12.74-6.8-51.12-2.54-40.53-6-48,.89-59.69.88-1.5,12.41-20.35,33.25-21.24,11.25-.48,28.28,4.15,34.12,18.88,3.95,10,.17,27.21-6.5,31.32-9.53,5.86-21.17-4.54-32.21,3.25-3.35,2.36-6.86,6.55-5.91,9.46,1.26,3.88,10.21,4.74,16.55,3.84S491.4,498.28,495.38,497.68Z" class="cls-13"/><path d="M499.71,443.86c7.33,5.5,10.87,14.89,10.74,22.2-.22,13.23,6.85,14.33,6.85,21.07s-5.46,8.3-6.59,10.36c-3,5.51-1.56,7.38-6.33,15.73-2,3.48-4.95,8.68-9.75,9.49-6.94,1.16-10.54-1.32-15.55-5,0,0-3.3,7.55-.26,11.59s5.57,6.1,15,6.86c3.23.25,5.78,3.59,7.12,6.32,4.31,8.8-7.26,29.85-23.19,32.15-20.69,3-37.28-27.28-33.74-32.41,1.31-1.9,5.38-.44,8.44-4,2.08-2.39,2.25-5.46,2.37-8.17a29.28,29.28,0,0,0-2.64-13.17c-4.69-10.5-3.11-15.59-5.1-18.84-8.05-13.16.88-45.31,5.58-49.43C458.17,443.81,487.22,434.46,499.71,443.86Z" class="cls-14"/><path d="M458,545.07s-13.37,2.45-15.79,3.79c-12.89,7.14-24.1,14.85-24.77,27.21-.37,6.75,9.53,22.59,12.29,45.4,6.76,55.65-2,84.44-1.76,84.6,35.83,21.94,102.6,11.29,104.75-6,2.56-20.44,5.1-53.93,6.57-58,1.27-3.51,8-3.79,11.51-13.06,2.93-7.74-2.53-20-2.53-20.83,0,0,6.25-5.44,8.52-10.3a260.86,260.86,0,0,1-18-37.36c-2.66-7.13-5-8.79-10.42-12.94-5.22-4-32.28-11-32.28-11C498.61,572.37,471.83,576,458,545.07Z" class="cls-15"/><path d="M462.94,488.78c4.21.84,8.7-2.86,9.86-3.89,5.24-4.66,3.38-8,7.4-12.39,5.29-5.8,10.62-3.17,18.18-7.74,7.91-4.78,8.77-11.16,7.27-16.88-2.62-10-24.74-19.15-38.31-13.63-60.9,24.75-13.28,72.27-32.2,84.55-11.53,7.47-24.44,20.42-16.74,45.44,3.18,10.36,28.45-6.7,39.88-23.58,6.33-9.35-4.14-13.06,2.61-24.74,2-3.41,1.4-7.55,1.45-9.32,0,0-6.44-.64-8.2-2-3.23-2.56-3.78-6.64-3-11.88.31-2.14,2.31-6.5,5.45-7A6,6,0,0,1,462.94,488.78Z" class="cls-13"/><rect width="25.4" height="47.63" x="458.29" y="474.18" class="cls-16" rx="4" transform="translate(1134.71 669.17) rotate(147.87)"/><path d="M464,605.47l7.3-62.48c.56-3.45-6.48-13.76-5.75-24.14.84-12.12,16-27.36,20.72-31.78,2-1.91,9.53,4,10,15.57.57,14.39-3.31,25.17-7,35.11,0,0,4.18,90,3.51,113.23-.28,9.86-7.46,16.87-11,17.27-18.9,2.15-36.3-39.24-42.42-59.87C439.3,608.38,455,604.32,464,605.47Z" class="cls-10"/><path d="M832.8,929.93c-38.89-30.93-41-52.78-47.35-69.38l24.81-9.79c1.26,5.48,2.55,11.23,3.89,17.2C823.57,909.91,835.19,931.84,832.8,929.93Z" class="cls-17"/><path d="M900.12,950.36c.06.59-66,25.14-66.59,24.9-3.25-1.48-6.11-8-7-11.75L860.75,951,857,941.11a32.92,32.92,0,0,0,3.84-.19C867.76,940.17,898.91,938.76,900.12,950.36Z" class="cls-18"/><path d="M815.71,853.55l-28.87,9.9c-5.24-11.81-13.1-20.91-41.23-28.61C724.3,829,653.38,823.13,640.79,804c-1.85-2.81-12-15.05-3.72-18.11,15.3-5.66,117-2.05,149.32,4C798.25,792.06,806.11,816.79,815.71,853.55Z" class="cls-19"/><path d="M857,941.39l4.9,10.11-35,12.21c-.45-2.11-3.57-11.33-5.91-13.48-14.4-13.18-24-25.46-35.91-39.92a173.28,173.28,0,0,1-15.65-22.5L808,873.15C809.57,877.53,834.18,933.72,857,941.39Z" class="cls-20"/><path d="M809.08,872.36l-43.81,18.17a189.22,189.22,0,0,1-15.71-33.47c-9.23-.43-164,34.12-210.26,6.11-27.68-16.77-21.08-42.86-19.82-58.44.2-2.43,12.86-1.77,17.07-2,143.65-8,233.45-13.54,242.25-3.88C790.37,811.54,789.88,817.54,809.08,872.36Z" class="cls-13"/><path d="M571.16,628.23a20.91,20.91,0,0,1,23.66,4.82c7.88,8.41,7,22.09.42,28.45-9.65,9.26-31.88,3.26-35.61-10.15C557.39,643.31,561.76,632.53,571.16,628.23Z" class="cls-12"/><path d="M566.42,653.56a27.23,27.23,0,0,1,14.06-4,25.72,25.72,0,0,1,10.14,2.06c7.75,3.45,11.3,10.16,13.16,13.66a35,35,0,0,1,4.12,17.4c-.17,4.09-.36,8.87-2.83,11.84-8.81,10.61-49.79,1.85-52.65-16.93C551.07,668.8,558.25,658.44,566.42,653.56Z" class="cls-21"/><path d="M574.62,630.59c1.47,2.67-2.09,5.61-2,12.65,0,2.1,2.11,5.94,7.35,14.74,5.92,9.94,13.39,18.67,29,30.54,3.68,2.8,4.45,3.17,4.4,4.83-.11,3.72-14.81,8-25.64,7-29.45-2.82-56.3-47.55-46.37-64.09C547.91,625.37,571.46,624.87,574.62,630.59Z" class="cls-22"/><path d="M582.23,732.18c10.94,1.2,68.54,16.23,85.43,19.67,3.15.64,7.24,1.36,11.7-.51,6.87-2.89,8.43-3.36,13-2.45,6.8,1.36,17.28,5.3,20.69,6.82,2,.9,5.38,5.68,3.12,8.15-.8.87-15.52-.07-42.06,1.1-20.05.89-16.74,1.79-32.59,1.44-34.48-.74-51-.54-58.28-11.65C578.8,748,575.76,731.48,582.23,732.18Z" class="cls-17"/><path d="M508.07,697.16c-4.29-15.42-1.7-30.75,10-38.95,8.86-6.22,22.91-6.48,30.15.34,6.6,6.21,10,17.14,10,17.14,4.63.8,14.24.21,14.52-12.36.15-6.52,8.45,8.93,20.83,16.66,13.78,8.6,28.23,12.12,31.84,19.53,9.21,18.85-4.48,31.17-4.48,31.17,1.56,5.82,2.69,6.75,4.84,14.86,1.78,6.7,2.1,14.53.82,18.38-5.77,17.3-101.44,60.08-104.26,49.58C514.29,783.73,514,718.67,508.07,697.16Z" class="cls-23"/><path d="M577.33,571c2.92,1.14,6.42,1.51,9.59,7.15,1.7,3,4,9.63,6.12,12.25,3.77,4.71,6.41,4.34,6.12,8.84-.43,6.88-4.74,8.52-9.25,20.53-2.69,7.13-1.29,5.88-5.15,10.65-3.6,4.45-9.09,5.5-13.4,6.27s-20.26,3.6-31.31-6.45c-12.41-11.3-12.4-33.37-1.7-47.06C548.5,570.2,566.64,566.85,577.33,571Z" class="cls-20"/><path d="M507.05,693c.13,1.18-9.75-21.69-11.51-33-3.5-22.45,8-26.31,8-26.31s-5.53-11.48-1-22.56c4.83-11.79,14.45-14,14.45-14s-4.73-12.35,5.62-24.53c11.88-14,29-8.6,29-8.6s2.55-12.77,15.31-10.94c8.32,1.19,13.64,15.28,10.84,17.94-1.61,1.52-6.69.29-6.69.29s7,6.39-10,18.87c-5.44,4-6.91-4.72-10.94-1.2a15.34,15.34,0,0,0-4.68,7.75c-.89,4,1.24,9.15,1.24,9.15s9.18,5.48,12.29,12.85c2.9,6.87-.06,17.59-.06,17.59s9.21,3,13.85,10.27c4.37,6.88,4.94,20.73-1.36,26-4.64,3.89-13.39,5.55-14.13,2.3-4.16-18.23-22.18-21.93-31-20.39C515.65,656.34,505.66,680.52,507.05,693Z" class="cls-12"/><path d="M542.51,864.93v18.33c0,2,1.89,3.52,4.21,3.52H746.39c2.65,0,4.52-6.18,4.13-8.38-2.32-13.1-20-32.76-35.29-32.46-50.38,1-151.22,12-170.18,15.77A3.26,3.26,0,0,0,542.51,864.93Z" class="cls-21"/><path d="M462.92,612.74l47.22,244.43a5.26,5.26,0,0,0,5.61,4.52l6.27-.78a5.57,5.57,0,0,0,4.59-5.74c0-18-.51-79.56-6.31-135.24-3.71-35.62-32.86-97.15-40.56-112.92a5,5,0,0,0-5.61-2.87l-7.25,1.74A5.79,5.79,0,0,0,462.92,612.74Z" class="cls-21"/><polygon points="613.18 894.08 601.46 950.59 700.11 950.59 695.04 894.08 613.18 894.08" class="cls-24"/><path d="M560.29,869.49V802.31a2.54,2.54,0,0,1,2.06-2.6l121-16.56" class="cls-25"/><path d="M747.92,901.93H528.79a4.56,4.56,0,0,1-3.76-2.06c-4.46-6.48-11.53-13.64,5.11-13.64H747.72c8.61,0,7,3.25,7.21,7.47C755.12,898.21,751.91,901.93,747.92,901.93Z" class="cls-24"/><path d="M715.37,944.31H519.93c-6.66,0-10.42,8.54-6.38,14.44l28.2,41.17a7.75,7.75,0,0,0,6.37,3.52H740.55c6.46,0,10.27-8.09,6.63-14.05L722,948.22A7.85,7.85,0,0,0,715.37,944.31Z" class="cls-24"/><path d="M748.65,894.08h17a2.35,2.35,0,0,1,2.14,1.56l49,97.76a2.26,2.26,0,0,0,2.95,1.39l34.6-12.43" class="cls-26"/><path d="M532.76,894.08l-22.91,4.19a2.49,2.49,0,0,1-2.34-2.62l-2.8-14.13a2.48,2.48,0,0,1,2.33-2.61l13-3.14a2.54,2.54,0,0,0,2.3-3.08l-5.82-30.15" class="cls-26"/><polyline points="548.26 960.98 489.04 960.98 475 989.35" class="cls-27"/><line x1="829.93" x2="891.99" y1="981.26" y2="958.06" class="cls-28"/><rect width="42.42" height="18.85" x="838.46" y="950.77" class="cls-24" rx="5" transform="translate(-272.73 344.83) rotate(-19.64)"/><line x1="683.17" x2="721.6" y1="783.52" y2="778.82" class="cls-26"/><rect width="19.05" height="19.05" x="697.11" y="759.1" class="cls-24" transform="translate(-93.8 98.24) rotate(-7.46)"/><ellipse cx="560.53" cy="869.23" class="cls-29" rx="5.85" ry="6.54"/><ellipse cx="516.55" cy="842.54" class="cls-29" rx="2.11" ry="2.35"/><ellipse cx="518.89" cy="855.62" class="cls-29" rx="2.11" ry="2.35"/><circle cx="717.59" cy="983.3" r="45.48" class="cls-24"/><path d="M717.59,953.81A29.49,29.49,0,1,1,688.1,983.3a29.52,29.52,0,0,1,29.49-29.49m0-32a61.49,61.49,0,1,0,61.48,61.49,61.49,61.49,0,0,0-61.48-61.49Z" class="cls-30"/><path d="M468,1032.23a23.3,23.3,0,1,1,23.3-23.29A23.32,23.32,0,0,1,468,1032.23Z" class="cls-24"/><path d="M468,997.14a11.8,11.8,0,1,1-11.8,11.8,11.82,11.82,0,0,1,11.8-11.8m0-23a34.8,34.8,0,1,0,34.8,34.8,34.8,34.8,0,0,0-34.8-34.8Z" class="cls-30"/><path d="M566,787.19c-10.41.35-15.89-16.56-14.39-26,1.85-11.51,11.18-18.76,15.59-19.35,30.68-4,84.22,11.67,93.56,12.13,8.75.43,19.54,1.64,37-.67,3.32-.43,13.6,8.76,14.91,10.69,2.09,3.1,4.76,6.65,2.64,7.25-5.69,1.59-10.93-6.15-15.19-6.44-.07,0,6.9,7.53,7.23,10,.24,1.85-4.93,6.59-7.64,6.07s-3.24-7.35-4.3-7,.26,8.4-1.28,9.45c-2.2,1.48-8.24,2.08-7.58.16.61-1.77,2.08-6.09,1.29-9.45-.71-3-7-.77-8.51-.57C659.44,776.13,587.41,786.47,566,787.19Z" class="cls-20"/><path d="M877.37,503.36H716.44a10.54,10.54,0,0,1-10.53-10.53V427.55A10.53,10.53,0,0,1,716.44,417H890a10.53,10.53,0,0,1,10.53,10.52V521.4Z" class="cls-8"/><circle cx="852.63" cy="476.51" r="8.95" class="cls-5"/><circle cx="825.26" cy="476.51" r="8.95" class="cls-5"/><circle cx="797.88" cy="476.51" r="8.95" class="cls-5"/><path d="M506.56,502.7c-.5-.92-2.25-.1-6.81-.86-3.53-.59-4.54-1.43-5.11-.85-1.24,1.26.86,8,5.11,8.52S507.44,504.3,506.56,502.7Z" class="cls-5"/><path d="M584.91,620.22a10.79,10.79,0,0,1-7.66-.85,10.52,10.52,0,0,1-4.26-4.26" class="cls-31"/><rect width="74.86" height="74.86" x="1195.71" y="363.13" class="cls-8" rx="10" transform="translate(2466.29 801.11) rotate(180)"/><path d="M1236.79,382.05V386a1.68,1.68,0,0,1-1.68,1.68h-4.83a1.68,1.68,0,0,1-1.68-1.68v-3.94a1.69,1.69,0,0,1,1.68-1.69h4.83A1.69,1.69,0,0,1,1236.79,382.05Zm0,12.14v26.24a1.68,1.68,0,0,1-1.68,1.68h-4.83a1.68,1.68,0,0,1-1.68-1.68V394.19a1.68,1.68,0,0,1,1.68-1.68h4.83A1.68,1.68,0,0,1,1236.79,394.19Z" class="cls-5"/><path d="M1261.19,355.5a17.22,17.22,0,0,1,17.2,17.21V428.6a17.21,17.21,0,0,1-17.2,17.2H1205.3a17.22,17.22,0,0,1-17.21-17.2V372.71a17.23,17.23,0,0,1,17.21-17.21h55.89m0-2H1205.3a19.21,19.21,0,0,0-19.21,19.21V428.6a19.2,19.2,0,0,0,19.21,19.2h55.89a19.19,19.19,0,0,0,19.2-19.2V372.71a19.21,19.21,0,0,0-19.2-19.21Z"/><path d="M1011.07,508.32c-10.77-1.64-24.34,11-29.36,24-6.71,17.34.75,38.18,14.52,49.87,19.08,16.19,49.43,14.13,62.82,0,7.2-7.59,4.69-13.61,7.26-54.6,2.71-43.3,6.43-51.24-1-63.77-.95-1.6-13.26-21.74-35.52-22.69-12-.51-30.21,4.43-36.45,20.17-4.66,11.76-2,27.94,7,33.46,10.17,6.26,22.61-4.85,34.4,3.47,3.58,2.52,7.33,7,6.32,10.1-1.35,4.14-10.91,5.07-17.68,4.1S1015.32,509,1011.07,508.32Z" class="cls-21"/><path d="M1015,446.94c-7.82,5.88-15.91,19.8-15.78,27.6.24,14.13-7.31,15.32-7.31,22.51s5.83,8.87,7,11.07c3.24,5.88,1.67,7.88,6.76,16.8,2.12,3.72,5.29,9.28,10.42,10.13,7.41,1.25,11.26-1.4,16.61-5.34,0,0,3.53,8.06.28,12.38s-6,6.52-16,7.32c-3.44.28-6.17,3.84-7.6,6.76-4.6,9.39,7.76,31.88,24.77,34.34,22.1,3.2,39.82-29.13,36-34.62-1.39-2-5.75-.47-9-4.23-2.22-2.56-2.41-5.83-2.53-8.72a31.19,31.19,0,0,1,2.81-14.08c5-11.21,10.54-18.48,12.67-22,8.6-14,7.12-40.69-9-55.18C1051.43,439.43,1028.34,436.9,1015,446.94Z" class="cls-32"/><path d="M1080.32,553.39c-7.49-1.4-20.26-5-20.26-5-12.49,25.25-30.58,30.3-30.58,30.3s-13.56-8.28-10.05-30l-6.15.35s-18.25,61.87-1.06,69.51C1034.39,628.41,1098.27,556.74,1080.32,553.39Z" class="cls-5"/><path d="M980.45,602.23c-8.84,15.15-18.78,34.4-18.78,34.4s-27.78-15.31-39.93-23.83c-3.19-2.24.76-8.38-2.37-13.41-2.76-4.46-5.44-3.73-9-8.53-4.84-6.53-3.34-12.59-6.63-13.41-2.1-.53-3.39,1.53-4.42,3.82-1.64,3.63,5.72,15.18,4,16.63-1.37,1.2-7.72-1.51-12.89-7.16-10.59-11.59-8.71-11.94-14.08-11.94-4.72,0-6.84,9.32-1.79,23.6,1.31,3.71,4.3,9.21,28.76,18.2,10.69,3.94,41.32,44.06,54.67,52.33,15,9.32,19.85,3.25,33.87-9.78,18.24-17,32.85-47.49,13-59C999.1,600.74,985.16,594.16,980.45,602.23Z" class="cls-32"/><path d="M1070.1,551.27s13.36,2.45,15.78,3.79c12.89,7.14,16.69,13.83,17.36,26.2.37,6.75-4.71,23.44-4.88,46.41a380.51,380.51,0,0,0,2.35,44.5l-105.18.25c-2.84-7.23-5.26-20-6.73-24.13-1.27-3.51-8-3.79-11.51-13.06-2.93-7.74,2.53-20,2.53-20.83,0,0-6.25-5.44-8.52-10.3a260.86,260.86,0,0,0,18-37.36c2.66-7.13,5-8.79,10.42-12.94,5.22-4,13.57-4.76,13.57-4.76,1,40.7,12.31,49.87,12.31,49.87S1056.21,582.18,1070.1,551.27Z" class="cls-12"/><path d="M1052.84,492.36c-4.78.95-9.87-3.25-11.19-4.42-5.94-5.27-3.83-9-8.39-14-6-6.58-12-3.6-20.62-8.78-9-5.42-9.94-12.65-8.24-19.14,3-11.39,27-18.08,43.44-15.47,66.29,10.57,33.33,87,42.61,99,9.58,12.28,34,26.49,24.15,54.48-18.31,51.76-43.52-13.61-56.48-32.75-7.18-10.61,4.69-14.82-3-28.06-2.24-3.87-1.59-8.56-1.64-10.57,0,0,7.29-.73,9.29-2.31,3.66-2.91,4.29-7.54,3.43-13.48-.35-2.43-2.62-7.37-6.19-7.95A6.72,6.72,0,0,0,1052.84,492.36Z" class="cls-21"/><path d="M1052.65,498.57a40.38,40.38,0,0,1-31,19.68" class="cls-33"/><ellipse cx="1022.09" cy="518.25" class="cls-34" rx="4.8" ry="2.96" transform="translate(-60.61 142.73) rotate(-7.76)"/><path d="M1050.82,496.2l0,8.62a6,6,0,0,0,6.68-1.83c2-2.64,1.76-5.74,0-7.54C1056.48,494.48,1052.65,495,1050.82,496.2Z" class="cls-34"/><path d="M1055.73,619.43s-11,31.09-17.36,47L954.09,671c-3.47.31-13.27-7.42-23.67-7.42-12.15,0-28.41,14.1-33.14,18.47-2,1.89,3.31,9.78,14.83,11,14.32,1.57,25.34-1.55,35.51-4.57,0,0,81.76,8.2,105,9.15,9.84.4,16.45-6.56,18-9.78,8.74-18.31,17.83-48.46,21.46-61.4A93,93,0,0,1,1055.73,619.43Z" class="cls-32"/><path d="M1005.06,516.79c.5-.92,2.25-.09,6.81-.85,3.53-.59,4.54-1.43,5.11-.85,1.24,1.26-.86,8-5.11,8.51C1007.78,524.07,1004.18,518.39,1005.06,516.79Z" class="cls-5"/></g></svg>