<svg xmlns="http://www.w3.org/2000/svg" viewBox="349.41 175.28 1222.66 870.95"><defs><style>.cls-1,.cls-12,.cls-13,.cls-5{fill:none;stroke-miterlimit:10}.cls-1{stroke:#000;stroke-width:2px}.cls-2{fill:#b0e8de}.cls-3{fill:#40ccb1}.cls-4{fill:#fff}.cls-5{stroke:#b0e8de;stroke-width:4px}.cls-6{fill:#4735bc}.cls-7{fill:#eb2151}.cls-8{fill:#ffc1aa}.cls-9{fill:#ff2e56}.cls-10{fill:#343a40}.cls-11{fill:#e8e8e8}.cls-12,.cls-13{stroke:#515559;stroke-linecap:round}.cls-12{stroke-width:76px}.cls-13{stroke-width:40px}.cls-14{fill:#2e1c66}.cls-15{fill:#fed000}.cls-16{fill:#b08a67}.cls-17{fill:#ffb600}.cls-18{fill:#473a29}.cls-19{fill:#d35c5e}.cls-20{fill:#c89685}.cls-21{fill:#ca9583}.cls-22{fill:#010101}.cls-23{fill:#fff5b4}.cls-24{fill:#ffeec8}.cls-25{fill:#a8d7f4}.cls-26{fill:#394ea1}.cls-27{fill:#9c5c25}</style></defs><g id="Layer_8" data-name="Layer 8"><line x1="350.41" x2="1571.07" y1="1045.23" y2="1045.23" class="cls-1"/></g><g id="Layer_5" data-name="Layer 5"><path d="M1062.54,1042.73c191.57-6.32,401.31-133.89,469-340.18s-19.34-526.27-248.39-526.27C1077.69,176.28,921.41,338,804,415.42c-150.73,99.36-336.31,29.83-377.23,208C372.08,861.69,695,1054.84,1062.54,1042.73Z" class="cls-2"/><path d="M853.1,257.86c36,61.67-26.3,108.08-72.68,141-58,41.11-213.4,61.77-233.45,14.68C522.34,355.63,777,127.46,853.1,257.86Z" class="cls-2"/><rect width="105.17" height="105.17" x="1347.87" y="217.99" class="cls-3" rx="14"/><path d="M1425.69,305.29h-50.57a5.62,5.62,0,0,1-5.62-5.62V249.1a5.62,5.62,0,0,1,5.62-5.62h50.57a5.62,5.62,0,0,1,5.62,5.62v50.57A5.62,5.62,0,0,1,1425.69,305.29Zm-50.57-57.18a1,1,0,0,0-1,1v50.57a1,1,0,0,0,1,1h50.57a1,1,0,0,0,1-1V249.1a1,1,0,0,0-1-1Z" class="cls-4"/><path d="M1385.86,247.44a2.31,2.31,0,0,1-2.31-2.31V231.58a2.32,2.32,0,1,1,4.63,0v13.55A2.31,2.31,0,0,1,1385.86,247.44Z" class="cls-4"/><path d="M1416.28,247.44a2.31,2.31,0,0,1-2.32-2.31V231.58a2.32,2.32,0,1,1,4.63,0v13.55A2.31,2.31,0,0,1,1416.28,247.44Z" class="cls-4"/><path d="M1395.86,285.43q-5.74,0-12.72-.69V280.1q7.6.52,11.35.52a1.7,1.7,0,0,0,1.25-.47,1.68,1.68,0,0,0,.46-1.25v-1.38a1.82,1.82,0,0,0-2.06-2.06h-7.22v-4.81h6.53a1.83,1.83,0,0,0,2.07-2.07v-.68a1.83,1.83,0,0,0-2.07-2.07h-10V261h11.69q3.38,0,4.95,1.53a6.18,6.18,0,0,1,1.58,4.66,5.54,5.54,0,0,1-.94,3.35,5,5,0,0,1-2.49,1.81,5.33,5.33,0,0,1,3.78,3.71,8,8,0,0,1,.34,2.47v.35a6.79,6.79,0,0,1-1.58,5Q1399.24,285.42,1395.86,285.43Z" class="cls-4"/><path d="M1409.1,285.09V266.35l-4,1.38-1.72-4,6.36-2.75h5.5v24.07Z" class="cls-4"/><path d="M1435.55,208.14a27.39,27.39,0,0,1,27.37,27.36v70.18A27.39,27.39,0,0,1,1435.55,333h-70.17A27.39,27.39,0,0,1,1338,305.68V235.5a27.39,27.39,0,0,1,27.37-27.36h70.17m0-2h-70.17A29.37,29.37,0,0,0,1336,235.5v70.18A29.37,29.37,0,0,0,1365.38,335h70.17a29.37,29.37,0,0,0,29.37-29.36V235.5a29.37,29.37,0,0,0-29.37-29.36Z"/><path d="M1471.05,388.15H1042a25.46,25.46,0,0,0-25.46,25.46V705.87h480V413.61A25.46,25.46,0,0,0,1471.05,388.15Z" class="cls-4"/><line x1="1034.45" x2="1496.49" y1="431.63" y2="431.63" class="cls-5"/><circle cx="1403.18" cy="412.04" r="7.52" class="cls-2"/><circle cx="1431.47" cy="412.04" r="7.52" class="cls-2"/><circle cx="1459.76" cy="412.04" r="7.52" class="cls-2"/><path d="M1470.5,378.28A38.78,38.78,0,0,1,1509.23,417V704.36H1005.49V417a38.77,38.77,0,0,1,38.72-38.73H1470.5m0-2H1044.21A40.73,40.73,0,0,0,1003.49,417V706.36h507.74V417a40.74,40.74,0,0,0-40.73-40.73Z"/><rect width="120.24" height="81.46" x="1351.14" y="597.3" class="cls-2" rx="12.02"/><polygon points="1397.21 616.22 1397.21 659.58 1434.8 637.9 1397.21 616.22" class="cls-3"/><rect width="192.85" height="14.9" x="1278.6" y="475.31" class="cls-2" rx="6.98"/><rect width="192.85" height="14.9" x="1278.6" y="503.9" class="cls-2" rx="6.98"/><rect width="120.45" height="14.91" x="1350.99" y="532.49" class="cls-2" rx="6.98"/><path d="M1267,678.82H1053.9a7.89,7.89,0,0,1-7.68-8.08v-64a7.89,7.89,0,0,1,7.68-8.08H1267a7.89,7.89,0,0,1,7.68,8.08v64A7.89,7.89,0,0,1,1267,678.82Z" class="cls-2"/><path d="M1184.86,564.75h-129.8a9,9,0,0,1-8.7-9.22v-73a9,9,0,0,1,8.7-9.22h129.8a9,9,0,0,1,8.71,9.22v73A9,9,0,0,1,1184.86,564.75Z" class="cls-2"/><path d="M1107.89,483.22c-2.08-1.63-10-16.39-11-21.05-2.92-14.31,13.58-26.92,23.36-31.15,21.3-9.24,65.81-21.9,77.49,35.36,6.73,33-3.26,60-5,66.52-5.06,18.53,21.25,51.08,15.88,60.63-5.46,9.7-24.94,11.34-38.69,2.52-25.25-16.2-11.64-55.16-39.41-90.09C1120.15,492.92,1120.56,493.18,1107.89,483.22Z" class="cls-6"/><path d="M1130.73,543c-6.94,1.42-24.22,2.43-26.1,12.63a19,19,0,0,0,0,5.05h37C1144.94,555.24,1135.31,542.07,1130.73,543Z" class="cls-7"/><path d="M1104.24,452.91c-1.42,1.79-7.09,8.95-6.57,17.68.28,4.61,2,5.91,1.46,10.11-1,7-6.55,8-6.57,13.47,0,2.9,1.53,3,5.11,10.94,3.06,6.75,1.95,16.77,3.65,19.37,4.36,6.66,19.91,4.44,24,10.95,1.69,2.69,1.07,17.33,1.46,21.89,2,23.58,24.28,14.86,27.28,15.16,6.11.61,22.16-5,27.58-12.63,5.69-8-15.33-2.53-18.25-42.11-.84-11.45,3.34-9.63,5.84-16.84,1.46-4.21.85-2.48,2.92-9.26,4.38-14.31-1.46-22.73-11.68-14.31-3.28,2.71-8-17-10.94-23.58C1143.91,441.37,1115.87,438.23,1104.24,452.91Z" class="cls-8"/><path d="M1128.33,468.07c24.08,27.78,51.82,4.21,29.92-22.74-11.16-13.73-43.1-10.45-53.28,2.53C1091.1,465.54,1119.34,457.7,1128.33,468.07Z" class="cls-6"/><path d="M949.35,549.48c-8.69-16.29-12.61-32.81-20.47-40.82-5.43-5.54-10.15-17.75-9-20.49,2.68-6.25,7.53-5.93,11.34-11.62,5.71-8.51-8.46-23.81-4.06-26.39,6.56-3.85,18.75,34.17,22.77,32.76,2.57-.91.41-11.85,5.9-12.36,2-.19,4.59,17.44,2.25,20.95-7.66,11.48.07,26.15,11.62,47.32C970.7,540.6,953.39,557.06,949.35,549.48Z" class="cls-8"/><path d="M1096.74,621.31c-53.91,24.42-65.67,23.58-71.57,23.58-10.16,0-24.42-5.89-47.15-35.36-5.86-7.61-35.29-68.67-33.65-69,10.94-2.53,15.15-5.05,21-10.11,1.43-1.22,53.86,68.21,57.23,68.21,5.59,0,32.84-4.21,53.07-14.32,10.33-5.15,17.44-24.44,28.63-32.83,3.37-2.53,20.11-10.62,21.89-1.69,2.53,12.63,4.21,22.74,23.58,19.37,14.13-2.46,37-18.53,50.52-18.53,9.83,0,19,9.89,23.58,14.32,19.62,18.94,21.21,39.57,41.26,73.25,11.66,19.6,18.23,24.56,16.84,35.37-.7,5.42-4,17.5-25.26,30.31H1090.88c-1.25-7.39,12-9.68,13.47-26.94C1106,657.52,1101,640.68,1096.74,621.31Z" class="cls-9"/><path d="M1157.4,703.83c11.07,0,25.23-17.89,23.6-27.31-.78-4.47-1.46,1.56-5.92,1.21-32.17-2.52-50.24-.22-59.65-.5-8.82-.25-9.83-.79-27.2-4.47-3.3-.7-14.34,7.72-15.8,9.55-2.35,3-14.26,18.25-12.71,19.84,2.12,2.17,13.35-3.78,18.11-1.91,1.76.69,12.32,5.63,16.48,3.5,1.67-.86,12.73-5.28,14.25-5A231.62,231.62,0,0,0,1157.4,703.83Z" class="cls-8"/><path d="M1180.13,686.15c-6.94,1.42-24.22,2.44-26.1,12.63a19,19,0,0,0,0,5.05h37c3.26-5.45,1.56-15-3.37-17.68C1186.32,685.4,1184.71,685.21,1180.13,686.15Z" class="cls-9"/><path d="M1207.89,618c.84-.08,3.62,14.62,7.58,27.78,2.74,9.11,7.27,12.5,9.68,17.26-40.34,8.94-43.18,9.55-43.36,8.84-.28-1.09,22.51-1.22,30.31-16.84C1215.47,648.26,1206.72,618.06,1207.89,618Z" class="cls-7"/><path d="M1235.29,659.63c-56.42,10.1-82.55,14.42-81.68,17.68,3.37,12.63,0,21.89,0,26.94" class="cls-9"/><path d="M1181,596.05c-29.55,53.55,117.88,16.84,50.52-35.36-38.75-30-29.4-82.8-33.68-80C1129.58,525.32,1194.42,571.63,1181,596.05Z" class="cls-6"/><path d="M1104.32,512.69c.51-.69,2.74-1.47,5.9-2.52,5-1.69,7.74-2.16,8.42-1.69.9.64-2,11-7.58,10.95C1107,519.38,1103.57,513.73,1104.32,512.69Z" class="cls-4"/><polygon points="483.78 911.12 439.99 1044.16 456.15 1044.16 502.11 911.12 483.78 911.12" class="cls-10"/><path d="M600.82,968.37c-10.22,1.06-16.33,8.62-16.84,9.27a24.74,24.74,0,0,0-5.05,12.63l78.31,45.47c1.36-.87,5.89-3.72,5.89-7.58,0-1.69-.17-2.87-4.21-6.74-4.7-4.49-9.77-7.07-10.1-7.58-8.42-12.63-19.37-26.94-27.79-38.73C618.83,972,610.52,967.37,600.82,968.37Z" class="cls-11"/><path d="M688.59,1008.35c-8.31,6-9.82,15.64-9.94,16.45a24.76,24.76,0,0,0,2,13.46l90.55.16c.75-1.43,3.25-6.17,1.31-9.51-.84-1.46-1.58-2.4-7-3.72-6.32-1.54-12-1.24-12.55-1.51-13.61-6.71-30.25-13.63-43.44-19.62C706,1002.5,696.49,1002.62,688.59,1008.35Z" class="cls-4"/><path d="M712.81,978.48c-1.68,13.47-2.53,21-5,32.84-1.56,7.26-21.9,5.33-21.9-2.53,0-11,0-17.68,1.69-31.15Z" class="cls-8"/><path d="M634.69,951.76c-6.79,11.76-10.52,18.42-17.47,28.29-4.28,6.08-23-3.81-20-11.07,4.25-10.18,6.8-16.32,13.59-28.08Z" class="cls-8"/><path d="M616.82,905.22c0,.84-21.07,48.57-21.07,48.57l38.75,14.58L669,907.75Z" class="cls-7"/><path d="M715.34,802.5c16,3.36,26.94,10.94,26.94,22.73,0,38.53-20.21,158.3-20.21,158.3h0l-45.47-.84c5.9-66.52,9.26-105.25,10.95-133.88C693,832.26,700.68,799.41,715.34,802.5Z" class="cls-9"/><polygon points="663.47 911.12 707.25 1044.16 691.09 1044.16 645.13 911.12 663.47 911.12" class="cls-10"/><line x1="462.73" x2="681.65" y1="880.8" y2="879.96" class="cls-12"/><path d="M689.23,848.81c-18.52.84-135.56,12.63-153.25,11.78-28.07-1.33-47.15-9.26-56.41-34.52-7.46-20.34-3.29-63.19,18.52-61.47,32,2.53,75.79,12.63,155.78,26.11,10.92,1.84,61.47,11.79,61.47,11.79S693.53,848.61,689.23,848.81Z" class="cls-9"/><line x1="406.31" x2="449.26" y1="723.34" y2="883.33" class="cls-13"/><path d="M573,592.06c10.11,7.58,25.26,29.47,33.68,56.41,4,12.62-3.58,11.82-4.21,22.74-.51,9.06-.84,7.29-.84,16.84,0,27.78.52,42.57-.84,48.84-4.21,19.36,0,41.25,0,41.25s-16.19.62-18.52,0C550,769.63,552.14,576.44,573,592.06Z" class="cls-14"/><path d="M594.86,631.63c.29-3.14-2.34-4.52-11.79-16s-12.63-19.36-12.63-20.2c0,0,27.78,11.78,32-18.53.94-6.77,11-5,11-12.63,0-5.89-6.24-4.83-5.89-11.79.84-16.84-12-32.71-16-33.68-3.55-.85-17.29-6.77-36.21-5-9.26.84-15,9.33-16.84,14.31-6.06,16.24,8.23,38.41,6.74,48.84-.84,5.89-17.62,12.6-19.37,14.32-7.48,7.35,3.13,46.4,29.47,53.88C572.82,650.09,594.06,640.16,594.86,631.63Z" class="cls-8"/><path d="M498.87,607.21c1-1.5,4.21-4.21,13.47-9.26,9.44-5.15,13.59-9.11,16-8.42,5.89,1.69,19.36,19.37,27.78,37.89,0,0,11.79,5.05,37,1.69,0,0,12.63,13.47,16,26.94,2.58,10.33-8.42,36.21-16,45.47,0,0,4.21,13.47,1.69,35.37-2.18,18.84-4.77,35-5.9,35.36-15.15,5-43.78,6.74-69,7.58C514.59,780,489.6,621.53,498.87,607.21Z" class="cls-4"/><path d="M516.55,595.43c-10.95,5.29-41.26,24.66-46.31,61.65-.81,5.9-5.06,63.41,9.26,129.47.83,3.84,42.94,2.64,60.63.88,0,0,18-86.28,10.1-122.42C544.67,639.64,523.08,592.28,516.55,595.43Z" class="cls-6"/><path d="M554.44,560.9c-4.21-2.52-4.91-10.62-5.05-11.79-.84-6.73,1-16,5.05-16,9.26,0,4.71,7.91,10.1,9.26,20.21,5,31.51-18.26,34.53-16,3.36,2.53,6.73,14.31,7.57,16.84,1.22,3.64,14.41-7.89,11-14.31-5.89-10.95-51.43-25.6-65.68-27.79-10.94-1.69-37,23-37,42.94,0,21.05,7.58,26.1,10.95,30.31,1.9,2.38,16,4.21,24.42,5.06,1.68.16-.52-5.37.84-5.06,1.13.27,1.69,3.28,3.37,5.06,1.16,1.23,9.26,1.68,9.26,1.68s-2.78-4.88-6.73-12.63C556.65,567.87,554.44,560.9,554.44,560.9Z" class="cls-15"/><path d="M608.33,731.83c5,5.06,12.18,10.36,29.47,13.48,10.67,1.92,16.84,2.52,31.15,0,7.47-1.32,16.85,2.52,16.85,6.73,0,2.53-17.51,1.33-17.69,1.69-.84,1.68,9.27,5.64,20.21,6.73,13.12,1.31,18-1,19.37,1.69,1.22,2.44-4.48,6.44-6.74,7.57a33.65,33.65,0,0,1-5.89,1.69c-5.9,5.89-16,12.08-21,11.79-14.32-.85-23.58-5.9-33.68-12.63-4.09-2.73-3.45-.85-23.58-2.53s-24.06-5.13-25.26-6.74Z" class="cls-8"/><path d="M519.07,657.73c22.74,21.06,31.16,36.21,42.95,53.89l53.05,18.53c-8.43,26.1-19.37,36.21-19.37,36.21-22.74-3.37-56.77-14.73-64-21.05-6.73-5.9-42.18-44.61-49.67-64.84" class="cls-6"/><path d="M586.07,578.14c1-.49,2.34.65,5.94.27,2.75-.29,4.75-.33,5.12-.09.67.43-2.88,6.06-6.81,6S584.66,578.81,586.07,578.14Z" class="cls-4"/><polygon points="636.18 911.12 592.4 1044.16 608.56 1044.16 654.52 911.12 636.18 911.12" class="cls-10"/><path d="M753.23,968.37c-10.22,1.06-16.34,8.62-16.84,9.27a24.78,24.78,0,0,0-5.06,12.63l78.31,45.47c1.37-.87,5.9-3.72,5.9-7.58,0-1.69-.17-2.87-4.21-6.74-4.7-4.49-9.77-7.07-10.11-7.58-8.42-12.63-19.36-26.94-27.78-38.73C771.23,972,762.93,967.37,753.23,968.37Z" class="cls-11"/><path d="M841,1008.35c-8.32,6-9.83,15.64-9.94,16.45a24.76,24.76,0,0,0,2,13.46l90.55.16c.75-1.43,3.24-6.17,1.31-9.51-.84-1.46-1.58-2.4-7-3.72-6.31-1.54-12-1.24-12.54-1.51-13.61-6.71-30.25-13.63-43.44-19.62C858.42,1002.5,848.9,1002.62,841,1008.35Z" class="cls-4"/><path d="M865.22,978.48c-1.69,13.47-2.53,21-5.06,32.84-1.55,7.26-21.89,5.33-21.89-2.53,0-11,0-17.68,1.69-31.15Z" class="cls-16"/><path d="M787.1,951.76c-6.8,11.76-10.52,18.42-17.47,28.29-4.29,6.08-23-3.81-20-11.07,4.25-10.18,6.8-16.32,13.6-28.08Z" class="cls-16"/><path d="M769.23,905.22c0,.84-21.08,48.57-21.08,48.57l38.76,14.58,34.52-60.62Z" class="cls-14"/><path d="M867.74,802.5c16,3.36,27,10.94,27,22.73,0,38.53-20.21,158.3-20.21,158.3h0L829,982.69c5.89-66.52,9.26-105.25,11-133.88C845.4,832.26,853.08,799.41,867.74,802.5Z" class="cls-6"/><polygon points="815.88 911.12 859.66 1044.16 843.5 1044.16 797.54 911.12 815.88 911.12" class="cls-10"/><line x1="615.13" x2="834.06" y1="880.8" y2="879.96" class="cls-12"/><path d="M687.55,673.67c13.7.64,16.91,27.08,40.42,72.41,11.78,22.73,22,53.29,32,70.73,10.11,17.68-21.26,13.86-33.68,17.68-22.38,6.88-49.18-4.23-68.2-24.42C620.6,770.28,667.25,672.71,687.55,673.67Z" class="cls-17"/><path d="M841.64,848.81c-18.53.84-135.57,12.63-153.25,11.78-28.07-1.33-47.15-9.26-56.41-34.52-7.46-20.34-3.29-63.19,18.52-61.47,32,2.53,75.78,12.63,155.77,26.11,10.93,1.84,61.47,11.79,61.47,11.79S845.94,848.61,841.64,848.81Z" class="cls-6"/><line x1="558.72" x2="601.66" y1="723.34" y2="883.33" class="cls-13"/><path d="M701,631.56c11.79,25.26,32.07,46.71,25.26,63.16-3.79,9.16-10,9.3-11.79,13.47-2.52,5.89,2.53,13,2.53,28.63,0,16,0,33.68-4.21,46.31-3.66,11-35.24-8.84-47.15-29.47C639.52,708.39,690.47,609,701,631.56Z" class="cls-4"/><path d="M677.29,581.45c-1.13,2.32-3.28,7-5.93,6.92-2.9-.13-4.81-6-6.91-12.84-5.87-19.09-8.8-28.64-8.89-31.61-.12-4.15-.7-23.57,12.84-37.54,19.54-20.18,49.76-7.74,62.23-3.95,7.93,2.4,12.86,5.17,13.83,8.89,1.58,6-5,12.8-6.91,14.81-4.17,4.34-8.59,3.39-9.88,4-18.27,8-26.49,5.8-23.71,13.83S688.42,558.67,677.29,581.45Z" class="cls-18"/><path d="M666.42,609.11c6.92-17.78,8.57-28.44,8.89-30.62.49-3.25,0-6.91-3.95-16.79-3.79-9.49-2.32-14.56-1-16.8,2.18-3.65,7.58-4.81,11.85-2,5.45,3.62,4.34,8.81,5.93,8.89,2.46.12.34-18.11,11.85-26.67,8.34-6.21,32.15-8.31,38-1.13,6.13,7.47,2,24.11,5.05,30.31,1.14,2.34,5.06,4.21,5.06,9.26,0,6.74-7.07,8.44-8.42,14.32-2.53,10.94-3.17,13.42-4.16,19.35-1.14,6.89-9.64,8.12-16.79,6.91-8.67-1.46-13.49-3.83-15.56-5.09a1,1,0,0,0-1.56.75c-.16,1.51-2.11,4.59-1.56,9.55,2,17.57,4,21.06,4,22.68C704.15,640.25,661.46,621.89,666.42,609.11Z" class="cls-16"/><path d="M666.5,606.3c-9.31,0-14.1,11.47-42.94,80-39.11,92.9-29.18,114.29-21.06,128,2.11,3.55,8.6,14.47,21.06,19.37,15.7,6.17,25.66-3.23,48.83-5,32.7-2.57,44.7,13.64,53.89,5.89,8.75-7.38-.17-23.74-12.63-85.88-8-39.8-11.92-60-9.26-74.94,2.6-14.66,7.48-25.07,2.53-38.74C702.48,622.71,678.72,606.29,666.5,606.3Z" class="cls-15"/><path d="M775.12,748.61c23.58-16.84,26.32-17.64,36.21-26.11,5.89-5,8.57-6.37,14.31-19.36,7.36-16.67,9.26-33.68,5.89-34.53S821.43,704,812.17,704a4.23,4.23,0,0,1-4.21-4.21c-.1-6,5-14.32,3.37-15.16-5.06-2.52-10.69,15.72-20.21,31.16-5,8.14-12,9.38-16,10.94-8.21,3.17-16.7.15-21.89,4.21-3.48,2.73-1,9.53.84,13.48C757.47,751.67,773.52,749.75,775.12,748.61Z" class="cls-16"/><path d="M640.4,685.45c-4.21,21.9-4.87,54.76,6.73,79.15,21.4,45,96.83,5.9,135.57-15.15,0,0-14.32-6.74-20.21-22.74-2.12-5.75-57.08,23.4-72.42,15.16-6.54-3.51-8-15.08-3.36-48" class="cls-15"/><path d="M813,704a4.37,4.37,0,0,1-1.58-.29,4.62,4.62,0,0,1-2.77-5.93l25.26-69.38a4.63,4.63,0,1,1,8.7,3.17l-25.26,69.38A4.63,4.63,0,0,1,813,704Z" class="cls-9"/><path d="M723.05,578.88c1-.54,5.14.73,8.08,1.46s4.66,1.69,5.13,2.21c.86.93-3.44,9.36-8.07,8.8C723.06,590.73,721.69,579.58,723.05,578.88Z" class="cls-4"/><rect width="373.08" height="108.18" x="605.34" y="298.99" class="cls-4" rx="10"/><path d="M615,289v2H968.75a18,18,0,0,1,18,18v89a18,18,0,0,1-18,18H615a18,18,0,0,1-18-18V309a18,18,0,0,1,18-18v-2m0,0a20,20,0,0,0-20,20v89a20,20,0,0,0,20,20H968.75a20,20,0,0,0,20-20V309a20,20,0,0,0-20-20Z"/><path d="M642.23,402.05c1.07-22,1.56-28.07,1.56-28.07a37.9,37.9,0,0,1-2.86,14.81c-1.36,3.24-2.2,6.3-4.68,6.5-3.12.26-12.22-6-13.26-8.58a6.52,6.52,0,0,1,1.82-6.75c1.67-1.34,3.13-.34,4.94-1.3,3-1.6,2.74-6.33,3.64-12,.88-5.46,1.85-11.48,5.2-15.08s10-3.55,23.14-3.38c17.43.23,20.72,2.84,22.09,4.16.81.78,2.37,4.26,5.46,11.18,4.24,9.49,1.71,4.64,6.76,16.9a35.69,35.69,0,0,1,2.34,9.87,7.73,7.73,0,0,1-1.82,5.46c-2.34,3.38-10.4.26-10.4.26s.16,4.23,0,6" class="cls-19"/><path d="M686.68,402.1l-1-.1c.15-1.69,0-5.87,0-5.91l0-.79.74.29c2.13.82,8.06,2.42,9.78-.07l.17-.24a7,7,0,0,0,1.56-4.88,35.63,35.63,0,0,0-2.3-9.73c-2.41-5.85-3.11-7.84-3.62-9.29a79.7,79.7,0,0,0-3.14-7.59c-2.86-6.42-4.59-10.29-5.34-11-1.07-1-3.92-3.78-21.74-4-13.54-.17-19.65-.11-22.75,3.22s-4.21,9.49-5.07,14.8c-.2,1.26-.34,2.47-.48,3.63-.48,4.1-.87,7.34-3.42,8.7a5.43,5.43,0,0,1-2.54.57,3.45,3.45,0,0,0-2.32.68,6,6,0,0,0-1.66,6.16c.95,2.38,9.85,8.49,12.73,8.25,1.82-.15,2.65-2.22,3.7-4.85.17-.43.35-.88.54-1.33a37.39,37.39,0,0,0,2.46-9.11c.24-4,.36-5.52.36-5.55l1,0a33.13,33.13,0,0,1-.38,5.79c-.25,4.27-.65,11.31-1.18,22.34l-1-.05c.33-6.79.61-12.07.83-16.13-.32,1-.69,2.05-1.13,3.09-.19.45-.36.89-.53,1.32-1.14,2.84-2.13,5.29-4.59,5.5-3.4.28-12.65-6.08-13.78-8.9a7,7,0,0,1,2-7.36,4.46,4.46,0,0,1,2.93-.91,4.55,4.55,0,0,0,2.09-.44c2.07-1.11,2.43-4.11,2.88-7.91.14-1.17.28-2.39.49-3.67.88-5.46,1.87-11.64,5.33-15.35s10.64-3.71,23.52-3.55c18.24.24,21.19,3.09,22.45,4.31.86.83,2.25,3.88,5.57,11.34a80.88,80.88,0,0,1,3.17,7.66c.51,1.45,1.2,3.42,3.6,9.25a36.18,36.18,0,0,1,2.38,10,8,8,0,0,1-1.76,5.58,2.17,2.17,0,0,0-.15.22c-2.13,3.07-8.17,1.41-10.29.71C686.74,398.12,686.8,400.77,686.68,402.1Z"/><path d="M675.76,387c-.6-.29-.86-1.15-1.82-1.3a7.86,7.86,0,0,1-1.82-.26c-1.79-.59-4.94-3.12-7.28-4.42-1-.55-1.29-2.07-.26-2.33.61-.16,2.44,1.4,2.6,1.3.78-.52-3.37-2.6-3.12-3.9a1.26,1.26,0,0,1,1-1c1.28-.22,2.34,1.82,2.86,1.3,0,0-2.34-1.56-2.34-2.34a1.73,1.73,0,0,1,1.56-1.56c1,0,2.79,2.15,2.86,2.08.52-.52-6.17-7.86-6.49-8.84-.26-.78-.07-1.28.77-1.3,3.46-.08,7.07,8.76,8.84,8.32.52-.13.19-1,0-1.56-.26-.78-1.89-1.84-2.08-2.86a.89.89,0,0,1,1-1,5.46,5.46,0,0,1,3.38,2.6,26.07,26.07,0,0,1,1.3,4.68,21.29,21.29,0,0,0,1,3.38,7.16,7.16,0,0,0,.78,1.56c1.2,1.57,2.73,1.21,3.12,2.07C682.54,383.27,677.63,387.88,675.76,387Z" class="cls-20"/><path d="M676.32,387.61a1.71,1.71,0,0,1-.78-.17h0a2.6,2.6,0,0,1-.78-.64,1.51,1.51,0,0,0-.89-.61,4.75,4.75,0,0,0-.53-.05,4.8,4.8,0,0,1-1.38-.23,22.47,22.47,0,0,1-4.34-2.53c-1-.7-2.11-1.42-3-1.93a2.24,2.24,0,0,1-1.16-2.15,1.32,1.32,0,0,1,1-1.15.86.86,0,0,1,.36,0c-.79-.71-1.41-1.44-1.26-2.19A1.79,1.79,0,0,1,665,374.5l.21,0a1.12,1.12,0,0,1-.13-.5,2.25,2.25,0,0,1,2.08-2.08,1.67,1.67,0,0,1,.73.18c-.66-.84-1.41-1.76-2-2.51a22.52,22.52,0,0,1-2.83-3.75,1.59,1.59,0,0,1,.08-1.45,1.37,1.37,0,0,1,1.18-.53c2.22-.06,4.28,2.81,6.08,5.34.72,1,2,2.79,2.53,3a5.38,5.38,0,0,0-.21-.77l0-.11a4,4,0,0,0-.78-1,4.49,4.49,0,0,1-1.32-2,1.45,1.45,0,0,1,.4-1.27,1.42,1.42,0,0,1,1.26-.37,5.89,5.89,0,0,1,3.72,2.85,25.35,25.35,0,0,1,1.36,4.82l0,.1a20.06,20.06,0,0,0,1,3.2,6,6,0,0,0,.72,1.44,3.5,3.5,0,0,0,1.81,1.2,2.07,2.07,0,0,1,1.36,1c.67,1.46-1.27,3.52-1.88,4.11C679.2,386.51,677.6,387.61,676.32,387.61Zm-11.63-8.44a.29.29,0,0,0-.23.27,1.24,1.24,0,0,0,.64,1.1c1,.53,2,1.27,3.1,2a22.35,22.35,0,0,0,4.09,2.41,3.35,3.35,0,0,0,1.1.18l.63.06a2.53,2.53,0,0,1,1.51.93,1.9,1.9,0,0,0,.46.42h0c.65.31,2.24-.5,3.61-1.84s1.87-2.5,1.67-2.94c-.08-.17-.33-.27-.77-.43a4.45,4.45,0,0,1-2.29-1.55,6.91,6.91,0,0,1-.85-1.67,20.74,20.74,0,0,1-1-3.36l0-.1a28,28,0,0,0-1.25-4.54,4.9,4.9,0,0,0-3-2.35.35.35,0,0,0-.32.09.4.4,0,0,0-.11.34,3.93,3.93,0,0,0,1,1.44,4.11,4.11,0,0,1,1,1.35l0,.11a2.27,2.27,0,0,1,.15,1.7.87.87,0,0,1-.55.42c-1.12.28-2.22-1.26-3.74-3.4s-3.54-4.94-5.21-4.9a.57.57,0,0,0-.36.08s-.05.21.06.53a36.49,36.49,0,0,0,2.64,3.42c3.8,4.62,4.28,5.4,3.73,5.95l-.15.16H670c-.25,0-.37-.12-.77-.52s-1.55-1.56-2.09-1.56a1.22,1.22,0,0,0-1,1h0s.13.51,2.05,1.86a.57.57,0,0,1,.29.43l0,.24-.17.17c-.58.58-1.25,0-1.74-.41s-1-.82-1.4-.74a.74.74,0,0,0-.62.63c-.07.38,1.16,1.4,1.76,1.88.9.74,1.5,1.23,1.47,1.78a.73.73,0,0,1-.33.57c-.35.23-.63,0-1.33-.42A5.93,5.93,0,0,0,664.69,379.17Z"/><path d="M686.16,396.07c-3.9-1.3-10.66-6.76-10.66-7.8,0-3.63,4.93-9,6-8.83,1.3.26,5.72,2.33,7.54,4.41" class="cls-19"/><path d="M686,396.56c-3.71-1.23-11-6.73-11-8.29,0-3.16,3.31-7.25,5-8.63.91-.75,1.35-.76,1.6-.71,1.34.26,5.9,2.38,7.83,4.58l-.78.69a19,19,0,0,0-7.22-4.25c-1,.16-5.36,5-5.39,8.29.33.95,6.44,6.05,10.3,7.34Z"/><path d="M622.21,367.48c.19-.58.46-1.43,1-1.56,1-.22,2.6,1.56,2.34,6a4.45,4.45,0,0,0,.26,2.6c1,2.11,1.66,2.08,2.08,3.38.49,1.5-.45,2.82,0,5.19,1,5.46-1.82,6-2.86,6.24a5.51,5.51,0,0,1-5.46-1.56c-1.6-1.45-2.58-4-1.82-5.46.24-.45.69-.88.52-1.3s-.69-.35-1.55-.77c-.59-.29-1.24-.74-1.3-1.3-.1-.87,1.51-1.88,2.85-2.34,1.66-.57,2.4-.18,3.12-.78,1-.85.76-2.41.78-3.9C622.24,369.84,621.7,369.07,622.21,367.48Z" class="cls-20"/><path d="M623.58,390a6.27,6.27,0,0,1-4.31-1.89c-1.68-1.52-2.86-4.32-1.94-6.09.08-.14.17-.28.25-.4a1.55,1.55,0,0,0,.25-.47l-.38-.13a7.65,7.65,0,0,1-.92-.37c-1-.48-1.52-1.05-1.59-1.71-.16-1.36,2-2.48,3.21-2.89a7.88,7.88,0,0,1,1.92-.39,1.66,1.66,0,0,0,1-.29c.63-.54.62-1.55.6-2.71,0-.27,0-.54,0-.8a13.36,13.36,0,0,0-.12-1.86,5.55,5.55,0,0,1,.15-2.71h0c.22-.68.54-1.71,1.42-1.91a1.58,1.58,0,0,1,1.36.42c1.18,1,1.78,3.27,1.61,6.1l0,.46a3.08,3.08,0,0,0,.24,1.88,8,8,0,0,0,1.23,1.94,4.27,4.27,0,0,1,.88,1.51,5.13,5.13,0,0,1,0,2.43,8,8,0,0,0,0,2.83c1.1,5.77-2,6.53-3.14,6.81l-.1,0A6.67,6.67,0,0,1,623.58,390Zm-.17-23.61h0c-.3.07-.54.85-.66,1.22h0a4.6,4.6,0,0,0-.11,2.26,12.29,12.29,0,0,1,.13,2c0,.26,0,.51,0,.77,0,1.31,0,2.67-1,3.52a2.66,2.66,0,0,1-1.6.54,6.33,6.33,0,0,0-1.69.34c-1.4.48-2.55,1.38-2.51,1.79,0,.26.41.59,1,.89a7.37,7.37,0,0,0,.79.31,1.43,1.43,0,0,1,1,.74,1.53,1.53,0,0,1-.35,1.42c-.07.11-.14.22-.19.32-.62,1.17.2,3.47,1.7,4.83a5,5,0,0,0,5,1.44l.1,0c1.07-.26,3.29-.8,2.37-5.61a9,9,0,0,1,0-3.17,4.18,4.18,0,0,0,0-2,3,3,0,0,0-.7-1.17,9.36,9.36,0,0,1-1.36-2.15,4.16,4.16,0,0,1-.34-2.42c0-.14,0-.28,0-.43.18-2.95-.52-4.65-1.24-5.25A.7.7,0,0,0,623.41,366.42Z"/><path d="M616.5,380.22c3.75.77,6.86.62,7,0,.26-1-1.3-2.34-3.38-2.6" class="cls-20"/><path d="M621.21,381.26a26.19,26.19,0,0,1-4.82-.54l.21-1c3.41.7,5.9.56,6.42.29a.84.84,0,0,0-.18-.49,4.05,4.05,0,0,0-2.77-1.38l.13-1a5.11,5.11,0,0,1,3.5,1.82,1.77,1.77,0,0,1,.32,1.42C623.84,381,622.65,381.26,621.21,381.26Z"/><path d="M618.12,388.51c0-.66.71-1.43,3.59-1.43s4.14.37,4.14,1.43c0,.79-1.06,1.32-3.53,1.32C619.22,389.83,618.12,389.16,618.12,388.51Z" class="cls-20"/><path d="M622.32,390.35c-4.11,0-4.72-1.15-4.72-1.84,0-.89.71-1.95,4.11-1.95,2.25,0,4.66.15,4.66,1.95C626.37,389.73,625,390.35,622.32,390.35Zm-.61-2.75c-2.12,0-3.07.46-3.07.91,0,.13.64.8,3.68.8,2.08,0,3-.4,3-.8S625,387.6,621.71,387.6Z"/><path d="M614.68,382.55c0-1.56,2.08-1.3,4.67-1.3,3.39,0,5.46.52,5.46,1.56,0,.78-2,1-4.94,1C616.76,383.85,614.68,384.11,614.68,382.55Z" class="cls-20"/><path d="M617.76,384.39c-1.48,0-2.56-.09-3.16-.68a1.75,1.75,0,0,1,0-2.33c.71-.69,2.06-.68,3.77-.65h1c4,0,6,.69,6,2.08,0,1.13-1.53,1.56-5.46,1.56h-2.11Zm-.22-2.63a3.84,3.84,0,0,0-2.2.36.59.59,0,0,0-.14.43.53.53,0,0,0,.13.42c.41.41,1.78.39,3.36.37h1.18c3.69,0,4.32-.44,4.42-.54,0-.31-1-1-4.94-1h-1.81Z"/><path d="M616.24,385.93c0-1.3.84-1.4,4.22-1.4s4.87.36,4.87,1.4c0,.78-1.25,1.3-4.16,1.3C617.53,387.23,616.24,387.23,616.24,385.93Z" class="cls-20"/><path d="M621.17,387.75c-3.74,0-5.45,0-5.45-1.82s1.58-1.92,4.74-1.92c2.73,0,5.39.15,5.39,1.92S622.33,387.75,621.17,387.75Zm-.71-2.7c-3.56,0-3.7.19-3.7.88s.78.78,4.41.78c3,0,3.64-.56,3.64-.78C624.81,385.35,623.35,385.05,620.46,385.05Z"/><path d="M661.21,351.62c-.42,0-.23,2.53-1,4.16-2.08,4.16-24.44,2.67-24.44-1.82,0-3.12,7-5.72,8.58-8.84,2-4-1-6.12-1.56-12.73-.17-2.06-1.16-13.83,6.5-21.06a19.06,19.06,0,0,1,13.52-5.2c.84,0,8,.44,12.73,6,7.09,8.31,3.38,22,3.12,22.87-1.33,4.67-3.36,7.07-2.08,10.14s8.35,4.72,9.1,8.84c1,5.72-13,7.54-22.87,2.6C660.75,355.55,661.67,351.61,661.21,351.62Z"/><path d="M675.31,359.94A29.35,29.35,0,0,1,662.53,357a3,3,0,0,1-1.48-2.16,5.94,5.94,0,0,1-.42,1.14c-1.62,3.25-13,3.29-19.67,1.73-2.62-.62-5.75-1.78-5.75-3.78s2.23-3.61,4.58-5.32c1.68-1.22,3.42-2.48,4.05-3.75,1.1-2.19.59-3.72-.17-6a25.86,25.86,0,0,1-1.44-6.43c-.35-4.23-.41-14.79,6.66-21.48a19.44,19.44,0,0,1,13.9-5.34c1.36.06,8.38.62,13.11,6.16,7.33,8.59,3.39,22.76,3.22,23.36a38.72,38.72,0,0,1-1.32,3.78c-.95,2.45-1.59,4.07-.78,6,.51,1.23,2.14,2.26,3.86,3.36,2.36,1.51,4.81,3.06,5.27,5.59a3.8,3.8,0,0,1-1.71,3.85C682.56,359.13,679.18,359.93,675.31,359.94Zm-14.1-8.84a.58.58,0,0,1,.41.17c.25.24.26.61.27,1.35,0,1.1,0,2.94,1.11,3.48,7.51,3.75,17.19,3.51,20.82.79a2.8,2.8,0,0,0,1.31-2.84c-.38-2.07-2.63-3.51-4.81-4.89-1.86-1.19-3.62-2.31-4.26-3.84-1-2.32-.2-4.29.77-6.79a38.74,38.74,0,0,0,1.29-3.69c.17-.58,4-14.22-3-22.39-4.45-5.22-11.08-5.75-12.37-5.8a18.3,18.3,0,0,0-13.13,5.06c-6.75,6.37-6.68,16.55-6.34,20.63a24.62,24.62,0,0,0,1.39,6.19c.78,2.38,1.4,4.25.11,6.83-.75,1.49-2.59,2.83-4.37,4.12-2,1.48-4.15,3-4.15,4.48,0,1,1.85,2,5,2.77,6.7,1.58,17.27,1.28,18.5-1.18a8.94,8.94,0,0,0,.65-2.76c.13-1,.21-1.67.84-1.69h0Z"/><path d="M658.61,316.27c5.45-1.82,13.58,2.17,16.37,8.06,4,8.39-1.87,19-10.14,21.31-6.49,1.82-10.91-1.11-14.29-4.68-.73-.76-5.25-7.28-4.16-13C647.43,322.51,655.25,317.39,658.61,316.27Z" class="cls-21"/><circle cx="657.18" cy="328.36" r="1.69" class="cls-22"/><circle cx="666.53" cy="328.36" r="1.69" class="cls-22"/><path d="M661.73,334.45a2.25,2.25,0,0,1-1.58-.75.39.39,0,1,1,.55-.55,1.27,1.27,0,0,0,2,0,.39.39,0,1,1,.55.55A2.25,2.25,0,0,1,661.73,334.45Z" class="cls-22"/><path d="M661.86,342c-2.79,0-5.4-2.8-5.76-3.73a.49.49,0,0,1,.73-.64c3.29,1.64,6,1.64,9.54,0a.6.6,0,0,1,.71,0,.63.63,0,0,1,.08.74C666.73,339.48,664.41,342,661.86,342Zm-4.55-3.29c.86,1,2.68,2.51,4.55,2.51s3.65-1.72,4.32-2.66A10.37,10.37,0,0,1,657.31,338.71Z" class="cls-22"/><rect width="27.37" height="3.12" x="803.35" y="389.57"/><rect width="45.74" height="79.11" x="773.77" y="312.03" class="cls-23"/><path d="M821.07,392.69H772.21V310.47h48.86Zm-45.74-3.12H818v-76H775.33Z"/><path d="M759.33,357.47c-1.31-.34-2.56,1-2.85,1.3a5.38,5.38,0,0,0-1,1.82c-.4.91-.91,1.54-.78,1.82s.91.18,1,.26c1.69,1,2,2.66,3.11,2.6a2.25,2.25,0,0,0,1.3-.78,4.15,4.15,0,0,0,1-1.56,4.59,4.59,0,0,0,0-3.12C760.91,359.09,760.46,357.76,759.33,357.47Z" class="cls-24"/><path d="M758.76,365.66c-.75,0-1.2-.56-1.68-1.16a6.23,6.23,0,0,0-1.54-1.47h-.15c-.36,0-.9,0-1.09-.45s.05-.73.34-1.26c.14-.26.3-.55.44-.88a6,6,0,0,1,1.11-1.93c1.41-1.5,2.54-1.59,3.24-1.41h0c1.33.35,1.83,1.81,2.09,2.59a4.94,4.94,0,0,1,0,3.39,4.67,4.67,0,0,1-1.14,1.71,2.57,2.57,0,0,1-1.55.88Zm-3.71-3.45a2.62,2.62,0,0,0,.37,0,1.11,1.11,0,0,1,.48.09,6.53,6.53,0,0,1,1.79,1.69c.46.58.72.88,1.1.86s.59-.24,1.06-.68a3.74,3.74,0,0,0,.94-1.41,4.22,4.22,0,0,0,0-2.85c-.23-.65-.64-1.85-1.55-2.09-.5-.13-1.33,0-2.48,1.19a5.21,5.21,0,0,0-1,1.7,10.25,10.25,0,0,1-.47.94C755.22,361.86,755.11,362.08,755.05,362.21Z"/><path d="M758,361.37c-.51-.52-.86.14-1.29.52-.58.51-1.3,1-.78,1.56s1-.2,1.56-.78S758.29,361.63,758,361.37Z" class="cls-24"/><path d="M756.33,363.89a.79.79,0,0,1-.56-.26.74.74,0,0,1-.25-.59c0-.45.46-.84.89-1.21l.15-.14a2,2,0,0,0,.25-.25,1.25,1.25,0,0,1,.84-.52h0a.8.8,0,0,1,.56.27c.32.32.14.91-.51,1.65l-.13.15c-.38.43-.76.88-1.22.9Zm1.33-2.45h0c-.12,0-.3.19-.46.36a2.47,2.47,0,0,1-.28.28l-.16.14c-.31.27-.71.61-.71.84,0,0,0,.11.1.2a.26.26,0,0,0,.2.11c.23,0,.57-.4.84-.72l.14-.15c.52-.59.56-.91.53-.95A.34.34,0,0,0,757.66,361.44Z"/><path d="M758.86,362.25c-.56-.47-.85.22-1.25.63-.53.56-1.21,1.14-.65,1.62s1-.29,1.49-.91C758.8,363.13,759.15,362.49,758.86,362.25Z" class="cls-24"/><path d="M757.32,364.91a.9.9,0,0,1-.83-.78c0-.46.39-.88.79-1.29l.14-.14a3,3,0,0,0,.23-.27,1.24,1.24,0,0,1,.79-.59.76.76,0,0,1,.59.22h0c.35.29.22.89-.37,1.69l-.12.16c-.33.46-.68.94-1.14,1Zm1.18-2.56h0c-.12,0-.29.22-.43.4a3.88,3.88,0,0,1-.26.31l-.15.15c-.29.29-.65.66-.64.9,0,0,0,.1.12.19a.28.28,0,0,0,.21.09c.23,0,.54-.45.78-.79l.12-.16c.47-.63.49-1,.46-1h0A.42.42,0,0,0,758.5,362.35Z"/><path d="M760.12,363c-.58-.45-.84.26-1.22.69s-1.16,1.19-.57,1.64,1-.33,1.44-1C760.09,363.87,760.41,363.22,760.12,363Z" class="cls-24"/><path d="M758.67,365.72a.84.84,0,0,1-.5-.19.77.77,0,0,1-.33-.55c0-.46.35-.9.73-1.32l.13-.16a2.88,2.88,0,0,0,.22-.27c.21-.29.42-.59.76-.63a.76.76,0,0,1,.6.19h0c.37.28.26.88-.29,1.7l-.11.17c-.32.48-.64,1-1.1,1Zm1.1-2.61h0c-.12,0-.27.23-.41.42l-.24.32L759,364c-.28.31-.62.7-.6.93,0,0,0,.1.13.19a.24.24,0,0,0,.21.07c.23,0,.51-.47.74-.81l.12-.18c.44-.65.44-1,.4-1h0A.37.37,0,0,0,759.77,363.11Z"/><path d="M755.42,362.81a1,1,0,0,1-.85-.39c-.2-.31,0-.69.36-1.21a5.1,5.1,0,0,0,.64-1.33l.51.12a5.65,5.65,0,0,1-.71,1.48,2.43,2.43,0,0,0-.35.68.62.62,0,0,0,.51.12c.52-.07.8-.79.83-.87a1.72,1.72,0,0,0,.1-.52.81.81,0,0,1,.23-.62.9.9,0,0,1,.65-.22,1.34,1.34,0,0,0,.46-.09,1.4,1.4,0,0,0,.66-.66l.45.24a1.87,1.87,0,0,1-.9.9,1.77,1.77,0,0,1-.65.13c-.18,0-.25,0-.32.08s-.06.09-.06.26a2.08,2.08,0,0,1-.13.68c-.07.18-.45,1.09-1.25,1.21Z"/><path d="M766,336.28c-.9-.14-2.55,2.9-3.12,5.46-.73,3.33.21,3.81-.26,6.76a22.62,22.62,0,0,1-3.38,8.84c-.13.22,2.4,2.83,2.86,2.6,1-.52,3.84-4.19,4.42-5.72,1.79-4.71,1.14-8.49,0-15.08C766.25,337.78,766.51,336.37,766,336.28Z" class="cls-25"/><path d="M762,360.74c-.44,0-1.22-.32-2.72-1.95-.67-.72-1.11-1.27-.76-1.85l.15-.25a21.53,21.53,0,0,0,3.12-8.31,9.59,9.59,0,0,0,.05-2.81,11.08,11.08,0,0,1,.22-4c.48-2.19,2.2-6.35,4-6.07h0c1,.16,1,1.22,1,2.15a10.67,10.67,0,0,0,.11,1.35c1.14,6.6,1.82,10.58,0,15.49-.62,1.63-3.54,5.51-4.8,6.14A.84.84,0,0,1,762,360.74Zm-1.91-3.38a11.38,11.38,0,0,0,1.83,1.73,19.42,19.42,0,0,0,3.81-5.15c1.71-4.5,1.09-8.11,0-14.66a13.1,13.1,0,0,1-.13-1.56,2.62,2.62,0,0,0,0-.28,12.41,12.41,0,0,0-2,4.47,9.65,9.65,0,0,0-.2,3.5,11,11,0,0,1-.06,3.21A23.3,23.3,0,0,1,760.11,357.36Z"/><path d="M772.46,372.16c.12,1.09,1.93,3,3.38,4.16,3.9,3.12,8.75,7.44,10.92,7,2.87-.56,3.7-4.41,2.86-6.23-.94-2.05-6-1.56-7.54-2.86-3.06-2.55-1-7.8-2.08-8.84C778.36,363.76,772.06,368.49,772.46,372.16Z" class="cls-24"/><path d="M786.44,384.14c-2.06,0-5.1-2.34-9.37-5.83l-1.72-1.39c-.14-.11-3.45-2.78-3.66-4.68h0c-.34-3,2.9-6.23,5.36-7.42,1.51-.72,2.76-.72,3.5,0s.59,1.71.54,3.1c-.07,1.92-.15,4.32,1.49,5.69a7.72,7.72,0,0,0,2.92.85c2,.36,4.11.73,4.83,2.28a6,6,0,0,1-.31,4.86,4.48,4.48,0,0,1-3.11,2.47A2.42,2.42,0,0,1,786.44,384.14Zm-13.2-12.07c.07.68,1.52,2.38,3.09,3.64.56.44,1.14.92,1.72,1.39,3,2.43,7.06,5.76,8.56,5.47a2.94,2.94,0,0,0,2-1.65,4.41,4.41,0,0,0,.28-3.5c-.37-.81-2.13-1.12-3.68-1.4a8.31,8.31,0,0,1-3.65-1.18c-2.22-1.86-2.12-4.8-2.05-6.95a6.06,6.06,0,0,0-.09-1.95c-.17-.17-.79-.16-1.72.29-2.25,1.08-4.7,3.87-4.48,5.84Z"/><path d="M766.48,366.7c-.52,0-2.43,6.07-2.34,7.54.5,7.49,4.68,14,5.2,17.15a2.94,2.94,0,0,1-1.3,2.86c-1.82,1-4.1,1.38-4.16,2.08,0,.52,2.4,1.49,3.64,1,2.86-1,5.2-.52,6-1.3,1.3-1.3-.31-1.77-.78-4.16-.93-4.78,0-6.5-.26-10.14-.24-3.38-1.56-4.41-1.56-5.19,0-1.5,1-1.5,3.64-4.16a10.78,10.78,0,0,0,2.34-3.38S770.83,366.7,766.48,366.7Z" class="cls-24"/><path d="M766.76,398.26a5.86,5.86,0,0,1-3.09-.94,1.19,1.19,0,0,1-.56-1.05c.06-.9,1-1.27,2.3-1.72a16.78,16.78,0,0,0,2.25-1,2.2,2.2,0,0,0,.91-2.06,24,24,0,0,0-1.54-4.3c-1.41-3.36-3.33-8-3.66-12.93-.11-1.52,1.6-7.17,2.43-8.05a.89.89,0,0,1,.68-.32c4.44,0,10.43,2.29,10.68,2.39l.72.28-.27.72A11.59,11.59,0,0,1,775.1,373c-1,1-1.74,1.63-2.3,2.1-1,.82-1.12,1-1.12,1.52a3.48,3.48,0,0,0,.28.6,10.78,10.78,0,0,1,1.28,4.54,25.62,25.62,0,0,1-.06,3.78,21,21,0,0,0,.31,6.26,5.73,5.73,0,0,0,.76,1.88c.45.8,1,1.78-.2,3a4.09,4.09,0,0,1-2.62.77,14.56,14.56,0,0,0-3.64.71A2.86,2.86,0,0,1,766.76,398.26Zm-1.66-1.92a3.63,3.63,0,0,0,2.16.3,14.93,14.93,0,0,1,4-.8,4.29,4.29,0,0,0,1.66-.32c.36-.36.36-.36-.06-1.11a7.12,7.12,0,0,1-.93-2.35,22.24,22.24,0,0,1-.33-6.67,23,23,0,0,0,0-3.56,8.9,8.9,0,0,0-1.11-3.93,2.93,2.93,0,0,1-.45-1.32c0-1.32.67-1.88,1.68-2.72a27,27,0,0,0,2.19-2,11.69,11.69,0,0,0,1.81-2.39,34,34,0,0,0-9-2,24.87,24.87,0,0,0-1.9,6.7c.32,4.72,2.11,9,3.55,12.43a25.19,25.19,0,0,1,1.64,4.65,3.72,3.72,0,0,1-1.68,3.67A16.54,16.54,0,0,1,766,396Z"/><polygon points="768.94 356.98 766.22 366.18 778.18 369.3 785.2 357.6 782.6 353.7 768.94 356.98" class="cls-26"/><path d="M778.55,370.2l-13.3-3.47,3.07-10.41,14.63-3.5,3.17,4.76Zm-11.35-4.57,10.61,2.77,6.47-10.78-2-3-12.69,3Z"/><path d="M779.61,358.51c-.3,0-.32.53-1,1s-.94.31-1.3.78c-.07.1-.39.5-.26.78s1.29.38,2.08,0a1.8,1.8,0,0,0,1-1C780.33,359.38,780,358.55,779.61,358.51Z" class="cls-24"/><path d="M777.81,361.79a2,2,0,0,1-.63-.09.83.83,0,0,1-.52-.42c-.16-.33-.06-.73.3-1.19a1.78,1.78,0,0,1,.84-.58,2.38,2.38,0,0,0,.55-.28,2.24,2.24,0,0,0,.59-.64c.14-.22.33-.51.71-.47h0a.87.87,0,0,1,.61.43,2,2,0,0,1,.24,1.63,2.17,2.17,0,0,1-1.24,1.28A3.37,3.37,0,0,1,777.81,361.79Zm-.44-.85a2.07,2.07,0,0,0,1.55-.18,1.44,1.44,0,0,0,.84-.8,1.29,1.29,0,0,0-.15-1l0,0a3,3,0,0,1-.79.85,3.77,3.77,0,0,1-.71.37.91.91,0,0,0-.51.33A1.11,1.11,0,0,0,777.37,360.94Zm2.16-2.05Z"/><path d="M781.69,356.43c-.38.22-.35.38-1.3,1.3-.75.72-.86.71-1,1-.38.69,0,1-.26,1.82-.33,1.06-1.08,1.24-1,2.08a1.64,1.64,0,0,0,.26.78,3.14,3.14,0,0,0,2.86,1.3c2.71-.4,4.45-7,2.86-8.32A2.35,2.35,0,0,0,781.69,356.43Z" class="cls-24"/><path d="M780.86,365.16a3.54,3.54,0,0,1-2.89-1.51,2.09,2.09,0,0,1-.31-1,1.78,1.78,0,0,1,.52-1.29,2.65,2.65,0,0,0,.54-.93,1.85,1.85,0,0,0,.07-.78,1.85,1.85,0,0,1,.22-1.11,1.81,1.81,0,0,1,.5-.57l.61-.56a9.57,9.57,0,0,0,.81-.86,2.12,2.12,0,0,1,.57-.5h0a2.72,2.72,0,0,1,2.77,0c1,.8.85,2.95.42,4.55-.52,1.9-1.73,4.2-3.46,4.45A2.22,2.22,0,0,1,780.86,365.16Zm2.09-8.65a2.29,2.29,0,0,0-1.07.26h0a1.29,1.29,0,0,0-.36.33,12.51,12.51,0,0,1-.86.91c-.3.29-.5.46-.64.59a1.05,1.05,0,0,0-.45,1,2.53,2.53,0,0,1-.11,1.06,3.42,3.42,0,0,1-.67,1.19c-.24.31-.36.47-.35.76a1.2,1.2,0,0,0,.21.6,2.75,2.75,0,0,0,2.46,1.11c1.27-.18,2.34-2.08,2.82-3.88s.41-3.3-.14-3.75A1.42,1.42,0,0,0,783,356.51Z"/><path d="M778.57,363.84a.4.4,0,0,1-.27-.11.39.39,0,0,1,0-.55,9,9,0,0,0,2-3.24.39.39,0,0,1,.74.26,10.15,10.15,0,0,1-1.08,2.16,9.55,9.55,0,0,1-1.09,1.36A.38.38,0,0,1,778.57,363.84Z"/><path d="M779.35,364.62a.43.43,0,0,1-.27-.11.39.39,0,0,1,0-.55,18.58,18.58,0,0,0,1.27-1.52c.36-.49.7-1,1-1.53a.39.39,0,1,1,.67.4A16.89,16.89,0,0,1,781,362.9a18.24,18.24,0,0,1-1.32,1.59A.39.39,0,0,1,779.35,364.62Z"/><path d="M780.39,365.14a.37.37,0,0,1-.29-.14.38.38,0,0,1,0-.55,5.82,5.82,0,0,0,.75-.74,7.68,7.68,0,0,0,1.23-2,.39.39,0,1,1,.72.3,8.19,8.19,0,0,1-1.37,2.18,7.84,7.84,0,0,1-.81.82A.39.39,0,0,1,780.39,365.14Z"/><path d="M767,335.24c-2.33,1.3-2.85,4-2.6,6.5a51.33,51.33,0,0,0,2.34,13.52,4.12,4.12,0,0,0,3.64,2.34c3.9,0,9.08-.21,10.66-3.38,1.3-2.6.78-17.42-3.64-19.24C774.74,333.89,769.34,333.94,767,335.24Z" class="cls-25"/><path d="M770.38,358.38a4.88,4.88,0,0,1-4.38-2.87,46.69,46.69,0,0,1-2.25-12.18c0-.57-.08-1.07-.12-1.51-.34-3.42.72-6,3-7.26,2.49-1.38,8.08-1.53,11.08-.3,1.26.52,2.3,1.86,3.1,4,2,5.26,2,14.15.94,16.32C780.06,357.92,775.29,358.38,770.38,358.38Zm2.11-23.4a11.56,11.56,0,0,0-5.11.95h0c-2.29,1.27-2.36,4.14-2.2,5.74.05.46.08,1,.13,1.55A44.85,44.85,0,0,0,767.48,355a3.34,3.34,0,0,0,2.9,1.81c2.76,0,8.49,0,10-2.95.83-1.66.89-10-1-15.07-.63-1.68-1.4-2.75-2.24-3.09A12.85,12.85,0,0,0,772.49,335Z"/><ellipse cx="767.46" cy="329.2" class="cls-24" rx="5.13" ry="6.43"/><path d="M767.46,336.41c-3.26,0-5.92-3.23-5.92-7.21s2.66-7.21,5.92-7.21,5.91,3.23,5.91,7.21S770.72,336.41,767.46,336.41Zm0-12.86c-2.4,0-4.36,2.53-4.36,5.65s2,5.65,4.36,5.65,4.35-2.53,4.35-5.65S769.86,323.55,767.46,323.55Z"/><path d="M774.8,334.46c-1.35.72.58,6.28,1.56,7.8a16.93,16.93,0,0,0,1.82,2.08c.65.82.92,1.63,1.56,6.24.54,3.87.57,5,1.56,5.72a2.76,2.76,0,0,0,2.6.52c2.72-1.31.53-10.66-.78-14.82-.68-2.16-1.79-5-4.42-6.76C778.13,334.87,775.73,334,774.8,334.46Z" class="cls-25"/><path d="M783.16,357.76a4.09,4.09,0,0,1-2.33-.84c-1.14-.87-1.29-2-1.7-5,0-.36-.1-.76-.16-1.19-.63-4.53-.88-5.2-1.4-5.87a7.14,7.14,0,0,0-.64-.68,7,7,0,0,1-1.23-1.46c-.84-1.3-2.56-5.85-2-7.84a1.55,1.55,0,0,1,.78-1.06c1.39-.74,4.22.5,4.69.81,2.76,1.83,4,4.79,4.73,7.18a51.6,51.6,0,0,1,1.94,8.61c.5,4.06,0,6.4-1.56,7.14A2.46,2.46,0,0,1,783.16,357.76Zm-8-22.62c-.48.76.8,5.12,1.82,6.7a5.23,5.23,0,0,0,1,1.17,7.65,7.65,0,0,1,.79.85c.77,1,1.07,1.91,1.72,6.61.06.44.12.84.17,1.2.38,2.86.49,3.55,1.09,4a2.07,2.07,0,0,0,1.79.44c1.66-.8.73-7.82-1.18-13.88-.72-2.27-1.77-4.8-4.11-6.34A5.83,5.83,0,0,0,775.2,335.14Z"/><polygon points="819.51 313.67 784.68 321.21 784.68 398.13 819.51 390.89 819.51 313.67" class="cls-27"/><path d="M783.12,400.05V320l38-8.21v80.42Zm3.12-77.58v73.75l31.71-6.6v-74Z"/><rect width="85.52" height="85.26" x="875.4" y="309.51"/><circle cx="891.78" cy="327.45" r="10.66" class="cls-4"/><circle cx="943.77" cy="325.63" r="10.66" class="cls-4"/><path d="M881.12,342v20.67a1.3,1.3,0,0,0,1.3,1.3h0v25.12a.78.78,0,0,0,.78.78h5.64a.78.78,0,0,0,.78-.78V369.52h3.72v19.61a.78.78,0,0,0,.78.78h5.72a.78.78,0,0,0,.78-.78V340H883.16A2,2,0,0,0,881.12,342Z" class="cls-4"/><path d="M914.39,349.54c-.26.52.52,1,2.08,1.82s2.34,1.3,2.6.78c.42-.84-1-1.43-2.08-2.08S914.65,349,914.39,349.54Z" class="cls-4"/><path d="M918.72,352.61a4.65,4.65,0,0,1-1.7-.68l-.67-.34a10.62,10.62,0,0,1-1.77-1c-.46-.39-.6-.77-.42-1.13a.63.63,0,0,1,.41-.33,4.25,4.25,0,0,1,2.55.74l.51.28c1,.57,2.14,1.2,1.67,2.14a.61.61,0,0,1-.35.32A.85.85,0,0,1,918.72,352.61Zm-3.82-3a.5.5,0,0,0-.18,0,.14.14,0,0,0-.1.06s-.09.18.29.49a9.49,9.49,0,0,0,1.68,1l.67.34a4,4,0,0,0,1.52.61s0,0,.06-.06c.23-.45-.47-.88-1.47-1.44l-.51-.29A4.65,4.65,0,0,0,914.9,349.58Z"/><path d="M915.12,348c-.21.8.52,1,2.08,1.82s2.8,1.54,3.17.8c.52-1-1.21-1.77-2.34-2.34C916,347.2,915.27,347.4,915.12,348Z" class="cls-4"/><path d="M919.85,351.14a6.2,6.2,0,0,1-2.25-.86l-.52-.26-.5-.25c-1.26-.62-2-1-1.71-1.87h0a.82.82,0,0,1,.46-.56c.52-.24,1.42,0,2.82.67l.28.14c.93.46,2,1,2.24,1.72a1.05,1.05,0,0,1-.07.83.77.77,0,0,1-.45.4A1,1,0,0,1,919.85,351.14ZM915.37,348c-.12.46.15.64,1.44,1.27l.51.25.52.27c.92.46,1.78.9,2.15.78a.24.24,0,0,0,.15-.13.55.55,0,0,0,0-.43c-.19-.54-1.22-1.05-2-1.42l-.29-.15c-1.58-.79-2.16-.75-2.37-.66a.31.31,0,0,0-.17.22Z"/><path d="M915.73,346.15c-.22.85.55,1.11,2.21,1.94s3.08,1.45,3.47.67c.55-1.11-1.37-1.71-2.58-2.31C917.17,345.62,915.88,345.55,915.73,346.15Z" class="cls-4"/><path d="M920.73,349.38a2.28,2.28,0,0,1-.64-.1,12.81,12.81,0,0,1-2.26-1l-.53-.26c-1.34-.65-2.07-1-1.82-2h0a.69.69,0,0,1,.42-.48,4.14,4.14,0,0,1,3.05.61l.64.3c.92.42,1.88.85,2.12,1.54a1,1,0,0,1-.07.82A.92.92,0,0,1,920.73,349.38ZM916,346.22c-.13.5.16.69,1.54,1.37l.54.27a13.15,13.15,0,0,0,2.16.92c.79.21.91,0,1-.13a.53.53,0,0,0,0-.42c-.17-.48-1.06-.88-1.84-1.24-.24-.1-.46-.21-.67-.31a3.89,3.89,0,0,0-2.6-.6c-.1.05-.12.1-.13.14Z"/><path d="M917.25,344.34c-.12.87,2.78,1.8,4.53,2.44s3.21,1.11,3.52.28c.42-1.16-1.56-1.55-2.83-2C918.29,343.56,917.34,343.73,917.25,344.34Z" class="cls-4"/><path d="M924.47,347.76l-.43,0a13,13,0,0,1-2.35-.7l-.62-.23c-2.47-.88-4.21-1.58-4.08-2.49h0a.71.71,0,0,1,.34-.52c.44-.26,1.4-.35,5.23,1l.63.21c1,.31,2,.64,2.32,1.3a1,1,0,0,1-1,1.44Zm-7-3.38c-.08.56,2.5,1.49,3.74,1.93l.62.23a12.29,12.29,0,0,0,2.24.67c.81.12.91-.14.94-.24a.51.51,0,0,0,0-.42c-.23-.46-1.22-.78-2-1l-.64-.21c-3.41-1.21-4.49-1.25-4.79-1.06a.15.15,0,0,0-.09.14Z"/><path d="M899.57,339.66c9.1,2.34,13.22,3.9,14,3.9a13.33,13.33,0,0,0,2.34-.26c1.46-.19,1.94-.32,2.34,0s.43.82.52,1.82.14,1.56-.26,1.82a1.09,1.09,0,0,1-1.3-.26c-.45-.57.18-1.15-.26-1.56-.26-.24-1,0-1.3.78s.12.76,0,1c-.2.45-.4.39-.52.78a2.77,2.77,0,0,0,0,1c0,.56-.09.93-.52,1-.64.16-1.61-.64-1.82-.78-.78-.52-6-1.56-13.26-3.12" class="cls-4"/><path d="M914.46,350.08a3.27,3.27,0,0,1-1.67-.77l-.1-.07c-.62-.41-4.72-1.29-9.92-2.39l-3.25-.69.11-.51,3.25.69c6.35,1.35,9.43,2,10.1,2.47a.61.61,0,0,1,.12.09c.26.18,1,.76,1.49.65.17,0,.35-.14.32-.78,0-.15,0-.28,0-.38a1.57,1.57,0,0,1,0-.74,1.08,1.08,0,0,1,.3-.49.76.76,0,0,0,.23-.32s0,0,0-.14a1.35,1.35,0,0,1,0-.88,1.56,1.56,0,0,1,1-1,.75.75,0,0,1,.7.13.92.92,0,0,1,.2.94c0,.28-.07.46.08.65a.84.84,0,0,0,1,.2c.27-.17.21-.79.14-1.57-.09-1-.13-1.41-.42-1.64s-.56-.17-1.61,0l-.53.07-.61.09a9.13,9.13,0,0,1-1.77.17,19,19,0,0,1-3.2-.84c-2.31-.7-5.8-1.75-10.9-3.06l.13-.51c5.11,1.32,8.61,2.37,10.92,3.07a21.12,21.12,0,0,0,3.05.82,9.19,9.19,0,0,0,1.68-.16c.2,0,.4-.07.63-.09l.53-.08c1.11-.15,1.57-.22,2,.13s.53.95.62,2,.15,1.71-.38,2.06a1.32,1.32,0,0,1-1.64-.32,1.19,1.19,0,0,1-.19-1.06c0-.27.06-.37-.05-.47a.32.32,0,0,0-.21,0,1,1,0,0,0-.66.67.71.71,0,0,0,0,.56.68.68,0,0,1,0,.51,1.37,1.37,0,0,1-.34.48.53.53,0,0,0-.17.27,1,1,0,0,0,0,.53c0,.12,0,.25,0,.42s.05,1.11-.71,1.3A1.15,1.15,0,0,1,914.46,350.08Z"/><path d="M932.07,341.9v22a1,1,0,0,0,1.07,1l.75,0v26.3a1.27,1.27,0,0,0,1.27,1.28h5a1.82,1.82,0,0,0,1.82-1.81v-20h3.35v20a1.81,1.81,0,0,0,1.81,1.81h5.1a1.27,1.27,0,0,0,1.27-1.28V365h.59a1,1,0,0,0,1-1v-22a3,3,0,0,0-3-3h-17A3,3,0,0,0,932.07,341.9Z" class="cls-4"/><path d="M933.89,365.14h3.65a.65.65,0,0,0,.65-.65V344.74" class="cls-4"/><path d="M937.54,365.4h-3.65v-.52h3.65a.4.4,0,0,0,.39-.39V344.74h.52v19.75A.91.91,0,0,1,937.54,365.4Z"/><path d="M948.92,344.74v19.75a.65.65,0,0,0,.65.65h3.91" class="cls-4"/><path d="M953.48,365.4h-3.91a.91.91,0,0,1-.91-.91V344.74h.52v19.75a.4.4,0,0,0,.39.39h3.91Z"/></g></svg>