<svg xmlns="http://www.w3.org/2000/svg" viewBox="349.41 173.3 1237.92 872.93"><defs><style>.cls-1,.cls-19,.cls-20,.cls-21,.cls-22,.cls-29,.cls-30,.cls-4,.cls-7{fill:none;stroke-miterlimit:10}.cls-1,.cls-4{stroke:#000;stroke-width:2px}.cls-1,.cls-19,.cls-20,.cls-21{stroke-linecap:round}.cls-2{fill:#f6eec5}.cls-27,.cls-3,.cls-6{fill:#fff}.cls-5{fill:#ffb600}.cls-6{font-size:27.71px}.cls-27,.cls-6{font-family:RussoOne-Regular,Russo One}.cls-7{stroke:#fff;stroke-width:8px}.cls-8{fill:#917663}.cls-9{fill:#2e1c66}.cls-10{fill:#b18b67}.cls-11{fill:#e8e8e8}.cls-12{fill:#4735bc}.cls-13{fill:#c49874}.cls-14{fill:#3a1e0c}.cls-15{fill:#eb2151}.cls-16{fill:#dde3e9}.cls-17{fill:#ff2e56}.cls-18{fill:#74787c}.cls-19,.cls-20,.cls-21,.cls-22{stroke:#74787c}.cls-19{stroke-width:34px}.cls-20,.cls-22{stroke-width:15px}.cls-21{stroke-width:18px}.cls-22{stroke-linecap:square}.cls-23{fill:#262626}.cls-24{fill:#303030}.cls-25{fill:#ffc1aa}.cls-26{fill:#fed000}.cls-27{font-size:19.27px}.cls-28{fill:#7448ff}.cls-29,.cls-30{stroke:#2e1c66;stroke-width:3px}.cls-30{stroke-dasharray:4 4}</style></defs><g id="Layer_2" data-name="Layer 2"><g id="Layer_3" data-name="Layer 3"><path d="M1340.71,762.48c15.16-.84,19.37-1.68,19.37-1.68,1.75-2.52.43-5.46.84-13.48a66.53,66.53,0,0,1,1.68-11.79" class="cls-1"/></g><path d="M944.51,1040.75c-191.57-6.31-401.31-133.88-469-340.18S494.84,174.3,723.9,174.3c205.45,0,361.73,161.76,479.11,239.14,150.72,99.36,336.31,29.83,377.23,208C1635,859.71,1312.09,1052.86,944.51,1040.75Z" class="cls-2"/><path d="M1149.74,253.36c-36,61.66,26.3,108.07,72.68,141,58,41.11,213.4,61.76,233.44,14.68C1480.49,351.13,1225.81,123,1149.74,253.36Z" class="cls-2"/><rect width="559.1" height="370.49" x="720.56" y="424.4" class="cls-3" rx="15"/><ellipse cx="1208.76" cy="449.23" class="cls-2" rx="5.3" ry="5.29"/><ellipse cx="1229.6" cy="449.23" class="cls-2" rx="5.3" ry="5.29"/><ellipse cx="1250.45" cy="449.23" class="cls-2" rx="5.3" ry="5.29"/><path d="M1276.14,405.44a23,23,0,0,1,23,23V790.86a23,23,0,0,1-23,23H724.09a23,23,0,0,1-23-23V428.44a23,23,0,0,1,23-23h552.05m0-2H724.09a25,25,0,0,0-25,25V790.86a25,25,0,0,0,25,25h552.05a25,25,0,0,0,25-25V428.44a25,25,0,0,0-25-25Z"/><rect width="143.96" height="97.42" x="1111.76" y="653.18" class="cls-2" rx="12.02"/><polygon points="1166.92 675.81 1166.92 727.67 1211.92 701.74 1166.92 675.81" class="cls-3"/><rect width="230.88" height="17.82" x="1024.91" y="507.29" class="cls-2" rx="6.98"/><rect width="230.88" height="17.82" x="1024.91" y="541.48" class="cls-2" rx="6.98"/><rect width="144.2" height="17.84" x="1111.59" y="575.68" class="cls-2" rx="6.98"/><path d="M1011.07,750.68H755.91a9.44,9.44,0,0,1-9.19-9.67V664.47a9.44,9.44,0,0,1,9.19-9.67h255.16a9.44,9.44,0,0,1,9.19,9.67V741A9.44,9.44,0,0,1,1011.07,750.68Z" class="cls-4"/><path d="M912.69,614.26H757.3c-5.76,0-10.43-4.94-10.43-11V515.92c0-6.1,4.67-11,10.43-11H912.69c5.76,0,10.42,4.93,10.42,11v87.31C923.11,609.32,918.45,614.26,912.69,614.26Z" class="cls-2"/><rect width="66.96" height="66.96" x="982.36" y="344.84" class="cls-5" rx="10"/><text class="cls-6" transform="translate(987.6 390.27)">PDF</text><path d="M1038.92,337.23a18,18,0,0,1,18,18V401.4a18,18,0,0,1-18,18H992.75a18,18,0,0,1-18-18V355.23a18,18,0,0,1,18-18h46.17m0-2H992.75a20,20,0,0,0-20,20V401.4a20,20,0,0,0,20,20h46.17a20,20,0,0,0,20-20V355.23a20,20,0,0,0-20-20Z"/><path d="M1389.48,276.18a21,21,0,0,1,21,21v82.19a21,21,0,0,1-21,21H1307.3a21,21,0,0,1-21-21V297.18a21,21,0,0,1,21-21h82.18m0-2H1307.3a23,23,0,0,0-23,23v82.19a23,23,0,0,0,23,23h82.18a23,23,0,0,0,23-23V297.18a23,23,0,0,0-23-23Z"/><rect width="109.28" height="109.28" x="1293.94" y="283.45" class="cls-5" rx="14"/><rect width="70.15" height="70.15" x="1313.89" y="303.06" class="cls-7" rx="4"/><polygon points="1374.58 355.24 1323.51 355.22 1335.06 321.66 1350.48 338.69 1359.82 330.55 1374.58 355.24" class="cls-3"/><path d="M1117.46,955c44-12.11,53.55-29.81,64.92-41.52L1165,896.29c-3,4.17-6.19,8.56-9.48,13.12C1132.45,941.42,1114.75,955.74,1117.46,955Z" class="cls-8"/><path d="M1137.28,930.67l18.31,16.39c13.05-10,65.08-71.24,87-79.5,16.62-6.26,85.39-36.95,78.73-39.44-12.28-4.61-66.76-10-93.62-6.14C1218.2,823.34,1162.5,895.65,1137.28,930.67Z" class="cls-9"/><path d="M1114.26,948.16l-2.53,9.37,32.32,8.48a14.33,14.33,0,0,1,5.55-5.59c15.53-8.92,25.61-13.82,39.19-24.38a159.09,159.09,0,0,0,18.51-17l-35.58-25c-2.25,3.61-4.68,7.47-7.29,11.62C1155.56,919.63,1136.19,945.85,1114.26,948.16Z" class="cls-10"/><path d="M1075.29,958.11c0,.54,66,24.5,66.49,24.25,2.91-1.51,6.63-5.79,7.38-20.84,0,0-14,8.45-22.81-16.91l-12,3a29.69,29.69,0,0,1-3.53,0C1104.47,947.28,1077,940.22,1075.29,958.11Z" class="cls-11"/><path d="M1136.41,937.85,1161,957.8c30.7-20.72,92.39-77.2,92.39-77.2,8.44-.76,86.92,13.86,131.22-8.44,22-11,22-26.39,18.88-49.41-.29-2.22-14.23,3.42-18.11,3.37-132-1.53-153.47-6.91-161.15,2.3C1214.1,840.53,1166.33,900.25,1136.41,937.85Z" class="cls-12"/><path d="M1307.31,740.65c-9.74-2.65-64-9.13-79.55-11.87-2.91-.51-6.63-1.26-9.82-4.36-4.89-4.78-4.44-7.84-8.33-9.59s-5.22-1.28-13,.93c-5.77,1.64-5.46.93-8.88,1.09-2,.09-7.42,1.88-6.32,4.75.39,1,14.19,6.31,36.46,16.22,16.83,7.48,13.7,7.14,27.35,12.16,29.69,10.94,43.72,16.65,53.68,9.6C1304.93,755.3,1313.07,742.22,1307.31,740.65Z" class="cls-13"/><rect width="143.59" height="97.27" x="1051.6" y="645" class="cls-5" rx="12.02" transform="translate(-152.2 353.05) rotate(-16.74)"/><polygon points="1099.83 673.53 1114.75 723.11 1150.27 685.39 1099.83 673.53" class="cls-3"/><path d="M1331.32,647.73c-4.23-1.08-5.25-9.66-5.37-10.74-.84-7.06,8.39-12.78,11.51-10.74,7.46,4.87,10.84-4,23.46-5.23,1.73-.16,13.8-.46,23.35,8.3,9.32,8.55,12,45.59-8.19,57.38-4.43,2.58-27.6-35.52-32-36.21A88.27,88.27,0,0,1,1331.32,647.73Z" class="cls-14"/><path d="M1354.34,709.17c-10.65-8.68-31,26.43-54.48,26.1-24.21-.35-57.56-6.14-60.63-5.38-8.8,2.21-9.2,13.82-8.44,15.35,2.68,5.36,12.82,11.55,61.39,20,25.33,4.39,39-.46,47.58-4.6s10.23-8.44,12.28-17.65C1353.57,736,1355.48,710.11,1354.34,709.17Z" class="cls-15"/><path d="M1368.32,653.65c-.84,13.81,4.39,3.81,10,3.83,2.76,0,4.35,3.06,4.61,6.14.44,5.25-1.85,13.82-6.9,13.82-1.94,0,.25,8.92,1.68,13.47,2.36,7.5,11.51,10,11,14.31-1,8-23.65,17-34.37,10.09-3.28-2.1-4.6-.76-4.6-6.14,0-4.27-.77-11-.77-11s-9.21-3.83-12.28-8.44c-1.9-2.85-6.08-14.8-6.08-14.8-4.61-2.3-5.24-7-3.37-10.11,2.53-4.21,4.85-4.25,4.85-9.62,0-6.14-.77-5.37-.77-10,0-3.65,1.9-4.51,3.5-4,2.52.84,14.31,1,17.68.84C1374.39,641.23,1369.34,637,1368.32,653.65Z" class="cls-13"/><path d="M1359.71,708.41h-10c-5.37,29.16-11.51,36.83-16.11,49.88-11.47,32.49-19.18,42.2-4.6,49.88,4.27,2.25,9.13,5,13.81,3.83C1368.36,805.71,1359.71,708.41,1359.71,708.41Z" class="cls-16"/><path d="M1388.71,731.32c-4.94-4-10.41-31.2-7.58-33.68,6.74-5.89,17.61-3,32,8.42,12.18,9.67,34.25-.64,34.52,11.79.25,11.92-23.33,34.18-35.37,33.68C1398.1,751,1398,738.9,1388.71,731.32Z" class="cls-15"/><path d="M1415,742.66c3.3-14.3-.55-29.26-10-38.37-8.45-8.16-17.44-9.11-24.56-4.32-3.84,2.58-10.74,8.44-20.72,8.44,0,0-6.14,19.18-13.81,43.74-5.08,16.26-10.54,58.67-9.21,62.15,6,15.63,63.83,21.25,66,11.52C1408.82,798.19,1410.36,762.61,1415,742.66Z" class="cls-17"/><path d="M1372.07,828.79c-6.34.69-29.55-14.45-29.33-18.2.51-8.94,10.2-14.66,28.43-16.92,15.44-1.92,23.55-24.89,32.6-16.37,8.68,8.18,8,40.6-.76,48.83C1392.65,835.84,1384,827.49,1372.07,828.79Z" class="cls-15"/><path d="M1389.26,879.18V895.7c0,1.74-1.7,3.16-3.8,3.16H1205.55c-2.39,0-4.08-5.57-3.73-7.55,2.1-11.8,18-29.52,31.8-29.25,45.4.9,136.27,10.85,153.35,14.21A3,3,0,0,1,1389.26,879.18Z" class="cls-9"/><path d="M1436.42,737.88l-18,134.3a4.72,4.72,0,0,1-5.05,4.07l-5.65-.7a5,5,0,0,1-4.14-5.17c0-16.19-3-25.86,2.17-76,3.35-32.09,8.57-47.43,15.51-61.63a4.5,4.5,0,0,1,5.06-2.59l6.53,1.57A5.22,5.22,0,0,1,1436.42,737.88Z" class="cls-9"/><polygon points="1325.58 905.44 1336.14 956.36 1247.25 956.36 1251.82 905.44 1325.58 905.44" class="cls-18"/><path d="M1373.24,883.28V822.75a2.28,2.28,0,0,0-1.86-2.34l-109-14.93" class="cls-19"/><path d="M1204.17,912.51h197.45a4.12,4.12,0,0,0,3.39-1.85c4-5.84,10.38-12.29-4.6-12.29H1204.35c-7.76,0-6.34,2.93-6.5,6.73C1197.68,909.16,1200.57,912.51,1204.17,912.51Z" class="cls-18"/><path d="M1233.5,950.71h176.11c6,0,9.39,7.68,5.74,13l-25.4,37.09a7,7,0,0,1-5.75,3.18H1210.81c-5.82,0-9.26-7.29-6-12.66l22.69-37.1A7,7,0,0,1,1233.5,950.71Z" class="cls-18"/><path d="M1203.51,905.44h-15.27a2.12,2.12,0,0,0-1.93,1.4l-44.1,88.09a2,2,0,0,1-2.66,1.26L1108.37,985" class="cls-20"/><path d="M1398,905.44l20.64,3.77a2.24,2.24,0,0,0,2.11-2.35l2.53-12.73a2.24,2.24,0,0,0-2.11-2.36l-11.73-2.83a2.3,2.3,0,0,1-2.08-2.78l5.25-27.16" class="cls-20"/><polyline points="1384.07 965.72 1437.44 965.72 1450.09 991.28" class="cls-21"/><line x1="1130.27" x2="1074.35" y1="983.99" y2="963.09" class="cls-22"/><rect width="38.22" height="16.99" x="1084.36" y="956.52" class="cls-18" rx="5" transform="translate(1818.37 2244.8) rotate(-160.36)"/><line x1="1262.51" x2="1227.89" y1="805.81" y2="801.59" class="cls-20"/><rect width="17.16" height="17.16" x="1232.79" y="783.81" class="cls-18" transform="translate(2369.37 1739.23) rotate(-172.54)"/><ellipse cx="1373.02" cy="883.05" class="cls-23" rx="5.27" ry="5.89"/><ellipse cx="1412.65" cy="859" class="cls-23" rx="1.9" ry="2.12"/><ellipse cx="1410.55" cy="870.79" class="cls-23" rx="1.9" ry="2.12"/><path d="M1231.5,1025.23a39.4,39.4,0,1,1,39.4-39.4A39.44,39.44,0,0,1,1231.5,1025.23Z" class="cls-18"/><path d="M1231.5,962.43a23.4,23.4,0,1,1-23.4,23.4,23.43,23.43,0,0,1,23.4-23.4m0-32a55.4,55.4,0,1,0,55.4,55.4,55.4,55.4,0,0,0-55.4-55.4Z" class="cls-24"/><path d="M1456.41,1028.79a19.86,19.86,0,1,1,19.85-19.85A19.88,19.88,0,0,1,1456.41,1028.79Z" class="cls-18"/><path d="M1456.41,1000.58a8.36,8.36,0,1,1-8.36,8.36,8.37,8.37,0,0,1,8.36-8.36m0-23a31.36,31.36,0,1,0,31.35,31.36,31.36,31.36,0,0,0-31.35-31.36Z" class="cls-24"/><path d="M1352.65,806.27c9.51.91,15.49-14.27,14.65-22.94-1-10.65-9.17-17.82-13.18-18.6-27.86-5.45-77.78,5.9-86.35,5.79-8-.11-18,.39-33.88-2.71-3-.59-13,7.25-14.26,8.94-2.09,2.72-4,4.87-2.83,6.48,3.43,4.56,8.33,8,9.69,9,1.92,1.48,14,5.78,16,3.82,1.23-1.2-1.55-5.68-.64-8.72.82-2.72,6.44-.31,7.83,0C1267.7,790.84,1333.08,804.4,1352.65,806.27Z" class="cls-13"/><path d="M1349,762.12c-26.86.77-36.84,1.54-50.65,3.07-9,1-37,3.61-38.37,4.61-5.37,3.83-7.63,19.41-3.83,20,5.37.77,98.06,22.41,132.59,17.36,12.44-1.82,21.86-30.88,16.84-40.42C1401.06,758.17,1368.72,761.56,1349,762.12Z" class="cls-17"/><path d="M1336.61,682.29c.24-.33,3.64-.22,6.18-.72,2.34-.45,4.7-2.12,5.53-1.56s-.26,6.89-4.07,7.84C1340.13,688.88,1336.2,682.84,1336.61,682.29Z" class="cls-3"/><path d="M672.23,1018c-3.65,4.23-5,10.41-3.42,21.3,0,.12,43.13.73,70,.59.52,0,3.41-6.43-.4-9.4-9.61-7.5-17-1.39-41-15.13C687.8,1009.83,675.55,1014.14,672.23,1018Z" class="cls-11"/><path d="M588.29,984.11c-5.9.14-16.71,7.78-21.76,18a4.56,4.56,0,0,0,1.1,5.38c6.69,6,24,22.31,34.47,31.29a6.56,6.56,0,0,0,4.29,1.59h31.68c4.61-14.75-14.49-13.81-19.36-16.6-12.91-7.37-8.72-26.91-14.75-33.18C597.68,984,589,984.1,588.29,984.11Z" class="cls-11"/><path d="M673.38,992.85c-.68,11.22-.68,13.81,0,21.58.91,10.24,20.47,10.47,22,0,1.37-9.49,2.06-11.22,2.06-22.44C697.42,981.21,674,982.13,673.38,992.85Z" class="cls-25"/><path d="M594.65,967.39c-4.32,7.85-5.17,9.72-7.09,15.64-2.54,7.79,15.19,16,20,9.07,4.37-6.31,5.57-7.28,9.25-15.41C620.36,968.88,598.76,959.89,594.65,967.39Z" class="cls-25"/><path d="M710,653.17c2.77,8.3,17.52,32.26,12.91,161.32-3.12,87.27-18.12,162.45-23.65,189.19l-28.9-.93c-2.76-39.63-2.76-78.56-9.22-168-3-41.71-10.81-77.61-7.37-132.74.82-13.14,3.12-35.87,19.36-47C681.13,649.5,706.59,643,710,653.17Z" class="cls-9"/><path d="M625.62,646.26c-24.62,13.21-20.92,56.3-20.28,62.68,4.84,48.15,29,67.76,44.25,93.11.34.56-13.37,30.88-35.49,82.5-17.81,41.56-19.14,64-25.13,87.5-.16.63,27.1,8.47,27.43,7.92C636.22,947.24,674,878.1,708.13,805.28c8.58-18.33-42.87-103.71-42.87-103.71s9.85-7.87,12.91-17.52c2.77-8.74,1.72-19.62-3.69-27.65C664.3,641.27,640.19,638.43,625.62,646.26Z" class="cls-12"/><path d="M682.32,480.78c5.54,2.21,8.66,6.13,11.06,9.22,2.59,3.35,15.08,19.46,7.37,34.11-5.69,10.82-19.83,16-30.42,12.91-19.1-5.51-26.8-37.73-14.75-50.71C661.44,480,673,477.1,682.32,480.78Z" class="cls-17"/><path d="M686.93,434.69c0-10.78-33.25-27-58.08-9.22-6.45,4.61-11.88,9.42-14,27-2.47,20.76,11.17,23.64-1.74,38.39-8.79,10-12.19,8.76-16.55,18.45-5.62,12.52-2.76,24,6.46,39.64,8.2,13.94-12.69,20.82-9.22,32.27,1.95,6.44,7.76,12.74,13.83,12.9,7.82.2,18.84-9.66,21.2-14.75,47-101.4,6.55-113.37,22.12-118,5.24-1.55,9.22-1.84,17.52-6.45S686.93,444.83,686.93,434.69Z" class="cls-17"/><path d="M773.58,616.3c-1.08.93-4.44,3.45-21.2,1.84-21.9-2.1-27.62-3.74-33.19,0-3.51,2.37-4.49,7.72-8.3,25.81-2.09,9.95-.11,8.88-1.84,10.14-13.83,10.14-41,14.27-45.17,13.83-13-1.4-41.21-17.32-41.48-19.36-1.85-13.83-5.53-31.34-6.46-47-16.59-34.11-31.45-58.52-23-68.22,12-13.83,45.17-25.81,68.21-23.05,15.59,1.87,45.18,10.14,57.16,15.67s15.45,26.89,17.51,43.33a107.49,107.49,0,0,1,.93,20.28s28.24,2.06,37.79,9.22C781.82,604.27,781,610,773.58,616.3Z" class="cls-26"/><path d="M617.79,603.39c14.29,23.51,28.84,42.35,36,41.48,18.9-2.3,44.71-10.6,44.71-10.6s-40.62,16.64-50.72,13.27C634.91,643.27,617.79,603.39,617.79,603.39Z" class="cls-5"/><path d="M683.7,432.39c4.92.5,8.3,11.06,8.3,17.51,0,6.25-1.53,4.47.92,9.22,1.85,3.6,5.72,3.54,5.53,6.45-.46,6.92-6.54,4.28-7.38,10.14-1.84,12.91-3.17,19.6-9.21,23.05s-16.6-1.84-16.6-1.84.27,8.22,12,16.59c6.45,4.61-5.53,18.44-17.52,17.51-10.31-.79-17.32-9.11-17.51-17.51-.17-7.58,5.25-12.58,4.61-19.36-1.85-19.36-10.72-17.57-12.91-23-1.84-4.61-.68-13.62,3.69-15.67,4.66-2.18,8.95,7.91,15.67,5.53C684.62,449.9,683.7,432.39,683.7,432.39Z" class="cls-25"/><path d="M715,566.05c1.85,12.91-4.31,17-5.53,30.43-.58,6.44,1,18.54,1.85,22.12,0,0-.89-16.71,2-27.48C718.46,572.6,715,566.05,715,566.05Z" class="cls-5"/><polygon points="817 484.08 806.93 491.26 799.16 480.37 799.44 480.17 817 484.08" class="cls-15"/><polygon points="854.26 535.6 791.68 580.27 746.68 517.83 779.45 494.43 795.65 482.87 805.93 497.26 819.53 487.55 817.08 484.1 854.26 535.6" class="cls-15"/><rect width="50.53" height="23.65" x="753.85" y="507.95" class="cls-15" transform="matrix(0.81, -0.58, 0.58, 0.81, -157, 549.48)"/><text class="cls-27" transform="translate(765.4 537.42) rotate(-35.53)">PDF</text><path d="M753.94,553.17l15.9,69.16a4.3,4.3,0,0,0,5.15,3.23l121.59-27.95a4.29,4.29,0,0,0,3.22-5.15l-18-77.84a3.83,3.83,0,0,0-4.63-2.86l-11.3,2.69a3.79,3.79,0,0,0-1.83,1l-8.44,8.44a3.88,3.88,0,0,1-1.82,1L757.17,548A4.3,4.3,0,0,0,753.94,553.17Z" class="cls-28"/><path d="M695.22,604.31c16.62,0,35.13.34,51.63-4.61,9.22-2.76,16.59-23,24-23,2.66,0-4.6,15.67-4.6,15.67a54.5,54.5,0,0,1,20.28-8.3c6-1.06,15.67,1.84,16.59,4.61,2.15,6.44-11.06,21.2-17.52,24.89-4.31,2.46-19.38-.34-36.87,1.84-14.75,1.85-44.25,18.44-49.78,18.44C696.14,633.81,690.61,604.31,695.22,604.31Z" class="cls-25"/><path d="M674.74,479.9a18.83,18.83,0,0,0,6,3.19c1.07.34,2.19.38,3.24.71a27.08,27.08,0,0,1,3.31,1.13.12.12,0,0,1,.06.14.1.1,0,0,1-.05.06,7,7,0,0,1-3.67.64,9,9,0,0,1-3.48-1.2,14.8,14.8,0,0,1-3.07-1.95A15.56,15.56,0,0,1,674.6,480a.11.11,0,0,1,0-.14A.13.13,0,0,1,674.74,479.9Z" class="cls-17"/><path d="M698.26,633.92a.67.67,0,0,0,.37-1A34.15,34.15,0,0,1,694,618.49c-.61-6.41-.17-10.84.49-12.61a.55.55,0,0,0-.58-.74c-4.5.54-28.54,1.28-33.59.72-3.79-.42-13.48-16.84-23.16-35.78" class="cls-4"/><line x1="1245.15" x2="1034.75" y1="548.2" y2="548.2" class="cls-4"/><line x1="1245.15" x2="1034.75" y1="582.58" y2="582.58" class="cls-4"/><line x1="1245.15" x2="1120.94" y1="616.6" y2="616.6" class="cls-4"/><path d="M634.68,656.81c-.17.65-.32,1.3-.47,1.94" class="cls-29"/><path d="M633.34,662.66c-15.62,74.93,30.54,122.45,40.07,141.5,4.17,8.35-28,25.79-68,167.93" class="cls-30"/><path d="M604.9,974l-.54,1.92" class="cls-29"/><rect width="293.14" height="73.96" x="677.9" y="697.37" class="cls-5" rx="10"/><g id="Symbol_Sheet" data-name="Symbol Sheet"><path d="M744.31,762.76H689.57a3.37,3.37,0,0,1-3.37-3.37v-50a3.37,3.37,0,0,1,3.37-3.37h54.74a3.37,3.37,0,0,1,3.37,3.37v50A3.37,3.37,0,0,1,744.31,762.76Zm-51.5-51.84a1.69,1.69,0,0,0-1.69,1.68v43.55a1.69,1.69,0,0,0,1.69,1.68h48.26a1.68,1.68,0,0,0,1.68-1.68V712.6a1.68,1.68,0,0,0-1.68-1.68Z" class="cls-3"/><path d="M815.88,762.76H761.14a3.37,3.37,0,0,1-3.37-3.37v-50a3.37,3.37,0,0,1,3.37-3.37h54.74a3.37,3.37,0,0,1,3.37,3.37v50A3.37,3.37,0,0,1,815.88,762.76Zm-51.5-51.84a1.69,1.69,0,0,0-1.69,1.68v43.55a1.69,1.69,0,0,0,1.69,1.68h48.26a1.69,1.69,0,0,0,1.69-1.68V712.6a1.69,1.69,0,0,0-1.69-1.68Z" class="cls-3"/><path d="M887.45,762.76H832.71a3.37,3.37,0,0,1-3.37-3.37v-50a3.37,3.37,0,0,1,3.37-3.37h54.74a3.37,3.37,0,0,1,3.37,3.37v50A3.37,3.37,0,0,1,887.45,762.76ZM836,710.92a1.68,1.68,0,0,0-1.68,1.68v43.55a1.68,1.68,0,0,0,1.68,1.68h48.26a1.69,1.69,0,0,0,1.69-1.68V712.6a1.69,1.69,0,0,0-1.69-1.68Z" class="cls-3"/><path d="M959,762.76H904.28a3.37,3.37,0,0,1-3.37-3.37v-50a3.37,3.37,0,0,1,3.37-3.37H959a3.37,3.37,0,0,1,3.37,3.37v50A3.37,3.37,0,0,1,959,762.76Zm-51.5-51.84a1.68,1.68,0,0,0-1.68,1.68v43.55a1.68,1.68,0,0,0,1.68,1.68h48.27a1.68,1.68,0,0,0,1.68-1.68V712.6a1.68,1.68,0,0,0-1.68-1.68Z" class="cls-3"/><path d="M725,749.57a2.44,2.44,0,0,1-1.15-.28l-8-4.19-8,4.19a2.46,2.46,0,0,1-3.57-2.59l1.52-8.87-6.45-6.29a2.46,2.46,0,0,1,1.37-4.19l8.9-1.3,4-8.07a2.46,2.46,0,0,1,2.21-1.37h0a2.45,2.45,0,0,1,2.2,1.37l4,8.07,8.9,1.3a2.46,2.46,0,0,1,1.37,4.19l-6.45,6.29,1.52,8.87a2.47,2.47,0,0,1-1,2.41A2.44,2.44,0,0,1,725,749.57ZM706.43,731.5l3.8,3.7a2.46,2.46,0,0,1,.71,2.18l-.9,5.23,4.7-2.47a2.5,2.5,0,0,1,2.29,0l4.7,2.47-.9-5.23a2.46,2.46,0,0,1,.71-2.18l3.8-3.7-5.25-.76a2.48,2.48,0,0,1-1.86-1.35l-2.34-4.76-2.35,4.76a2.48,2.48,0,0,1-1.86,1.35Z" class="cls-3"/><path d="M851,750.11h-.21a2.47,2.47,0,0,1-1.8-1l-7.23-10.26a2.47,2.47,0,0,1,4-2.84l5.54,7.87,21-21a2.46,2.46,0,0,1,3.48,3.48l-23.09,23.09A2.47,2.47,0,0,1,851,750.11Z" class="cls-3"/><line x1="920.91" x2="943.29" y1="723.98" y2="746.36" class="cls-3"/><path d="M943.29,748.82a2.45,2.45,0,0,1-1.74-.72l-22.38-22.38a2.46,2.46,0,0,1,3.48-3.48L945,744.62a2.46,2.46,0,0,1-1.74,4.2Z" class="cls-3"/><line x1="920.91" x2="943.29" y1="746.36" y2="723.98" class="cls-3"/><path d="M920.91,748.82a2.46,2.46,0,0,1-1.74-4.2l22.38-22.38a2.46,2.46,0,0,1,3.48,3.48L922.65,748.1A2.45,2.45,0,0,1,920.91,748.82Z" class="cls-3"/><path d="M787.9,738.82a2.46,2.46,0,0,1-2.46-2.46V717.7a2.46,2.46,0,0,1,4.92,0v18.66A2.46,2.46,0,0,1,787.9,738.82Z" class="cls-3"/><path d="M788.3,753.19a1.78,1.78,0,0,1-1.55-.9l-7.51-13a1.8,1.8,0,0,1,1.55-2.69h15a1.8,1.8,0,0,1,1.55,2.69l-7.51,13A1.8,1.8,0,0,1,788.3,753.19Zm-4.41-13,4.41,7.63,4.41-7.63Z" class="cls-3"/></g><line x1="350.41" x2="1571.07" y1="1045.23" y2="1045.23" class="cls-4"/></g></svg>